<svg width="30" height="30" viewBox="0 0 30 30" fill="none" xmlns="http://www.w3.org/2000/svg">
<rect width="30" height="30" rx="15" fill="#ECEBFF"/>
<path d="M11.1634 22V20.2869L15.7081 15.8317C16.1428 15.3928 16.505 15.0028 16.7947 14.6619C17.0845 14.321 17.3018 13.9908 17.4467 13.6712C17.5916 13.3516 17.6641 13.0107 17.6641 12.6484C17.6641 12.2351 17.5703 11.8814 17.3828 11.5874C17.1953 11.2891 16.9375 11.0589 16.6094 10.897C16.2812 10.7351 15.9084 10.6541 15.4908 10.6541C15.0604 10.6541 14.6832 10.7436 14.3594 10.9226C14.0355 11.0973 13.7841 11.3466 13.6051 11.6705C13.4304 11.9943 13.343 12.38 13.343 12.8274H11.0866C11.0866 11.9964 11.2763 11.2741 11.6555 10.6605C12.0348 10.0469 12.5568 9.57173 13.2216 9.23509C13.8906 8.89844 14.6577 8.73011 15.5227 8.73011C16.4006 8.73011 17.1719 8.89418 17.8366 9.2223C18.5014 9.55043 19.017 10 19.3835 10.571C19.7543 11.142 19.9396 11.794 19.9396 12.527C19.9396 13.017 19.8459 13.4986 19.6584 13.9716C19.4709 14.4446 19.1406 14.9687 18.6676 15.544C18.1989 16.1193 17.5405 16.8161 16.6925 17.6342L14.4361 19.929V20.0185H20.1378V22H11.1634Z" fill="#5856D6"/>
</svg>
