<svg width="30" height="30" viewBox="0 0 30 30" fill="none" xmlns="http://www.w3.org/2000/svg">
<rect width="30" height="30" rx="15" fill="#ECEBFF"/>
<path d="M15.8615 22.179C14.9411 22.179 14.1229 22.0213 13.407 21.706C12.6953 21.3906 12.1328 20.9517 11.7195 20.3892C11.3061 19.8267 11.0866 19.1768 11.0611 18.4396H13.4645C13.4858 18.7933 13.603 19.1023 13.8161 19.3665C14.0291 19.6264 14.3125 19.8288 14.6662 19.9737C15.0199 20.1186 15.4162 20.1911 15.8551 20.1911C16.3239 20.1911 16.7393 20.1101 17.1016 19.9482C17.4638 19.782 17.7472 19.5518 17.9517 19.2578C18.1563 18.9638 18.2564 18.625 18.2521 18.2415C18.2564 17.8452 18.1541 17.4957 17.9453 17.1932C17.7365 16.8906 17.4339 16.6541 17.0376 16.4837C16.6456 16.3132 16.1726 16.228 15.6186 16.228H14.4616V14.3999H15.6186C16.0746 14.3999 16.473 14.321 16.8139 14.1634C17.1591 14.0057 17.4297 13.7841 17.6257 13.4986C17.8217 13.2088 17.9176 12.8743 17.9134 12.495C17.9176 12.1243 17.8345 11.8026 17.6641 11.5298C17.4979 11.2528 17.2614 11.0376 16.9545 10.8842C16.652 10.7308 16.2962 10.6541 15.8871 10.6541C15.4865 10.6541 15.1158 10.7266 14.7749 10.8714C14.4339 11.0163 14.1591 11.223 13.9503 11.4915C13.7415 11.7557 13.6307 12.071 13.6179 12.4375H11.3359C11.353 11.7045 11.5639 11.0611 11.9688 10.5071C12.3778 9.94886 12.9233 9.5142 13.6051 9.20312C14.2869 8.88778 15.0518 8.73011 15.8999 8.73011C16.7734 8.73011 17.532 8.89418 18.1754 9.2223C18.8232 9.54616 19.3239 9.98295 19.6776 10.5327C20.0313 11.0824 20.2081 11.6896 20.2081 12.3544C20.2124 13.0916 19.995 13.7095 19.5561 14.2081C19.1214 14.7067 18.5504 15.0327 17.843 15.1861V15.2884C18.7635 15.4162 19.4688 15.7571 19.9588 16.3111C20.4531 16.8608 20.6982 17.5447 20.6939 18.3629C20.6939 19.0959 20.4851 19.7521 20.0675 20.3317C19.6541 20.907 19.0831 21.3587 18.3544 21.6868C17.63 22.0149 16.799 22.179 15.8615 22.179Z" fill="#5856D6"/>
</svg>
