<svg width="48" height="48" viewBox="0 0 48 48" fill="none" xmlns="http://www.w3.org/2000/svg">
<path d="M12 40C11.4333 40 10.9587 39.808 10.576 39.424C10.1933 39.04 10.0013 38.5653 10 38V26H8.00001C7.43334 26 6.95867 25.808 6.57601 25.424C6.19334 25.04 6.00134 24.5653 6.00001 24C5.99867 23.4347 6.19067 22.96 6.57601 22.576C6.96134 22.192 7.43601 22 8.00001 22H16C16.5667 22 17.042 22.192 17.426 22.576C17.81 22.96 18.0013 23.4347 18 24C17.9987 24.5653 17.8067 25.0407 17.424 25.426C17.0413 25.8113 16.5667 26.0027 16 26H14V38C14 38.5667 13.808 39.042 13.424 39.426C13.04 39.81 12.5653 40.0013 12 40ZM12 18C11.4333 18 10.9587 17.808 10.576 17.424C10.1933 17.04 10.0013 16.5653 10 16V10C10 9.43334 10.192 8.95867 10.576 8.57601C10.96 8.19334 11.4347 8.00134 12 8.00001C12.5653 7.99867 13.0407 8.19067 13.426 8.57601C13.8113 8.96134 14.0027 9.43601 14 10V16C14 16.5667 13.808 17.042 13.424 17.426C13.04 17.81 12.5653 18.0013 12 18ZM20 18C19.4333 18 18.9587 17.808 18.576 17.424C18.1933 17.04 18.0013 16.5653 18 16C17.9987 15.4347 18.1907 14.96 18.576 14.576C18.9613 14.192 19.436 14 20 14H22V10C22 9.43334 22.192 8.95867 22.576 8.57601C22.96 8.19334 23.4347 8.00134 24 8.00001C24.5653 7.99867 25.0407 8.19067 25.426 8.57601C25.8113 8.96134 26.0027 9.43601 26 10V14H28C28.5667 14 29.042 14.192 29.426 14.576C29.81 14.96 30.0013 15.4347 30 16C29.9987 16.5653 29.8067 17.0407 29.424 17.426C29.0413 17.8113 28.5667 18.0027 28 18H20ZM24 40C23.4333 40 22.9587 39.808 22.576 39.424C22.1933 39.04 22.0013 38.5653 22 38V24C22 23.4333 22.192 22.9587 22.576 22.576C22.96 22.1933 23.4347 22.0013 24 22C24.5653 21.9987 25.0407 22.1907 25.426 22.576C25.8113 22.9613 26.0027 23.436 26 24V38C26 38.5667 25.808 39.042 25.424 39.426C25.04 39.81 24.5653 40.0013 24 40ZM36 40C35.4333 40 34.9587 39.808 34.576 39.424C34.1933 39.04 34.0013 38.5653 34 38V34H32C31.4333 34 30.9587 33.808 30.576 33.424C30.1933 33.04 30.0013 32.5653 30 32C29.9987 31.4347 30.1907 30.96 30.576 30.576C30.9613 30.192 31.436 30 32 30H40C40.5667 30 41.042 30.192 41.426 30.576C41.81 30.96 42.0013 31.4347 42 32C41.9987 32.5653 41.8067 33.0407 41.424 33.426C41.0413 33.8113 40.5667 34.0027 40 34H38V38C38 38.5667 37.808 39.042 37.424 39.426C37.04 39.81 36.5653 40.0013 36 40ZM36 26C35.4333 26 34.9587 25.808 34.576 25.424C34.1933 25.04 34.0013 24.5653 34 24V10C34 9.43334 34.192 8.95867 34.576 8.57601C34.96 8.19334 35.4347 8.00134 36 8.00001C36.5653 7.99867 37.0407 8.19067 37.426 8.57601C37.8113 8.96134 38.0027 9.43601 38 10V24C38 24.5667 37.808 25.042 37.424 25.426C37.04 25.81 36.5653 26.0013 36 26Z" fill="#00BFA6"/>
</svg>
