<svg width="48" height="48" viewBox="0 0 48 48" fill="none" xmlns="http://www.w3.org/2000/svg">
<rect width="48" height="48" rx="24" fill="#ECEBFF"/>
<path d="M31 23V22C31 18.229 31 16.343 29.828 15.172C28.656 14.001 26.771 14 23 14C19.229 14 17.343 14 16.172 15.172C15.001 16.344 15 18.229 15 22V26C15 29.771 15 31.657 16.172 32.828C17.344 33.999 19.229 34 23 34" stroke="#5856D6" stroke-width="2.5" stroke-linecap="round" stroke-linejoin="round"/>
<path d="M33 34L31.286 32.286M31.857 29.429C31.8648 29.8842 31.7818 30.3364 31.613 30.7591C31.4442 31.1819 31.1929 31.5668 30.8738 31.8915C30.5547 32.2161 30.1741 32.4739 29.7542 32.6499C29.3344 32.8259 28.8837 32.9166 28.4285 32.9166C27.9733 32.9166 27.5226 32.8259 27.1028 32.6499C26.6829 32.4739 26.3024 32.2161 25.9832 31.8915C25.6641 31.5668 25.4128 31.1819 25.244 30.7591C25.0752 30.3364 24.9922 29.8842 25 29.429C25.0154 28.5299 25.3833 27.6727 26.0246 27.0423C26.6659 26.4119 27.5292 26.0586 28.4285 26.0586C29.3278 26.0586 30.1911 26.4119 30.8324 27.0423C31.4737 27.6727 31.8417 28.5299 31.857 29.429Z" stroke="#5856D6" stroke-width="2.5" stroke-linecap="round"/>
<path d="M19 19H27M19 23H23" stroke="#5856D6" stroke-width="2.5" stroke-linecap="round" stroke-linejoin="round"/>
</svg>
