<svg width="48" height="48" viewBox="0 0 48 48" fill="none" xmlns="http://www.w3.org/2000/svg">
<path d="M28.4699 38C30.1999 38 31.1139 40.048 29.9599 41.336C29.2096 42.1741 28.291 42.8446 27.264 43.3036C26.237 43.7626 25.1248 43.9999 23.9999 44C22.875 43.9999 21.7628 43.7626 20.7358 43.3036C19.7088 42.8446 18.7902 42.1741 18.0399 41.336C16.9359 40.104 17.7239 38.178 19.3079 38.014L19.5279 38.002L28.4699 38ZM23.9999 4C26.7159 4 29.0119 5.806 29.7499 8.282L29.8419 8.624L29.8579 8.71C32.063 9.95342 33.942 11.7017 35.3409 13.8116C36.7399 15.9215 37.6189 18.3328 37.9059 20.848L37.9619 21.422L37.9999 22V27.862L38.0419 28.134C38.3157 29.6076 39.1312 30.9254 40.3279 31.828L40.6619 32.062L40.9859 32.26C42.7059 33.234 42.1059 35.792 40.2319 35.988L39.9999 36H7.99989C5.94389 36 5.22589 33.272 7.01389 32.26C7.77595 31.8287 8.43439 31.2359 8.94297 30.5231C9.45156 29.8104 9.79797 28.9949 9.95789 28.134L9.99989 27.848L10.0019 21.908C10.1238 19.2958 10.8842 16.7532 12.2165 14.5029C13.5487 12.2526 15.4122 10.3632 17.6439 9L18.1399 8.708L18.1599 8.622C18.442 7.42566 19.0848 6.34483 20.0012 5.52569C20.9176 4.70656 22.0635 4.18864 23.2839 4.042L23.6479 4.008L23.9999 4Z" fill="#FF7A00"/>
</svg>
