<svg width="48" height="48" viewBox="0 0 48 48" fill="none" xmlns="http://www.w3.org/2000/svg">
<rect width="48" height="48" rx="24" fill="#ECEBFF"/>
<path fill-rule="evenodd" clip-rule="evenodd" d="M15 24C15 23.2044 15.3161 22.4413 15.8787 21.8787C16.4413 21.3161 17.2044 21 18 21H30C30.7956 21 31.5587 21.3161 32.1213 21.8787C32.6839 22.4413 33 23.2044 33 24V31C33 31.7956 32.6839 32.5587 32.1213 33.1213C31.5587 33.6839 30.7956 34 30 34H18C17.2044 34 16.4413 33.6839 15.8787 33.1213C15.3161 32.5587 15 31.7956 15 31V24ZM25 26C25 25.7348 24.8946 25.4804 24.7071 25.2929C24.5196 25.1054 24.2652 25 24 25C23.7348 25 23.4804 25.1054 23.2929 25.2929C23.1054 25.4804 23 25.7348 23 26V29C23 29.2652 23.1054 29.5196 23.2929 29.7071C23.4804 29.8946 23.7348 30 24 30C24.2652 30 24.5196 29.8946 24.7071 29.7071C24.8946 29.5196 25 29.2652 25 29V26Z" fill="#5856D6"/>
<path d="M20 22V19C20 17.9391 20.4214 16.9217 21.1716 16.1716C21.9217 15.4214 22.9391 15 24 15C25.0609 15 26.0783 15.4214 26.8284 16.1716C27.5786 16.9217 28 17.9391 28 19V22" stroke="#5856D6" stroke-width="2" stroke-linecap="round" stroke-linejoin="round"/>
</svg>
