<svg width="1440" height="960" viewBox="0 0 1440 960" fill="none" xmlns="http://www.w3.org/2000/svg">
<g clip-path="url(#clip0_143_1972)">
<path d="M1440 0H0V960H1440V0Z" fill="#7750A1"/>
<path style="mix-blend-mode:color-burn" d="M1320.3 796.167C1377.35 796.167 1423.6 651.376 1423.6 472.767C1423.6 294.158 1377.35 149.367 1320.3 149.367C1263.25 149.367 1217 294.158 1217 472.767C1217 651.376 1263.25 796.167 1320.3 796.167Z" fill="url(#paint0_radial_143_1972)"/>
<path style="mix-blend-mode:color-burn" d="M1259.83 839C1341.94 839 1408.5 761.038 1408.5 664.867C1408.5 568.696 1341.94 490.733 1259.83 490.733C1177.73 490.733 1111.17 568.696 1111.17 664.867C1111.17 761.038 1177.73 839 1259.83 839Z" fill="url(#paint1_radial_143_1972)"/>
<path style="mix-blend-mode:color-burn" d="M1247.87 390.8C1307.02 390.8 1354.97 338.507 1354.97 274C1354.97 209.493 1307.02 157.2 1247.87 157.2C1188.72 157.2 1140.77 209.493 1140.77 274C1140.77 338.507 1188.72 390.8 1247.87 390.8Z" fill="url(#paint2_radial_143_1972)"/>
<path d="M0 609.367C0 609.767 0.666667 616.033 0.666667 617.1C0.666667 616.733 0.0666667 610.433 1.23333 612.067C2.8 611 11.2333 609.2 12.6667 611.5C16.9667 612.367 21.2333 616.267 25.5333 611.5C32.7 615.467 41.4333 609.333 48.1667 610.667C51.5 611.567 55.3333 609.233 58.9333 609.133C62.0333 610.433 63.6667 606.133 67.1 611.567C69.5 614.9 72.0333 612.033 74.4667 611.567C79.6667 610.3 84.8667 613.233 90.0667 611.567C92.0733 612.795 94.3804 613.446 96.7333 613.446C99.0862 613.446 101.393 612.795 103.4 611.567C107.867 615.9 112.3 611.2 116.5 613.133C121.467 609.633 126.233 619.567 131.033 615C135.833 614.633 140.667 616.3 145.7 613.133C149.033 610.233 152.633 610.8 156.033 610.533C157.9 607.7 159.367 612.667 161.267 611.433C164.6 609.367 167.133 611.1 169.867 613.367C173.2 615.833 176.533 612.733 179.867 619.5C182.267 617.133 185.3 624.767 188.367 623.933C190.633 618.567 192.933 622.533 195.233 624.533C198.867 622.967 202.333 628.467 206.067 627.2C209.167 623.867 212.367 621.367 215.5 627.4C221.033 631.267 227.567 625.067 232.167 628.967C235.1 630.133 238.067 634.733 241.6 634C243.633 638.567 245.9 636.7 247.967 634C252.4 633.367 256.967 631.767 261.5 633.767C263.661 632.997 265.954 632.669 268.244 632.8C270.534 632.932 272.775 633.521 274.833 634.533C279.6 635.967 284.833 637.867 289.833 636.5C294.967 637.9 299.833 634.033 304.567 634.567C309.567 627.9 314 636.467 319.467 632.9C324.933 629.333 330.467 637.533 336.133 632.9C343.117 631.268 350.383 631.268 357.367 632.9C360.1 635.4 361.033 632.433 363.367 630.667C365.633 634 366.9 628.7 369.4 629.367C374.367 632.933 378.7 621.733 383.033 625.667C387.4 633.5 391.767 619.433 396.833 622.7C403.133 621.233 409.433 619.833 415.733 625.233C422 626.267 428.3 629.4 434.633 625.467C440.633 624.633 447.133 621.5 452.867 621.633C458.633 616.5 465.1 622.933 471.3 620.5C481.5 620.5 491.667 623.333 501.867 620.5C511.867 619.567 522.233 617.367 532.4 620.5C536.8 618.467 541.467 617.367 545.2 622.833C550.167 626.667 555.733 625.2 561.7 627.267C566.9 623.4 572.133 625.333 577.367 627.267C583.3 620.067 587.8 627.767 592.633 632C595.333 636.267 597.267 625.667 600.667 635.333C603.467 636.767 606.3 635.567 609.1 635.333C616.533 637.1 624 634.1 631.433 635.333C637.767 632.167 642.7 632.267 648.9 638.233C654.9 642.2 661.233 639.067 667.033 642.067C669.767 640.7 672.2 644.467 675.133 644.333C681.067 634.767 684.667 645.767 690.2 650C696.233 654.5 699.567 645.533 705.333 648.967C708.467 652.8 712 649.333 715.333 648.767C718.433 644.1 722.4 646.633 725.5 648.967C729.033 649.4 734.1 656.8 736.967 654.633C740.3 658.533 741.3 656.2 745.833 657.767C748.567 654.1 750.733 660.767 753.367 656.633C757.8 653.3 762.9 650.767 767.5 653.3C775.533 660.5 784.4 649.967 792.533 653.3C792.533 649.433 812.033 651.667 812.033 653.3C819.207 655.951 827.093 655.951 834.267 653.3C840.667 647 845.067 649.133 851.267 651C855.965 651.499 860.689 650.318 864.6 647.667C867.5 649.533 870.233 642.5 873.233 643.567C878.733 637.7 885.133 648.867 890.433 645.867C896.367 648.067 902.267 649.467 908.233 645.433C910.833 643.685 913.802 642.565 916.909 642.16C920.015 641.755 923.173 642.077 926.133 643.1C930.933 641.867 933.6 643.367 938.067 645.7C943.567 647.8 949.167 643.967 954.733 649.033C959.8 647.1 963.4 642.367 968.633 650.833C971.167 643.6 972.733 652.567 974.7 652.2C978.223 653.415 981.497 655.256 984.367 657.633C989.167 658.167 993.9 655.067 998.6 656.367C1003.33 652.833 1008.03 653.633 1012.8 654.2C1020.93 648.533 1028.93 647.933 1037.13 655.333C1041.07 653.367 1044.97 650.833 1048.87 655.333C1053.17 647.633 1058.1 649.9 1061.67 658.4C1063.2 660.833 1065.37 664.3 1066.7 661.1C1067.9 659.8 1068.7 664.667 1070.23 663.8C1074.8 663.8 1082.2 666.7 1087.27 665.333C1088.53 661.6 1090.77 667.8 1091.9 664.233C1093.03 657.8 1093.63 662.2 1094.67 662.233C1095.87 659.633 1097.17 660.967 1098.4 660.867C1099.77 655.5 1100.6 666.3 1102.2 658.733C1103.83 661.7 1105.97 657.833 1107.63 658.733C1112 655.4 1116.4 657.167 1120.77 658.733C1124.7 655.4 1126.87 660.567 1130.3 657.133C1132.57 651.567 1135.43 656.333 1137.93 655.9C1144 659.233 1150.43 647.3 1156.5 654.133C1158.63 647.467 1162.27 650.067 1164.23 651.467C1166 654.967 1166.1 649.467 1167.1 648.133C1168.34 645.51 1170.32 643.308 1172.8 641.8C1176.13 638.933 1184.5 643.167 1188.37 640.733C1192.17 640.733 1195.97 639.333 1199.73 640.733C1200.9 643.667 1202.77 641.733 1203.83 640.733C1204.43 642.467 1204.23 643.867 1204.73 639.7C1208.23 637.2 1210.63 634.967 1214.47 636.933C1217.8 632.767 1224.47 639.267 1227 633.6C1229.23 630.833 1228.17 635.433 1232.03 629.633C1234.63 628.3 1237.43 626.3 1240.03 629.633C1242.23 631.2 1244.43 633.367 1246.7 629.633V282.967C1244.77 281.633 1242.63 286.3 1241.5 282.533C1238.91 281.502 1236.02 281.502 1233.43 282.533C1232.4 283.167 1229.27 280.267 1228.17 282.533C1226.77 284.167 1227.17 287.667 1225.77 285.567C1224.6 285.567 1221.77 288.467 1220.43 285.967C1214.9 287.533 1209.27 289.867 1203.47 286.867C1199 288.167 1195.4 277.533 1191.1 284.533C1186.43 283.767 1181.63 285.033 1176.93 284.533C1173.43 282.267 1169.9 284.533 1166.4 284.533C1160.77 285.733 1158.5 286.833 1153.87 281.733C1150.53 279.867 1146.63 280.8 1143 275.8C1137.6 272.467 1131.07 273.433 1125.3 274.467C1116.67 274.2 1109.27 281.367 1100.43 278.933C1096.13 276.167 1094.43 283.633 1091.27 282.533C1088.4 287.167 1085.73 282.533 1081.8 287.933C1078.8 282.333 1070.4 283.3 1062.67 287.433C1054.93 287.8 1047.87 288.167 1047.53 289.9C1045.01 291.639 1042.17 292.864 1039.17 293.504C1036.17 294.145 1033.08 294.189 1030.07 293.633C1024.27 297.7 1018.7 294.833 1013.77 299.933C1009.7 310.267 1006.37 304.033 1001.57 302.433C996.9 303.6 992 299.1 987.167 302.167C982.656 303.494 977.968 304.124 973.267 304.033C968.537 304.365 963.786 303.857 959.233 302.533C954.833 294.233 949.733 298.767 945.067 301.267C942.3 302.767 938.9 306.4 936.467 303.133C934.4 304.067 933.567 307.667 931.133 304.733C926.7 304.733 922.033 306.967 917.633 304.733C913.4 297.767 909.633 303.4 905.5 302.2C901.3 304.033 897.333 307.433 893.167 299.233C885.933 299.233 878.4 297.733 871.3 297.733C864.2 297.733 858.2 290 851.333 294C846.716 293.379 842.048 293.222 837.4 293.533C831.833 291.8 826.4 293.533 820.733 290.2C816.267 284.2 812.1 290.933 807.633 286.867C802.267 280.467 796.433 289.233 791.267 289.167C787.067 292.5 783.833 291.433 779.333 290.267C773.2 298.533 766.567 292.7 760.533 290.5C757.4 288.033 754.5 292.3 751.367 292.567C749.033 292.1 746.467 294.367 744.133 292.567C738.767 290.333 733.4 299.533 728.067 292.567C722.733 289.233 717.4 293.067 712.1 293.867C711.333 292.733 712.7 293.867 712.1 299.133C708.233 299.933 701.167 301.467 697 299.133C691.633 293 688.167 300.3 683.667 302.467C677 301.267 668.367 308.567 660.7 309.133C656.1 312.133 650.167 306.967 645.467 309.133C639.7 304.833 634 307.433 628.467 310.067C626.167 312.267 624.233 308.2 621.8 312.233C617.667 306.9 613.6 315.567 609.433 314.733C604.567 320.4 599.867 312.833 594.933 317.033C590.767 314.5 589.733 323.967 587.4 323.033C585.833 326.833 584.733 323.7 582.1 327.133C579.967 320.933 576.767 332.6 574.5 327.133C568.142 324.817 561.241 324.434 554.667 326.033C549 321.967 543.967 327.967 538.433 329.133C536.167 322.967 534.367 325.8 532.2 330.5C528.292 330.884 524.408 331.485 520.567 332.3C517.7 336.633 515.933 332.3 512.667 334.033C507 338.267 502.667 328.767 497.167 338.767C491.067 344.8 483.233 343.333 476.9 339.367C470.233 339.867 463.867 340.967 457.467 338.5C451.1 339.767 444.767 347.9 438.3 340.9C433.467 335.567 428 342.333 423 341.633C415.6 342.133 409 332.667 401.567 338.3C396.042 336.733 390.191 336.733 384.667 338.3C379.114 339.55 373.353 339.55 367.8 338.3C362.7 336.567 357.6 338.9 352.5 338.3C347.4 336.067 342.3 338.5 337.2 338.3C336.046 337.93 334.822 337.833 333.624 338.018C332.426 338.203 331.288 338.665 330.3 339.367C326.967 342.1 322.567 336.9 319.133 339.367C312.467 340 303.133 335.6 297 340.733C294.761 342.644 292.098 343.992 289.233 344.667C285.233 346.733 280.967 348.833 277.033 347.233C270.767 348.933 266.133 345.533 260.367 344.9C255.7 345.233 250.733 342.667 245.8 344.567C240.867 343.267 236 342.2 231.5 346.367C225.7 346.667 219.633 345.8 213.7 350.333C211.9 350.333 209.867 347 208.2 350.6C207.528 350.882 206.891 351.24 206.3 351.667C204.3 350.567 202.967 356.467 200.733 352.867C195.6 353.7 190 351.433 184.833 352.867C182.4 352.867 180.2 353.7 177.767 351.633C174.833 355.2 171.7 354.367 168.8 351.633C165.233 356.267 161.9 355.767 158.367 352.6C154.433 359.8 151 355.567 147.2 354.767C141.879 353.463 136.479 352.505 131.033 351.9C124.167 353.5 116.933 350.367 109.967 350.5C106.47 352.004 102.698 352.76 98.892 352.72C95.0861 352.68 91.3306 351.844 87.8667 350.267C79.6333 349.033 72.6 350.567 64.1333 348.2C59.8333 342.867 56.2333 345.567 51.9667 350.6C48.9 351.433 45.6333 347.6 42.5 350.6C35.3 352.633 27.7 347.033 20.8 351.7C14.2887 354.529 7.17035 355.676 0.1 355.033C0.1 351.333 0.1 358.367 0.1 355.033V609.333L0 609.367Z" fill="white"/>
<path d="M0 615.333C0 615.733 0.666667 622.233 0.666667 623.367C0.666667 623.033 0.0666667 616.4 1.23333 618.167C2.8 617.033 11.2333 615.167 12.6667 617.533C16.9667 618.467 21.2333 622.533 25.5333 617.533C32.7 621.7 41.4333 615.3 48.1667 616.7C51.5 617.633 55.3333 615.2 58.9333 615.1C62.0333 616.433 63.6667 611.967 67.1 617.633C69.5 620.967 72.0333 618.1 74.4667 617.633C79.6667 616.333 84.8667 619.4 90.0667 617.633C94.5 620.7 99 619.7 103.4 617.633C107.867 622.167 112.3 617.267 116.5 619.267C121.467 615.633 126.233 625.933 131.033 621.233C135.833 620.867 140.667 622.6 145.7 619.267C149.033 616.267 152.633 616.867 156.033 616.6C157.9 613.6 159.367 618.8 161.267 617.533C164.6 615.367 167.133 617.167 169.867 619.533C173.2 622.1 176.533 618.867 179.867 625.933C182.267 623.467 185.3 631.4 188.367 630.533C190.633 624.933 192.933 629.1 195.233 631.167C198.867 629.533 202.333 635.267 206.067 633.967C209.167 630.467 212.367 627.867 215.5 634.167C221.033 638.167 227.567 631.733 232.167 635.8C235.1 637 238.067 641.8 241.6 641.033C243.633 645.8 245.9 643.833 247.967 641.033C252.4 640.367 256.967 638.7 261.5 640.767C263.655 639.961 265.955 639.616 268.251 639.754C270.548 639.892 272.79 640.509 274.833 641.567C279.6 643.067 284.833 645.2 289.833 643.633C294.967 645.1 299.833 641.033 304.567 641.6C309.567 634.733 314 643.567 319.467 639.867C324.933 636.167 330.467 644.667 336.133 639.867C343.107 638.149 350.393 638.149 357.367 639.867C360.1 642.467 361.033 639.4 363.367 637.567C365.633 640.9 366.9 635.5 369.4 636.167C374.367 639.9 378.7 628.2 383.033 632.333C387.4 640.5 391.767 625.667 396.833 629.233C403.133 627.7 409.433 626.233 415.733 631.867C422 632.967 428.3 636.233 434.633 632.1C440.633 631.267 447.133 628 452.867 628.1C458.633 622.767 465.1 629.5 471.3 626.933C481.5 626.933 491.667 629.867 501.867 626.933C511.867 626 522.233 623.6 532.4 626.933C536.8 624.767 541.467 623.6 545.2 629.367C550.167 633.333 555.733 631.833 561.7 633.933C566.9 629.9 572.133 631.933 577.367 633.933C583.3 626.433 587.8 634.467 592.633 638.9C595.333 643.333 597.267 632.233 600.667 642.233C603.467 643.733 606.3 642.467 609.1 642.233C616.533 644.067 624 640.933 631.433 642.233C637.767 638.9 642.7 638.9 648.9 645.233C654.9 649.4 661.233 646.1 667.033 649.267C669.767 647.833 672.2 651.733 675.133 651.633C681.067 641.633 684.667 653.1 690.2 657.533C696.233 662.233 699.6 652.867 705.333 656.433C708.467 660.433 712 656.833 715.333 656.233C718.433 651.367 722.4 654 725.5 656.433C729.033 656.9 734.1 664.6 736.967 662.367C740.3 666.4 741.3 664 745.833 665.7C748.567 661.833 750.733 668.8 753.367 664.5C757.8 660.867 762.9 658.4 767.5 660.933C775.533 668.4 784.4 657.3 792.533 660.933C792.533 656.9 812.033 659.267 812.033 660.933C819.183 663.718 827.117 663.718 834.267 660.933C840.667 654.267 845.067 656.633 851.267 658.567C855.969 659.114 860.709 657.929 864.6 655.233C867.5 657.167 870.233 649.833 873.233 650.933C878.733 644.8 885.133 656.467 890.433 653.333C896.367 655.633 902.267 657.1 908.233 652.867C910.803 651.056 913.773 649.892 916.889 649.474C920.006 649.056 923.177 649.397 926.133 650.467C930.933 649.167 933.6 650.733 938.067 653.167C943.567 655.333 949.167 651.367 954.733 656.767C959.8 654.767 963.4 650.1 968.633 658.633C971.167 651.133 972.733 660.467 974.7 660.1C978.238 661.373 981.514 663.282 984.367 665.733C989.167 666.3 993.9 663.1 998.6 664.433C1003.33 660.733 1008.03 661.6 1012.8 662.167C1020.93 656.267 1028.93 655.5 1037.13 663.333C1041.07 661.3 1044.97 658.633 1048.87 663.333C1053.17 655.267 1058.1 657.667 1061.67 666.667C1063.2 669.233 1065.37 672.833 1066.7 669.5C1067.9 668.133 1068.7 673.2 1070.23 672.3C1074.8 672.467 1082.2 675.333 1087.27 673.9C1088.53 670 1090.77 676.467 1091.9 672.733C1093.03 666.067 1093.63 670.667 1094.67 670.667C1095.87 667.967 1097.17 669.367 1098.4 669.233C1099.77 663.667 1100.6 674.9 1102.2 667.033C1103.83 670.1 1105.97 666.1 1107.63 667.033C1112 663.7 1116.4 665.433 1120.77 667.033C1124.7 663.5 1126.87 668.933 1130.3 665.367C1132.57 659.533 1135.43 664.533 1137.93 664.067C1144 667.4 1150.43 655.1 1156.5 662.233C1158.63 655.167 1162.27 658 1164.23 659.467C1166 663.1 1166.1 657.367 1167.1 656.133C1168.3 653.398 1170.28 651.079 1172.8 649.467C1176.13 646.5 1184.5 650.933 1188.37 648.367C1192.17 648.367 1195.97 646.9 1199.73 648.367C1200.9 651.433 1202.77 649.4 1203.83 648.367C1204.43 650.167 1204.23 651.7 1204.73 647.3C1208.23 644.667 1210.63 642.333 1214.47 644.4C1217.8 640.067 1224.47 646.833 1227 641.067C1229.23 638.167 1228.17 642.967 1232.03 636.933C1234.63 635.533 1237.43 633.3 1240.03 636.933C1242.23 638.567 1244.43 640.8 1246.7 636.933V274.733C1244.77 273.333 1242.63 278.333 1241.5 274.267C1238.91 273.218 1236.02 273.218 1233.43 274.267C1232.4 274.933 1229.27 271.9 1228.17 274.267C1226.77 276 1227.17 279.633 1225.77 277.6C1224.6 277.6 1221.77 280.667 1220.43 278.033C1214.9 279.667 1209.27 282.1 1203.47 278.967C1199 280.3 1195.4 269.233 1191.1 276.533C1186.43 275.733 1181.63 277.067 1176.93 276.533C1173.43 274.167 1169.9 276.533 1166.4 276.533C1160.77 277.767 1158.5 278.933 1153.87 273.633C1150.53 271.667 1146.63 272.667 1143 267.433C1137.6 264.1 1131.07 264.967 1125.3 266.033C1116.67 265.8 1109.27 273.233 1100.43 270.7C1096.13 267.833 1094.43 275.6 1091.27 274.467C1088.4 279.267 1085.73 274.467 1081.8 280.1C1078.8 274.233 1070.4 275.233 1062.67 279.567C1054.93 279.967 1047.87 280.333 1047.53 282.133C1045.05 283.949 1042.21 285.23 1039.2 285.895C1036.2 286.56 1033.09 286.596 1030.07 286C1024.27 290.267 1018.7 287.267 1013.77 292.667C1009.7 303.433 1006.37 296.933 1001.57 295.267C996.9 296.5 992 291.667 987.167 295C982.666 296.38 977.973 297.033 973.267 296.933C968.532 297.292 963.772 296.76 959.233 295.367C954.833 286.733 949.733 291.467 945.067 294.067C942.3 295.633 938.9 299.4 936.467 296C934.4 296.967 933.567 300.733 931.133 297.667C926.7 297.467 922.033 300 917.633 297.667C913.4 290.4 909.633 296.3 905.5 295.033C901.3 296.933 897.333 300.467 893.167 291.933C885.933 291.933 878.4 290.367 871.3 290.367C864.2 290.367 857.733 282.133 850.867 286.5C846.255 285.818 841.582 285.65 836.933 286C831.367 284.2 825.933 286 820.267 282.467C815.8 276.233 811.633 283.233 807.167 278.9C801.8 272.233 795.967 281.4 790.8 281.3C786.6 284.633 783.367 283.633 778.867 282.433C772.733 291.067 766.1 284.967 760.067 282.667C756.933 280.1 754.033 284.567 750.9 284.833C748.567 284.367 746 286.7 743.667 284.833C738.3 282.5 732.933 292.1 727.6 284.833C722.267 281.5 716.933 285.333 711.633 286.167C710.867 284.967 712.233 286.167 711.633 291.667C707.767 292.5 700.7 294.067 696.533 291.667C691.167 285.267 687.7 292.867 683.2 295C676.533 293.733 667.9 301.333 660.233 302.067C655.633 305.4 649.7 299.867 645 302.067C639.233 297.6 633.533 300.267 628 303.033C625.7 305.333 623.767 301.1 621.333 305.3C617.2 299.7 613.133 308.933 608.967 307.9C604.1 313.833 599.4 305.9 594.467 310.3C590.3 307.667 589.267 317.533 586.933 316.567C585.367 320.533 584.267 317.233 581.633 320.833C579.5 314.367 576.3 326.533 574.033 320.833C567.7 318.412 560.773 318.005 554.2 319.667C548.533 315.433 543.5 321.667 537.967 323C535.7 316.6 533.9 319.667 531.733 324.433C527.824 324.839 523.94 325.462 520.1 326.3C517.233 330.833 515.467 326.3 512.2 328.1C506.533 332.533 502.2 322.6 496.7 333.033C490.6 339.333 482.767 337.833 476.433 333.667C469.767 334.2 463.4 335.367 457 332.767C450.633 334.1 444.3 342.567 437.833 335.267C433 329.7 427.533 336.767 422.533 336.067C415.133 336.567 408.533 326.7 401.1 332.733C395.585 331.101 389.715 331.101 384.2 332.733C378.654 334.044 372.879 334.044 367.333 332.733C362.233 330.933 357.133 333.367 352.033 332.733C346.933 330.4 341.833 332.967 336.733 332.733C335.579 332.351 334.35 332.252 333.149 332.443C331.949 332.635 330.812 333.111 329.833 333.833C326.5 336.7 322.1 331.267 318.667 333.833C312 334.5 302.667 329.9 296.533 335.267C294.321 337.259 291.655 338.678 288.767 339.4C284.767 341.533 280.5 343.7 276.567 342.033C270.3 343.833 265.667 340.267 259.9 339.633C255.233 339.967 250.267 337.3 245.333 339.267C240.4 337.933 235.533 336.833 231.033 341.133C225.233 341.467 219.167 340.567 213.233 345.3C211.433 345.3 209.4 341.967 207.733 345.567C207.053 345.859 206.414 346.24 205.833 346.7C203.833 345.5 202.5 351.7 200.267 347.9C195.133 348.8 189.533 346.433 184.367 347.9C181.933 347.9 179.733 348.8 177.3 346.633C174.367 350.367 171.233 349.5 168.333 346.633C164.767 351.467 161.433 350.933 157.9 347.667C153.967 355.167 150.533 350.733 146.733 349.9C141.425 348.515 136.021 347.524 130.567 346.933C123.7 348.567 116.467 345.3 109.5 345.467C106.021 347.036 102.241 347.828 98.4243 347.788C94.6076 347.747 90.8455 346.876 87.4 345.233C79.1667 343.9 72.1333 345.533 63.6667 343.067C59.3667 337.5 55.7667 340.333 51.5 345.567C48.4333 346.433 45.1667 342.433 42.0333 345.567C34.8333 347.667 27.2333 341.833 20.3333 346.7C13.9604 349.567 6.96467 350.771 0 350.2C0 346.333 0 353.533 0 350.2V615.333Z" fill="white"/>
<path d="M0 609.367C0 609.767 0.666667 616.033 0.666667 617.1C0.666667 616.733 0.0666667 610.433 1.23333 612.067C2.8 611 11.2333 609.2 12.6667 611.5C16.9667 612.367 21.2333 616.267 25.5333 611.5C32.7 615.467 41.4333 609.333 48.1667 610.667C51.5 611.567 55.3333 609.233 58.9333 609.133C62.0333 610.433 63.6667 606.133 67.1 611.567C69.5 614.9 72.0333 612.033 74.4667 611.567C79.6667 610.3 84.8667 613.233 90.0667 611.567C92.0733 612.795 94.3804 613.446 96.7333 613.446C99.0862 613.446 101.393 612.795 103.4 611.567C107.867 615.9 112.3 611.2 116.5 613.133C121.467 609.633 126.233 619.567 131.033 615C135.833 614.633 140.667 616.3 145.7 613.133C149.033 610.233 152.633 610.8 156.033 610.533C157.9 607.7 159.367 612.667 161.267 611.433C164.6 609.367 167.133 611.1 169.867 613.367C173.2 615.833 176.533 612.733 179.867 619.5C182.267 617.133 185.3 624.767 188.367 623.933C190.633 618.567 192.933 622.533 195.233 624.533C198.867 622.967 202.333 628.467 206.067 627.2C209.167 623.867 212.367 621.367 215.5 627.4C221.033 631.267 227.567 625.067 232.167 628.967C235.1 630.133 238.067 634.733 241.6 634C243.633 638.567 245.9 636.7 247.967 634C252.4 633.367 256.967 631.767 261.5 633.767C263.661 632.997 265.954 632.669 268.244 632.8C270.534 632.932 272.775 633.521 274.833 634.533C279.6 635.967 284.833 637.867 289.833 636.5C294.967 637.9 299.833 634.033 304.567 634.567C309.567 627.9 314 636.467 319.467 632.9C324.933 629.333 330.467 637.533 336.133 632.9C343.117 631.268 350.383 631.268 357.367 632.9C360.1 635.4 361.033 632.433 363.367 630.667C365.633 634 366.9 628.7 369.4 629.367C374.367 632.933 378.7 621.733 383.033 625.667C387.4 633.5 391.767 619.433 396.833 622.7C403.133 621.233 409.433 619.833 415.733 625.233C422 626.267 428.3 629.4 434.633 625.467C440.633 624.633 447.133 621.5 452.867 621.633C458.633 616.5 465.1 622.933 471.3 620.5C481.5 620.5 491.667 623.333 501.867 620.5C511.867 619.567 522.233 617.367 532.4 620.5C536.8 618.467 541.467 617.367 545.2 622.833C550.167 626.667 555.733 625.2 561.7 627.267C566.9 623.4 572.133 625.333 577.367 627.267C583.3 620.067 587.8 627.767 592.633 632C595.333 636.267 597.267 625.667 600.667 635.333C603.467 636.767 606.3 635.567 609.1 635.333C616.533 637.1 624 634.1 631.433 635.333C637.767 632.167 642.7 632.267 648.9 638.233C654.9 642.2 661.233 639.067 667.033 642.067C669.767 640.7 672.2 644.467 675.133 644.333C681.067 634.767 684.667 645.767 690.2 650C696.233 654.5 699.567 645.533 705.333 648.967C708.467 652.8 712 649.333 715.333 648.767C718.433 644.1 722.4 646.633 725.5 648.967C729.033 649.4 734.1 656.8 736.967 654.633C740.3 658.533 741.3 656.2 745.833 657.767C748.567 654.1 750.733 660.767 753.367 656.633C757.8 653.3 762.9 650.767 767.5 653.3C775.533 660.5 784.4 649.967 792.533 653.3C792.533 649.433 812.033 651.667 812.033 653.3C819.207 655.951 827.093 655.951 834.267 653.3C840.667 647 845.067 649.133 851.267 651C855.965 651.499 860.689 650.318 864.6 647.667C867.5 649.533 870.233 642.5 873.233 643.567C878.733 637.7 885.133 648.867 890.433 645.867C896.367 648.067 902.267 649.467 908.233 645.433C910.833 643.685 913.802 642.565 916.909 642.16C920.015 641.755 923.173 642.077 926.133 643.1C930.933 641.867 933.6 643.367 938.067 645.7C943.567 647.8 949.167 643.967 954.733 649.033C959.8 647.1 963.4 642.367 968.633 650.833C971.167 643.6 972.733 652.567 974.7 652.2C978.223 653.415 981.497 655.256 984.367 657.633C989.167 658.167 993.9 655.067 998.6 656.367C1003.33 652.833 1008.03 653.633 1012.8 654.2C1020.93 648.533 1028.93 647.933 1037.13 655.333C1041.07 653.367 1044.97 650.833 1048.87 655.333C1053.17 647.633 1058.1 649.9 1061.67 658.4C1063.2 660.833 1065.37 664.3 1066.7 661.1C1067.9 659.8 1068.7 664.667 1070.23 663.8C1074.8 663.8 1082.2 666.7 1087.27 665.333C1088.53 661.6 1090.77 667.8 1091.9 664.233C1093.03 657.8 1093.63 662.2 1094.67 662.233C1095.87 659.633 1097.17 660.967 1098.4 660.867C1099.77 655.5 1100.6 666.3 1102.2 658.733C1103.83 661.7 1105.97 657.833 1107.63 658.733C1112 655.4 1116.4 657.167 1120.77 658.733C1124.7 655.4 1126.87 660.567 1130.3 657.133C1132.57 651.567 1135.43 656.333 1137.93 655.9C1144 659.233 1150.43 647.3 1156.5 654.133C1158.63 647.467 1162.27 650.067 1164.23 651.467C1166 654.967 1166.1 649.467 1167.1 648.133C1168.34 645.51 1170.32 643.308 1172.8 641.8C1176.13 638.933 1184.5 643.167 1188.37 640.733C1192.17 640.733 1195.97 639.333 1199.73 640.733C1200.9 643.667 1202.77 641.733 1203.83 640.733C1204.43 642.467 1204.23 643.867 1204.73 639.7C1208.23 637.2 1210.63 634.967 1214.47 636.933C1217.8 632.767 1224.47 639.267 1227 633.6C1229.23 630.833 1228.17 635.433 1232.03 629.633C1234.63 628.3 1237.43 626.3 1240.03 629.633C1242.23 631.2 1244.43 633.367 1246.7 629.633V282.967C1244.77 281.633 1242.63 286.3 1241.5 282.533C1238.91 281.502 1236.02 281.502 1233.43 282.533C1232.4 283.167 1229.27 280.267 1228.17 282.533C1226.77 284.167 1227.17 287.667 1225.77 285.567C1224.6 285.567 1221.77 288.467 1220.43 285.967C1214.9 287.533 1209.27 289.867 1203.47 286.867C1199 288.167 1195.4 277.533 1191.1 284.533C1186.43 283.767 1181.63 285.033 1176.93 284.533C1173.43 282.267 1169.9 284.533 1166.4 284.533C1160.77 285.733 1158.5 286.833 1153.87 281.733C1150.53 279.867 1146.63 280.8 1143 275.8C1137.6 272.467 1131.07 273.433 1125.3 274.467C1116.67 274.2 1109.27 281.367 1100.43 278.933C1096.13 276.167 1094.43 283.633 1091.27 282.533C1088.4 287.167 1085.73 282.533 1081.8 287.933C1078.8 282.333 1070.4 283.3 1062.67 287.433C1054.93 287.8 1047.87 288.167 1047.53 289.9C1045.01 291.639 1042.17 292.864 1039.17 293.504C1036.17 294.145 1033.08 294.189 1030.07 293.633C1024.27 297.7 1018.7 294.833 1013.77 299.933C1009.7 310.267 1006.37 304.033 1001.57 302.433C996.9 303.6 992 299.1 987.167 302.167C982.656 303.494 977.968 304.124 973.267 304.033C968.537 304.365 963.786 303.857 959.233 302.533C954.833 294.233 949.733 298.767 945.067 301.267C942.3 302.767 938.9 306.4 936.467 303.133C934.4 304.067 933.567 307.667 931.133 304.733C926.7 304.733 922.033 306.967 917.633 304.733C913.4 297.767 909.633 303.4 905.5 302.2C901.3 304.033 897.333 307.433 893.167 299.233C885.933 299.233 878.4 297.733 871.3 297.733C864.2 297.733 858.2 290 851.333 294C846.716 293.379 842.048 293.222 837.4 293.533C831.833 291.8 826.4 293.533 820.733 290.2C816.267 284.2 812.1 290.933 807.633 286.867C802.267 280.467 796.433 289.233 791.267 289.167C787.067 292.5 783.833 291.433 779.333 290.267C773.2 298.533 766.567 292.7 760.533 290.5C757.4 288.033 754.5 292.3 751.367 292.567C749.033 292.1 746.467 294.367 744.133 292.567C738.767 290.333 733.4 299.533 728.067 292.567C722.733 289.233 717.4 293.067 712.1 293.867C711.333 292.733 712.7 293.867 712.1 299.133C708.233 299.933 701.167 301.467 697 299.133C691.633 293 688.167 300.3 683.667 302.467C677 301.267 668.367 308.567 660.7 309.133C656.1 312.133 650.167 306.967 645.467 309.133C639.7 304.833 634 307.433 628.467 310.067C626.167 312.267 624.233 308.2 621.8 312.233C617.667 306.9 613.6 315.567 609.433 314.733C604.567 320.4 599.867 312.833 594.933 317.033C590.767 314.5 589.733 323.967 587.4 323.033C585.833 326.833 584.733 323.7 582.1 327.133C579.967 320.933 576.767 332.6 574.5 327.133C568.142 324.817 561.241 324.434 554.667 326.033C549 321.967 543.967 327.967 538.433 329.133C536.167 322.967 534.367 325.8 532.2 330.5C528.292 330.884 524.408 331.485 520.567 332.3C517.7 336.633 515.933 332.3 512.667 334.033C507 338.267 502.667 328.767 497.167 338.767C491.067 344.8 483.233 343.333 476.9 339.367C470.233 339.867 463.867 340.967 457.467 338.5C451.1 339.767 444.767 347.9 438.3 340.9C433.467 335.567 428 342.333 423 341.633C415.6 342.133 409 332.667 401.567 338.3C396.042 336.733 390.191 336.733 384.667 338.3C379.114 339.55 373.353 339.55 367.8 338.3C362.7 336.567 357.6 338.9 352.5 338.3C347.4 336.067 342.3 338.5 337.2 338.3C336.046 337.93 334.822 337.833 333.624 338.018C332.426 338.203 331.288 338.665 330.3 339.367C326.967 342.1 322.567 336.9 319.133 339.367C312.467 340 303.133 335.6 297 340.733C294.761 342.644 292.098 343.992 289.233 344.667C285.233 346.733 280.967 348.833 277.033 347.233C270.767 348.933 266.133 345.533 260.367 344.9C255.7 345.233 250.733 342.667 245.8 344.567C240.867 343.267 236 342.2 231.5 346.367C225.7 346.667 219.633 345.8 213.7 350.333C211.9 350.333 209.867 347 208.2 350.6C207.528 350.882 206.891 351.24 206.3 351.667C204.3 350.567 202.967 356.467 200.733 352.867C195.6 353.7 190 351.433 184.833 352.867C182.4 352.867 180.2 353.7 177.767 351.633C174.833 355.2 171.7 354.367 168.8 351.633C165.233 356.267 161.9 355.767 158.367 352.6C154.433 359.8 151 355.567 147.2 354.767C141.879 353.463 136.479 352.505 131.033 351.9C124.167 353.5 116.933 350.367 109.967 350.5C106.47 352.004 102.698 352.76 98.892 352.72C95.0861 352.68 91.3306 351.844 87.8667 350.267C79.6333 349.033 72.6 350.567 64.1333 348.2C59.8333 342.867 56.2333 345.567 51.9667 350.6C48.9 351.433 45.6333 347.6 42.5 350.6C35.3 352.633 27.7 347.033 20.8 351.7C14.2887 354.529 7.17035 355.676 0.1 355.033C0.1 351.333 0.1 358.367 0.1 355.033V609.333L0 609.367Z" fill="url(#paint3_linear_143_1972)"/>
<path style="mix-blend-mode:multiply" d="M0 609.367C0 609.767 0.666667 616.033 0.666667 617.1C0.666667 616.733 0.0666667 610.433 1.23333 612.067C2.8 611 11.2333 609.2 12.6667 611.5C16.9667 612.367 21.2333 616.267 25.5333 611.5C32.7 615.467 41.4333 609.333 48.1667 610.667C51.5 611.567 55.3333 609.233 58.9333 609.133C62.0333 610.433 63.6667 606.133 67.1 611.567C69.5 614.9 72.0333 612.033 74.4667 611.567C79.6667 610.3 84.8667 613.233 90.0667 611.567C92.0733 612.795 94.3804 613.446 96.7333 613.446C99.0862 613.446 101.393 612.795 103.4 611.567C107.867 615.9 112.3 611.2 116.5 613.133C121.467 609.633 126.233 619.567 131.033 615C135.833 614.633 140.667 616.3 145.7 613.133C149.033 610.233 152.633 610.8 156.033 610.533C157.9 607.7 159.367 612.667 161.267 611.433C164.6 609.367 167.133 611.1 169.867 613.367C173.2 615.833 176.533 612.733 179.867 619.5C182.267 617.133 185.3 624.767 188.367 623.933C190.633 618.567 192.933 622.533 195.233 624.533C198.867 622.967 202.333 628.467 206.067 627.2C209.167 623.867 212.367 621.367 215.5 627.4C221.033 631.267 227.567 625.067 232.167 628.967C235.1 630.133 238.067 634.733 241.6 634C243.633 638.567 245.9 636.7 247.967 634C252.4 633.367 256.967 631.767 261.5 633.767C263.661 632.997 265.954 632.669 268.244 632.8C270.534 632.932 272.775 633.521 274.833 634.533C279.6 635.967 284.833 637.867 289.833 636.5C294.967 637.9 299.833 634.033 304.567 634.567C309.567 627.9 314 636.467 319.467 632.9C324.933 629.333 330.467 637.533 336.133 632.9C343.117 631.268 350.383 631.268 357.367 632.9C360.1 635.4 361.033 632.433 363.367 630.667C365.633 634 366.9 628.7 369.4 629.367C374.367 632.933 378.7 621.733 383.033 625.667C387.4 633.5 391.767 619.433 396.833 622.7C403.133 621.233 409.433 619.833 415.733 625.233C422 626.267 428.3 629.4 434.633 625.467C440.633 624.633 447.133 621.5 452.867 621.633C458.633 616.5 465.1 622.933 471.3 620.5C481.5 620.5 491.667 623.333 501.867 620.5C511.867 619.567 522.233 617.367 532.4 620.5C536.8 618.467 541.467 617.367 545.2 622.833C550.167 626.667 555.733 625.2 561.7 627.267C566.9 623.4 572.133 625.333 577.367 627.267C583.3 620.067 587.8 627.767 592.633 632C595.333 636.267 597.267 625.667 600.667 635.333C603.467 636.767 606.3 635.567 609.1 635.333C616.533 637.1 624 634.1 631.433 635.333C637.767 632.167 642.7 632.267 648.9 638.233C654.9 642.2 661.233 639.067 667.033 642.067C669.767 640.7 672.2 644.467 675.133 644.333C681.067 634.767 684.667 645.767 690.2 650C696.233 654.5 699.567 645.533 705.333 648.967C708.467 652.8 712 649.333 715.333 648.767C718.433 644.1 722.4 646.633 725.5 648.967C729.033 649.4 734.1 656.8 736.967 654.633C740.3 658.533 741.3 656.2 745.833 657.767C748.567 654.1 750.733 660.767 753.367 656.633C757.8 653.3 762.9 650.767 767.5 653.3C775.533 660.5 784.4 649.967 792.533 653.3C792.533 649.433 812.033 651.667 812.033 653.3C819.207 655.951 827.093 655.951 834.267 653.3C840.667 647 845.067 649.133 851.267 651C855.965 651.499 860.689 650.318 864.6 647.667C867.5 649.533 870.233 642.5 873.233 643.567C878.733 637.7 885.133 648.867 890.433 645.867C896.367 648.067 902.267 649.467 908.233 645.433C910.833 643.685 913.802 642.565 916.909 642.16C920.015 641.755 923.173 642.077 926.133 643.1C930.933 641.867 933.6 643.367 938.067 645.7C943.567 647.8 949.167 643.967 954.733 649.033C959.8 647.1 963.4 642.367 968.633 650.833C971.167 643.6 972.733 652.567 974.7 652.2C978.223 653.415 981.497 655.256 984.367 657.633C989.167 658.167 993.9 655.067 998.6 656.367C1003.33 652.833 1008.03 653.633 1012.8 654.2C1020.93 648.533 1028.93 647.933 1037.13 655.333C1041.07 653.367 1044.97 650.833 1048.87 655.333C1053.17 647.633 1058.1 649.9 1061.67 658.4C1063.2 660.833 1065.37 664.3 1066.7 661.1C1067.9 659.8 1068.7 664.667 1070.23 663.8C1074.8 663.8 1082.2 666.7 1087.27 665.333C1088.53 661.6 1090.77 667.8 1091.9 664.233C1093.03 657.8 1093.63 662.2 1094.67 662.233C1095.87 659.633 1097.17 660.967 1098.4 660.867C1099.77 655.5 1100.6 666.3 1102.2 658.733C1103.83 661.7 1105.97 657.833 1107.63 658.733C1112 655.4 1116.4 657.167 1120.77 658.733C1124.7 655.4 1126.87 660.567 1130.3 657.133C1132.57 651.567 1135.43 656.333 1137.93 655.9C1144 659.233 1150.43 647.3 1156.5 654.133C1158.63 647.467 1162.27 650.067 1164.23 651.467C1166 654.967 1166.1 649.467 1167.1 648.133C1168.34 645.51 1170.32 643.308 1172.8 641.8C1176.13 638.933 1184.5 643.167 1188.37 640.733C1192.17 640.733 1195.97 639.333 1199.73 640.733C1200.9 643.667 1202.77 641.733 1203.83 640.733C1204.43 642.467 1204.23 643.867 1204.73 639.7C1208.23 637.2 1210.63 634.967 1214.47 636.933C1217.8 632.767 1224.47 639.267 1227 633.6C1229.23 630.833 1228.17 635.433 1232.03 629.633C1234.63 628.3 1237.43 626.3 1240.03 629.633C1242.23 631.2 1244.43 633.367 1246.7 629.633V282.967C1244.77 281.633 1242.63 286.3 1241.5 282.533C1238.91 281.502 1236.02 281.502 1233.43 282.533C1232.4 283.167 1229.27 280.267 1228.17 282.533C1226.77 284.167 1227.17 287.667 1225.77 285.567C1224.6 285.567 1221.77 288.467 1220.43 285.967C1214.9 287.533 1209.27 289.867 1203.47 286.867C1199 288.167 1195.4 277.533 1191.1 284.533C1186.43 283.767 1181.63 285.033 1176.93 284.533C1173.43 282.267 1169.9 284.533 1166.4 284.533C1160.77 285.733 1158.5 286.833 1153.87 281.733C1150.53 279.867 1146.63 280.8 1143 275.8C1137.6 272.467 1131.07 273.433 1125.3 274.467C1116.67 274.2 1109.27 281.367 1100.43 278.933C1096.13 276.167 1094.43 283.633 1091.27 282.533C1088.4 287.167 1085.73 282.533 1081.8 287.933C1078.8 282.333 1070.4 283.3 1062.67 287.433C1054.93 287.8 1047.87 288.167 1047.53 289.9C1045.01 291.639 1042.17 292.864 1039.17 293.504C1036.17 294.145 1033.08 294.189 1030.07 293.633C1024.27 297.7 1018.7 294.833 1013.77 299.933C1009.7 310.267 1006.37 304.033 1001.57 302.433C996.9 303.6 992 299.1 987.167 302.167C982.656 303.494 977.968 304.124 973.267 304.033C968.537 304.365 963.786 303.857 959.233 302.533C954.833 294.233 949.733 298.767 945.067 301.267C942.3 302.767 938.9 306.4 936.467 303.133C934.4 304.067 933.567 307.667 931.133 304.733C926.7 304.733 922.033 306.967 917.633 304.733C913.4 297.767 909.633 303.4 905.5 302.2C901.3 304.033 897.333 307.433 893.167 299.233C885.933 299.233 878.4 297.733 871.3 297.733C864.2 297.733 858.2 290 851.333 294C846.716 293.379 842.048 293.222 837.4 293.533C831.833 291.8 826.4 293.533 820.733 290.2C816.267 284.2 812.1 290.933 807.633 286.867C802.267 280.467 796.433 289.233 791.267 289.167C787.067 292.5 783.833 291.433 779.333 290.267C773.2 298.533 766.567 292.7 760.533 290.5C757.4 288.033 754.5 292.3 751.367 292.567C749.033 292.1 746.467 294.367 744.133 292.567C738.767 290.333 733.4 299.533 728.067 292.567C722.733 289.233 717.4 293.067 712.1 293.867C711.333 292.733 712.7 293.867 712.1 299.133C708.233 299.933 701.167 301.467 697 299.133C691.633 293 688.167 300.3 683.667 302.467C677 301.267 668.367 308.567 660.7 309.133C656.1 312.133 650.167 306.967 645.467 309.133C639.7 304.833 634 307.433 628.467 310.067C626.167 312.267 624.233 308.2 621.8 312.233C617.667 306.9 613.6 315.567 609.433 314.733C604.567 320.4 599.867 312.833 594.933 317.033C590.767 314.5 589.733 323.967 587.4 323.033C585.833 326.833 584.733 323.7 582.1 327.133C579.967 320.933 576.767 332.6 574.5 327.133C568.142 324.817 561.241 324.434 554.667 326.033C549 321.967 543.967 327.967 538.433 329.133C536.167 322.967 534.367 325.8 532.2 330.5C528.292 330.884 524.408 331.485 520.567 332.3C517.7 336.633 515.933 332.3 512.667 334.033C507 338.267 502.667 328.767 497.167 338.767C491.067 344.8 483.233 343.333 476.9 339.367C470.233 339.867 463.867 340.967 457.467 338.5C451.1 339.767 444.767 347.9 438.3 340.9C433.467 335.567 428 342.333 423 341.633C415.6 342.133 409 332.667 401.567 338.3C396.042 336.733 390.191 336.733 384.667 338.3C379.114 339.55 373.353 339.55 367.8 338.3C362.7 336.567 357.6 338.9 352.5 338.3C347.4 336.067 342.3 338.5 337.2 338.3C336.046 337.93 334.822 337.833 333.624 338.018C332.426 338.203 331.288 338.665 330.3 339.367C326.967 342.1 322.567 336.9 319.133 339.367C312.467 340 303.133 335.6 297 340.733C294.761 342.644 292.098 343.992 289.233 344.667C285.233 346.733 280.967 348.833 277.033 347.233C270.767 348.933 266.133 345.533 260.367 344.9C255.7 345.233 250.733 342.667 245.8 344.567C240.867 343.267 236 342.2 231.5 346.367C225.7 346.667 219.633 345.8 213.7 350.333C211.9 350.333 209.867 347 208.2 350.6C207.528 350.882 206.891 351.24 206.3 351.667C204.3 350.567 202.967 356.467 200.733 352.867C195.6 353.7 190 351.433 184.833 352.867C182.4 352.867 180.2 353.7 177.767 351.633C174.833 355.2 171.7 354.367 168.8 351.633C165.233 356.267 161.9 355.767 158.367 352.6C154.433 359.8 151 355.567 147.2 354.767C141.879 353.463 136.479 352.505 131.033 351.9C124.167 353.5 116.933 350.367 109.967 350.5C106.47 352.004 102.698 352.76 98.892 352.72C95.0861 352.68 91.3306 351.844 87.8667 350.267C79.6333 349.033 72.6 350.567 64.1333 348.2C59.8333 342.867 56.2333 345.567 51.9667 350.6C48.9 351.433 45.6333 347.6 42.5 350.6C35.3 352.633 27.7 347.033 20.8 351.7C14.2887 354.529 7.17035 355.676 0.1 355.033C0.1 351.333 0.1 358.367 0.1 355.033V609.333L0 609.367Z" fill="url(#paint4_linear_143_1972)"/>
<path d="M1321.4 215.233C1318.07 215.233 1313.47 213.733 1305.7 208.567C1291.97 209.233 1277.8 204.367 1268.43 211.7C1260.4 217.2 1252.4 234.267 1244.43 212.667C1236.43 210.933 1228.5 215.5 1220.57 213.633C1209.5 212.933 1196.63 208.667 1185.07 211.933V487.633C1196.33 488.667 1207.63 503.567 1219.03 490.4C1234.1 488.733 1247.7 494.267 1263.07 488.733C1267.57 477.333 1273.63 482.533 1277.47 487.967C1281.97 486.433 1279.87 478.933 1285.6 480.067C1292.27 479.067 1304.8 477.133 1311.67 480.967C1314.93 481.049 1318.19 481.394 1321.4 482V215.233Z" fill="white"/>
<path d="M1321.4 222.033C1318.07 222.033 1313.47 220.633 1305.7 215.667C1291.97 216.267 1277.8 211.667 1268.43 218.633C1260.4 223.833 1252.4 240.067 1244.43 219.533C1236.43 217.9 1228.5 222.267 1220.57 220.467C1209.5 219.8 1196.63 215.767 1185.07 218.867V480.767C1196.33 481.767 1207.63 495.9 1219.03 483.4C1234.1 481.8 1247.7 487.067 1263.07 481.8C1267.57 471 1273.63 475.9 1277.47 481.1C1281.97 479.633 1279.87 472.5 1285.6 473.6C1292.27 472.633 1304.8 470.8 1311.67 474.433C1314.93 474.504 1318.19 474.838 1321.4 475.433V222.033Z" fill="url(#paint5_linear_143_1972)"/>
<path d="M1293.77 247.233C1258.37 254.267 1253.77 266.667 1222.23 264.667C1202.6 257.667 1176.97 262.633 1161.3 271.333V679.233C1169.77 681 1181.53 673.333 1182.4 672.2C1192.67 674.967 1208.43 687.9 1209.57 673.967C1210.8 666.267 1227.43 703.8 1238.4 697C1252.43 717.567 1257.77 694.333 1267.2 703.333C1267.2 705.8 1270.93 724.1 1280.9 706.133C1276.23 736.867 1285.13 692.133 1286.33 712.367C1312.07 754.4 1319.67 774.7 1348.77 753.667C1349.27 754.1 1349.73 754.367 1350.23 754.733V239.167C1330.67 241.4 1303.33 267.3 1293.77 247.233Z" fill="white"/>
<path d="M1293.77 260C1258.37 266.667 1253.77 278.467 1222.23 276.667C1202.6 270 1176.97 274.733 1161.3 283.1V670.3C1169.77 672 1181.53 664.7 1182.4 663.633C1192.67 666.233 1208.43 678.533 1209.57 665.3C1210.8 658 1227.43 693.667 1238.4 687.167C1252.43 706.733 1257.77 684.633 1267.2 693.2C1267.2 695.533 1270.93 712.933 1280.9 695.833C1276.23 725.033 1285.13 682.5 1286.33 701.767C1312.07 741.767 1319.67 761 1348.77 741C1349.23 741.377 1349.72 741.723 1350.23 742.033V252.233C1330.67 254.333 1303.33 278.967 1293.77 260Z" fill="url(#paint6_linear_143_1972)"/>
<g style="mix-blend-mode:multiply">
<path d="M293.667 495.067C287.896 491.905 283.101 487.225 279.8 481.533C276.497 475.523 274.765 468.775 274.765 461.917C274.765 455.058 276.497 448.311 279.8 442.3C283.082 436.594 287.882 431.909 293.667 428.767C299.806 425.462 306.695 423.797 313.667 423.933C319.665 423.833 325.614 425.039 331.1 427.467C336.188 429.745 340.623 433.264 344 437.7L331.3 449.6C329.393 446.96 326.89 444.808 323.993 443.319C321.097 441.83 317.89 441.047 314.633 441.033C311.062 440.974 307.54 441.871 304.433 443.633C301.45 445.366 299.03 447.924 297.467 451C295.843 454.41 295.001 458.14 295.001 461.917C295.001 465.694 295.843 469.423 297.467 472.833C299.021 475.907 301.443 478.457 304.433 480.167C307.53 481.957 311.057 482.868 314.633 482.8C317.89 482.786 321.097 482.003 323.993 480.514C326.89 479.026 329.393 476.873 331.3 474.233L344 486.133C340.617 490.564 336.184 494.081 331.1 496.367C325.591 498.843 319.606 500.084 313.567 500C306.62 500.088 299.767 498.389 293.667 495.067Z" fill="#7750A1"/>
<path d="M361.767 495.633C357.181 493.25 353.349 489.638 350.701 485.2C348.101 480.598 346.735 475.402 346.735 470.117C346.735 464.831 348.101 459.635 350.701 455.033C353.324 450.607 357.134 447.004 361.701 444.633C366.647 442.198 372.087 440.932 377.601 440.932C383.114 440.932 388.554 442.198 393.501 444.633C398.062 446.98 401.874 450.56 404.501 454.967C407.081 459.587 408.436 464.791 408.436 470.083C408.436 475.376 407.081 480.58 404.501 485.2C401.878 489.635 398.068 493.249 393.501 495.633C388.578 498.11 383.144 499.4 377.634 499.4C372.124 499.4 366.69 498.11 361.767 495.633ZM385.834 480.033C388.175 477.244 389.367 473.669 389.167 470.033C389.401 466.393 388.205 462.805 385.834 460.033C384.765 458.895 383.474 457.988 382.041 457.368C380.607 456.748 379.062 456.428 377.501 456.428C375.939 456.428 374.394 456.748 372.961 457.368C371.527 457.988 370.236 458.895 369.167 460.033C366.808 462.812 365.614 466.395 365.834 470.033C365.651 473.667 366.841 477.236 369.167 480.033C370.226 481.189 371.514 482.112 372.948 482.744C374.383 483.375 375.933 483.701 377.501 483.701C379.068 483.701 380.618 483.375 382.053 482.744C383.488 482.112 384.775 481.189 385.834 480.033Z" fill="#7750A1"/>
<path d="M504.533 447.2C508.533 451.378 510.533 457.678 510.533 466.1V498.433H491.366V469.333C491.601 466.255 490.841 463.182 489.2 460.567C488.492 459.631 487.566 458.884 486.503 458.39C485.439 457.896 484.271 457.671 483.1 457.733C481.776 457.684 480.458 457.941 479.249 458.484C478.041 459.028 476.974 459.843 476.133 460.867C474.2 463.64 473.282 466.995 473.533 470.367V498.433H454.366V469.333C454.366 461.6 451.633 457.733 446.1 457.733C444.765 457.678 443.436 457.933 442.216 458.476C440.996 459.02 439.918 459.838 439.066 460.867C437.106 463.629 436.174 466.99 436.433 470.367V498.433H417.3V441.767H435.533V447.733C437.486 445.461 439.955 443.689 442.733 442.567C445.631 441.382 448.737 440.793 451.866 440.833C455.411 440.777 458.922 441.53 462.133 443.033C465.175 444.507 467.731 446.82 469.5 449.7C471.62 446.829 474.429 444.536 477.666 443.033C481.042 441.481 484.718 440.696 488.433 440.733C491.42 440.621 494.398 441.139 497.171 442.253C499.945 443.367 502.454 445.053 504.533 447.2Z" fill="#7750A1"/>
<path d="M523.732 432.567C522.709 431.604 521.894 430.441 521.337 429.152C520.78 427.862 520.492 426.472 520.492 425.067C520.492 423.662 520.78 422.271 521.337 420.982C521.894 419.692 522.709 418.53 523.732 417.567C526.042 415.474 529.087 414.383 532.199 414.533C535.282 414.387 538.306 415.411 540.666 417.4C541.733 418.304 542.585 419.434 543.162 420.708C543.738 421.982 544.024 423.368 543.999 424.767C544.022 426.223 543.737 427.668 543.163 429.006C542.588 430.345 541.737 431.547 540.666 432.533C538.28 434.494 535.287 435.567 532.199 435.567C529.111 435.567 526.118 434.494 523.732 432.533V432.567ZM522.599 441.867H541.766V498.533H522.599V441.867Z" fill="#7750A1"/>
<path d="M606.101 447.2C610.234 451.378 612.301 457.678 612.301 466.1V498.433H593.334V469.333C593.334 461.6 590.345 457.733 584.367 457.733C582.882 457.677 581.402 457.947 580.032 458.522C578.662 459.098 577.434 459.967 576.434 461.067C574.261 463.928 573.207 467.483 573.467 471.067V498.4H554.334V441.733H572.567V447.9C574.701 445.598 577.32 443.799 580.234 442.633C583.302 441.384 586.588 440.76 589.901 440.8C592.895 440.706 595.876 441.225 598.662 442.326C601.448 443.426 603.979 445.085 606.101 447.2Z" fill="#7750A1"/>
<path d="M683.866 441.867V488.1C683.866 498.611 681.11 506.5 675.599 511.767C670.088 517.033 662.166 519.656 651.833 519.633C646.729 519.664 641.642 519.037 636.699 517.767C632.389 516.687 628.319 514.811 624.699 512.233L631.666 498.333C634.137 500.364 636.995 501.873 640.066 502.767C643.293 503.832 646.668 504.383 650.066 504.4C654.058 504.773 658.04 503.578 661.166 501.067C662.417 499.696 663.375 498.084 663.982 496.33C664.59 494.577 664.834 492.718 664.699 490.867V488.967C662.678 491.239 660.166 493.02 657.353 494.176C654.54 495.331 651.501 495.829 648.466 495.633C643.81 495.68 639.219 494.533 635.133 492.3C631.052 490.053 627.664 486.733 625.333 482.7C622.969 478.304 621.732 473.391 621.732 468.4C621.732 463.409 622.969 458.496 625.333 454.1C627.664 450.067 631.052 446.748 635.133 444.5C639.219 442.267 643.81 441.12 648.466 441.167C651.752 440.906 655.051 441.489 658.049 442.86C661.048 444.23 663.646 446.344 665.599 449V442.1L683.866 441.867ZM661.533 476.533C663.692 474.296 664.898 471.309 664.898 468.2C664.898 465.091 663.692 462.104 661.533 459.867C660.395 458.774 659.052 457.917 657.582 457.345C656.112 456.773 654.543 456.497 652.966 456.533C649.762 456.468 646.661 457.665 644.333 459.867C642.15 462.091 640.928 465.084 640.928 468.2C640.928 471.317 642.15 474.309 644.333 476.533C646.635 478.734 649.715 479.933 652.899 479.867C654.479 479.937 656.057 479.69 657.54 479.141C659.023 478.591 660.38 477.75 661.533 476.667V476.533Z" fill="#7750A1"/>
<path d="M734.567 497.7C729.883 496.565 725.444 494.588 721.467 491.867L728.133 476.633C735.072 481.195 743.164 483.692 751.467 483.833C759.133 483.833 762.967 481.833 762.967 477.867C762.965 476.843 762.642 475.846 762.044 475.015C761.447 474.184 760.603 473.561 759.633 473.233C756.232 471.843 752.704 470.783 749.1 470.067C744.572 469.102 740.116 467.821 735.767 466.233C732.19 464.834 729.034 462.538 726.6 459.567C723.904 456.115 722.543 451.807 722.767 447.433C722.727 443.161 723.956 438.973 726.3 435.4C728.913 431.597 732.571 428.633 736.833 426.867C742.29 424.651 748.147 423.595 754.033 423.767C758.647 423.764 763.245 424.301 767.733 425.367C771.928 426.315 775.944 427.924 779.633 430.133L773.467 445.467C767.549 441.938 760.821 439.998 753.933 439.833C750.918 439.607 747.901 440.242 745.233 441.667C744.411 442.153 743.729 442.845 743.256 443.675C742.783 444.505 742.534 445.444 742.533 446.4C742.554 447.391 742.887 448.351 743.486 449.141C744.085 449.931 744.918 450.512 745.867 450.8C749.219 452.129 752.69 453.133 756.233 453.8C760.764 454.755 765.22 456.036 769.567 457.633C773.115 458.989 776.266 461.213 778.733 464.1C781.462 467.51 782.838 471.806 782.6 476.167C782.65 480.389 781.418 484.526 779.067 488.033C776.407 491.895 772.676 494.896 768.333 496.667C762.907 498.91 757.07 499.989 751.2 499.833C745.585 499.867 739.991 499.15 734.567 497.7Z" fill="#7750A1"/>
<path d="M802.3 495.633C797.723 493.25 793.902 489.637 791.266 485.2C788.645 480.605 787.266 475.407 787.266 470.117C787.266 464.827 788.645 459.628 791.266 455.033C793.867 450.601 797.669 446.996 802.233 444.633C807.18 442.198 812.62 440.932 818.133 440.932C823.647 440.932 829.086 442.198 834.033 444.633C838.595 446.98 842.406 450.56 845.033 454.967C847.614 459.587 848.969 464.791 848.969 470.083C848.969 475.376 847.614 480.58 845.033 485.2C842.411 489.635 838.601 493.249 834.033 495.633C829.111 498.11 823.677 499.4 818.166 499.4C812.656 499.4 807.222 498.11 802.3 495.633ZM826.4 480.033C828.726 477.236 829.916 473.667 829.733 470.033C829.953 466.395 828.759 462.812 826.4 460.033C825.331 458.895 824.039 457.988 822.606 457.368C821.173 456.748 819.628 456.428 818.066 456.428C816.505 456.428 814.96 456.748 813.526 457.368C812.093 457.988 810.802 458.895 809.733 460.033C807.362 462.805 806.166 466.393 806.4 470.033C806.2 473.669 807.392 477.244 809.733 480.033C810.792 481.189 812.079 482.112 813.514 482.744C814.949 483.375 816.499 483.701 818.066 483.701C819.634 483.701 821.184 483.375 822.619 482.744C824.053 482.112 825.341 481.189 826.4 480.033Z" fill="#7750A1"/>
<path d="M869.433 495.633C864.856 493.25 861.035 489.637 858.399 485.2C855.777 480.605 854.398 475.407 854.398 470.117C854.398 464.827 855.777 459.628 858.399 455.033C861 450.601 864.802 446.996 869.366 444.633C874.313 442.198 879.752 440.932 885.266 440.932C890.779 440.932 896.219 442.198 901.166 444.633C905.728 446.98 909.539 450.56 912.166 454.967C914.747 459.587 916.101 464.791 916.101 470.083C916.101 475.376 914.747 480.58 912.166 485.2C909.544 489.635 905.734 493.249 901.166 495.633C896.244 498.11 890.81 499.4 885.299 499.4C879.789 499.4 874.355 498.11 869.433 495.633ZM893.499 480.033C895.84 477.244 897.032 473.669 896.833 470.033C897.067 466.393 895.871 462.805 893.499 460.033C892.435 458.917 891.155 458.028 889.736 457.421C888.318 456.814 886.792 456.501 885.249 456.501C883.707 456.501 882.18 456.814 880.762 457.421C879.344 458.028 878.064 458.917 876.999 460.033C874.628 462.805 873.432 466.393 873.666 470.033C873.467 473.669 874.658 477.244 876.999 480.033C878.054 481.167 879.33 482.071 880.75 482.69C882.169 483.308 883.701 483.627 885.249 483.627C886.798 483.627 888.329 483.308 889.749 482.69C891.168 482.071 892.445 481.167 893.499 480.033Z" fill="#7750A1"/>
<path d="M976.9 447.2C981.067 451.367 983.1 457.667 983.1 466.1V498.433H963.967V469.333C963.967 461.6 960.978 457.733 955 457.733C953.515 457.677 952.035 457.947 950.665 458.522C949.294 459.098 948.066 459.967 947.067 461.067C944.894 463.928 943.84 467.483 944.1 471.067V498.4H924.967V441.733H943.333V447.9C945.473 445.605 948.09 443.807 951 442.633C954.068 441.384 957.355 440.76 960.667 440.8C963.666 440.701 966.654 441.218 969.446 442.319C972.238 443.42 974.775 445.081 976.9 447.2Z" fill="#7750A1"/>
</g>
</g>
<defs>
<radialGradient id="paint0_radial_143_1972" cx="0" cy="0" r="1" gradientUnits="userSpaceOnUse" gradientTransform="translate(1323.53 477.667) scale(103.465 323.152)">
<stop stop-color="#3D3D3D"/>
<stop offset="0.01" stop-color="#414141"/>
<stop offset="0.21" stop-color="#7A7A7A"/>
<stop offset="0.4" stop-color="#AAAAAA"/>
<stop offset="0.57" stop-color="#CFCFCF"/>
<stop offset="0.74" stop-color="#E9E9E9"/>
<stop offset="0.89" stop-color="#F9F9F9"/>
<stop offset="1" stop-color="white"/>
</radialGradient>
<radialGradient id="paint1_radial_143_1972" cx="0" cy="0" r="1" gradientUnits="userSpaceOnUse" gradientTransform="translate(1260.91 664.294) scale(148.82 174.332)">
<stop stop-color="#3D3D3D"/>
<stop offset="0.01" stop-color="#414141"/>
<stop offset="0.21" stop-color="#7A7A7A"/>
<stop offset="0.4" stop-color="#AAAAAA"/>
<stop offset="0.57" stop-color="#CFCFCF"/>
<stop offset="0.74" stop-color="#E9E9E9"/>
<stop offset="0.89" stop-color="#F9F9F9"/>
<stop offset="1" stop-color="white"/>
</radialGradient>
<radialGradient id="paint2_radial_143_1972" cx="0" cy="0" r="1" gradientUnits="userSpaceOnUse" gradientTransform="translate(1259.1 267.434) scale(107.717 116.221)">
<stop stop-color="#3D3D3D"/>
<stop offset="0.01" stop-color="#414141"/>
<stop offset="0.21" stop-color="#7A7A7A"/>
<stop offset="0.4" stop-color="#AAAAAA"/>
<stop offset="0.57" stop-color="#CFCFCF"/>
<stop offset="0.74" stop-color="#E9E9E9"/>
<stop offset="0.89" stop-color="#F9F9F9"/>
<stop offset="1" stop-color="white"/>
</radialGradient>
<linearGradient id="paint3_linear_143_1972" x1="-257.967" y1="469.533" x2="1469.1" y2="469.533" gradientUnits="userSpaceOnUse">
<stop stop-color="#E5E4E4"/>
<stop offset="0.02" stop-color="#CDD3D3"/>
<stop offset="0.03" stop-color="#BCC7C6"/>
<stop offset="0.05" stop-color="#B1BFBE"/>
<stop offset="0.07" stop-color="#AEBDBC"/>
<stop offset="0.22" stop-color="#E6E5E5"/>
<stop offset="0.31" stop-color="#F2F1F1"/>
<stop offset="0.44" stop-color="#FCFCFC"/>
<stop offset="0.59" stop-color="white"/>
<stop offset="0.84" stop-color="#BFBFBF"/>
<stop offset="1" stop-color="#E6E5E5"/>
</linearGradient>
<linearGradient id="paint4_linear_143_1972" x1="626.567" y1="284.9" x2="621.267" y2="653.533" gradientUnits="userSpaceOnUse">
<stop stop-color="#B3B3B3"/>
<stop offset="0.02" stop-color="#BEBEBE"/>
<stop offset="0.11" stop-color="#E1E1E1"/>
<stop offset="0.17" stop-color="#F7F7F7"/>
<stop offset="0.22" stop-color="white"/>
<stop offset="0.81" stop-color="white"/>
<stop offset="0.85" stop-color="#FAFAFA"/>
<stop offset="0.9" stop-color="#EAEAEA"/>
<stop offset="0.95" stop-color="#D0D0D0"/>
<stop offset="1" stop-color="#B3B3B3"/>
</linearGradient>
<linearGradient id="paint5_linear_143_1972" x1="1185.07" y1="351.633" x2="1321.4" y2="351.633" gradientUnits="userSpaceOnUse">
<stop stop-color="#E5E4E4"/>
<stop offset="0.02" stop-color="#CDD3D3"/>
<stop offset="0.03" stop-color="#BCC7C6"/>
<stop offset="0.05" stop-color="#B1BFBE"/>
<stop offset="0.07" stop-color="#AEBDBC"/>
<stop offset="0.22" stop-color="#E6E5E5"/>
<stop offset="0.31" stop-color="#F2F1F1"/>
<stop offset="0.44" stop-color="#FCFCFC"/>
<stop offset="0.59" stop-color="white"/>
<stop offset="0.84" stop-color="#BFBFBF"/>
<stop offset="1" stop-color="#E6E5E5"/>
</linearGradient>
<linearGradient id="paint6_linear_143_1972" x1="1161.3" y1="500.6" x2="1350.23" y2="500.6" gradientUnits="userSpaceOnUse">
<stop stop-color="#E5E4E4"/>
<stop offset="0.02" stop-color="#CDD3D3"/>
<stop offset="0.03" stop-color="#BCC7C6"/>
<stop offset="0.05" stop-color="#B1BFBE"/>
<stop offset="0.07" stop-color="#AEBDBC"/>
<stop offset="0.22" stop-color="#E6E5E5"/>
<stop offset="0.31" stop-color="#F2F1F1"/>
<stop offset="0.44" stop-color="#FCFCFC"/>
<stop offset="0.59" stop-color="white"/>
<stop offset="0.84" stop-color="#BFBFBF"/>
<stop offset="1" stop-color="#E6E5E5"/>
</linearGradient>
<clipPath id="clip0_143_1972">
<rect width="1440" height="960" fill="white"/>
</clipPath>
</defs>
</svg>
