<svg width="48" height="48" viewBox="0 0 48 48" fill="none" xmlns="http://www.w3.org/2000/svg">
<path d="M28 19.3809H38V15.3809H28V19.3809ZM28 13.3809H38V9.38086H28V13.3809ZM10 25.3809H26V24.2809C26 22.7809 25.2667 21.5895 23.8 20.7069C22.3333 19.8242 20.4 19.3822 18 19.3809C15.6 19.3795 13.6667 19.8215 12.2 20.7069C10.7333 21.5922 10 22.7835 10 24.2809V25.3809ZM18 17.3809C19.1 17.3809 20.042 16.9895 20.826 16.2069C21.61 15.4242 22.0013 14.4822 22 13.3809C21.9987 12.2795 21.6073 11.3382 20.826 10.5569C20.0447 9.77553 19.1027 9.38353 18 9.38086C16.8973 9.37819 15.956 9.77019 15.176 10.5569C14.396 11.3435 14.004 12.2849 14 13.3809C13.996 14.4769 14.388 15.4189 15.176 16.2069C15.964 16.9949 16.9053 17.3862 18 17.3809ZM8 33.3809C6.9 33.3809 5.95867 32.9895 5.176 32.2069C4.39333 31.4242 4.00133 30.4822 4 29.3809V5.38086C4 4.28086 4.392 3.33953 5.176 2.55686C5.96 1.77419 6.90133 1.38219 8 1.38086H40C41.1 1.38086 42.042 1.77286 42.826 2.55686C43.61 3.34086 44.0013 4.28219 44 5.38086V29.3809C44 30.4809 43.6087 31.4229 42.826 32.2069C42.0433 32.9909 41.1013 33.3822 40 33.3809H8Z" fill="#5856D6"/>
</svg>
