<svg width="48" height="48" viewBox="0 0 48 48" fill="none" xmlns="http://www.w3.org/2000/svg">
<path d="M24 19.5C22.8065 19.5 21.6619 19.9741 20.818 20.818C19.9741 21.6619 19.5 22.8065 19.5 24C19.5 25.1935 19.9741 26.3381 20.818 27.182C21.6619 28.0259 22.8065 28.5 24 28.5C25.1935 28.5 26.3381 28.0259 27.182 27.182C28.0259 26.3381 28.5 25.1935 28.5 24C28.5 22.8065 28.0259 21.6619 27.182 20.818C26.3381 19.9741 25.1935 19.5 24 19.5Z" fill="#FF7A00"/>
<path fill-rule="evenodd" clip-rule="evenodd" d="M24 11C18.764 11 14.056 13.102 10.664 15.706C8.964 17.01 7.57 18.458 6.592 19.866C5.632 21.25 5 22.702 5 24C5 25.298 5.634 26.75 6.592 28.132C7.572 29.542 8.964 30.99 10.664 32.292C14.056 34.9 18.764 37 24 37C29.236 37 33.944 34.898 37.336 32.294C39.036 30.99 40.43 29.542 41.406 28.134C42.366 26.75 43 25.298 43 24C43 22.702 42.366 21.25 41.406 19.868C40.43 18.458 39.036 17.01 37.336 15.708C33.944 13.1 29.236 11 24 11ZM16.5 24C16.5 22.0109 17.2902 20.1032 18.6967 18.6967C20.1032 17.2902 22.0109 16.5 24 16.5C25.9891 16.5 27.8968 17.2902 29.3033 18.6967C30.7098 20.1032 31.5 22.0109 31.5 24C31.5 25.9891 30.7098 27.8968 29.3033 29.3033C27.8968 30.7098 25.9891 31.5 24 31.5C22.0109 31.5 20.1032 30.7098 18.6967 29.3033C17.2902 27.8968 16.5 25.9891 16.5 24Z" fill="#FF7A00"/>
</svg>
