<svg width="136" height="41" viewBox="0 0 136 41" fill="none" xmlns="http://www.w3.org/2000/svg">
<rect x="0.5" y="0.5" width="135" height="40" rx="8" fill="#12121C"/>
<rect x="0.5" y="0.5" width="135" height="40" rx="8" stroke="#A6A6A6"/>
<path d="M106.935 30.5H108.801V17.9984H106.935V30.5ZM123.742 22.502L121.603 27.9219H121.539L119.319 22.502H117.309L120.639 30.077L118.74 34.291H120.686L125.817 22.502H123.742ZM113.159 29.0801C112.549 29.0801 111.696 28.7742 111.696 28.0184C111.696 27.0535 112.758 26.6836 113.674 26.6836C114.494 26.6836 114.881 26.8602 115.379 27.1016C115.234 28.2598 114.237 29.0801 113.159 29.0801ZM113.385 22.2285C112.034 22.2285 110.635 22.8238 110.056 24.1426L111.712 24.834C112.066 24.1426 112.725 23.9176 113.417 23.9176C114.382 23.9176 115.363 24.4961 115.379 25.5258V25.6543C115.041 25.4613 114.317 25.1719 113.433 25.1719C111.647 25.1719 109.83 26.1527 109.83 27.9863C109.83 29.659 111.294 30.7367 112.934 30.7367C114.188 30.7367 114.881 30.1738 115.314 29.5141H115.379V30.4797H117.181V25.6863C117.181 23.4668 115.523 22.2285 113.385 22.2285ZM101.853 24.0238H99.1986V19.7387H101.853C103.248 19.7387 104.04 20.8934 104.04 21.8812C104.04 22.85 103.248 24.0238 101.853 24.0238ZM101.805 17.9984H97.3334V30.5H99.1986V25.7637H101.805C103.873 25.7637 105.906 24.2668 105.906 21.8812C105.906 19.4961 103.873 17.9984 101.805 17.9984ZM77.4232 29.0824C76.1341 29.0824 75.0552 28.0027 75.0552 26.5211C75.0552 25.0223 76.1341 23.9273 77.4232 23.9273C78.6959 23.9273 79.6947 25.0223 79.6947 26.5211C79.6947 28.0027 78.6959 29.0824 77.4232 29.0824ZM79.5658 23.202H79.5013C79.0826 22.7027 78.2767 22.2516 77.2623 22.2516C75.1353 22.2516 73.1861 24.1207 73.1861 26.5211C73.1861 28.9051 75.1353 30.7578 77.2623 30.7578C78.2767 30.7578 79.0826 30.3066 79.5013 29.7914H79.5658V30.4031C79.5658 32.0309 78.6959 32.9004 77.2943 32.9004C76.1509 32.9004 75.442 32.0789 75.1517 31.3863L73.5248 32.0629C73.9916 33.1902 75.2318 34.5762 77.2943 34.5762C79.4857 34.5762 81.3384 33.2871 81.3384 30.1453V22.5094H79.5658V23.202ZM82.6275 30.5H84.4955V17.9984H82.6275V30.5ZM87.2506 26.3758C87.2025 24.7324 88.524 23.8949 89.474 23.8949C90.2154 23.8949 90.8431 24.2656 91.0533 24.7969L87.2506 26.3758ZM93.0502 24.9578C92.6959 24.0078 91.6166 22.2516 89.4095 22.2516C87.2181 22.2516 85.3978 23.9754 85.3978 26.5047C85.3978 28.8891 87.2025 30.7578 89.6185 30.7578C91.5677 30.7578 92.6959 29.566 93.1634 28.873L91.7134 27.9062C91.2299 28.6152 90.5697 29.0824 89.6185 29.0824C88.6685 29.0824 87.9916 28.6473 87.5572 27.7934L93.2435 25.4414L93.0502 24.9578ZM47.7424 23.5566V25.3609H52.0599C51.931 26.3758 51.5927 27.1168 51.0771 27.6324C50.4486 28.2605 49.4658 28.9535 47.7424 28.9535C45.0841 28.9535 43.006 26.8109 43.006 24.1527C43.006 21.4945 45.0841 19.3516 47.7424 19.3516C49.1763 19.3516 50.2232 19.9156 50.9966 20.6406L52.2697 19.3676C51.19 18.3367 49.7564 17.5473 47.7424 17.5473C44.1009 17.5473 41.04 20.5117 41.04 24.1527C41.04 27.7934 44.1009 30.7578 47.7424 30.7578C49.7076 30.7578 51.19 30.1133 52.3498 28.9051C53.542 27.7129 53.9127 26.0375 53.9127 24.684C53.9127 24.2656 53.8802 23.8789 53.8158 23.5566H47.7424ZM58.8213 29.0824C57.5322 29.0824 56.4205 28.0191 56.4205 26.5047C56.4205 24.9742 57.5322 23.9273 58.8213 23.9273C60.1099 23.9273 61.2216 24.9742 61.2216 26.5047C61.2216 28.0191 60.1099 29.0824 58.8213 29.0824ZM58.8213 22.2516C56.4685 22.2516 54.5517 24.0398 54.5517 26.5047C54.5517 28.9535 56.4685 30.7578 58.8213 30.7578C61.1732 30.7578 63.0904 28.9535 63.0904 26.5047C63.0904 24.0398 61.1732 22.2516 58.8213 22.2516ZM68.1341 29.0824C66.8459 29.0824 65.7338 28.0191 65.7338 26.5047C65.7338 24.9742 66.8459 23.9273 68.1341 23.9273C69.4232 23.9273 70.5345 24.9742 70.5345 26.5047C70.5345 28.0191 69.4232 29.0824 68.1341 29.0824ZM68.1341 22.2516C65.7822 22.2516 63.8654 24.0398 63.8654 26.5047C63.8654 28.9535 65.7822 30.7578 68.1341 30.7578C70.4869 30.7578 72.4037 28.9535 72.4037 26.5047C72.4037 24.0398 70.4869 22.2516 68.1341 22.2516Z" fill="white"/>
<path d="M44.4775 13.7344C43.581 13.7344 42.8098 13.4189 42.1881 12.7973C41.566 12.1752 41.251 11.3963 41.251 10.4906C41.251 9.58493 41.5662 8.80743 42.1881 8.18398C42.8098 7.56223 43.581 7.24687 44.4775 7.24687C44.9343 7.24687 45.3606 7.32576 45.768 7.49003C46.1755 7.65433 46.5089 7.88239 46.7715 8.18085L46.8334 8.25136L46.134 8.95058L46.0641 8.86464C45.89 8.6507 45.6685 8.48449 45.3879 8.36367C45.1083 8.24315 44.8021 8.18749 44.4775 8.18749C43.8461 8.18749 43.3221 8.40194 42.8846 8.83788C42.8845 8.83798 42.8843 8.83798 42.8842 8.83809C42.4566 9.28283 42.2416 9.82431 42.2416 10.4906C42.2416 11.1575 42.4568 11.699 42.885 12.1439C43.3225 12.5797 43.8464 12.7953 44.4775 12.7953C45.0556 12.7953 45.5337 12.6339 45.9096 12.3145H45.9098C46.2597 12.0171 46.4697 11.6153 46.5439 11.1031H44.3775V10.1812H47.4803L47.4936 10.2656C47.519 10.4277 47.5369 10.5841 47.5369 10.7344C47.5369 11.5945 47.2747 12.2967 46.7602 12.8133C46.1793 13.429 45.4155 13.7344 44.4775 13.7344L44.4775 13.7344ZM71.4193 13.7344C70.5214 13.7344 69.7593 13.4188 69.1455 12.7973C69.1454 12.7972 69.1454 12.7972 69.1453 12.7971C69.1452 12.797 69.1452 12.797 69.1451 12.7969C68.5305 12.1821 68.2256 11.403 68.2256 10.4906C68.2256 9.57822 68.5305 8.79915 69.1451 8.18436C69.1452 8.18429 69.1452 8.18426 69.1453 8.18416L69.1455 8.18396C69.7593 7.56236 70.5214 7.24685 71.4193 7.24685C72.3155 7.24685 73.0779 7.56244 73.6916 8.19334C74.3064 8.80803 74.6115 9.58562 74.6115 10.4906C74.6115 11.403 74.3066 12.1821 73.692 12.7969L73.6918 12.7971C73.0777 13.419 72.3082 13.7344 71.4193 13.7344L71.4193 13.7344ZM48.4248 13.6V7.38124H48.5248H52.1389V8.32187H49.3982V10.0297H51.8701V10.9516H49.3982V12.6609H52.1389V13.6H48.4248ZM54.4119 13.6V8.32187H52.7307V7.38124H57.0666V8.32187H56.9666H55.3854V13.6H54.4119ZM59.8377 13.6V7.38124H60.8111V7.48124V13.6H59.8377ZM63.2615 13.6V8.32187H61.5803V7.38124H65.9162V8.32187H65.8162H64.235V13.6H63.2615ZM75.4756 13.6V7.38124H76.5732L79.3668 11.8535L79.3428 11.0045V7.38124H80.3162V13.6H79.3529L76.425 8.90175L76.449 9.75019V9.75156V13.6H75.4756ZM71.4193 12.7953C72.0508 12.7953 72.5663 12.5799 72.9865 12.1447L72.9871 12.1439L72.9877 12.1433C73.4139 11.717 73.6225 11.1682 73.6225 10.4906C73.6225 9.81461 73.4138 9.26397 72.9877 8.83785L72.9871 8.83725L72.9865 8.83665C72.5664 8.40152 72.051 8.18743 71.4193 8.18743C70.7867 8.18743 70.2713 8.40115 69.8432 8.83626L69.8428 8.83666C69.4245 9.27312 69.2162 9.8148 69.2162 10.4906C69.2162 11.168 69.4244 11.7079 69.8428 12.1445L69.8432 12.1449C70.2713 12.5801 70.7868 12.7953 71.4193 12.7953V12.7953Z" fill="white"/>
<path d="M20.7144 19.9242L10.0679 31.2242C10.0683 31.2266 10.0691 31.2285 10.0695 31.2309C10.396 32.4578 11.5167 33.3613 12.8468 33.3613C13.3785 33.3613 13.8777 33.2176 14.3058 32.9652L14.3398 32.9453L26.3238 26.0301L20.7144 19.9242Z" fill="#EA4335"/>
<path d="M31.4856 18.0004L31.4754 17.9934L26.3016 14.9941L20.4727 20.1809L26.3219 26.0293L31.4684 23.0598C32.3707 22.5727 32.9832 21.6215 32.9832 20.5246C32.9832 19.4356 32.3789 18.4891 31.4856 18.0004Z" fill="#FBBC04"/>
<path d="M10.0674 9.77769C10.0034 10.0137 9.96973 10.2609 9.96973 10.5176V30.4852C9.96973 30.7414 10.003 30.9894 10.0678 31.2246L21.0807 20.2137L10.0674 9.77769Z" fill="#4285F4"/>
<path d="M20.7928 20.5L26.3034 14.991L14.333 8.0508C13.8979 7.7902 13.3901 7.6398 12.8467 7.6398C11.5166 7.6398 10.3944 8.5449 10.0678 9.7734C10.0674 9.7746 10.0674 9.7754 10.0674 9.7765L20.7928 20.5Z" fill="#34A853"/>
</svg>
