<svg width="134" height="38" viewBox="0 0 134 38" fill="none" xmlns="http://www.w3.org/2000/svg">
<rect x="0.25" y="0.701355" width="133.717" height="36.5973" rx="3.59454" fill="#7750A1"/>
<path d="M21.2471 9.62676C21.0208 9.85802 20.8899 10.2181 20.8899 10.6843V27.316C20.8899 27.7823 21.0208 28.1424 21.2471 28.3736L21.303 28.4244L30.8486 19.1083V18.8883L21.303 9.57224L21.2471 9.62676Z" fill="url(#paint0_linear_197_1353)"/>
<path d="M34.0267 22.2152L30.8484 19.1083V18.8883L34.0306 15.7814L34.1019 15.8218L37.8704 17.9153C38.9459 18.5095 38.9459 19.4871 37.8704 20.085L34.1019 22.1748L34.0267 22.2152Z" fill="url(#paint1_linear_197_1353)"/>
<path d="M34.1018 22.1748L30.8483 18.9983L21.2468 28.3736C21.604 28.7403 22.1866 28.7844 22.849 28.4178L34.1018 22.1748Z" fill="url(#paint2_linear_197_1353)"/>
<path d="M34.1018 15.8219L22.849 9.57886C22.1866 9.216 21.604 9.26018 21.2468 9.62681L30.8483 18.9984L34.1018 15.8219Z" fill="url(#paint3_linear_197_1353)"/>
<path d="M68.8936 16.1352C67.0844 16.1352 65.6065 17.4795 65.6065 19.3342C65.6065 21.1739 67.0844 22.5323 68.8936 22.5323C70.7067 22.5323 72.1846 21.1739 72.1846 19.3342C72.1846 17.4795 70.7067 16.1352 68.8936 16.1352ZM68.8936 21.2726C67.9009 21.2726 67.0469 20.4726 67.0469 19.3342C67.0469 18.1808 67.9009 17.3949 68.8936 17.3949C69.8863 17.3949 70.7442 18.1808 70.7442 19.3342C70.7442 20.4726 69.8863 21.2726 68.8936 21.2726ZM61.7214 16.1352C59.9083 16.1352 58.4342 17.4795 58.4342 19.3342C58.4342 21.1739 59.9083 22.5323 61.7214 22.5323C63.5335 22.5323 65.0085 21.1739 65.0085 19.3342C65.0085 17.4795 63.5335 16.1352 61.7214 16.1352ZM61.7214 21.2726C60.7277 21.2726 59.8708 20.4726 59.8708 19.3342C59.8708 18.1808 60.7277 17.3949 61.7214 17.3949C62.7141 17.3949 63.5681 18.1808 63.5681 19.3342C63.5681 20.4726 62.7141 21.2726 61.7214 21.2726ZM53.1867 17.1157V18.475H56.5114C56.4142 19.2346 56.1542 19.793 55.7556 20.1822C55.2703 20.6522 54.5145 21.1739 53.1867 21.1739C51.1406 21.1739 49.5385 19.5617 49.5385 17.5641C49.5385 15.5664 51.1406 13.9542 53.1867 13.9542C54.293 13.9542 55.098 14.3763 55.692 14.9234L56.6732 13.9655C55.8422 13.1909 54.7369 12.5958 53.1867 12.5958C50.381 12.5958 48.0229 14.8247 48.0229 17.5641C48.0229 20.3034 50.381 22.5323 53.1867 22.5323C54.7032 22.5323 55.8422 22.0473 56.7377 21.1373C57.6553 20.2414 57.9412 18.9817 57.9412 17.9645C57.9412 17.6487 57.9143 17.3582 57.8661 17.1157H53.1867ZM88.0861 18.1695C87.8155 17.4541 86.9807 16.1352 85.2803 16.1352C83.5954 16.1352 82.1925 17.4315 82.1925 19.3342C82.1925 21.126 83.5809 22.5323 85.4421 22.5323C86.947 22.5323 87.8155 21.6364 88.1727 21.1147L87.0558 20.388C86.6832 20.9201 86.1758 21.2726 85.4421 21.2726C84.7132 21.2726 84.1904 20.9464 83.8553 20.3034L88.2372 18.5333L88.0861 18.1695ZM83.6185 19.2346C83.5809 18.0012 84.5996 17.3695 85.3294 17.3695C85.9014 17.3695 86.3866 17.6487 86.5484 18.0482L83.6185 19.2346ZM80.0569 22.3377H81.4973V12.937H80.0569V22.3377ZM77.6979 16.8477H77.6498C77.3262 16.4736 76.7091 16.1352 75.9272 16.1352C74.2865 16.1352 72.7864 17.5415 72.7864 19.3446C72.7864 21.1373 74.2865 22.5323 75.9272 22.5323C76.7091 22.5323 77.3262 22.1911 77.6498 21.8057H77.6979V22.2644C77.6979 23.4874 77.0287 24.1445 75.9494 24.1445C75.0693 24.1445 74.5234 23.5241 74.2981 23.0024L73.0454 23.5128C73.4065 24.3608 74.3626 25.4042 75.9494 25.4042C77.6382 25.4042 79.0632 24.4341 79.0632 22.0736V16.3298H77.6979V16.8477ZM76.0505 21.2726C75.0578 21.2726 74.2268 20.4614 74.2268 19.3446C74.2268 18.2174 75.0578 17.3949 76.0505 17.3949C77.0287 17.3949 77.8 18.2174 77.8 19.3446C77.8 20.4614 77.0287 21.2726 76.0505 21.2726ZM94.8299 12.937H91.3848V22.3377H92.8214V18.7758H94.8299C96.4253 18.7758 97.9899 17.6487 97.9899 15.856C97.9899 14.0642 96.4214 12.937 94.8299 12.937ZM94.8674 17.4682H92.8214V14.2447H94.8674C95.94 14.2447 96.5524 15.1142 96.5524 15.856C96.5524 16.5836 95.94 17.4682 94.8674 17.4682ZM103.748 16.1173C102.71 16.1173 101.63 16.5648 101.187 17.5565L102.461 18.0783C102.736 17.5565 103.24 17.3873 103.774 17.3873C104.519 17.3873 105.275 17.8245 105.286 18.5963V18.695C105.026 18.5483 104.47 18.3312 103.785 18.3312C102.412 18.3312 101.013 19.0691 101.013 20.4463C101.013 21.706 102.138 22.5173 103.402 22.5173C104.369 22.5173 104.902 22.0914 105.237 21.596H105.286V22.3227H106.674V18.7166C106.674 17.0498 105.399 16.1173 103.748 16.1173ZM103.574 21.2689C103.105 21.2689 102.45 21.0414 102.45 20.4726C102.45 19.745 103.266 19.4658 103.973 19.4658C104.606 19.4658 104.902 19.6021 105.286 19.7817C105.174 20.6522 104.406 21.2689 103.574 21.2689ZM111.729 16.3232L110.078 20.3984H110.028L108.321 16.3232H106.772L109.337 22.0181L107.874 25.1871H109.375L113.327 16.3232H111.729ZM98.7795 22.3377H100.22V12.937H98.7795V22.3377Z" fill="white"/>
<defs>
<linearGradient id="paint0_linear_197_1353" x1="30.0011" y1="27.4892" x2="17.3834" y2="14.5658" gradientUnits="userSpaceOnUse">
<stop stop-color="#00A0FF"/>
<stop offset="0.0066" stop-color="#00A1FF"/>
<stop offset="0.2601" stop-color="#00BEFF"/>
<stop offset="0.5122" stop-color="#00D2FF"/>
<stop offset="0.7604" stop-color="#00DFFF"/>
<stop offset="1" stop-color="#00E3FF"/>
</linearGradient>
<linearGradient id="paint1_linear_197_1353" x1="39.2709" y1="18.9972" x2="20.6326" y2="18.9972" gradientUnits="userSpaceOnUse">
<stop stop-color="#FFE000"/>
<stop offset="0.4087" stop-color="#FFBD00"/>
<stop offset="0.7754" stop-color="#FFA500"/>
<stop offset="1" stop-color="#FF9C00"/>
</linearGradient>
<linearGradient id="paint2_linear_197_1353" x1="32.3327" y1="17.2715" x2="15.2221" y2="-0.253663" gradientUnits="userSpaceOnUse">
<stop stop-color="#FF3A44"/>
<stop offset="1" stop-color="#C31162"/>
</linearGradient>
<linearGradient id="paint3_linear_197_1353" x1="18.8299" y1="33.9069" x2="26.4706" y2="26.0812" gradientUnits="userSpaceOnUse">
<stop stop-color="#32A071"/>
<stop offset="0.0685" stop-color="#2DA771"/>
<stop offset="0.4762" stop-color="#15CF74"/>
<stop offset="0.8009" stop-color="#06E775"/>
<stop offset="1" stop-color="#00F076"/>
</linearGradient>
</defs>
</svg>
