<svg width="16" height="16" viewBox="0 0 16 16" fill="none" xmlns="http://www.w3.org/2000/svg">
<g clip-path="url(#clip0_4338_1883)">
<path d="M5.27282 8.40078C5.27282 7.00172 6.39175 5.86725 7.7724 5.86725C9.15305 5.86725 10.2726 7.00172 10.2726 8.40078C10.2726 9.79985 9.15305 10.9343 7.7724 10.9343C6.39175 10.9343 5.27282 9.79985 5.27282 8.40078ZM3.92127 8.40078C3.92127 10.5562 5.64542 12.3033 7.7724 12.3033C9.89938 12.3033 11.6235 10.5562 11.6235 8.40078C11.6235 6.24542 9.89938 4.49828 7.7724 4.49828C5.64542 4.49828 3.92127 6.24542 3.92127 8.40078ZM10.876 4.34354C10.8758 4.84722 11.2786 5.2557 11.7756 5.2559C12.2727 5.25611 12.6758 4.84795 12.676 4.34427C12.6762 3.84059 12.2734 3.43211 11.7764 3.4319C11.2796 3.43214 10.8764 3.8401 10.876 4.34354ZM4.74243 14.587C4.01121 14.5533 3.61377 14.4299 3.34966 14.3256C2.9995 14.1874 2.74966 14.0229 2.48698 13.7571C2.22431 13.4913 2.06171 13.2384 1.92599 12.8835C1.82303 12.616 1.70123 12.2131 1.66799 11.4722C1.63163 10.6711 1.62437 10.4304 1.62437 8.40085C1.62437 6.37128 1.63223 6.1313 1.66799 5.32953C1.70129 4.58856 1.82399 4.18649 1.92599 3.91818C2.06231 3.56335 2.22467 3.31018 2.48698 3.044C2.7493 2.77782 2.9989 2.61305 3.34966 2.47552C3.61365 2.37119 4.01121 2.24776 4.74243 2.21408C5.53298 2.17724 5.77046 2.16988 7.7724 2.16988C9.77435 2.16988 10.0121 2.17784 10.8033 2.21408C11.5345 2.24782 11.9313 2.37216 12.196 2.47552C12.5462 2.61305 12.796 2.77818 13.0587 3.044C13.3214 3.30982 13.4834 3.56335 13.6197 3.91818C13.7227 4.1857 13.8445 4.58856 13.8777 5.32953C13.9141 6.1313 13.9213 6.37128 13.9213 8.40085C13.9213 10.4304 13.9141 10.6704 13.8777 11.4722C13.8444 12.2131 13.722 12.6159 13.6197 12.8835C13.4834 13.2384 13.321 13.4915 13.0587 13.7571C12.7964 14.0227 12.5462 14.1874 12.196 14.3256C11.932 14.4299 11.5345 14.5533 10.8033 14.587C10.0127 14.6239 9.77525 14.6312 7.7724 14.6312C5.76956 14.6312 5.53274 14.6239 4.74243 14.587ZM4.68033 0.846806C3.88191 0.883651 3.33634 1.01194 2.85988 1.19982C2.36644 1.39383 1.94873 1.65411 1.53131 2.07643C1.11389 2.49875 0.857696 2.9227 0.666238 3.42272C0.480839 3.90584 0.35424 4.45839 0.317881 5.26746C0.280921 6.0778 0.272461 6.33687 0.272461 8.40078C0.272461 10.4647 0.280921 10.7238 0.317881 11.5341C0.35424 12.3433 0.480839 12.8957 0.666238 13.3789C0.857696 13.8786 1.11395 14.303 1.53131 14.7252C1.94867 15.1473 2.36644 15.4072 2.85988 15.6018C3.33724 15.7896 3.88191 15.9179 4.68033 15.9548C5.48042 15.9916 5.73566 16.0008 7.7724 16.0008C9.80914 16.0008 10.0648 15.9922 10.8645 15.9548C11.663 15.9179 12.2082 15.7896 12.6849 15.6018C13.1781 15.4072 13.5961 15.1475 14.0135 14.7252C14.4309 14.3028 14.6866 13.8786 14.8786 13.3789C15.064 12.8957 15.1912 12.3432 15.2269 11.5341C15.2633 10.7232 15.2717 10.4647 15.2717 8.40078C15.2717 6.33687 15.2633 6.0778 15.2269 5.26746C15.1906 4.45833 15.064 3.90554 14.8786 3.42272C14.6866 2.92301 14.4302 2.49942 14.0135 2.07643C13.5967 1.65344 13.1781 1.39383 12.6855 1.19982C12.2082 1.01194 11.6629 0.883043 10.8651 0.846806C10.0654 0.809961 9.80975 0.800781 7.773 0.800781C5.73626 0.800781 5.48042 0.809353 4.68033 0.846806Z" fill="#12121C"/>
</g>
<defs>
<clipPath id="clip0_4338_1883">
<rect width="16" height="16" fill="white"/>
</clipPath>
</defs>
</svg>
