<svg width="48" height="48" viewBox="0 0 48 48" fill="none" xmlns="http://www.w3.org/2000/svg">
<rect width="48" height="48" rx="24" fill="#ECEBFF"/>
<path d="M33.75 27.9585V27C33.75 25.3455 32.4045 24 30.75 24C29.0955 24 27.75 25.3455 27.75 27V27.9585C27.3038 28.2188 27 28.6973 27 29.25V33C27 33.8272 27.6727 34.5 28.5 34.5H33C33.8272 34.5 34.5 33.8272 34.5 33V29.25C34.5 28.6973 34.1963 28.2188 33.75 27.9585ZM30.75 25.5C31.5772 25.5 32.25 26.1735 32.25 27V27.75H29.25V27C29.25 26.1735 29.9228 25.5 30.75 25.5ZM33 33H28.5V29.25H33V33ZM24 13.5975C23.265 13.53 22.5 13.5 21.75 13.5C17.775 13.5 13.5 14.4375 13.5 16.5V30C13.5 32.0625 17.775 33 21.75 33C22.5 33 23.265 32.97 24 32.9025V31.395C23.325 31.4625 22.575 31.5 21.75 31.5C17.3625 31.5 15.1125 30.405 15 30V27.3225C16.5975 28.125 19.23 28.5 21.75 28.5C22.5 28.5 23.265 28.47 24 28.4025V26.895C23.325 26.9625 22.575 27 21.75 27C17.3625 27 15.1125 25.905 15 25.5V22.8225C16.5975 23.625 19.23 24 21.75 24C22.5 24 23.265 23.97 24 23.9025C27.1875 23.6025 30 22.6725 30 21V16.5C30 14.8275 27.1875 13.8975 24 13.5975ZM28.5 20.9925C28.4025 21.33 26.9025 22.11 24 22.395C23.325 22.4625 22.575 22.5 21.75 22.5C17.3625 22.5 15.1125 21.405 15 21V18.3225C16.5975 19.125 19.23 19.5 21.75 19.5C22.5 19.5 23.2575 19.47 24 19.395C25.7475 19.2375 27.375 18.885 28.5 18.3225V20.9925ZM24 17.895C23.325 17.9625 22.575 18 21.75 18C17.37 18 15.12 16.905 15 16.515V16.5075C15.12 16.095 17.37 15 21.75 15C22.575 15 23.325 15.0375 24 15.105C26.88 15.3825 28.38 16.155 28.5 16.5C28.38 16.845 26.88 17.6175 24 17.895Z" fill="#5856D6" stroke="#5856D6"/>
</svg>
