<svg width="48" height="48" viewBox="0 0 48 48" fill="none" xmlns="http://www.w3.org/2000/svg">
<path fill-rule="evenodd" clip-rule="evenodd" d="M6 24C6 22.4087 6.63214 20.8826 7.75736 19.7574C8.88258 18.6321 10.4087 18 12 18H36C37.5913 18 39.1174 18.6321 40.2426 19.7574C41.3679 20.8826 42 22.4087 42 24V38C42 39.5913 41.3679 41.1174 40.2426 42.2426C39.1174 43.3679 37.5913 44 36 44H12C10.4087 44 8.88258 43.3679 7.75736 42.2426C6.63214 41.1174 6 39.5913 6 38V24ZM26 28C26 27.4696 25.7893 26.9609 25.4142 26.5858C25.0391 26.2107 24.5304 26 24 26C23.4696 26 22.9609 26.2107 22.5858 26.5858C22.2107 26.9609 22 27.4696 22 28V34C22 34.5304 22.2107 35.0391 22.5858 35.4142C22.9609 35.7893 23.4696 36 24 36C24.5304 36 25.0391 35.7893 25.4142 35.4142C25.7893 35.0391 26 34.5304 26 34V28Z" fill="#00BFA6"/>
<path d="M16 20V14C16 11.8783 16.8429 9.84344 18.3431 8.34315C19.8434 6.84285 21.8783 6 24 6C26.1217 6 28.1566 6.84285 29.6569 8.34315C31.1571 9.84344 32 11.8783 32 14V20" stroke="#00BFA6" stroke-width="2" stroke-linecap="round" stroke-linejoin="round"/>
</svg>
