<svg width="148" height="28" viewBox="0 0 148 28" fill="none" xmlns="http://www.w3.org/2000/svg">
<path d="M0 7.99C0 3.57724 3.57724 0 7.99 0C12.4028 0 15.98 3.57725 15.98 7.99V13.5344C15.98 15.561 14.9596 17.4513 13.2654 18.5633L0 27.27V7.99Z" fill="#12121C"/>
<path d="M25.6298 22.1348V5.40749H31.9026C33.1876 5.40749 34.2657 5.64708 35.1369 6.12624C36.0136 6.60541 36.6752 7.26426 37.1217 8.1028C37.5736 8.9359 37.7996 9.88334 37.7996 10.9451C37.7996 12.0178 37.5736 12.9707 37.1217 13.8038C36.6697 14.6369 36.0027 15.293 35.1206 15.7722C34.2385 16.2459 33.1522 16.4828 31.8617 16.4828H27.7044V13.9917H31.4533C32.2048 13.9917 32.8201 13.861 33.2992 13.5996C33.7784 13.3382 34.1323 12.9789 34.361 12.5215C34.5952 12.0641 34.7122 11.5386 34.7122 10.9451C34.7122 10.3516 34.5952 9.82889 34.361 9.37695C34.1323 8.92501 33.7757 8.5738 33.2911 8.32333C32.8119 8.06741 32.1939 7.93945 31.437 7.93945H28.66V22.1348H25.6298ZM45.4325 22.3798C44.2074 22.3798 43.1456 22.1103 42.2472 21.5712C41.3487 21.0321 40.6518 20.278 40.1562 19.3088C39.6662 18.3395 39.4212 17.207 39.4212 15.911C39.4212 14.6151 39.6662 13.4798 40.1562 12.5051C40.6518 11.5305 41.3487 10.7736 42.2472 10.2346C43.1456 9.69549 44.2074 9.42596 45.4325 9.42596C46.6577 9.42596 47.7195 9.69549 48.6179 10.2346C49.5163 10.7736 50.2106 11.5305 50.7006 12.5051C51.1961 13.4798 51.4439 14.6151 51.4439 15.911C51.4439 17.207 51.1961 18.3395 50.7006 19.3088C50.2106 20.278 49.5163 21.0321 48.6179 21.5712C47.7195 22.1103 46.6577 22.3798 45.4325 22.3798ZM45.4489 20.0112C46.1132 20.0112 46.6686 19.8288 47.1151 19.464C47.5616 19.0937 47.8937 18.5982 48.1115 17.9775C48.3348 17.3567 48.4464 16.6652 48.4464 15.9029C48.4464 15.1351 48.3348 14.4409 48.1115 13.8201C47.8937 13.194 47.5616 12.6957 47.1151 12.3255C46.6686 11.9552 46.1132 11.7701 45.4489 11.7701C44.7682 11.7701 44.2019 11.9552 43.75 12.3255C43.3035 12.6957 42.9686 13.194 42.7454 13.8201C42.5276 14.4409 42.4187 15.1351 42.4187 15.9029C42.4187 16.6652 42.5276 17.3567 42.7454 17.9775C42.9686 18.5982 43.3035 19.0937 43.75 19.464C44.2019 19.8288 44.7682 20.0112 45.4489 20.0112ZM59.2647 22.3798C58.0123 22.3798 56.9369 22.1048 56.0385 21.5549C55.1455 21.0049 54.4567 20.2453 53.9721 19.2761C53.4929 18.3014 53.2533 17.1797 53.2533 15.911C53.2533 14.6369 53.4984 13.5125 53.9884 12.5378C54.4785 11.5577 55.17 10.7954 56.063 10.2509C56.9614 9.70093 58.0232 9.42596 59.2484 9.42596C60.2666 9.42596 61.1677 9.61381 61.9518 9.98952C62.7414 10.3598 63.3703 10.8852 63.8386 11.5659C64.3068 12.2411 64.5736 13.0306 64.639 13.9345H61.813C61.6986 13.3301 61.4264 12.8264 60.9962 12.4235C60.5715 12.0151 60.0025 11.8109 59.2892 11.8109C58.6848 11.8109 58.1539 11.9743 57.6965 12.301C57.2391 12.6222 56.8825 13.085 56.6266 13.6895C56.3761 14.2939 56.2508 15.0181 56.2508 15.862C56.2508 16.7169 56.3761 17.452 56.6266 18.0673C56.877 18.6771 57.2282 19.1481 57.6802 19.4803C58.1376 19.807 58.6739 19.9703 59.2892 19.9703C59.7248 19.9703 60.1141 19.8887 60.4572 19.7253C60.8056 19.5565 61.097 19.3142 61.3311 18.9984C61.5652 18.6826 61.7259 18.2987 61.813 17.8468H64.639C64.5682 18.7343 64.3068 19.5211 63.8549 20.2072C63.4029 20.8878 62.7877 21.4215 62.009 21.8081C61.2304 22.1892 60.3156 22.3798 59.2647 22.3798ZM69.6011 18.198L69.5929 14.6287H70.0667L74.5752 9.58931H78.0301L72.4843 15.764H71.8717L69.6011 18.198ZM66.9058 22.1348V5.40749H69.8625V22.1348H66.9058ZM74.7794 22.1348L70.6956 16.4256L72.6885 14.3429L78.316 22.1348H74.7794ZM79.8395 22.1348V9.58931H82.7962V22.1348H79.8395ZM81.326 7.80877C80.8578 7.80877 80.4548 7.65359 80.1172 7.34322C79.7796 7.0274 79.6108 6.64897 79.6108 6.20792C79.6108 5.76142 79.7796 5.38299 80.1172 5.07262C80.4548 4.75681 80.8578 4.5989 81.326 4.5989C81.7998 4.5989 82.2027 4.75681 82.5348 5.07262C82.8724 5.38299 83.0412 5.76142 83.0412 6.20792C83.0412 6.64897 82.8724 7.0274 82.5348 7.34322C82.2027 7.65359 81.7998 7.80877 81.326 7.80877ZM91.2296 22.3798C89.9718 22.3798 88.8855 22.1184 87.9707 21.5957C87.0614 21.0675 86.3617 20.3216 85.8716 19.3578C85.3816 18.3886 85.1365 17.2478 85.1365 15.9355C85.1365 14.6451 85.3816 13.5125 85.8716 12.5378C86.3671 11.5577 87.0587 10.7954 87.9462 10.2509C88.8337 9.70093 89.8765 9.42596 91.0744 9.42596C91.8476 9.42596 92.5772 9.5512 93.2633 9.80167C93.9548 10.0467 94.5647 10.4279 95.0929 10.9451C95.6265 11.4624 96.0457 12.1213 96.3507 12.9217C96.6556 13.7167 96.8081 14.6641 96.8081 15.764V16.6706H86.525V14.6777H93.9739C93.9685 14.1114 93.8459 13.6078 93.6064 13.1667C93.3668 12.7202 93.0319 12.369 92.6017 12.1131C92.177 11.8572 91.6815 11.7292 91.1152 11.7292C90.5108 11.7292 89.9799 11.8762 89.5225 12.1703C89.0652 12.4589 88.7085 12.84 88.4526 13.3137C88.2021 13.782 88.0742 14.2966 88.0687 14.8574V16.5971C88.0687 17.3268 88.2021 17.9529 88.4689 18.4757C88.7357 18.993 89.1087 19.3904 89.5879 19.6681C90.0671 19.9404 90.6279 20.0765 91.2704 20.0765C91.7006 20.0765 92.0899 20.0166 92.4384 19.8968C92.7869 19.7716 93.0891 19.5892 93.345 19.3496C93.6009 19.11 93.7942 18.8133 93.9249 18.4593L96.6855 18.7697C96.5113 19.4993 96.1792 20.1364 95.6891 20.6809C95.2045 21.22 94.5837 21.6393 93.8269 21.9387C93.07 22.2328 92.2042 22.3798 91.2296 22.3798ZM108.37 10.0059C108.293 9.29255 107.972 8.73716 107.406 8.33967C106.845 7.94218 106.115 7.74343 105.217 7.74343C104.585 7.74343 104.044 7.83872 103.592 8.0293C103.14 8.21987 102.794 8.47851 102.554 8.80522C102.315 9.13192 102.192 9.50491 102.187 9.92418C102.187 10.2727 102.266 10.5749 102.424 10.8308C102.587 11.0867 102.807 11.3045 103.085 11.4842C103.363 11.6584 103.671 11.8055 104.008 11.9252C104.346 12.045 104.686 12.1458 105.029 12.2275L106.597 12.6195C107.229 12.7665 107.836 12.9653 108.419 13.2157C109.007 13.4662 109.532 13.782 109.995 14.1632C110.463 14.5443 110.834 15.0044 111.106 15.5435C111.378 16.0826 111.514 16.7142 111.514 17.4384C111.514 18.4185 111.264 19.2815 110.763 20.0275C110.262 20.7681 109.538 21.348 108.59 21.7672C107.648 22.181 106.507 22.388 105.168 22.388C103.867 22.388 102.737 22.1865 101.778 21.7836C100.825 21.3806 100.079 20.7926 99.5404 20.0194C99.0068 19.2462 98.7182 18.3042 98.6747 17.1934H101.656C101.699 17.776 101.879 18.2606 102.195 18.6472C102.511 19.0338 102.922 19.3224 103.428 19.513C103.94 19.7035 104.512 19.7988 105.143 19.7988C105.802 19.7988 106.379 19.7008 106.875 19.5048C107.376 19.3033 107.768 19.0256 108.051 18.6717C108.334 18.3123 108.479 17.8931 108.484 17.4139C108.479 16.9783 108.351 16.6189 108.1 16.3358C107.85 16.0472 107.498 15.8076 107.046 15.617C106.6 15.421 106.077 15.2467 105.478 15.0943L103.575 14.6042C102.198 14.2503 101.109 13.714 100.308 12.9952C99.5132 12.271 99.1157 11.31 99.1157 10.112C99.1157 9.12648 99.3825 8.26343 99.9161 7.5229C100.455 6.78237 101.188 6.20792 102.113 5.79954C103.039 5.38571 104.087 5.1788 105.258 5.1788C106.445 5.1788 107.485 5.38571 108.378 5.79954C109.276 6.20792 109.981 6.77693 110.493 7.50657C111.005 8.23076 111.269 9.06386 111.285 10.0059H108.37ZM117.534 22.388C116.739 22.388 116.023 22.2464 115.386 21.9632C114.754 21.6747 114.253 21.2499 113.883 20.6891C113.518 20.1283 113.336 19.4367 113.336 18.6145C113.336 17.9067 113.467 17.3213 113.728 16.8585C113.989 16.3957 114.346 16.0254 114.798 15.7477C115.25 15.47 115.759 15.2604 116.325 15.1188C116.897 14.9718 117.488 14.8656 118.098 14.8002C118.833 14.724 119.429 14.656 119.886 14.5961C120.344 14.5307 120.676 14.4327 120.883 14.302C121.095 14.1659 121.201 13.9563 121.201 13.6731V13.6241C121.201 13.0088 121.019 12.5324 120.654 12.1948C120.289 11.8572 119.764 11.6884 119.078 11.6884C118.353 11.6884 117.779 11.8463 117.354 12.1621C116.935 12.4779 116.652 12.8509 116.505 13.2811L113.744 12.889C113.962 12.1267 114.321 11.4896 114.822 10.9778C115.323 10.4605 115.936 10.0739 116.66 9.818C117.384 9.55664 118.185 9.42596 119.061 9.42596C119.666 9.42596 120.267 9.49674 120.866 9.63832C121.465 9.77989 122.013 10.014 122.508 10.3407C123.004 10.662 123.401 11.1003 123.701 11.6557C124.005 12.2111 124.158 12.9054 124.158 13.7385V22.1348H121.316V20.4114H121.218C121.038 20.7599 120.785 21.0866 120.458 21.3915C120.137 21.691 119.731 21.9333 119.241 22.1184C118.756 22.2981 118.187 22.388 117.534 22.388ZM118.302 20.2154C118.895 20.2154 119.41 20.0983 119.845 19.8642C120.281 19.6246 120.616 19.3088 120.85 18.9167C121.09 18.5247 121.209 18.0972 121.209 17.6344V16.1561C121.117 16.2323 120.959 16.3031 120.736 16.3684C120.518 16.4338 120.273 16.4909 120.001 16.54C119.728 16.589 119.459 16.6325 119.192 16.6706C118.925 16.7087 118.694 16.7414 118.498 16.7686C118.057 16.8285 117.662 16.9266 117.313 17.0627C116.965 17.1988 116.69 17.3894 116.489 17.6344C116.287 17.874 116.186 18.1844 116.186 18.5655C116.186 19.11 116.385 19.5211 116.783 19.7988C117.18 20.0765 117.686 20.2154 118.302 20.2154ZM133.324 9.58931V11.8762H125.908V9.58931H133.324ZM127.762 22.1348V8.40501C127.762 7.56102 127.936 6.8586 128.285 6.29776C128.639 5.73692 129.113 5.31765 129.706 5.03995C130.3 4.76225 130.958 4.6234 131.683 4.6234C132.194 4.6234 132.649 4.66424 133.047 4.74592C133.444 4.82759 133.738 4.9011 133.929 4.96644L133.341 7.25337C133.215 7.21526 133.058 7.17714 132.867 7.13903C132.676 7.09547 132.464 7.07369 132.23 7.07369C131.68 7.07369 131.291 7.20709 131.062 7.4739C130.839 7.73526 130.727 8.11097 130.727 8.60103V22.1348H127.762ZM140.561 22.3798C139.303 22.3798 138.217 22.1184 137.302 21.5957C136.393 21.0675 135.693 20.3216 135.203 19.3578C134.713 18.3886 134.468 17.2478 134.468 15.9355C134.468 14.6451 134.713 13.5125 135.203 12.5378C135.699 11.5577 136.39 10.7954 137.278 10.2509C138.165 9.70093 139.208 9.42596 140.406 9.42596C141.179 9.42596 141.909 9.5512 142.595 9.80167C143.286 10.0467 143.896 10.4279 144.424 10.9451C144.958 11.4624 145.377 12.1213 145.682 12.9217C145.987 13.7167 146.14 14.6641 146.14 15.764V16.6706H135.857V14.6777H143.305C143.3 14.1114 143.178 13.6078 142.938 13.1667C142.698 12.7202 142.363 12.369 141.933 12.1131C141.509 11.8572 141.013 11.7292 140.447 11.7292C139.842 11.7292 139.312 11.8762 138.854 12.1703C138.397 12.4589 138.04 12.84 137.784 13.3137C137.534 13.782 137.406 14.2966 137.4 14.8574V16.5971C137.4 17.3268 137.534 17.9529 137.801 18.4757C138.067 18.993 138.44 19.3904 138.919 19.6681C139.399 19.9404 139.959 20.0765 140.602 20.0765C141.032 20.0765 141.421 20.0166 141.77 19.8968C142.118 19.7716 142.421 19.5892 142.677 19.3496C142.932 19.11 143.126 18.8133 143.256 18.4593L146.017 18.7697C145.843 19.4993 145.511 20.1364 145.021 20.6809C144.536 21.22 143.915 21.6393 143.158 21.9387C142.402 22.2328 141.536 22.3798 140.561 22.3798Z" fill="#12121C"/>
</svg>
