<svg width="170" height="48" viewBox="0 0 170 48" fill="none" xmlns="http://www.w3.org/2000/svg">
<path d="M11.0098 18.3552C11.0098 13.9425 14.587 10.3652 18.9998 10.3652C23.4125 10.3652 26.9898 13.9425 26.9898 18.3552V23.8997C26.9898 25.9262 25.9694 27.8165 24.2751 28.9285L11.0098 37.6352V18.3552Z" fill="#12121C"/>
<path d="M36.6401 32.5V15.7727H42.9128C44.1979 15.7727 45.276 16.0123 46.1472 16.4915C47.0239 16.9706 47.6854 17.6295 48.1319 18.468C48.5839 19.3011 48.8098 20.2486 48.8098 21.3104C48.8098 22.383 48.5839 23.3359 48.1319 24.169C47.68 25.0021 47.013 25.6583 46.1309 26.1374C45.2488 26.6112 44.1625 26.848 42.872 26.848H38.7147V24.3569H42.4636C43.215 24.3569 43.8303 24.2262 44.3095 23.9648C44.7886 23.7035 45.1426 23.3441 45.3713 22.8867C45.6054 22.4293 45.7225 21.9039 45.7225 21.3104C45.7225 20.7169 45.6054 20.1941 45.3713 19.7422C45.1426 19.2902 44.7859 18.939 44.3013 18.6886C43.8221 18.4326 43.2041 18.3047 42.4473 18.3047H39.6703V32.5H36.6401ZM56.4428 32.745C55.2176 32.745 54.1559 32.4755 53.2574 31.9364C52.359 31.3974 51.662 30.6432 51.1665 29.674C50.6764 28.7048 50.4314 27.5722 50.4314 26.2763C50.4314 24.9804 50.6764 23.8451 51.1665 22.8704C51.662 21.8957 52.359 21.1388 53.2574 20.5998C54.1559 20.0607 55.2176 19.7912 56.4428 19.7912C57.6679 19.7912 58.7297 20.0607 59.6282 20.5998C60.5266 21.1388 61.2208 21.8957 61.7109 22.8704C62.2064 23.8451 62.4541 24.9804 62.4541 26.2763C62.4541 27.5722 62.2064 28.7048 61.7109 29.674C61.2208 30.6432 60.5266 31.3974 59.6282 31.9364C58.7297 32.4755 57.6679 32.745 56.4428 32.745ZM56.4591 30.3764C57.1234 30.3764 57.6788 30.194 58.1253 29.8292C58.5718 29.4589 58.904 28.9634 59.1218 28.3427C59.345 27.7219 59.4566 27.0304 59.4566 26.2681C59.4566 25.5004 59.345 24.8061 59.1218 24.1854C58.904 23.5592 58.5718 23.061 58.1253 22.6907C57.6788 22.3204 57.1234 22.1353 56.4591 22.1353C55.7785 22.1353 55.2122 22.3204 54.7603 22.6907C54.3138 23.061 53.9789 23.5592 53.7556 24.1854C53.5378 24.8061 53.4289 25.5004 53.4289 26.2681C53.4289 27.0304 53.5378 27.7219 53.7556 28.3427C53.9789 28.9634 54.3138 29.4589 54.7603 29.8292C55.2122 30.194 55.7785 30.3764 56.4591 30.3764ZM70.2749 32.745C69.0226 32.745 67.9472 32.4701 67.0487 31.9201C66.1557 31.3701 65.4669 30.6106 64.9823 29.6413C64.5032 28.6667 64.2636 27.545 64.2636 26.2763C64.2636 25.0021 64.5086 23.8777 64.9987 22.9031C65.4887 21.9229 66.1802 21.1606 67.0732 20.6161C67.9717 20.0662 69.0335 19.7912 70.2586 19.7912C71.2768 19.7912 72.178 19.979 72.9621 20.3548C73.7516 20.725 74.3805 21.2505 74.8488 21.9311C75.3171 22.6063 75.5839 23.3958 75.6492 24.2997H72.8232C72.7089 23.6953 72.4366 23.1916 72.0065 22.7887C71.5818 22.3803 71.0128 22.1761 70.2994 22.1761C69.695 22.1761 69.1642 22.3395 68.7068 22.6662C68.2494 22.9875 67.8927 23.4503 67.6368 24.0547C67.3863 24.6591 67.2611 25.3833 67.2611 26.2273C67.2611 27.0821 67.3863 27.8172 67.6368 28.4325C67.8873 29.0424 68.2385 29.5134 68.6904 29.8455C69.1478 30.1722 69.6842 30.3356 70.2994 30.3356C70.7351 30.3356 71.1244 30.2539 71.4674 30.0906C71.8159 29.9218 72.1072 29.6795 72.3414 29.3636C72.5755 29.0478 72.7361 28.6639 72.8232 28.212H75.6492C75.5784 29.0996 75.3171 29.8864 74.8651 30.5724C74.4132 31.2531 73.7979 31.7867 73.0193 32.1733C72.2406 32.5545 71.3258 32.745 70.2749 32.745ZM80.6114 28.5632L80.6032 24.994H81.0769L85.5854 19.9545H89.0403L83.4945 26.1293H82.882L80.6114 28.5632ZM77.9161 32.5V15.7727H80.8727V32.5H77.9161ZM85.7896 32.5L81.7058 26.7908L83.6987 24.7081L89.3262 32.5H85.7896ZM90.8498 32.5V19.9545H93.8065V32.5H90.8498ZM92.3363 18.174C91.868 18.174 91.4651 18.0188 91.1275 17.7085C90.7899 17.3926 90.6211 17.0142 90.6211 16.5732C90.6211 16.1267 90.7899 15.7482 91.1275 15.4379C91.4651 15.122 91.868 14.9641 92.3363 14.9641C92.81 14.9641 93.2129 15.122 93.5451 15.4379C93.8827 15.7482 94.0515 16.1267 94.0515 16.5732C94.0515 17.0142 93.8827 17.3926 93.5451 17.7085C93.2129 18.0188 92.81 18.174 92.3363 18.174ZM102.24 32.745C100.982 32.745 99.8957 32.4837 98.981 31.9609C98.0716 31.4328 97.3719 30.6868 96.8819 29.723C96.3918 28.7538 96.1468 27.613 96.1468 26.3008C96.1468 25.0103 96.3918 23.8777 96.8819 22.9031C97.3774 21.9229 98.0689 21.1606 98.9565 20.6161C99.844 20.0662 100.887 19.7912 102.085 19.7912C102.858 19.7912 103.587 19.9164 104.274 20.1669C104.965 20.4119 105.575 20.7931 106.103 21.3104C106.637 21.8277 107.056 22.4865 107.361 23.2869C107.666 24.0819 107.818 25.0294 107.818 26.1293V27.0359H97.5353V25.043H104.984C104.979 24.4767 104.856 23.973 104.617 23.532C104.377 23.0855 104.042 22.7343 103.612 22.4783C103.187 22.2224 102.692 22.0945 102.125 22.0945C101.521 22.0945 100.99 22.2415 100.533 22.5355C100.075 22.8241 99.7188 23.2053 99.4628 23.679C99.2124 24.1473 99.0844 24.6618 99.079 25.2227V26.9624C99.079 27.692 99.2124 28.3182 99.4792 28.8409C99.746 29.3582 100.119 29.7557 100.598 30.0334C101.077 30.3056 101.638 30.4418 102.281 30.4418C102.711 30.4418 103.1 30.3819 103.449 30.2621C103.797 30.1368 104.099 29.9544 104.355 29.7148C104.611 29.4753 104.804 29.1785 104.935 28.8246L107.696 29.1349C107.522 29.8646 107.189 30.5017 106.699 31.0462C106.215 31.5852 105.594 32.0045 104.837 32.304C104.08 32.598 103.215 32.745 102.24 32.745ZM119.38 20.3711C119.304 19.6578 118.982 19.1024 118.416 18.7049C117.855 18.3074 117.126 18.1087 116.227 18.1087C115.596 18.1087 115.054 18.204 114.602 18.3945C114.15 18.5851 113.804 18.8437 113.565 19.1705C113.325 19.4972 113.202 19.8701 113.197 20.2894C113.197 20.6379 113.276 20.9401 113.434 21.196C113.597 21.4519 113.818 21.6697 114.095 21.8494C114.373 22.0237 114.681 22.1707 115.018 22.2905C115.356 22.4103 115.696 22.511 116.039 22.5927L117.608 22.9847C118.239 23.1317 118.846 23.3305 119.429 23.581C120.017 23.8314 120.542 24.1473 121.005 24.5284C121.474 24.9096 121.844 25.3697 122.116 25.9087C122.388 26.4478 122.524 27.0794 122.524 27.8036C122.524 28.7837 122.274 29.6468 121.773 30.3928C121.272 31.1333 120.548 31.7132 119.6 32.1325C118.658 32.5463 117.518 32.7532 116.178 32.7532C114.877 32.7532 113.747 32.5517 112.789 32.1488C111.836 31.7459 111.09 31.1578 110.551 30.3846C110.017 29.6114 109.728 28.6694 109.685 27.5586H112.666C112.71 28.1412 112.889 28.6258 113.205 29.0124C113.521 29.399 113.932 29.6876 114.438 29.8782C114.95 30.0688 115.522 30.1641 116.154 30.1641C116.813 30.1641 117.39 30.0661 117.885 29.87C118.386 29.6686 118.778 29.3909 119.061 29.0369C119.344 28.6776 119.489 28.2583 119.494 27.7791C119.489 27.3435 119.361 26.9841 119.11 26.701C118.86 26.4124 118.509 26.1728 118.057 25.9822C117.61 25.7862 117.088 25.612 116.489 25.4595L114.585 24.9695C113.208 24.6155 112.119 24.0792 111.318 23.3604C110.523 22.6362 110.126 21.6752 110.126 20.4773C110.126 19.4917 110.393 18.6287 110.926 17.8881C111.465 17.1476 112.198 16.5732 113.123 16.1648C114.049 15.7509 115.097 15.544 116.268 15.544C117.455 15.544 118.495 15.7509 119.388 16.1648C120.286 16.5732 120.992 17.1422 121.503 17.8718C122.015 18.596 122.279 19.4291 122.296 20.3711H119.38ZM128.544 32.7532C127.749 32.7532 127.033 32.6116 126.396 32.3285C125.765 32.0399 125.264 31.6152 124.893 31.0543C124.529 30.4935 124.346 29.802 124.346 28.9798C124.346 28.2719 124.477 27.6866 124.738 27.2237C125 26.7609 125.356 26.3906 125.808 26.1129C126.26 25.8352 126.769 25.6256 127.335 25.484C127.907 25.337 128.498 25.2308 129.108 25.1655C129.843 25.0893 130.439 25.0212 130.897 24.9613C131.354 24.896 131.686 24.7979 131.893 24.6673C132.105 24.5311 132.212 24.3215 132.212 24.0384V23.9893C132.212 23.3741 132.029 22.8976 131.664 22.56C131.299 22.2224 130.774 22.0536 130.088 22.0536C129.364 22.0536 128.789 22.2115 128.365 22.5273C127.945 22.8432 127.662 23.2161 127.515 23.6463L124.754 23.2543C124.972 22.492 125.332 21.8549 125.833 21.343C126.334 20.8258 126.946 20.4392 127.67 20.1832C128.395 19.9219 129.195 19.7912 130.072 19.7912C130.676 19.7912 131.278 19.862 131.877 20.0036C132.476 20.1451 133.023 20.3793 133.518 20.706C134.014 21.0272 134.411 21.4656 134.711 22.021C135.016 22.5763 135.168 23.2706 135.168 24.1037V32.5H132.326V30.7766H132.228C132.048 31.1251 131.795 31.4518 131.468 31.7567C131.147 32.0562 130.741 32.2985 130.251 32.4837C129.767 32.6634 129.198 32.7532 128.544 32.7532ZM129.312 30.5806C129.906 30.5806 130.42 30.4635 130.856 30.2294C131.291 29.9898 131.626 29.674 131.86 29.282C132.1 28.8899 132.22 28.4625 132.22 27.9996V26.5213C132.127 26.5975 131.969 26.6683 131.746 26.7337C131.528 26.799 131.283 26.8562 131.011 26.9052C130.739 26.9542 130.469 26.9978 130.202 27.0359C129.935 27.074 129.704 27.1067 129.508 27.1339C129.067 27.1938 128.672 27.2918 128.324 27.4279C127.975 27.564 127.7 27.7546 127.499 27.9996C127.297 28.2392 127.197 28.5496 127.197 28.9308C127.197 29.4753 127.395 29.8864 127.793 30.1641C128.19 30.4418 128.697 30.5806 129.312 30.5806ZM144.335 19.9545V22.2415H136.918V19.9545H144.335ZM138.772 32.5V18.7702C138.772 17.9263 138.947 17.2238 139.295 16.663C139.649 16.1022 140.123 15.6829 140.716 15.4052C141.31 15.1275 141.969 14.9886 142.693 14.9886C143.205 14.9886 143.659 15.0295 144.057 15.1112C144.454 15.1928 144.748 15.2663 144.939 15.3317L144.351 17.6186C144.226 17.5805 144.068 17.5424 143.877 17.5043C143.687 17.4607 143.474 17.4389 143.24 17.4389C142.69 17.4389 142.301 17.5723 142.072 17.8391C141.849 18.1005 141.737 18.4762 141.737 18.9663V32.5H138.772ZM151.571 32.745C150.314 32.745 149.227 32.4837 148.313 31.9609C147.403 31.4328 146.704 30.6868 146.213 29.723C145.723 28.7538 145.478 27.613 145.478 26.3008C145.478 25.0103 145.723 23.8777 146.213 22.9031C146.709 21.9229 147.4 21.1606 148.288 20.6161C149.176 20.0662 150.218 19.7912 151.416 19.7912C152.189 19.7912 152.919 19.9164 153.605 20.1669C154.297 20.4119 154.907 20.7931 155.435 21.3104C155.968 21.8277 156.388 22.4865 156.693 23.2869C156.997 24.0819 157.15 25.0294 157.15 26.1293V27.0359H146.867V25.043H154.316C154.31 24.4767 154.188 23.973 153.948 23.532C153.709 23.0855 153.374 22.7343 152.944 22.4783C152.519 22.2224 152.023 22.0945 151.457 22.0945C150.853 22.0945 150.322 22.2415 149.864 22.5355C149.407 22.8241 149.05 23.2053 148.794 23.679C148.544 24.1473 148.416 24.6618 148.411 25.2227V26.9624C148.411 27.692 148.544 28.3182 148.811 28.8409C149.078 29.3582 149.451 29.7557 149.93 30.0334C150.409 30.3056 150.97 30.4418 151.612 30.4418C152.042 30.4418 152.432 30.3819 152.78 30.2621C153.129 30.1368 153.431 29.9544 153.687 29.7148C153.943 29.4753 154.136 29.1785 154.267 28.8246L157.027 29.1349C156.853 29.8646 156.521 30.5017 156.031 31.0462C155.546 31.5852 154.926 32.0045 154.169 32.304C153.412 32.598 152.546 32.745 151.571 32.745Z" fill="#12121C"/>
</svg>
