<svg width="17" height="18" viewBox="0 0 17 18" fill="none" xmlns="http://www.w3.org/2000/svg">
<g clip-path="url(#clip0_12_613)">
<path d="M9.08426 1.79048L10.8401 5.79525C10.9061 5.94596 11.0114 6.07619 11.145 6.17233C11.2785 6.26848 11.4354 6.32701 11.5993 6.34183L15.8767 6.72534C16.3607 6.79579 16.5537 7.38933 16.2028 7.7311L12.9808 10.4379C12.7199 10.6571 12.6012 11.0014 12.6729 11.3341L13.6095 15.7185C13.6917 16.1998 13.1869 16.5677 12.7538 16.3394L9.02034 14.1531C8.87953 14.0704 8.71922 14.0269 8.55595 14.0269C8.39267 14.0269 8.23236 14.0704 8.09155 14.1531L4.35811 16.3381C3.92633 16.5651 3.42019 16.1985 3.50237 15.7172L4.43899 11.3328C4.50943 11.0001 4.39203 10.6558 4.13113 10.4366L0.907752 7.73241C0.55815 7.39194 0.751214 6.79709 1.23387 6.72665L5.51128 6.34313C5.67516 6.32831 5.83207 6.26978 5.96561 6.17364C6.09915 6.0775 6.20444 5.94727 6.27049 5.79655L8.02632 1.79178C8.24417 1.35348 8.86772 1.35348 9.08426 1.79048Z" fill="#FDD835"/>
<path d="M8.95625 6.03521L8.65883 3.08447C8.64709 2.9201 8.61317 2.63834 8.87668 2.63834C9.08539 2.63834 9.19888 3.07273 9.19888 3.07273L10.0912 5.44167C10.4277 6.34307 10.2894 6.65224 9.96462 6.83486C9.59153 7.04358 9.04104 6.88052 8.95625 6.03521Z" fill="#FFFF8D"/>
<path d="M12.6362 10.1757L15.1956 8.17855C15.3222 8.07288 15.5505 7.9046 15.3678 7.71285C15.223 7.56153 14.8317 7.77937 14.8317 7.77937L12.5919 8.65468C11.924 8.88558 11.4805 9.22735 11.4413 9.65783C11.3905 10.2318 11.9057 10.674 12.6362 10.1757Z" fill="#F4B400"/>
</g>
<defs>
<clipPath id="clip0_12_613">
<rect width="16.6974" height="16.6974" fill="white" transform="translate(0.207153 0.847321)"/>
</clipPath>
</defs>
</svg>
