<svg width="19" height="16" viewBox="0 0 19 16" fill="none" xmlns="http://www.w3.org/2000/svg">
<path d="M12.8767 0.116035V0.112793H13.7207L14.0291 0.174385C14.2346 0.214371 14.4213 0.266773 14.589 0.331606C14.7567 0.39644 14.9191 0.472085 15.0759 0.558524C15.2328 0.644964 15.3751 0.73304 15.5028 0.822721C15.6294 0.911333 15.743 1.00534 15.8437 1.10475C15.9432 1.20524 16.0985 1.23117 16.3095 1.18255C16.5205 1.13392 16.7477 1.06638 16.9912 0.979943C17.2346 0.893503 17.4754 0.796253 17.7135 0.688191C17.9515 0.58013 18.0965 0.51152 18.1485 0.482345C18.1993 0.4521 18.2264 0.435891 18.2296 0.433719L18.2328 0.428857L18.2491 0.420753L18.2653 0.412649L18.2815 0.404544L18.2978 0.39644L18.301 0.391578L18.3059 0.388336L18.3108 0.385094L18.314 0.380232L18.3302 0.375369L18.3465 0.372128L18.3432 0.39644L18.3383 0.420753L18.3302 0.445065L18.3221 0.469378L18.314 0.485586L18.3059 0.501795L18.2978 0.526107C18.2924 0.542316 18.287 0.563922 18.2815 0.590941C18.2761 0.61796 18.2247 0.726006 18.1273 0.915109C18.03 1.10421 17.9082 1.29601 17.7621 1.49051C17.6161 1.68501 17.4851 1.83195 17.3694 1.93138C17.2525 2.03187 17.1751 2.1021 17.1373 2.14209C17.0994 2.18314 17.0534 2.22096 16.9993 2.25554L16.9181 2.30903L16.9019 2.31714L16.8857 2.32524L16.8824 2.3301L16.8776 2.33334L16.8727 2.33659L16.8694 2.34145L16.8532 2.34955L16.837 2.35766L16.8338 2.36252L16.8289 2.36576L16.824 2.369L16.8208 2.37387L16.8175 2.37873L16.8126 2.38197L16.8078 2.38521L16.8045 2.39007H16.8857L17.3401 2.29282C17.6431 2.22799 17.9326 2.14966 18.2085 2.0578L18.6467 1.91193L18.6954 1.89572L18.7198 1.88761L18.736 1.87951L18.7522 1.87141L18.7685 1.8633L18.7847 1.8552L18.8171 1.85033L18.8496 1.84709V1.87951L18.8415 1.88275L18.8334 1.88761L18.8301 1.89248L18.8253 1.89572L18.8204 1.89896L18.8171 1.90382L18.8139 1.90868L18.809 1.91193L18.8042 1.91517L18.8009 1.92003L18.7977 1.92489L18.7928 1.92813L18.7847 1.94434L18.7766 1.96055L18.7717 1.96379C18.7695 1.96703 18.7008 2.05887 18.5656 2.23934C18.4303 2.42087 18.3573 2.51271 18.3465 2.51488C18.3356 2.51812 18.3205 2.53433 18.301 2.5635C18.2826 2.59375 18.1679 2.71424 17.9569 2.92495C17.7459 3.13566 17.5393 3.32313 17.3369 3.48738C17.1335 3.65271 17.0307 3.85585 17.0285 4.09682C17.0253 4.3367 17.0128 4.60794 16.9912 4.91048C16.9695 5.21304 16.929 5.5399 16.8694 5.89109C16.8099 6.24228 16.718 6.63938 16.5935 7.08241C16.4691 7.52543 16.3176 7.95766 16.1391 8.37908C15.9605 8.8005 15.7739 9.17869 15.5791 9.51367C15.3843 9.84865 15.2058 10.1323 15.0435 10.3646C14.8812 10.5969 14.7162 10.8157 14.5484 11.0211C14.3807 11.2264 14.1687 11.4576 13.9122 11.7148C13.6547 11.9709 13.514 12.1113 13.4902 12.1362C13.4653 12.16 13.3593 12.2486 13.1721 12.402C12.986 12.5565 12.7858 12.711 12.5715 12.8656C12.3584 13.019 12.1625 13.1471 11.984 13.2497C11.8054 13.3524 11.5901 13.4696 11.338 13.6014C11.087 13.7343 10.8153 13.8575 10.5232 13.971C10.231 14.0844 9.92265 14.1898 9.59803 14.287C9.27341 14.3843 8.95962 14.4599 8.65664 14.514C8.35368 14.568 8.01012 14.6139 7.62598 14.6517L7.04979 14.7085V14.7166H5.99479V14.7085L5.85682 14.7004C5.76486 14.695 5.68911 14.6895 5.62959 14.6842C5.57009 14.6788 5.34555 14.649 4.95601 14.595C4.56647 14.541 4.2608 14.4869 4.03897 14.4329C3.81716 14.3789 3.48712 14.2762 3.04889 14.125C2.61066 13.9737 2.23572 13.8208 1.92409 13.6663C1.61355 13.5128 1.41878 13.4156 1.33978 13.3745C1.26187 13.3345 1.17423 13.2848 1.07684 13.2254L0.930764 13.1362L0.927534 13.1314L0.922648 13.1281L0.917779 13.1249L0.914533 13.12L0.898302 13.1119L0.882071 13.1038L0.878841 13.099L0.873956 13.0957L0.869086 13.0925L0.86584 13.0876L0.86261 13.0828L0.857725 13.0795H0.849609V13.0471L0.86584 13.0503L0.882071 13.0552L0.95511 13.0633C1.0038 13.0687 1.13636 13.0768 1.35277 13.0876C1.56919 13.0984 1.79911 13.0984 2.04258 13.0876C2.28604 13.0768 2.53492 13.0525 2.78919 13.0147C3.04348 12.9769 3.34375 12.912 3.69001 12.8202C4.03627 12.7283 4.3544 12.6192 4.6444 12.4928C4.9333 12.3653 5.13888 12.2702 5.26117 12.2075C5.38235 12.1459 5.56738 12.0314 5.81625 11.8639L6.18956 11.6127L6.1928 11.6078L6.19767 11.6046L6.20256 11.6013L6.20579 11.5965L6.20903 11.5916L6.2139 11.5883L6.21879 11.5851L6.22202 11.5802L6.23825 11.5754L6.25448 11.5721L6.25772 11.5559L6.26259 11.5397L6.26748 11.5365L6.27071 11.5316L6.14086 11.5235C6.0543 11.5181 5.97044 11.5127 5.88928 11.5073C5.80813 11.5019 5.68099 11.4776 5.50786 11.4344C5.33474 11.3911 5.14809 11.3263 4.9479 11.2399C4.74772 11.1534 4.55295 11.0508 4.36359 10.9319C4.17424 10.813 4.03735 10.7142 3.95295 10.6353C3.86963 10.5575 3.76142 10.4473 3.62833 10.3046C3.49632 10.1609 3.38162 10.0134 3.28424 9.86215C3.18685 9.71088 3.0938 9.53635 3.00508 9.33862L2.87035 9.04363L2.86223 9.01931L2.85412 8.995L2.84925 8.97879L2.846 8.96258L2.87035 8.96583L2.8947 8.97069L3.07323 8.995C3.19227 9.01121 3.37893 9.01661 3.6332 9.01121C3.88749 9.00581 4.06332 8.995 4.1607 8.97879C4.25809 8.96258 4.3176 8.95177 4.33924 8.94638L4.3717 8.93827L4.41228 8.93017L4.45286 8.92206L4.4561 8.9172L4.46097 8.91396L4.46586 8.91072L4.46909 8.90585L4.43662 8.89775L4.40416 8.88965L4.3717 8.88154L4.33924 8.87344L4.30678 8.86533C4.28514 8.85994 4.24728 8.84913 4.19316 8.83292C4.13906 8.81671 3.99299 8.75727 3.75493 8.65462C3.51689 8.55198 3.32752 8.45202 3.18685 8.35477C3.04583 8.25724 2.91137 8.15057 2.78433 8.03546C2.65772 7.91876 2.51869 7.76856 2.36719 7.58487C2.21571 7.40118 2.08046 7.18776 1.96142 6.94464C1.8424 6.70151 1.75313 6.4692 1.69361 6.24768C1.63433 6.02746 1.59522 5.80232 1.57677 5.57503L1.54754 5.23465L1.56377 5.23789L1.58 5.24275L1.59623 5.25086L1.61246 5.25896L1.62869 5.26707L1.64492 5.27517L1.8965 5.38863C2.06423 5.46427 2.27252 5.52911 2.52139 5.58313C2.77027 5.63715 2.91904 5.66688 2.96773 5.67228L3.04077 5.68038H3.18685L3.18362 5.67552L3.17873 5.67228L3.17387 5.66904L3.17062 5.66417L3.16739 5.65931L3.1625 5.65607L3.15763 5.65283L3.15439 5.64796L3.13816 5.63986L3.12193 5.63176L3.1187 5.62689L3.11381 5.62365L3.10894 5.62041L3.1057 5.61555L3.08947 5.60744L3.07323 5.59934L3.07 5.59448C3.06676 5.5923 3.02022 5.55773 2.9304 5.49074C2.84167 5.42267 2.74862 5.33461 2.65123 5.22655C2.55385 5.11848 2.45646 5.00503 2.35908 4.88617C2.26151 4.76704 2.17461 4.63959 2.09938 4.50527C2.02365 4.37021 1.94357 4.19838 1.85917 3.98984C1.77585 3.78238 1.71255 3.57329 1.66927 3.36258C1.626 3.15187 1.60165 2.94387 1.59623 2.73856C1.59082 2.53324 1.59623 2.35766 1.61246 2.21178C1.62869 2.06591 1.66115 1.90112 1.70984 1.71743C1.75854 1.53374 1.82888 1.33923 1.92084 1.13392L2.05881 0.825963L2.06692 0.80165L2.07504 0.777338L2.07992 0.774096L2.08315 0.769234L2.0864 0.764371L2.09127 0.761129L2.09615 0.764371L2.09938 0.769234L2.10263 0.774096L2.1075 0.777338L2.11238 0.780579L2.11561 0.785442L2.11886 0.790304L2.12373 0.793546L2.13185 0.809755L2.13996 0.825963L2.14485 0.829205L2.14808 0.834067L2.36719 1.07719C2.51327 1.23928 2.6864 1.42028 2.88658 1.62017C3.08677 1.82007 3.19768 1.92381 3.21931 1.93138C3.24096 1.94002 3.268 1.96486 3.30047 2.00594C3.33293 2.04592 3.44114 2.14155 3.62508 2.29282C3.80904 2.4441 4.0498 2.6197 4.34736 2.8196C4.64493 3.0195 4.97495 3.2167 5.33744 3.4112C5.69994 3.6057 6.08948 3.78129 6.50606 3.93798C6.92265 4.09466 7.21481 4.19731 7.38252 4.24594C7.55025 4.29456 7.83699 4.35669 8.24276 4.43233C8.64853 4.50798 8.95422 4.5566 9.1598 4.57821C9.36539 4.59982 9.50607 4.61225 9.5818 4.61549L9.69542 4.61873L9.69219 4.59442L9.6873 4.57011L9.65484 4.3675C9.6332 4.23244 9.62238 4.04333 9.62238 3.80021C9.62238 3.55708 9.64132 3.33287 9.67919 3.12756C9.71707 2.92225 9.77388 2.71424 9.84961 2.50353C9.92536 2.29282 9.99949 2.12371 10.072 1.99621C10.1456 1.86978 10.2419 1.72553 10.3609 1.56345C10.4799 1.40136 10.6341 1.23388 10.8235 1.06098C11.0128 0.88809 11.2292 0.73411 11.4727 0.599045C11.7162 0.463981 11.9407 0.361316 12.1463 0.291085C12.3519 0.220854 12.525 0.17492 12.6657 0.153314C12.8063 0.131708 12.8767 0.119276 12.8767 0.116035V0.116035Z" fill="white"/>
</svg>
