<svg width="48" height="48" viewBox="0 0 48 48" fill="none" xmlns="http://www.w3.org/2000/svg">
<path fill-rule="evenodd" clip-rule="evenodd" d="M27.56 2.35521C30.198 1.70521 33.053 2.67021 34.506 5.15321C34.879 5.79121 35.288 6.53521 35.721 7.39121C32.683 7.19021 28.176 7.00021 22 7.00021C18.516 7.00021 15.564 7.06021 13.106 7.15021C17.728 5.22021 22.757 3.53721 27.56 2.35521ZM8.057 46.0892C11.034 46.2952 15.605 46.5002 22 46.5002C28.395 46.5002 32.966 46.2952 35.943 46.0892C39.221 45.8622 41.807 43.3722 42.076 40.0672C42.128 39.4359 42.178 38.7322 42.226 37.9562C41.297 37.9832 40.225 38.0002 39 38.0002C37.326 38.0002 35.936 37.9682 34.81 37.9232C31.171 37.7772 28.233 34.9902 28.067 31.2562C28.027 30.3432 28 29.2622 28 28.0002C28 26.7382 28.027 25.6572 28.067 24.7442C28.233 21.0102 31.171 18.2242 34.81 18.0772C36.206 18.0237 37.603 17.998 39 18.0002C40.225 18.0002 41.297 18.0172 42.226 18.0442C42.178 17.2675 42.128 16.5642 42.076 15.9342C41.807 12.6282 39.221 10.1382 35.943 9.91121C32.966 9.70521 28.395 9.50021 22 9.50021C15.605 9.50021 11.034 9.70521 8.057 9.91121C4.779 10.1382 2.193 12.6282 1.924 15.9332C1.706 18.6112 1.5 22.5752 1.5 28.0002C1.5 33.4252 1.706 37.3902 1.924 40.0672C2.193 43.3722 4.779 45.8622 8.057 46.0892ZM31.064 31.1232C31.159 33.2532 32.801 34.8402 34.93 34.9252C36.015 34.9692 37.364 35.0002 39 35.0002C40.636 35.0002 41.985 34.9692 43.07 34.9252C45.2 34.8402 46.841 33.2532 46.936 31.1232C46.974 30.2562 47 29.2192 47 28.0002C47 26.7812 46.974 25.7442 46.936 24.8772C46.841 22.7472 45.199 21.1602 43.07 21.0752C41.714 21.0231 40.357 20.9981 39 21.0002C37.364 21.0002 36.015 21.0312 34.93 21.0752C32.8 21.1602 31.159 22.7472 31.064 24.8772C31.026 25.7442 31 26.7802 31 28.0002C31 29.2202 31.026 30.2562 31.064 31.1232ZM38 25.5002C38.3978 25.5002 38.7794 25.6582 39.0607 25.9395C39.342 26.2209 39.5 26.6024 39.5 27.0002V29.0002C39.5 29.398 39.342 29.7796 39.0607 30.0609C38.7794 30.3422 38.3978 30.5002 38 30.5002C37.6022 30.5002 37.2206 30.3422 36.9393 30.0609C36.658 29.7796 36.5 29.398 36.5 29.0002V27.0002C36.5 26.6024 36.658 26.2209 36.9393 25.9395C37.2206 25.6582 37.6022 25.5002 38 25.5002Z" fill="white"/>
</svg>
