<svg width="40" height="41" viewBox="0 0 40 41" fill="none" xmlns="http://www.w3.org/2000/svg">
<rect y="0.5" width="40" height="40" rx="20" fill="white"/>
<path d="M17.8178 11.175C17.259 11.175 16.7265 11.2587 16.2178 11.4087C16.6928 11.25 17.1928 11.1675 17.709 11.1675C17.7428 11.1662 17.784 11.1662 17.8178 11.175Z" fill="white"/>
<g clip-path="url(#clip0_159_2023)">
<path d="M29.0916 19.5839V16.7729C29.0916 15.8198 28.3523 15.0446 27.4182 14.9694L24.8077 10.4099C24.5658 9.98816 24.1751 9.68676 23.7077 9.5616C23.2425 9.4373 22.7561 9.50258 22.3397 9.74492L13.3908 14.9548H11.8191C10.8164 14.9548 10.001 15.7702 10.001 16.7729V27.6819C10.001 28.6846 10.8164 29.5 11.8191 29.5H27.2735C28.2762 29.5 29.0916 28.6846 29.0916 27.6819V24.8709C29.6195 24.6826 30.0007 24.1828 30.0007 23.591V20.8638C30.0007 20.272 29.6195 19.7722 29.0916 19.5839ZM26.3618 14.9548H22.4001L25.3714 13.2249L26.3618 14.9548ZM24.9198 12.436L20.5933 14.9548H18.7988L24.4711 11.6523L24.9198 12.436ZM22.7973 10.5306C23.0028 10.4103 23.2429 10.3783 23.4725 10.4396C23.7046 10.5017 23.8982 10.6518 24.0185 10.8617L24.0194 10.8634L16.9921 14.9548H15.1976L22.7973 10.5306ZM28.1825 27.6819C28.1825 28.183 27.7746 28.5909 27.2735 28.5909H11.8191C11.318 28.5909 10.9101 28.183 10.9101 27.6819V16.7729C10.9101 16.2718 11.318 15.8639 11.8191 15.8639H27.2735C27.7746 15.8639 28.1825 16.2718 28.1825 16.7729V19.5002H25.4553C23.9514 19.5002 22.7281 20.7235 22.7281 22.2274C22.7281 23.7313 23.9514 24.9546 25.4553 24.9546H28.1825V27.6819ZM29.0916 23.591C29.0916 23.8418 28.8879 24.0456 28.6371 24.0456H25.4553C24.4526 24.0456 23.6371 23.2302 23.6371 22.2274C23.6371 21.2247 24.4525 20.4092 25.4553 20.4092H28.6371C28.8878 20.4092 29.0916 20.613 29.0916 20.8638V23.591Z" fill="#7750A1"/>
<path d="M25.4545 21.3183C24.9533 21.3183 24.5454 21.7263 24.5454 22.2274C24.5454 22.7285 24.9533 23.1365 25.4545 23.1365C25.9556 23.1365 26.3635 22.7285 26.3635 22.2274C26.3636 21.7263 25.9556 21.3183 25.4545 21.3183Z" fill="#7E9CB5"/>
</g>
<defs>
<clipPath id="clip0_159_2023">
<rect width="20" height="20" fill="white" transform="translate(10 9.5)"/>
</clipPath>
</defs>
</svg>
