<svg width="17" height="16" viewBox="0 0 17 16" fill="none" xmlns="http://www.w3.org/2000/svg">
<g clip-path="url(#clip0_197_1365)">
<path d="M11.5149 0.0998644C11.4813 0.0623014 10.2704 0.114692 9.21665 1.25839C8.16291 2.40109 8.32503 3.71184 8.34875 3.74545C8.37247 3.77906 9.85127 3.83145 10.7953 2.50192C11.7393 1.17239 11.5485 0.138416 11.5149 0.0998644ZM14.7908 11.6979C14.7434 11.603 12.4925 10.4781 12.7021 8.31528C12.9117 6.15146 14.3578 5.55836 14.3806 5.49411C14.4033 5.42985 13.7904 4.71319 13.141 4.35041C12.6642 4.09464 12.1364 3.9481 11.596 3.9214C11.4892 3.91844 11.1185 3.8275 10.3564 4.03607C9.85423 4.17347 8.7224 4.6183 8.41103 4.63609C8.09866 4.65388 7.16947 4.12009 6.1701 3.97874C5.53054 3.85517 4.85243 4.10823 4.36707 4.30296C3.88271 4.49671 2.96143 5.04829 2.31693 6.51424C1.67243 7.97919 2.0095 10.3002 2.2507 11.0218C2.49189 11.7424 2.86851 12.9237 3.50906 13.7856C4.07843 14.7583 4.83365 15.4335 5.14898 15.6628C5.46431 15.8921 6.35396 16.0444 6.97078 15.729C7.46701 15.4246 8.36259 15.2496 8.71647 15.2625C9.06937 15.2753 9.76527 15.4147 10.478 15.7953C11.0424 15.99 11.5762 15.9089 12.111 15.6915C12.6458 15.473 13.4198 14.6446 14.3232 12.9652C14.6662 12.1843 14.8224 11.7622 14.7908 11.6979Z" fill="white"/>
<path d="M11.5149 0.0998644C11.4813 0.0623014 10.2704 0.114692 9.21665 1.25839C8.16291 2.40109 8.32503 3.71184 8.34875 3.74545C8.37247 3.77906 9.85127 3.83145 10.7953 2.50192C11.7393 1.17239 11.5485 0.138416 11.5149 0.0998644ZM14.7908 11.6979C14.7434 11.603 12.4925 10.4781 12.7021 8.31528C12.9117 6.15146 14.3578 5.55836 14.3806 5.49411C14.4033 5.42985 13.7904 4.71319 13.141 4.35041C12.6642 4.09464 12.1364 3.9481 11.596 3.9214C11.4892 3.91844 11.1185 3.8275 10.3564 4.03607C9.85423 4.17347 8.7224 4.6183 8.41103 4.63609C8.09866 4.65388 7.16947 4.12009 6.1701 3.97874C5.53054 3.85517 4.85243 4.10823 4.36707 4.30296C3.88271 4.49671 2.96143 5.04829 2.31693 6.51424C1.67243 7.97919 2.0095 10.3002 2.2507 11.0218C2.49189 11.7424 2.86851 12.9237 3.50906 13.7856C4.07843 14.7583 4.83365 15.4335 5.14898 15.6628C5.46431 15.8921 6.35396 16.0444 6.97078 15.729C7.46701 15.4246 8.36259 15.2496 8.71647 15.2625C9.06937 15.2753 9.76527 15.4147 10.478 15.7953C11.0424 15.99 11.5762 15.9089 12.111 15.6915C12.6458 15.473 13.4198 14.6446 14.3232 12.9652C14.6662 12.1843 14.8224 11.7622 14.7908 11.6979Z" fill="white"/>
</g>
<defs>
<clipPath id="clip0_197_1365">
<rect width="15.816" height="15.816" fill="white" transform="translate(0.46167 0.0920105)"/>
</clipPath>
</defs>
</svg>
