<svg width="121" height="41" viewBox="0 0 121 41" fill="none" xmlns="http://www.w3.org/2000/svg">
<rect x="0.5" y="0.5" width="120" height="40" rx="8" fill="#12121C"/>
<rect x="0.5" y="0.5" width="120" height="40" rx="8" stroke="#A6A6A6"/>
<path d="M82.5257 19.7023V21.9933H81.0896V23.4958H82.5257V28.6008C82.5257 30.3439 83.3143 31.0412 85.2981 31.0412C85.6468 31.0412 85.9788 30.9997 86.2693 30.9499V29.464C86.0203 29.4889 85.8626 29.5055 85.5887 29.5055C84.7005 29.5055 84.3104 29.0905 84.3104 28.1442V23.4958H86.2693V21.9933H84.3104V19.7023H82.5257Z" fill="white"/>
<path d="M91.3232 31.1657C93.9628 31.1657 95.5815 29.3976 95.5815 26.4675C95.5815 23.5539 93.9545 21.7775 91.3232 21.7775C88.6835 21.7775 87.0566 23.5539 87.0566 26.4675C87.0566 29.3976 88.6752 31.1657 91.3232 31.1657ZM91.3232 29.5803C89.7709 29.5803 88.8994 28.443 88.8994 26.4675C88.8994 24.5085 89.7709 23.363 91.3232 23.363C92.8671 23.363 93.747 24.5085 93.747 26.4675C93.747 28.4347 92.8671 29.5803 91.3232 29.5803Z" fill="white"/>
<path d="M96.9664 30.9914H98.7511V25.654C98.7511 24.384 99.7056 23.529 101.059 23.529C101.374 23.529 101.905 23.5871 102.055 23.6369V21.8771C101.864 21.8273 101.524 21.8024 101.258 21.8024C100.079 21.8024 99.0748 22.4499 98.8175 23.3381H98.6846V21.9518H96.9664V30.9914Z" fill="white"/>
<path d="M106.486 23.2966C107.806 23.2966 108.669 24.2179 108.711 25.6374H104.145C104.245 24.2263 105.166 23.2966 106.486 23.2966ZM108.702 28.551C108.37 29.2565 107.632 29.6467 106.552 29.6467C105.125 29.6467 104.203 28.6423 104.145 27.0568V26.9572H110.529V26.3346C110.529 23.4958 109.009 21.7775 106.494 21.7775C103.946 21.7775 102.327 23.612 102.327 26.5007C102.327 29.3893 103.913 31.1657 106.503 31.1657C108.57 31.1657 110.014 30.1696 110.421 28.551H108.702Z" fill="white"/>
<path d="M70.8221 27.6532C70.9598 29.8729 72.8095 31.2925 75.5626 31.2925C78.505 31.2925 80.3462 29.8041 80.3462 27.4295C80.3462 25.5626 79.2966 24.5301 76.7499 23.9365L75.382 23.601C73.7645 23.2224 73.1106 22.7148 73.1106 21.8286C73.1106 20.7102 74.1259 19.9789 75.6487 19.9789C77.0941 19.9789 78.0921 20.693 78.2727 21.8372H80.1483C80.0365 19.7466 78.1953 18.2754 75.6745 18.2754C72.9644 18.2754 71.1576 19.7466 71.1576 21.9577C71.1576 23.7816 72.1815 24.8657 74.427 25.3905L76.0272 25.7777C77.6705 26.1648 78.3932 26.7326 78.3932 27.679C78.3932 28.7803 77.2575 29.5804 75.7089 29.5804C74.0484 29.5804 72.8955 28.8319 72.7321 27.6532H70.8221Z" fill="white"/>
<path d="M52.3348 21.8024C51.1063 21.8024 50.0437 22.4167 49.4959 23.446H49.3631V21.9518H47.6448V33.9963H49.4295V29.6218H49.5706C50.0437 30.5763 51.0647 31.1408 52.3514 31.1408C54.6341 31.1408 56.0867 29.3395 56.0867 26.4675C56.0867 23.5954 54.6341 21.8024 52.3348 21.8024ZM51.8284 29.5388C50.3343 29.5388 49.3963 28.36 49.3963 26.4758C49.3963 24.5832 50.3343 23.4045 51.8367 23.4045C53.3475 23.4045 54.2522 24.5583 54.2522 26.4675C54.2522 28.3849 53.3475 29.5388 51.8284 29.5388Z" fill="white"/>
<path d="M62.3316 21.8024C61.103 21.8024 60.0405 22.4167 59.4927 23.446H59.3599V21.9518H57.6416V33.9963H59.4263V29.6218H59.5674C60.0405 30.5763 61.0615 31.1408 62.3482 31.1408C64.6309 31.1408 66.0835 29.3395 66.0835 26.4675C66.0835 23.5954 64.6309 21.8024 62.3316 21.8024ZM61.8252 29.5388C60.3311 29.5388 59.3931 28.36 59.3931 26.4758C59.3931 24.5832 60.3311 23.4045 61.8335 23.4045C63.3443 23.4045 64.249 24.5583 64.249 26.4675C64.249 28.3849 63.3443 29.5388 61.8252 29.5388Z" fill="white"/>
<path d="M44.4428 30.9914H46.4905L42.008 18.5765H39.9346L35.4521 30.9914H37.431L38.5752 27.6962H43.3072L44.4428 30.9914ZM40.8724 20.8306H41.0186L42.8168 26.0788H39.0656L40.8724 20.8306Z" fill="white"/>
<path d="M36.6514 9.21069V15.1997H38.8137C40.5984 15.1997 41.6318 14.0999 41.6318 12.1865C41.6318 10.3022 40.5901 9.21069 38.8137 9.21069H36.6514ZM37.5811 10.0574H38.71C39.9509 10.0574 40.6855 10.8459 40.6855 12.199C40.6855 13.5728 39.9634 14.353 38.71 14.353H37.5811V10.0574Z" fill="white"/>
<path d="M44.7969 15.2869C46.1167 15.2869 46.9261 14.4028 46.9261 12.9377C46.9261 11.481 46.1126 10.5928 44.7969 10.5928C43.4771 10.5928 42.6636 11.481 42.6636 12.9377C42.6636 14.4028 43.4729 15.2869 44.7969 15.2869ZM44.7969 14.4941C44.0208 14.4941 43.585 13.9255 43.585 12.9377C43.585 11.9583 44.0208 11.3855 44.7969 11.3855C45.5689 11.3855 46.0088 11.9583 46.0088 12.9377C46.0088 13.9214 45.5689 14.4941 44.7969 14.4941Z" fill="white"/>
<path d="M53.8182 10.6799H52.9259L52.1207 14.1289H52.0501L51.1205 10.6799H50.2655L49.3358 14.1289H49.2694L48.4601 10.6799H47.5553L48.8004 15.1997H49.7176L50.6473 11.8711H50.7179L51.6517 15.1997H52.5772L53.8182 10.6799Z" fill="white"/>
<path d="M54.8458 15.1997H55.7382V12.5559C55.7382 11.8503 56.1574 11.4104 56.8173 11.4104C57.4772 11.4104 57.7926 11.7715 57.7926 12.4978V15.1997H58.685V12.2737C58.685 11.1987 58.1288 10.5928 57.1203 10.5928C56.4396 10.5928 55.9914 10.8958 55.7714 11.3979H55.705V10.6799H54.8458V15.1997Z" fill="white"/>
<path d="M60.0903 15.1997H60.9826V8.91602H60.0903V15.1997Z" fill="white"/>
<path d="M64.3386 15.2869C65.6584 15.2869 66.4678 14.4028 66.4678 12.9377C66.4678 11.481 65.6543 10.5928 64.3386 10.5928C63.0188 10.5928 62.2053 11.481 62.2053 12.9377C62.2053 14.4028 63.0146 15.2869 64.3386 15.2869ZM64.3386 14.4941C63.5625 14.4941 63.1267 13.9255 63.1267 12.9377C63.1267 11.9583 63.5625 11.3855 64.3386 11.3855C65.1106 11.3855 65.5505 11.9583 65.5505 12.9377C65.5505 13.9214 65.1106 14.4941 64.3386 14.4941Z" fill="white"/>
<path d="M69.1265 14.5232C68.6409 14.5232 68.2881 14.2866 68.2881 13.8799C68.2881 13.4814 68.5704 13.2698 69.1929 13.2283L70.2969 13.1577V13.5354C70.2969 14.0957 69.7989 14.5232 69.1265 14.5232ZM68.8982 15.2744C69.4917 15.2744 69.9856 15.0171 70.2554 14.5647H70.326V15.1997H71.1851V12.1118C71.1851 11.1572 70.5459 10.5928 69.4129 10.5928C68.3877 10.5928 67.6573 11.0908 67.566 11.8669H68.4292C68.5289 11.5474 68.8733 11.3647 69.3714 11.3647C69.9815 11.3647 70.2969 11.6345 70.2969 12.1118V12.502L69.0726 12.5725C67.9976 12.6389 67.3916 13.1079 67.3916 13.9214C67.3916 14.7473 68.0267 15.2744 68.8982 15.2744Z" fill="white"/>
<path d="M74.2132 15.2744C74.8358 15.2744 75.3629 14.9797 75.6327 14.4858H75.7032V15.1997H76.5582V8.91602H75.6659V11.3979H75.5995C75.3546 10.8999 74.8316 10.6052 74.2132 10.6052C73.0719 10.6052 72.3373 11.51 72.3373 12.9377C72.3373 14.3696 73.0636 15.2744 74.2132 15.2744ZM74.4664 11.4062C75.2135 11.4062 75.6825 11.9998 75.6825 12.9419C75.6825 13.8882 75.2176 14.4734 74.4664 14.4734C73.711 14.4734 73.2586 13.8965 73.2586 12.9377C73.2586 11.9873 73.7152 11.4062 74.4664 11.4062Z" fill="white"/>
<path d="M82.3447 15.2869C83.6645 15.2869 84.4738 14.4028 84.4738 12.9377C84.4738 11.481 83.6604 10.5928 82.3447 10.5928C81.0249 10.5928 80.2114 11.481 80.2114 12.9377C80.2114 14.4028 81.0207 15.2869 82.3447 15.2869ZM82.3447 14.4941C81.5686 14.4941 81.1328 13.9255 81.1328 12.9377C81.1328 11.9583 81.5686 11.3855 82.3447 11.3855C83.1166 11.3855 83.5566 11.9583 83.5566 12.9377C83.5566 13.9214 83.1166 14.4941 82.3447 14.4941Z" fill="white"/>
<path d="M85.655 15.1997H86.5474V12.5559C86.5474 11.8503 86.9666 11.4104 87.6265 11.4104C88.2864 11.4104 88.6018 11.7715 88.6018 12.4978V15.1997H89.4941V12.2737C89.4941 11.1987 88.938 10.5928 87.9294 10.5928C87.2488 10.5928 86.8005 10.8958 86.5806 11.3979H86.5142V10.6799H85.655V15.1997Z" fill="white"/>
<path d="M93.6039 9.55518V10.7007H92.8858V11.4519H93.6039V14.0044C93.6039 14.876 93.9981 15.2246 94.9901 15.2246C95.1644 15.2246 95.3304 15.2039 95.4757 15.179V14.436C95.3512 14.4485 95.2723 14.4568 95.1353 14.4568C94.6913 14.4568 94.4962 14.2493 94.4962 13.7761V11.4519H95.4757V10.7007H94.4962V9.55518H93.6039Z" fill="white"/>
<path d="M96.6735 15.1997H97.5658V12.5601C97.5658 11.8752 97.9726 11.4146 98.703 11.4146C99.3339 11.4146 99.6701 11.7798 99.6701 12.502V15.1997H100.562V12.282C100.562 11.207 99.9689 10.5969 99.006 10.5969C98.3253 10.5969 97.848 10.8999 97.6281 11.4062H97.5575V8.91602H96.6735V15.1997Z" fill="white"/>
<path d="M103.781 11.3523C104.441 11.3523 104.873 11.813 104.894 12.5227H102.611C102.661 11.8171 103.122 11.3523 103.781 11.3523ZM104.89 13.9795C104.724 14.3323 104.354 14.5273 103.815 14.5273C103.101 14.5273 102.64 14.0251 102.611 13.2324V13.1826H105.803V12.8713C105.803 11.4519 105.043 10.5928 103.786 10.5928C102.511 10.5928 101.702 11.51 101.702 12.9543C101.702 14.3987 102.495 15.2869 103.79 15.2869C104.823 15.2869 105.545 14.7888 105.749 13.9795H104.89Z" fill="white"/>
<path d="M25.769 20.8011C25.7907 19.1201 26.6934 17.5295 28.1256 16.649C27.2221 15.3587 25.7088 14.5406 24.1344 14.4913C22.4552 14.3151 20.8272 15.4962 19.9715 15.4962C19.0992 15.4962 17.7817 14.5088 16.363 14.538C14.5137 14.5978 12.7898 15.6491 11.8901 17.2659C9.95607 20.6143 11.3987 25.5354 13.2513 28.242C14.1782 29.5673 15.2615 31.0478 16.6789 30.9953C18.066 30.9377 18.584 30.1108 20.2583 30.1108C21.9171 30.1108 22.4031 30.9953 23.8493 30.9619C25.3377 30.9377 26.2754 29.6306 27.1698 28.2927C27.8358 27.3484 28.3483 26.3047 28.6882 25.2002C26.9391 24.4604 25.771 22.7002 25.769 20.8011Z" fill="white"/>
<path d="M23.0373 12.7113C23.8489 11.7371 24.2487 10.4849 24.1518 9.2207C22.912 9.35092 21.7668 9.94348 20.9443 10.8803C20.14 11.7956 19.7214 13.0258 19.8006 14.2417C21.0408 14.2545 22.2601 13.678 23.0373 12.7113Z" fill="white"/>
</svg>
