<svg width="25" height="24" viewBox="0 0 25 24" fill="none" xmlns="http://www.w3.org/2000/svg">
<g clip-path="url(#clip0_197_622)">
<path d="M17.356 0.189764C17.3062 0.134122 15.5125 0.211728 13.9516 1.90587C12.3907 3.59855 12.6309 5.54016 12.666 5.58994C12.7011 5.63973 14.8917 5.71733 16.29 3.74791C17.6884 1.77848 17.4058 0.24687 17.356 0.189764ZM22.2086 17.3699C22.1383 17.2293 18.8042 15.563 19.1146 12.3592C19.425 9.15394 21.5672 8.27539 21.6009 8.18021C21.6346 8.08503 20.7267 7.02345 19.7647 6.48607C19.0584 6.10719 18.2766 5.89012 17.4761 5.85058C17.3179 5.84619 16.7689 5.71147 15.6399 6.02043C14.8961 6.22396 13.2195 6.88288 12.7583 6.90924C12.2955 6.93559 10.9191 6.14489 9.43878 5.9355C8.49141 5.75247 7.48693 6.12732 6.76798 6.41578C6.0505 6.70278 4.68581 7.51983 3.73112 9.69132C2.77642 11.8614 3.27573 15.2994 3.63301 16.3683C3.99029 17.4358 4.54817 19.1856 5.49701 20.4624C6.34042 21.9032 7.45911 22.9033 7.92621 23.243C8.39331 23.5827 9.71114 23.8082 10.6248 23.3411C11.3599 22.8901 12.6865 22.631 13.2107 22.65C13.7334 22.669 14.7643 22.8755 15.82 23.4392C16.6561 23.7277 17.4468 23.6076 18.239 23.2855C19.0311 22.9619 20.1776 21.7348 21.516 19.2471C22.0241 18.0903 22.2554 17.4651 22.2086 17.3699Z" fill="#FA9445"/>
<path d="M17.356 0.189764C17.3062 0.134122 15.5125 0.211728 13.9516 1.90587C12.3907 3.59855 12.6309 5.54016 12.666 5.58994C12.7011 5.63973 14.8917 5.71733 16.29 3.74791C17.6884 1.77848 17.4058 0.24687 17.356 0.189764ZM22.2086 17.3699C22.1383 17.2293 18.8042 15.563 19.1146 12.3592C19.425 9.15394 21.5672 8.27539 21.6009 8.18021C21.6346 8.08503 20.7267 7.02345 19.7647 6.48607C19.0584 6.10719 18.2766 5.89012 17.4761 5.85058C17.3179 5.84619 16.7689 5.71147 15.6399 6.02043C14.8961 6.22396 13.2195 6.88288 12.7583 6.90924C12.2955 6.93559 10.9191 6.14489 9.43878 5.9355C8.49141 5.75247 7.48693 6.12732 6.76798 6.41578C6.0505 6.70278 4.68581 7.51983 3.73112 9.69132C2.77642 11.8614 3.27573 15.2994 3.63301 16.3683C3.99029 17.4358 4.54817 19.1856 5.49701 20.4624C6.34042 21.9032 7.45911 22.9033 7.92621 23.243C8.39331 23.5827 9.71114 23.8082 10.6248 23.3411C11.3599 22.8901 12.6865 22.631 13.2107 22.65C13.7334 22.669 14.7643 22.8755 15.82 23.4392C16.6561 23.7277 17.4468 23.6076 18.239 23.2855C19.0311 22.9619 20.1776 21.7348 21.516 19.2471C22.0241 18.0903 22.2554 17.4651 22.2086 17.3699Z" fill="#FA9445"/>
</g>
<defs>
<clipPath id="clip0_197_622">
<rect width="23.4281" height="23.4281" fill="white" transform="translate(0.982788 0.17804)"/>
</clipPath>
</defs>
</svg>
