<svg width="48" height="48" viewBox="0 0 48 48" fill="none" xmlns="http://www.w3.org/2000/svg">
<rect width="48" height="48" rx="24" fill="#ECEBFF"/>
<path opacity="0.3" d="M31.21 24.04L29.68 23.93L29.38 22.43C29.1357 21.1825 28.4656 20.0586 27.4842 19.2505C26.5029 18.4424 25.2713 18.0004 24 18C21.94 18 20.08 19.14 19.12 20.96L18.62 21.91L17.55 22.02C16.5715 22.1286 15.6677 22.595 15.0124 23.3298C14.3571 24.0645 13.9965 25.0155 14 26C14 28.21 15.79 30 18 30H31C32.65 30 34 28.65 34 27C34 25.45 32.78 24.14 31.21 24.04Z" fill="#5856D6"/>
<path d="M31.35 22.04C31.0141 20.3377 30.0976 18.8049 28.7571 17.7032C27.4165 16.6016 25.7351 15.9996 24 16C21.11 16 18.6 17.64 17.35 20.04C15.8802 20.1988 14.521 20.8952 13.5335 21.9953C12.546 23.0954 11.9998 24.5217 12 26C12 29.31 14.69 32 18 32H31C33.76 32 36 29.76 36 27C36 24.36 33.95 22.22 31.35 22.04ZM31 30H18C15.79 30 14 28.21 14 26C14 23.95 15.53 22.24 17.56 22.03L18.63 21.92L19.13 20.97C19.59 20.0749 20.288 19.3239 21.1472 18.7999C22.0064 18.2759 22.9936 17.9991 24 18C26.62 18 28.88 19.86 29.39 22.43L29.69 23.93L31.22 24.04C31.9717 24.0906 32.6764 24.424 33.1922 24.9732C33.708 25.5224 33.9966 26.2466 34 27C34 28.65 32.65 30 31 30Z" fill="#5856D6"/>
</svg>
