<svg width="88" height="88" viewBox="0 0 88 88" fill="none" xmlns="http://www.w3.org/2000/svg">
<rect width="88" height="88" rx="44" fill="#FAF6FF"/>
<path d="M9.81104 41.63V42.2483" stroke="#7750A1" stroke-width="0.601986" stroke-linecap="round"/>
<path d="M8.42188 41.965L8.92709 42.485" stroke="#7750A1" stroke-width="0.601986" stroke-linecap="round"/>
<path d="M7.83105 43.3494H8.54542" stroke="#7750A1" stroke-width="0.601986" stroke-linecap="round"/>
<path d="M8.36426 44.7585L8.86947 44.2384" stroke="#7750A1" stroke-width="0.601986" stroke-linecap="round"/>
<path d="M9.81104 44.9274V44.3091" stroke="#7750A1" stroke-width="0.601986" stroke-linecap="round"/>
<path d="M10.8414 44.5152L10.4292 44.103" stroke="#7750A1" stroke-width="0.601986" stroke-linecap="round"/>
<path d="M11.6656 43.4847H11.0474" stroke="#7750A1" stroke-width="0.601986" stroke-linecap="round"/>
<path d="M11.2535 42.0422L10.8413 42.4544" stroke="#7750A1" stroke-width="0.601986" stroke-linecap="round"/>
<path d="M42.9912 14.6323V15.0445" stroke="#7750A1" stroke-width="0.601986" stroke-linecap="round"/>
<path d="M41.7549 15.8689H42.1671" stroke="#7750A1" stroke-width="0.601986" stroke-linecap="round"/>
<path d="M42.9912 17.1054V16.6932" stroke="#7750A1" stroke-width="0.601986" stroke-linecap="round"/>
<path d="M44.0216 15.8689H43.6094" stroke="#7750A1" stroke-width="0.601986" stroke-linecap="round"/>
<path d="M19.085 31.9438V32.5621" stroke="#7750A1" stroke-width="0.601986" stroke-linecap="round"/>
<path d="M17.2305 33.7986H17.8487" stroke="#7750A1" stroke-width="0.601986" stroke-linecap="round"/>
<path d="M19.085 35.4473V34.829" stroke="#7750A1" stroke-width="0.601986" stroke-linecap="round"/>
<path d="M20.7335 33.7986H20.1152" stroke="#7750A1" stroke-width="0.601986" stroke-linecap="round"/>
<path d="M63.4462 54.4155C63.9387 54.4155 64.3381 54.815 64.3381 55.3077C64.3381 55.8005 63.9387 56.1998 63.4462 56.1998C62.9536 56.1998 62.5542 55.8005 62.5542 55.3077" stroke="#7750A1" stroke-width="0.601986" stroke-linecap="round"/>
<path fill-rule="evenodd" clip-rule="evenodd" d="M67.5283 46.3212C68.0579 46.156 68.8697 45.5083 69.0577 44.8114C69.2281 45.4274 69.9424 46.156 70.587 46.2111C69.8614 46.468 69.1677 47.2312 69.0577 47.8308C68.9828 47.2197 68.0233 46.4103 67.5283 46.3212Z" fill="#7750A1"/>
<path fill-rule="evenodd" clip-rule="evenodd" d="M13.1646 54.1407C13.4294 54.0581 13.8352 53.7343 13.9291 53.3859C14.0143 53.6937 14.3714 54.0581 14.6937 54.0857C14.331 54.214 13.9842 54.5957 13.9291 54.8955C13.8917 54.5899 13.4119 54.1851 13.1646 54.1407Z" fill="#7750A1"/>
<path fill-rule="evenodd" clip-rule="evenodd" d="M18.08 25.472C18.08 25.8542 17.7703 26.1638 17.3884 26.1638C17.0063 26.1638 16.6968 25.8542 16.6968 25.472C16.6968 25.09 17.0063 24.7802 17.3884 24.7802C17.7703 24.7802 18.08 25.09 18.08 25.472Z" fill="#7750A1"/>
<path fill-rule="evenodd" clip-rule="evenodd" d="M64.2633 27.3296C64.2633 27.9682 63.7456 28.4859 63.1073 28.4859C62.4687 28.4859 61.9512 27.9682 61.9512 27.3296C61.9512 26.691 62.4687 26.1733 63.1073 26.1733C63.7456 26.1733 64.2633 26.691 64.2633 27.3296Z" fill="#7750A1"/>
<path fill-rule="evenodd" clip-rule="evenodd" d="M80.2757 24.1968C80.2757 24.7035 79.8652 25.114 79.3589 25.114C78.8524 25.114 78.4419 24.7035 78.4419 24.1968C78.4419 23.6902 78.8524 23.2796 79.3589 23.2796C79.8652 23.2796 80.2757 23.6902 80.2757 24.1968Z" fill="#7750A1"/>
<path fill-rule="evenodd" clip-rule="evenodd" d="M31.0061 67.034C31.0061 67.3534 30.7473 67.6123 30.428 67.6123C30.1089 67.6123 29.8501 67.3534 29.8501 67.034C29.8501 66.7146 30.1089 66.4558 30.428 66.4558C30.7473 66.4558 31.0061 66.7146 31.0061 67.034Z" stroke="#7750A1" stroke-width="0.601986" stroke-linecap="round"/>
<path fill-rule="evenodd" clip-rule="evenodd" d="M30.662 21.0276C30.662 21.4098 30.3524 21.7194 29.9704 21.7194C29.5885 21.7194 29.2788 21.4098 29.2788 21.0276C29.2788 20.6456 29.5885 20.3358 29.9704 20.3358C30.3524 20.3358 30.662 20.6456 30.662 21.0276Z" stroke="#7750A1" stroke-width="0.601986" stroke-linecap="round"/>
<path fill-rule="evenodd" clip-rule="evenodd" d="M48.304 73.4369C47.862 73.6051 47.3674 73.383 47.1993 72.9411C47.0311 72.499 47.253 72.0041 47.6951 71.8361C48.1369 71.6679 48.6315 71.8899 48.7996 72.3319C48.9679 72.774 48.7459 73.2687 48.304 73.4369Z" stroke="#7750A1" stroke-width="0.601986" stroke-linecap="round"/>
<path fill-rule="evenodd" clip-rule="evenodd" d="M48.0405 57.0866H31.1403C29.9507 57.0866 28.9771 56.1101 28.9771 54.9166V30.816C28.9771 29.6224 29.9507 28.6464 31.1403 28.6464H48.0405C49.2305 28.6464 50.2042 29.6224 50.2042 30.816V54.9166C50.2042 56.1101 49.2305 57.0866 48.0405 57.0866Z" fill="#651382"/>
<path fill-rule="evenodd" clip-rule="evenodd" d="M46.5977 58.1171H29.6974C28.5079 58.1171 27.5342 57.1405 27.5342 55.947V31.8464C27.5342 30.6529 28.5079 29.6768 29.6974 29.6768H46.5977C47.7877 29.6768 48.7613 30.6529 48.7613 31.8464V55.947C48.7613 57.1405 47.7877 58.1171 46.5977 58.1171Z" fill="#3D0358"/>
<path fill-rule="evenodd" clip-rule="evenodd" d="M45.1947 58.9305H28.2595C27.0675 58.9305 26.0918 57.958 26.0918 56.7694V32.7686C26.0918 31.5801 27.0675 30.608 28.2595 30.608H45.1947C46.3871 30.608 47.3628 31.5801 47.3628 32.7686V56.7694C47.3628 57.958 46.3871 58.9305 45.1947 58.9305Z" fill="#EAD8E0"/>
<path fill-rule="evenodd" clip-rule="evenodd" d="M45.1947 58.9305H28.2595C27.0675 58.9305 26.0918 57.958 26.0918 56.7694V32.7686C26.0918 31.5801 27.0675 30.608 28.2595 30.608H45.1947C46.3871 30.608 47.3628 31.5801 47.3628 32.7686V56.7694C47.3628 57.958 46.3871 58.9305 45.1947 58.9305Z" fill="#650089"/>
<path fill-rule="evenodd" clip-rule="evenodd" d="M42.7535 37.9204H30.2448C29.8876 37.9204 29.5952 37.6422 29.5952 37.3023C29.5952 36.962 29.8876 36.6838 30.2448 36.6838H42.7535C43.1108 36.6838 43.4032 36.962 43.4032 37.3023C43.4032 37.6422 43.1108 37.9204 42.7535 37.9204Z" fill="#2E0547"/>
<path fill-rule="evenodd" clip-rule="evenodd" d="M42.7535 41.63H30.2448C29.8876 41.63 29.5952 41.3518 29.5952 41.0119C29.5952 40.6716 29.8876 40.3934 30.2448 40.3934H42.7535C43.1108 40.3934 43.4032 40.6716 43.4032 41.0119C43.4032 41.3518 43.1108 41.63 42.7535 41.63Z" fill="#2E0547"/>
<path fill-rule="evenodd" clip-rule="evenodd" d="M42.7535 45.3396H30.2448C29.8876 45.3396 29.5952 45.0614 29.5952 44.7215C29.5952 44.3817 29.8876 44.103 30.2448 44.103H42.7535C43.1108 44.103 43.4032 44.3817 43.4032 44.7215C43.4032 45.0614 43.1108 45.3396 42.7535 45.3396Z" fill="#2E0547"/>
<path fill-rule="evenodd" clip-rule="evenodd" d="M42.7535 49.0492H30.2448C29.8876 49.0492 29.5952 48.771 29.5952 48.4311C29.5952 48.0908 29.8876 47.8126 30.2448 47.8126H42.7535C43.1108 47.8126 43.4032 48.0908 43.4032 48.4311C43.4032 48.771 43.1108 49.0492 42.7535 49.0492Z" fill="#2E0547"/>
<path fill-rule="evenodd" clip-rule="evenodd" d="M36.7742 52.7588H30.2476C29.8889 52.7588 29.5952 52.4806 29.5952 52.1407C29.5952 51.8004 29.8889 51.5222 30.2476 51.5222H36.7742C37.1329 51.5222 37.4266 51.8004 37.4266 52.1407C37.4266 52.4806 37.1329 52.7588 36.7742 52.7588Z" fill="#2E0547"/>
<path fill-rule="evenodd" clip-rule="evenodd" d="M49.9477 47.9645C47.4464 50.4653 43.5742 50.7474 40.763 48.8166C40.4037 48.5654 40.0617 48.2833 39.7429 47.9645C39.5787 47.8009 39.424 47.632 39.2782 47.4542C38.9866 47.0992 38.7311 46.7206 38.5219 46.3294C38.1532 45.6687 37.9025 44.9676 37.7656 44.2429C37.324 41.9702 37.9843 39.5239 39.7429 37.7661C41.5056 36.0031 43.9523 35.3471 46.2254 35.7845C46.9497 35.9255 47.6515 36.1762 48.3123 36.5406C48.7041 36.7546 49.0775 37.01 49.4331 37.3015C49.6104 37.4468 49.7793 37.602 49.9429 37.7661C50.2623 38.085 50.5487 38.4263 50.7952 38.7861C52.7269 41.5963 52.4442 45.4684 49.9477 47.9645Z" fill="white" fill-opacity="0.1"/>
<path fill-rule="evenodd" clip-rule="evenodd" d="M49.2477 47.4719C46.6455 50.0746 42.4284 50.0741 39.8258 47.4719C37.2265 44.8726 37.2265 40.655 39.8292 38.0528C42.4284 35.4535 46.6455 35.4535 49.2448 38.0528C51.847 40.655 51.847 44.8726 49.2477 47.4719ZM50.5835 36.7159C47.2433 33.3757 41.8307 33.3757 38.4906 36.7159C35.1509 40.0555 35.148 45.4716 38.4877 48.8117C41.5276 51.8507 46.2923 52.1247 49.6436 49.6296C49.971 49.3855 50.2862 49.1119 50.5869 48.8117C50.8871 48.511 51.1607 48.1958 51.4043 47.8684C53.8994 44.5167 53.623 39.7553 50.5835 36.7159Z" fill="#EEE0ED"/>
<path fill-rule="evenodd" clip-rule="evenodd" d="M63.7283 61.4025L63.5881 61.5427C62.6604 62.4709 61.1412 62.4709 60.213 61.5427L51.647 52.9767L55.1623 49.4614L63.7283 58.0274C64.6565 58.9556 64.6565 60.4743 63.7283 61.4025Z" fill="#7750A1"/>
<path fill-rule="evenodd" clip-rule="evenodd" d="M51.5886 47.6066L54.1199 50.1379L52.3228 51.9344L49.792 49.4031C50.126 49.1541 50.4472 48.8749 50.7545 48.5686C51.0609 48.2622 51.34 47.9406 51.5886 47.6066Z" fill="#EEE0ED"/>
<path fill-rule="evenodd" clip-rule="evenodd" d="M63.6003 57.922L60.1073 61.4145L59.4785 60.7852L62.971 57.2927L63.6003 57.922Z" fill="#FA9445"/>
<path fill-rule="evenodd" clip-rule="evenodd" d="M55.3566 49.5823L51.768 53.171L51.2349 52.6379L54.8235 49.0492L55.3566 49.5823Z" fill="#FA9445"/>
<path fill-rule="evenodd" clip-rule="evenodd" d="M47.525 37.1576L38.7243 45.9579C38.3929 45.3639 38.1675 44.7336 38.0449 44.082L45.6491 36.4778C46.3002 36.6051 46.931 36.8299 47.525 37.1576Z" fill="white" fill-opacity="0.5"/>
<path fill-rule="evenodd" clip-rule="evenodd" d="M50.4105 39.2493L40.896 48.2248C40.5552 48.0005 40.2309 47.748 39.9285 47.4627C39.7728 47.3158 39.6256 47.1652 39.4878 47.0061L49.1182 37.9203C49.2869 38.0508 49.447 38.1897 49.6022 38.3366C49.9046 38.6219 50.1767 38.9274 50.4105 39.2493Z" fill="white" fill-opacity="0.5"/>
</svg>
