<svg width="664" height="537" viewBox="0 0 664 537" fill="none" xmlns="http://www.w3.org/2000/svg">
<g clip-path="url(#clip0_204_3212)">
<path d="M663.073 477.195H0.927734V477.526H663.073V477.195Z" fill="#EBEBEB"/>
<path d="M596.727 498.516H552.866V498.847H596.727V498.516Z" fill="#EBEBEB"/>
<path d="M362.751 494.358H345.681V494.689H362.751V494.358Z" fill="#EBEBEB"/>
<path d="M463.993 495.762H428.052V496.093H463.993V495.762Z" fill="#EBEBEB"/>
<path d="M551.541 486.213H477.235V486.545H551.541V486.213Z" fill="#EBEBEB"/>
<path d="M105.534 501.536H70.4004V501.867H105.534V501.536Z" fill="#EBEBEB"/>
<path d="M147.778 501.536H117.319V501.867H147.778V501.536Z" fill="#EBEBEB"/>
<path d="M254.94 494.199H174.41V494.53H254.94V494.199Z" fill="#EBEBEB"/>
<path d="M619.451 227.924C623.601 213.578 623.138 198.29 618.127 184.222C623.448 176.604 626.977 167.88 628.447 158.704C629.917 149.528 629.291 140.138 626.615 131.239C623.939 122.339 619.284 114.161 612.998 107.317C606.711 100.473 598.957 95.1409 590.317 91.7204C587.79 73.506 580.58 56.2591 569.391 41.666C558.202 27.0728 543.418 15.633 526.484 8.46512C509.549 1.2972 491.045 -1.35347 472.779 0.772275C454.514 2.89802 437.113 9.72743 422.277 20.5927C414.82 12.7622 405.195 7.33636 394.636 5.0106C384.076 2.68484 373.062 3.56504 363.005 7.53842C352.949 11.5118 344.308 18.3974 338.189 27.3128C332.071 36.2283 328.754 46.7676 328.663 57.5802C314.69 60.3831 301.689 66.7799 290.942 76.1397C280.195 85.4996 272.073 97.4992 267.378 110.955C262.683 124.411 261.576 138.858 264.167 152.872C266.758 166.886 272.958 179.983 282.154 190.87C277.656 198.981 275.044 208.002 274.513 217.261C273.982 226.521 275.546 235.781 279.087 244.353C282.629 252.925 288.057 260.588 294.969 266.772C301.881 272.957 310.098 277.504 319.009 280.074C329.412 283.088 340.427 283.299 350.938 280.683C365.182 300.314 386.377 313.772 410.202 318.315C434.027 322.857 458.687 318.142 479.156 305.13C489.127 328.292 497.312 363.041 479.685 397.115C543.715 390.838 589.946 329.431 580.517 273.162C589.882 268.87 598.209 262.606 604.929 254.799C611.649 246.991 616.602 237.823 619.451 227.924V227.924Z" fill="#EBEBEB"/>
<path d="M496.636 384.402C496.461 384.403 496.288 384.37 496.127 384.304C495.966 384.238 495.819 384.141 495.695 384.018C495.525 383.848 495.404 383.635 495.346 383.402C495.288 383.168 495.294 382.924 495.364 382.694C504.383 351.281 496.159 321.167 487.683 301.435L483.379 291.437L474.189 297.277C455.721 309.021 433.47 313.279 411.971 309.185C390.472 305.09 371.344 292.951 358.485 275.241L354.804 270.169L348.739 271.678C338.829 274.145 328.414 273.661 318.776 270.287C309.138 266.913 300.695 260.795 294.488 252.687C288.28 244.578 284.577 234.832 283.835 224.647C283.093 214.462 285.344 204.282 290.311 195.359L293.397 189.771L289.278 184.897C281.118 175.244 275.616 163.63 273.314 151.201C271.012 138.772 271.989 125.958 276.149 114.022C280.31 102.087 287.51 91.4414 297.039 83.1368C306.568 74.8321 318.097 69.1548 330.49 66.6648L337.853 65.1816L337.932 57.6861C338 48.7149 340.747 39.9686 345.819 32.5688C350.892 25.1691 358.059 19.4535 366.402 16.1549C374.746 12.8564 383.884 12.1255 392.645 14.0558C401.406 15.9861 409.391 20.4898 415.576 26.9891L421.191 32.8689L427.812 28.075C441.35 18.1444 457.235 11.8988 473.911 9.94952C490.588 8.0002 507.485 10.4139 522.948 16.9544C538.412 23.4949 551.912 33.9381 562.129 47.2621C572.345 60.586 578.927 76.3341 581.231 92.9652L581.986 98.2624L587.005 100.249C594.344 103.154 600.93 107.684 606.269 113.498C611.607 119.313 615.56 126.261 617.829 133.821C620.099 141.381 620.626 149.357 619.373 157.15C618.119 164.944 615.117 172.352 610.591 178.819L607.863 182.726L609.465 187.228C614.682 201.917 614.206 218.027 608.132 232.382C602.057 246.738 590.825 258.296 576.649 264.779L570.2 267.745L571.378 274.737C575.351 298.747 568.16 324.968 551.514 346.686C537.769 364.693 518.681 377.89 496.98 384.389C496.866 384.41 496.75 384.414 496.636 384.402ZM483.988 288.192C484.116 288.174 484.245 288.174 484.373 288.192C484.555 288.249 484.723 288.345 484.864 288.473C485.006 288.601 485.118 288.758 485.194 288.934L490.107 300.349C498.556 319.988 506.727 349.732 498.542 381.038C518.775 374.459 536.526 361.877 549.435 344.965C565.618 323.776 572.663 298.35 568.77 275.068L567.445 267.123C567.394 266.836 567.44 266.54 567.574 266.282C567.708 266.023 567.923 265.816 568.187 265.692L575.55 262.316C589.097 256.106 599.829 245.051 605.635 231.326C611.441 217.602 611.9 202.201 606.922 188.155L605.095 183.017C605.025 182.817 605.004 182.603 605.034 182.394C605.064 182.184 605.144 181.984 605.267 181.812L608.379 177.336C612.678 171.198 615.53 164.166 616.721 156.768C617.913 149.37 617.413 141.798 615.26 134.621C613.106 127.444 609.354 120.848 604.286 115.329C599.219 109.809 592.966 105.509 585.999 102.752L580.251 100.474C580.034 100.387 579.844 100.245 579.7 100.061C579.556 99.8777 579.463 99.6591 579.43 99.4278L578.569 93.3228C576.337 77.139 569.939 61.8127 560.002 48.8456C550.064 35.8785 536.928 25.7155 521.882 19.3523C506.835 12.9891 490.393 10.644 474.167 12.5469C457.941 14.4497 442.488 20.5352 429.322 30.2071L421.813 35.6764C421.555 35.8659 421.237 35.9555 420.918 35.9287C420.599 35.9019 420.301 35.7605 420.078 35.5307L413.655 28.8166C409.689 24.6794 404.928 21.3856 399.657 19.1328C394.387 16.88 388.716 15.7145 382.985 15.7061C371.812 15.7056 361.091 20.1176 353.154 27.982C345.218 35.8465 340.709 46.5269 340.608 57.6994L340.515 66.2808C340.521 66.5906 340.418 66.8928 340.225 67.1348C340.031 67.3767 339.759 67.5431 339.455 67.6051L331.046 69.3002C319.11 71.7005 308.006 77.1695 298.827 85.1682C289.648 93.1668 282.712 103.419 278.702 114.915C274.692 126.41 273.747 138.752 275.959 150.724C278.171 162.696 283.464 173.886 291.317 183.189L296.019 188.764C296.192 188.97 296.298 189.223 296.324 189.49C296.35 189.757 296.295 190.026 296.164 190.261L292.642 196.644C290.822 199.92 289.374 203.389 288.325 206.987C285.902 215.382 285.732 224.268 287.832 232.75C289.932 241.233 294.227 249.013 300.287 255.309C306.347 261.604 313.957 266.194 322.353 268.617C330.748 271.039 339.634 271.209 348.116 269.109L355.056 267.388C355.311 267.324 355.58 267.337 355.828 267.427C356.075 267.517 356.291 267.678 356.446 267.891L360.644 273.678C373.093 290.872 391.638 302.661 412.49 306.636C433.341 310.612 454.923 306.473 472.825 295.065L483.326 288.444C483.52 288.301 483.749 288.214 483.988 288.192V288.192Z" fill="white"/>
<path d="M403.764 164.384L368.273 158.835L368.816 155.286C369.437 150.276 370.906 145.409 373.16 140.891C375.137 137.316 377.759 134.137 380.893 131.515C384.081 128.867 391.02 124.338 401.711 117.928C407.392 114.591 410.505 111.227 410.981 107.797C411.295 106.34 411.298 104.834 410.99 103.375C410.682 101.917 410.07 100.54 409.194 99.3351C407.472 97.1235 404.545 95.6933 400.44 95.0576C398.418 94.6737 396.338 94.7107 394.331 95.1664C392.323 95.6221 390.431 96.4867 388.773 97.7062C385.418 100.187 382.769 105.007 380.827 112.167L345.283 102.037C348.603 88.9085 355.118 78.9366 364.83 72.1209C374.541 65.3052 388.111 63.257 405.538 65.9762C419.117 68.0862 429.636 72.6241 437.096 79.5899C447.232 89.0188 451.306 100.116 449.32 112.883C448.43 118.263 446.09 123.3 442.552 127.45C438.862 131.917 431.945 136.994 421.801 142.679C414.738 146.696 410.147 150.082 408.028 152.836C405.659 156.266 404.192 160.238 403.764 164.384ZM365.585 168.106L403.605 174.025L398.387 207.556L360.367 201.637L365.585 168.106Z" fill="white"/>
<path d="M494.345 216.336L474.639 200.445L476.242 198.472C478.397 195.637 481.017 193.188 483.989 191.228C486.464 189.752 489.188 188.742 492.027 188.248C497.846 187.57 503.703 187.265 509.561 187.334C514.205 187.334 517.295 186.376 518.831 184.461C519.545 183.686 520.085 182.768 520.414 181.767C520.743 180.767 520.853 179.707 520.738 178.66C520.244 176.333 518.873 174.284 516.911 172.939C515.811 171.99 514.527 171.278 513.139 170.85C511.751 170.421 510.289 170.285 508.846 170.45C505.915 170.767 502.591 172.767 498.874 176.449L480.771 157.657C487.445 150.824 494.95 147.049 503.284 146.334C511.618 145.619 520.632 149.181 530.326 157.021C537.865 163.122 542.673 169.624 544.747 176.528C547.59 185.878 546.147 194.093 540.417 201.173C537.979 204.156 534.774 206.418 531.147 207.715C527.306 209.119 521.285 209.763 513.084 209.649C507.349 209.649 503.35 210.019 501.072 210.973C498.424 212.182 496.113 214.024 494.345 216.336ZM469.726 205.066L490.835 222.163L475.752 240.783L454.643 223.726L469.726 205.066Z" fill="white"/>
<path d="M499.855 101.626L491.327 89.9723L492.492 89.1116C494.088 87.8722 495.878 86.9056 497.789 86.2511C499.367 85.7967 501.015 85.6395 502.649 85.7876C505.949 86.2506 509.214 86.9319 512.423 87.827C514.992 88.4891 516.833 88.4097 517.958 87.5886C518.461 87.2638 518.89 86.8363 519.216 86.3342C519.543 85.8322 519.759 85.2668 519.852 84.6752C519.903 83.3149 519.429 81.9871 518.528 80.9672C518.057 80.2872 517.453 79.7109 516.751 79.2736C516.05 78.8363 515.266 78.5473 514.449 78.4245C512.793 78.1862 510.675 78.7953 508.092 80.2785L500.848 67.3137C505.005 64.624 510.01 63.5674 514.899 64.3473C519.596 65.1684 524.041 68.435 528.235 74.1471C531.492 78.6143 533.196 82.8918 533.346 86.9794C533.558 89.4706 533.118 91.974 532.071 94.2444C531.024 96.5148 529.406 98.4743 527.374 99.931C525.614 101.21 523.541 101.988 521.375 102.182C517.904 102.251 514.446 101.727 511.151 100.633C508.962 99.8869 506.657 99.5371 504.344 99.5999C502.703 99.8931 501.161 100.589 499.855 101.626V101.626ZM487.936 91.8528L497.074 104.328L486.069 112.379L476.932 99.9178L487.936 91.8528Z" fill="white"/>
<path d="M170.887 266.858C159.693 266.838 148.712 263.796 139.104 258.051C125.663 250.106 116.168 237.631 112.936 223.898C103.565 223.245 94.7563 219.187 88.1701 212.488C81.5838 205.79 77.6751 196.914 77.1806 187.533C74.3594 185.575 71.8655 183.184 69.7911 180.448C64.7523 174.027 62.2628 165.972 62.8005 157.827C63.3382 149.683 66.8653 142.025 72.7045 136.323C70.4887 126.906 70.7221 117.079 73.3824 107.779C76.0426 98.4782 81.0412 90.0143 87.9013 83.194C94.7614 76.3738 103.254 71.4246 112.57 68.8185C121.886 66.2124 131.714 66.0363 141.117 68.3069C143.169 63.6211 146.404 59.5498 150.506 56.4931C154.607 53.4364 159.434 51.4996 164.51 50.873C169.587 50.2465 174.74 50.9517 179.461 52.9194C184.183 54.8871 188.311 58.0496 191.44 62.096C192.893 63.9742 194.115 66.0193 195.082 68.1878C202.486 66.971 210.079 67.6718 217.135 70.2233C224.192 72.7748 230.477 77.0919 235.391 82.7627C240.304 88.4335 243.683 95.2688 245.205 102.617C246.726 109.964 246.339 117.579 244.081 124.735C248.929 128.865 252.492 134.298 254.348 140.39C256.204 146.482 256.275 152.979 254.552 159.11C252.83 165.241 249.386 170.75 244.63 174.985C239.873 179.22 234.002 182.003 227.713 183.004C224.876 193.739 218.572 203.236 209.782 210.019C204.249 214.315 197.891 217.423 191.103 219.15C184.315 220.877 177.244 221.186 170.331 220.057C170.199 232.916 173.178 250.357 187.547 262.832C187.686 262.956 187.789 263.114 187.847 263.291C187.906 263.468 187.916 263.656 187.878 263.839C187.839 264.021 187.75 264.189 187.621 264.324C187.493 264.46 187.33 264.557 187.15 264.607C181.862 266.119 176.387 266.877 170.887 266.858V266.858ZM127.702 68.7837C119.438 68.8089 111.287 70.7103 103.864 74.3446C96.442 77.9788 89.9415 83.251 84.8534 89.7636C79.7653 96.2761 76.2224 103.859 74.4918 111.94C72.7612 120.021 72.8882 128.39 74.8631 136.415C74.9086 136.595 74.9042 136.783 74.8506 136.961C74.7969 137.138 74.6959 137.297 74.5585 137.422C68.9035 142.729 65.4398 149.96 64.8491 157.693C64.2585 165.425 66.5836 173.099 71.367 179.203C73.4705 181.906 76.0025 184.245 78.8625 186.129C79.001 186.219 79.1165 186.34 79.1993 186.482C79.2822 186.625 79.3301 186.785 79.3392 186.95C79.6982 196.034 83.4427 204.655 89.8365 211.117C96.2303 217.579 104.811 221.416 113.89 221.872C114.117 221.884 114.334 221.972 114.506 222.12C114.679 222.269 114.797 222.47 114.843 222.693C117.77 236.161 127.027 248.397 140.217 256.264C153.581 264.324 169.591 266.771 184.753 263.07C170.543 249.828 167.895 231.738 168.239 218.76C168.244 218.609 168.282 218.462 168.349 218.327C168.416 218.192 168.511 218.073 168.627 217.978C168.744 217.883 168.879 217.814 169.025 217.775C169.17 217.736 169.322 217.729 169.47 217.753C181.679 220.062 194.308 217.626 204.781 210.942C215.255 204.258 222.784 193.83 225.832 181.785C225.879 181.583 225.987 181.4 226.14 181.26C226.294 181.12 226.487 181.031 226.693 181.004C232.717 180.171 238.367 177.599 242.949 173.602C247.532 169.605 250.849 164.357 252.492 158.502C254.136 152.648 254.035 146.44 252.202 140.642C250.37 134.844 246.884 129.707 242.174 125.861C242.011 125.729 241.892 125.55 241.833 125.349C241.774 125.148 241.777 124.934 241.843 124.735C244.147 117.834 244.611 110.451 243.19 103.316C241.769 96.1802 238.511 89.5388 233.739 84.0471C228.966 78.5554 222.844 74.4032 215.977 72.0005C209.109 69.5978 201.734 69.0277 194.579 70.3463C194.345 70.3917 194.102 70.3545 193.892 70.241C193.682 70.1276 193.517 69.9448 193.427 69.7239C191.353 64.6918 187.826 60.3916 183.298 57.3715C178.77 54.3515 173.445 52.7485 168.002 52.7669C162.559 52.7854 157.245 54.4245 152.738 57.4752C148.23 60.526 144.733 64.85 142.693 69.8961C142.597 70.1271 142.421 70.3164 142.198 70.4303C141.975 70.5443 141.719 70.5755 141.475 70.5185C136.975 69.3636 132.348 68.7808 127.702 68.7837V68.7837Z" fill="#E6E6E6"/>
<path d="M134.138 156.187L115.849 160.491L115.426 158.663C114.733 156.111 114.487 153.459 114.697 150.824C114.948 148.706 115.59 146.654 116.591 144.772C118.83 141.053 121.307 137.483 124.007 134.084C126.113 131.343 126.96 129.105 126.536 127.344C126.406 126.575 126.113 125.843 125.677 125.196C125.241 124.55 124.671 124.004 124.007 123.596C122.422 122.824 120.599 122.696 118.922 123.239C117.867 123.452 116.867 123.881 115.985 124.499C115.103 125.116 114.358 125.909 113.797 126.827C112.658 128.695 112.327 131.542 112.79 135.396L93.6278 137.435C92.5081 131.1 93.7622 124.575 97.1505 119.107C100.514 113.889 106.694 110.225 115.691 108.115C122.683 106.464 128.673 106.592 133.661 108.499C140.424 111.068 144.582 115.646 146.136 122.232C146.782 125.023 146.644 127.937 145.739 130.655C144.856 133.542 142.503 137.364 138.68 142.123C136.032 145.46 134.473 148.003 134.005 149.751C133.51 151.873 133.556 154.086 134.138 156.187ZM116.366 165.457L135.965 160.848L139.978 178.117L120.445 182.673L116.366 165.457Z" fill="#EBEBEB"/>
<path d="M180.7 117.504L168.013 113.637L168.398 112.313C168.884 110.512 169.672 108.806 170.728 107.268C171.633 106.063 172.756 105.039 174.039 104.248C176.725 102.792 179.503 101.514 182.356 100.421C184.607 99.5381 185.931 98.4655 186.328 97.203C186.523 96.6867 186.604 96.1347 186.568 95.5843C186.531 95.0338 186.377 94.4975 186.117 94.0114C185.419 92.9802 184.352 92.2552 183.137 91.9853C182.417 91.7451 181.655 91.6553 180.899 91.7214C180.142 91.7874 179.408 92.0079 178.74 92.3693C177.02 93.549 175.736 95.2614 175.085 97.2427L162.61 91.6939C164.186 87.4309 167.28 83.8992 171.298 81.775C175.2 79.7709 180.268 79.7223 186.501 81.6293C190.7 82.686 194.478 84.9954 197.333 88.2508C198.868 89.9578 199.93 92.0365 200.413 94.2806C200.896 96.5246 200.784 98.856 200.088 101.043C199.489 102.976 198.371 104.708 196.857 106.049C194.334 108.009 191.501 109.531 188.474 110.552C186.46 111.219 184.578 112.231 182.912 113.545C181.858 114.661 181.098 116.022 180.7 117.504ZM166.557 116.882L180.144 121.014L176.502 133.012L162.902 128.88L166.557 116.882Z" fill="#EBEBEB"/>
<path d="M331.999 537C473.808 537 588.766 530.288 588.766 522.009C588.766 513.73 473.808 507.018 331.999 507.018C190.191 507.018 75.2324 513.73 75.2324 522.009C75.2324 530.288 190.191 537 331.999 537Z" fill="#F5F5F5"/>
<path d="M209.648 298.469L208.43 297.952C209.387 295.85 210.034 293.619 210.35 291.331L211.674 291.476C211.343 293.893 210.66 296.249 209.648 298.469V298.469ZM209.132 283.319C207.9 280.567 205.984 278.176 203.566 276.375C201.148 274.574 198.309 273.422 195.319 273.029L195.531 271.705C198.738 272.131 201.782 273.371 204.373 275.307C206.965 277.242 209.018 279.809 210.337 282.763L209.132 283.319Z" fill="#7750A1"/>
<path d="M202.218 311.791L189.161 317.75L188.578 316.426C187.685 314.626 187.107 312.687 186.87 310.692C186.744 309.067 186.919 307.433 187.386 305.872C188.517 302.762 189.844 299.728 191.359 296.787C192.525 294.43 192.82 292.624 192.246 291.371C192.034 290.816 191.705 290.313 191.283 289.895C190.86 289.477 190.354 289.154 189.797 288.947C188.496 288.616 187.119 288.792 185.943 289.437C185.187 289.759 184.505 290.231 183.938 290.825C183.371 291.42 182.931 292.123 182.645 292.893C182.072 294.438 182.248 296.619 183.175 299.435L169.111 303.832C167.352 299.25 167.352 294.178 169.111 289.596C170.877 285.182 174.947 281.531 181.321 278.644C186.3 276.366 190.803 275.585 194.816 276.26C197.274 276.557 199.613 277.489 201.603 278.963C203.593 280.437 205.165 282.404 206.165 284.67C207.059 286.661 207.389 288.86 207.118 291.026C206.478 294.41 205.269 297.661 203.543 300.641C202.381 302.615 201.583 304.781 201.185 307.037C201.13 308.683 201.485 310.317 202.218 311.791ZM190.3 321.379L204.258 315.102L209.86 327.404L195.902 333.642L190.3 321.379Z" fill="#7750A1"/>
<path d="M169.959 341.23L163.338 350.235L162.49 349.533C161.199 348.638 160.066 347.532 159.14 346.262C158.436 345.204 157.938 344.022 157.67 342.78C157.242 340.235 156.99 337.664 156.915 335.085C156.809 333.033 156.319 331.695 155.458 331.113C155.096 330.806 154.672 330.581 154.214 330.456C153.757 330.33 153.278 330.305 152.81 330.384C151.796 330.649 150.924 331.294 150.373 332.185C149.979 332.69 149.692 333.269 149.53 333.889C149.368 334.508 149.335 335.154 149.433 335.787C149.893 337.481 150.892 338.978 152.28 340.051L144.334 348.408C141.392 345.954 139.455 342.504 138.891 338.714C138.406 335.059 139.792 331.02 143.05 326.597C145.07 323.565 147.96 321.216 151.34 319.856C153.127 319.118 155.077 318.859 156.995 319.105C158.914 319.351 160.735 320.094 162.278 321.26C163.649 322.276 164.712 323.651 165.351 325.233C166.201 327.794 166.613 330.48 166.569 333.178C166.523 334.979 166.802 336.773 167.39 338.476C168.003 339.594 168.886 340.541 169.959 341.23ZM165.496 352.301L172.595 342.66L181.097 348.924L173.998 358.565L165.496 352.301Z" fill="#7750A1"/>
<path d="M310.93 517.242C309.836 517.243 308.764 516.943 307.83 516.375C306.895 515.808 306.135 514.994 305.632 514.024C300.335 503.747 293.621 491.683 281.597 478.625C280.904 477.876 280.418 476.96 280.186 475.966C279.954 474.973 279.983 473.936 280.272 472.957C284.735 457.45 291.754 436.248 291.82 436.036C292.044 435.27 292.421 434.557 292.926 433.939C293.432 433.322 294.057 432.812 294.764 432.442C295.471 432.071 296.245 431.846 297.041 431.781C297.837 431.716 298.637 431.811 299.395 432.062C300.153 432.313 300.852 432.714 301.452 433.241C302.052 433.768 302.539 434.41 302.885 435.129C303.231 435.849 303.429 436.63 303.466 437.428C303.504 438.225 303.38 439.022 303.103 439.771C303.037 439.969 296.985 458.231 292.601 473.076C301.946 483.854 309.877 495.781 316.2 508.567C316.665 509.475 316.889 510.487 316.85 511.506C316.812 512.526 316.513 513.518 315.981 514.388C315.45 515.259 314.704 515.978 313.815 516.478C312.925 516.977 311.923 517.24 310.903 517.242H310.93Z" fill="#7750A1"/>
<path d="M320.821 522.009H274.749L299.169 508.157L319.629 508.952L320.821 522.009Z" fill="#263238"/>
<path d="M316.423 466.194C337.393 459.638 349.987 440.233 344.553 422.851C339.12 405.469 317.715 396.692 296.745 403.248C275.775 409.804 263.18 429.209 268.614 446.591C274.048 463.973 295.453 472.749 316.423 466.194Z" fill="#263238"/>
<path d="M201.754 413.099C200.383 413.094 199.056 412.615 197.998 411.743C196.939 410.871 196.215 409.66 195.947 408.316C195.679 406.971 195.884 405.575 196.527 404.364C197.17 403.153 198.212 402.201 199.477 401.671C200.506 401.241 201.41 400.557 202.104 399.685C202.799 398.812 203.261 397.778 203.45 396.678C203.568 395.385 204.108 394.166 204.986 393.21C205.864 392.253 207.031 391.61 208.31 391.381C209.785 391.08 211.243 390.704 212.68 390.255C220.732 387.911 230.703 384.958 262.089 393.778C293.051 376.469 293.409 343.998 293.409 342.594C293.409 341.02 294.031 339.511 295.14 338.394C296.249 337.278 297.755 336.645 299.328 336.635V336.635C300.896 336.635 302.4 337.254 303.514 338.358C304.628 339.461 305.26 340.96 305.274 342.528C305.274 344.263 305.089 385.024 265.546 405.432C264.198 406.131 262.632 406.282 261.175 405.855C231.246 397.221 222.771 399.684 216.057 401.657L214.229 402.187C213.346 404.527 211.992 406.662 210.252 408.459C208.512 410.256 206.422 411.677 204.112 412.636C203.365 412.948 202.563 413.106 201.754 413.099V413.099Z" fill="#263238"/>
<path d="M271.187 370.576C259.917 325.789 229.896 210.258 326.105 203.199C412.423 196.856 436.101 311.791 441.862 351.52C444.746 371.622 446.312 391.892 446.55 412.199C446.659 422.471 443.179 432.459 436.709 440.438C430.238 448.417 421.185 453.886 411.112 455.9C364.086 465.462 319.59 466.813 289.608 454.987C285.67 453.398 282.352 450.577 280.149 446.947C277.946 443.317 276.976 439.071 277.385 434.844C278.537 422.025 278.563 399.856 271.187 370.576Z" fill="#7750A1"/>
<path opacity="0.1" d="M441.916 351.546C436.486 314.042 415.139 209.847 340.396 203.226C336.132 202.794 331.836 203.633 328.049 205.639C324.262 207.644 321.153 210.726 319.115 214.495C315.777 220.958 315.883 228.785 320.876 236.532C337.297 262.13 376.589 350.421 370.656 398.532C368.007 420.423 354.221 437.903 366.167 462.509C381.266 461.187 396.274 458.976 411.113 455.887C421.186 453.873 430.24 448.404 436.71 440.425C443.18 432.446 446.661 422.458 446.551 412.186C446.329 391.893 444.781 371.637 441.916 351.546V351.546Z" fill="black"/>
<path d="M428.991 412.821C428.835 412.821 428.685 412.76 428.574 412.651C428.463 412.542 428.398 412.394 428.395 412.239C428.17 391.958 426.608 371.714 423.72 351.639C409.418 252.767 370.921 202.775 312.347 207.093C312.269 207.098 312.19 207.088 312.116 207.063C312.042 207.038 311.973 206.998 311.914 206.947C311.855 206.895 311.807 206.832 311.772 206.762C311.737 206.691 311.717 206.615 311.712 206.536C311.704 206.379 311.758 206.225 311.862 206.107C311.965 205.988 312.111 205.914 312.268 205.901C371.53 201.531 410.491 251.88 424.833 351.467C427.718 371.596 429.284 391.892 429.521 412.225C429.521 412.383 429.458 412.535 429.346 412.647C429.234 412.758 429.083 412.821 428.925 412.821H428.991Z" fill="#263238"/>
<path d="M428.091 469.362C449.061 462.806 461.655 443.401 456.221 426.019C450.788 408.637 429.383 399.86 408.413 406.416C387.443 412.971 374.848 432.377 380.282 449.759C385.716 467.141 407.121 475.917 428.091 469.362Z" fill="#263238"/>
<path d="M431.718 517.242C430.625 517.244 429.552 516.945 428.617 516.377C427.683 515.81 426.923 514.995 426.421 514.024C421.124 503.747 414.41 491.683 402.372 478.625C401.685 477.873 401.203 476.956 400.971 475.964C400.739 474.972 400.765 473.937 401.048 472.957C405.524 457.45 412.529 436.248 412.609 436.036C412.854 435.296 413.243 434.612 413.752 434.022C414.262 433.432 414.883 432.948 415.579 432.599C416.276 432.249 417.035 432.039 417.812 431.983C418.59 431.926 419.371 432.023 420.111 432.268C420.851 432.514 421.535 432.902 422.125 433.412C422.715 433.922 423.199 434.543 423.548 435.239C423.898 435.936 424.107 436.695 424.164 437.472C424.221 438.25 424.124 439.031 423.878 439.771C423.812 439.969 417.773 458.231 413.39 473.077C422.736 483.851 430.662 495.778 436.976 508.568C437.44 509.475 437.664 510.487 437.626 511.506C437.587 512.526 437.288 513.518 436.757 514.388C436.225 515.259 435.479 515.978 434.59 516.478C433.701 516.977 432.698 517.24 431.679 517.242H431.718Z" fill="#7750A1"/>
<path d="M419.243 336.171C417.915 336.172 416.624 335.728 415.578 334.91C414.531 334.092 413.789 332.947 413.469 331.658C413.149 330.369 413.27 329.009 413.812 327.797C414.355 326.584 415.287 325.588 416.462 324.968C417.601 324.359 443.464 310.228 450.721 276.274C433.506 269.069 402.491 252.794 395.71 244.61C395.043 243.818 394.587 242.871 394.386 241.855C393.603 236.965 394.058 231.957 395.71 227.288L392.585 221.249C391.862 219.844 391.726 218.21 392.208 216.705C392.689 215.2 393.749 213.948 395.154 213.224C396.559 212.501 398.194 212.365 399.699 212.847C401.204 213.328 402.456 214.388 403.179 215.793L407.669 224.481C408.152 225.39 408.389 226.409 408.356 227.439C408.324 228.468 408.023 229.47 407.483 230.347C406.271 232.768 405.758 235.478 406 238.174C413.641 245.073 444.405 261.402 459.541 267.004C460.824 267.479 461.904 268.384 462.596 269.564C463.289 270.744 463.552 272.127 463.342 273.479C456.628 316.876 423.428 334.754 422.024 335.496C421.166 335.945 420.211 336.176 419.243 336.171Z" fill="#263238"/>
<path d="M400.292 243.789C399.758 243.786 399.234 243.64 398.775 243.366C398.317 243.091 397.941 242.698 397.686 242.229C397.431 241.759 397.308 241.229 397.328 240.695C397.349 240.161 397.513 239.642 397.802 239.193C398.014 238.876 402.914 231.473 410.383 229.473C410.76 229.372 411.152 229.347 411.539 229.397C411.925 229.448 412.298 229.575 412.635 229.77C412.973 229.965 413.269 230.224 413.506 230.533C413.743 230.843 413.917 231.196 414.018 231.572C414.119 231.949 414.145 232.341 414.094 232.728C414.043 233.114 413.916 233.487 413.722 233.824C413.527 234.162 413.267 234.458 412.958 234.695C412.649 234.932 412.296 235.106 411.919 235.207C406.715 236.611 402.808 242.385 402.782 242.438C402.512 242.853 402.143 243.194 401.708 243.43C401.274 243.666 400.787 243.789 400.292 243.789V243.789Z" fill="#263238"/>
<path d="M441.611 522.009H395.539L419.959 508.157L440.419 508.952L441.611 522.009Z" fill="#263238"/>
<path d="M345.132 344.572C362.558 343.029 375.56 329.062 374.171 313.377C372.782 297.692 357.529 286.227 340.102 287.77C322.676 289.313 309.675 303.28 311.064 318.965C312.452 334.65 327.705 346.115 345.132 344.572Z" fill="white"/>
<path d="M339.214 334.233C343.835 332.917 345.639 325.03 343.243 316.617C340.846 308.204 335.157 302.452 330.536 303.768C325.914 305.084 324.111 312.971 326.507 321.384C328.904 329.797 334.593 335.55 339.214 334.233Z" fill="#263238"/>
<path d="M306.572 321.538C326.569 318.969 366.165 307.673 372.694 303.117C367.555 288.073 343.559 275.201 322.212 282.458C302.864 288.987 306.572 321.538 306.572 321.538Z" fill="#263238"/>
<path d="M310.453 331.205C335.284 326.491 367.557 318.571 376.787 313.499C376.217 329.682 371.49 346.09 346.169 351.639C325.457 356.155 310.453 331.205 310.453 331.205Z" fill="#263238"/>
<path d="M290 346.774C298.979 340.834 300.162 326.806 292.644 315.442C285.125 304.078 271.752 299.682 262.773 305.623C253.794 311.563 252.611 325.591 260.129 336.955C267.648 348.318 281.021 352.715 290 346.774Z" fill="white"/>
<path d="M276.829 326.597C278.325 333.695 277.027 339.614 273.915 339.84C270.803 340.065 267.069 334.463 265.559 327.365C264.049 320.267 265.36 314.36 268.459 314.122C271.558 313.883 275.319 319.498 276.829 326.597Z" fill="#263238"/>
<path d="M252.211 323.882C265.626 325.458 292.271 323.696 296.694 321.233C293.423 308.48 277.558 293.913 263.136 295.767C250.132 297.436 252.211 323.882 252.211 323.882Z" fill="#263238"/>
<path d="M254.699 332.238C271.372 332.993 293.104 332.569 299.301 330.225C298.732 342.952 295.395 355.082 278.364 354.884C264.459 354.725 254.699 332.238 254.699 332.238Z" fill="#263238"/>
<path d="M350.658 274.446C335.504 274.529 320.683 270.003 308.161 261.468C306.906 260.518 306.079 259.108 305.863 257.548C305.647 255.989 306.059 254.407 307.009 253.151C307.959 251.896 309.369 251.069 310.929 250.853C312.488 250.637 314.07 251.049 315.326 251.999C329.341 261.14 346.345 264.513 362.788 261.415C363.554 261.27 364.342 261.277 365.105 261.436C365.868 261.595 366.593 261.903 367.237 262.342C367.881 262.781 368.433 263.342 368.86 263.995C369.288 264.647 369.582 265.377 369.728 266.143C369.873 266.909 369.866 267.696 369.707 268.459C369.548 269.223 369.24 269.947 368.801 270.592C368.362 271.236 367.8 271.788 367.148 272.215C366.496 272.642 365.766 272.937 365 273.082C360.272 273.982 355.471 274.439 350.658 274.446V274.446Z" fill="#263238"/>
<path d="M244.436 264.209C243.485 264.205 242.549 263.972 241.707 263.532C240.864 263.092 240.139 262.456 239.592 261.678C239.045 260.901 238.692 260.003 238.562 259.061C238.433 258.119 238.531 257.16 238.848 256.264C241.986 247.497 247.217 241.816 254.368 239.352C267.32 234.89 281.278 243.564 281.874 243.934C283.175 244.789 284.088 246.12 284.419 247.641C284.75 249.162 284.471 250.752 283.642 252.069C282.813 253.387 281.501 254.327 279.987 254.688C278.473 255.049 276.878 254.801 275.544 253.999C272.895 252.317 264.459 248.424 258.196 250.596C254.593 251.854 251.918 255.019 250.025 260.289C249.609 261.438 248.849 262.43 247.849 263.131C246.849 263.833 245.658 264.209 244.436 264.209Z" fill="#263238"/>
<path d="M291.251 364.432C291.084 364.431 290.919 364.404 290.761 364.352C290.311 364.226 289.93 363.926 289.702 363.519C289.473 363.111 289.416 362.63 289.542 362.18C290.069 360.748 290.873 359.433 291.91 358.313C292.946 357.192 294.194 356.288 295.581 355.652C302.388 352.142 312.797 352.871 326.45 357.81C326.671 357.89 326.874 358.013 327.047 358.171C327.22 358.33 327.36 358.521 327.458 358.735C327.557 358.948 327.612 359.178 327.621 359.413C327.63 359.647 327.592 359.881 327.51 360.101C327.431 360.322 327.31 360.524 327.153 360.697C326.995 360.87 326.805 361.01 326.593 361.108C326.381 361.207 326.151 361.262 325.918 361.271C325.684 361.28 325.451 361.243 325.232 361.161C309.566 355.493 301.395 356.711 297.422 358.75C295.438 359.592 293.861 361.174 293.025 363.16C292.911 363.539 292.675 363.868 292.354 364.098C292.033 364.328 291.645 364.446 291.251 364.432V364.432Z" fill="#263238"/>
<path d="M235.166 357.903C214.445 359.744 194.291 365.662 175.864 375.317C186.088 373.384 222.678 418.661 232.08 453.57C249.442 447.147 269.677 442.763 291.25 439.334C278.179 403.353 254.276 362.578 235.166 357.903Z" fill="#7750A1"/>
<path opacity="0.6" d="M235.166 357.903C214.445 359.744 194.291 365.662 175.864 375.317C186.088 373.384 222.678 418.661 232.08 453.57C249.442 447.147 269.677 442.763 291.25 439.334C278.179 403.353 254.276 362.578 235.166 357.903Z" fill="white"/>
<path d="M235.167 357.903C212.548 355.347 175.825 374.284 175.825 374.284C169.323 378.429 171.084 386.203 174.633 389.5C178.037 384.614 215.991 371.901 230.254 370.192C223.169 363.624 229.764 358.803 235.167 357.903Z" fill="#7750A1"/>
<path opacity="0.2" d="M235.167 357.903C212.548 355.347 175.825 374.284 175.825 374.284C169.323 378.429 171.084 386.203 174.633 389.5C178.037 384.614 215.991 371.901 230.254 370.192C223.169 363.624 229.764 358.803 235.167 357.903Z" fill="white"/>
<path d="M201.768 413.099C200.783 413.103 199.811 412.863 198.94 412.401C198.069 411.939 197.326 411.269 196.776 410.451C192.472 403.829 195.16 393.778 195.743 391.818C196.239 390.364 197.279 389.159 198.644 388.455C200.009 387.75 201.594 387.602 203.067 388.04C204.539 388.478 205.784 389.47 206.542 390.806C207.3 392.142 207.511 393.72 207.132 395.208C206.165 398.532 205.967 402.783 206.735 403.949C207.594 405.269 207.894 406.877 207.569 408.42C207.244 409.962 206.32 411.311 205 412.172C204.038 412.794 202.913 413.116 201.768 413.099V413.099Z" fill="#263238"/>
<path d="M181.468 153.459H161.418V144.414L181.468 120.577H191.056V144.93H196.022V153.459H191.056V160.862H181.468V153.459ZM181.468 144.93V132.469L170.873 144.93H181.468Z" fill="#7750A1"/>
<path d="M199.45 140.905C199.45 133.383 200.805 128.116 203.516 125.106C206.226 122.095 210.354 120.59 215.898 120.59C218.147 120.514 220.391 120.851 222.519 121.583C224.073 122.142 225.497 123.012 226.704 124.139C227.719 125.112 228.58 126.233 229.26 127.463C229.925 128.751 230.427 130.117 230.757 131.529C231.504 134.561 231.873 137.675 231.856 140.799C231.856 147.976 230.642 153.234 228.214 156.571C225.786 159.908 221.584 161.546 215.607 161.484C212.826 161.599 210.058 161.055 207.528 159.895C205.457 158.814 203.711 157.2 202.47 155.22C201.369 153.377 200.615 151.349 200.245 149.234C199.696 146.492 199.43 143.701 199.45 140.905V140.905ZM210.362 140.905C210.362 145.955 210.804 149.398 211.687 151.234C211.977 152.034 212.503 152.728 213.196 153.222C213.889 153.716 214.716 153.988 215.567 154.002C216.105 154.012 216.639 153.913 217.138 153.71C217.637 153.508 218.089 153.206 218.467 152.823C219.416 151.789 220.042 150.5 220.268 149.115C220.739 146.494 220.934 143.831 220.851 141.169C220.851 135.872 220.414 132.376 219.527 130.575C219.204 129.788 218.654 129.115 217.946 128.643C217.238 128.171 216.405 127.921 215.554 127.927C214.683 127.903 213.827 128.159 213.112 128.657C212.397 129.155 211.861 129.869 211.581 130.694C210.777 132.522 210.371 135.934 210.362 140.931V140.905Z" fill="#7750A1"/>
<path d="M236.347 140.905C236.347 133.383 237.702 128.116 240.412 125.106C243.123 122.095 247.25 120.59 252.795 120.59C255.044 120.514 257.288 120.851 259.416 121.583C260.97 122.142 262.394 123.012 263.601 124.139C264.619 125.109 265.481 126.23 266.157 127.463C266.821 128.751 267.324 130.117 267.653 131.529C268.405 134.561 268.779 137.675 268.765 140.799C268.765 147.976 267.547 153.234 265.11 156.571C262.674 159.908 258.485 161.546 252.543 161.484C249.762 161.599 246.994 161.055 244.465 159.895C242.394 158.817 240.651 157.203 239.419 155.22C238.308 153.381 237.549 151.351 237.181 149.234C236.619 146.494 236.34 143.702 236.347 140.905V140.905ZM247.259 140.905C247.259 145.955 247.7 149.398 248.583 151.234C248.873 152.034 249.399 152.728 250.092 153.222C250.785 153.716 251.612 153.988 252.463 154.002C253.001 154.012 253.536 153.913 254.035 153.71C254.533 153.508 254.985 153.206 255.364 152.823C256.312 151.787 256.942 150.5 257.178 149.115C257.642 146.493 257.837 143.831 257.761 141.169C257.761 135.872 257.319 132.341 256.436 130.575C256.111 129.79 255.56 129.119 254.852 128.647C254.145 128.176 253.314 127.925 252.463 127.927C251.593 127.905 250.738 128.162 250.024 128.66C249.309 129.158 248.772 129.87 248.491 130.694C247.661 132.522 247.246 135.934 247.246 140.931L247.259 140.905Z" fill="#7750A1"/>
<path d="M293.45 121.265H326.24V129.701H305.713V136.005H324.756V144.083H305.713V151.883H326.836V160.848H293.45V121.265Z" fill="#263238"/>
<path d="M333.589 160.862V121.265H353.983C356.907 121.162 359.83 121.492 362.657 122.245C364.629 122.866 366.333 124.135 367.491 125.847C368.367 127.105 368.975 128.529 369.276 130.032C369.578 131.535 369.567 133.084 369.244 134.582C368.921 136.08 368.293 137.496 367.399 138.741C366.505 139.986 365.364 141.033 364.048 141.818C362.707 142.561 361.259 143.092 359.757 143.394C360.883 143.717 361.955 144.208 362.935 144.851C363.669 145.463 364.328 146.161 364.895 146.93C365.55 147.692 366.126 148.517 366.617 149.393L372.536 160.862H358.711L352.169 148.758C351.653 147.599 350.899 146.561 349.957 145.712C349.078 145.104 348.032 144.785 346.964 144.798H345.878V160.862H333.589ZM345.878 137.316H351.043C352.134 137.229 353.215 137.048 354.274 136.773C355.068 136.619 355.776 136.175 356.261 135.528C356.855 134.747 357.139 133.774 357.059 132.796C356.978 131.817 356.538 130.904 355.824 130.231C354.449 129.41 352.848 129.053 351.255 129.211H345.878V137.316Z" fill="#263238"/>
<path d="M376.615 160.862V121.265H397.009C399.933 121.161 402.857 121.491 405.683 122.245C407.655 122.866 409.359 124.135 410.517 125.847C411.39 127.105 411.995 128.529 412.296 130.031C412.596 131.532 412.586 133.079 412.264 134.576C411.943 136.073 411.317 137.489 410.427 138.734C409.536 139.98 408.4 141.03 407.087 141.818C405.743 142.563 404.291 143.094 402.783 143.394C404.895 143.85 406.742 145.12 407.921 146.93C408.576 147.692 409.153 148.517 409.643 149.393L415.563 160.862H401.737L395.195 148.758C394.679 147.599 393.926 146.561 392.983 145.712C392.105 145.104 391.059 144.785 389.991 144.798H388.944V160.862H376.615ZM388.944 137.316H394.109C395.2 137.229 396.281 137.048 397.34 136.773C398.136 136.625 398.847 136.18 399.327 135.528C399.921 134.747 400.205 133.774 400.125 132.796C400.044 131.817 399.604 130.904 398.89 130.231C397.517 129.407 395.914 129.049 394.321 129.211H388.944V137.316Z" fill="#263238"/>
<path d="M416.993 141.09C416.993 134.627 418.794 129.595 422.396 125.993C425.998 122.391 431.012 120.59 437.44 120.59C444.035 120.59 449.116 122.356 452.682 125.887C456.249 129.419 458.015 134.376 457.979 140.759C458.16 144.707 457.374 148.639 455.688 152.214C454.174 155.142 451.823 157.553 448.935 159.14C445.53 160.846 441.747 161.653 437.943 161.484C434.135 161.614 430.347 160.885 426.859 159.352C423.86 157.866 421.378 155.513 419.734 152.598C417.807 149.076 416.86 145.102 416.993 141.09V141.09ZM429.229 141.09C429.229 145.089 429.975 147.963 431.467 149.711C432.252 150.532 433.196 151.186 434.24 151.633C435.285 152.079 436.41 152.309 437.546 152.309C438.682 152.309 439.806 152.079 440.851 151.633C441.896 151.186 442.839 150.532 443.624 149.711C445.063 147.998 445.787 144.908 445.796 140.441C445.796 136.724 445.041 134.001 443.531 132.27C442.767 131.414 441.821 130.739 440.762 130.295C439.704 129.85 438.56 129.648 437.413 129.701C436.288 129.662 435.169 129.881 434.141 130.34C433.113 130.799 432.203 131.486 431.48 132.35C429.997 134.217 429.229 137.117 429.229 141.143V141.09Z" fill="#263238"/>
<path d="M464.787 160.862V121.265H485.168C488.092 121.161 491.015 121.491 493.842 122.245C495.816 122.862 497.521 124.132 498.676 125.847C499.946 127.738 500.59 129.98 500.516 132.257C500.57 134.247 500.085 136.214 499.113 137.951C498.172 139.547 496.842 140.878 495.246 141.818C493.905 142.561 492.458 143.092 490.955 143.394C492.082 143.717 493.153 144.209 494.133 144.851C494.865 145.466 495.522 146.164 496.093 146.93C496.745 147.691 497.317 148.517 497.802 149.393L503.735 160.862H489.909L483.367 148.758C482.846 147.602 482.093 146.565 481.155 145.712C480.272 145.104 479.222 144.785 478.149 144.798H477.077V160.862H464.787ZM477.077 137.316H482.228C483.323 137.23 484.409 137.048 485.473 136.773C486.266 136.619 486.974 136.175 487.459 135.528C487.969 134.874 488.24 134.066 488.227 133.237C488.26 132.685 488.167 132.132 487.956 131.621C487.745 131.109 487.421 130.652 487.009 130.284C485.636 129.46 484.033 129.102 482.44 129.264H477.077V137.316Z" fill="#263238"/>
<path d="M215.846 99.2425V69.7638H226.917C228.765 69.6937 230.607 70.0001 232.333 70.6643C233.662 71.2262 234.783 72.1892 235.538 73.4188C236.286 74.5807 236.69 75.9305 236.703 77.3122C236.705 78.5739 236.347 79.8098 235.67 80.8746C234.905 82.0291 233.831 82.9465 232.572 83.5232C234.196 83.9349 235.642 84.8647 236.69 86.1717C237.652 87.4579 238.155 89.029 238.12 90.6346C238.133 91.9697 237.833 93.2892 237.246 94.4883C236.755 95.5647 236.016 96.5089 235.088 97.2428C234.118 97.9383 233.02 98.4335 231.856 98.6995C230.298 99.0565 228.701 99.221 227.102 99.1895L215.846 99.2425ZM219.819 82.1327H226.202C227.452 82.1868 228.704 82.071 229.923 81.7883C230.81 81.5639 231.597 81.0515 232.161 80.3316C232.685 79.5748 232.949 78.6689 232.916 77.7493C232.952 76.816 232.708 75.8933 232.214 75.1007C231.757 74.3568 231.039 73.8094 230.201 73.5645C228.73 73.2257 227.22 73.0876 225.712 73.154H219.819V82.1327ZM219.819 95.7596H227.168C228.053 95.7836 228.939 95.7394 229.817 95.6272C230.612 95.5034 231.376 95.2293 232.068 94.8194C232.702 94.4124 233.218 93.8462 233.565 93.1772C233.963 92.4089 234.164 91.5531 234.147 90.6876C234.174 89.6686 233.877 88.6674 233.3 87.8271C232.74 87.0036 231.911 86.3999 230.956 86.1188C229.551 85.7331 228.095 85.5634 226.639 85.6155H219.819V95.7596Z" fill="#263238"/>
<path d="M256.991 96.5938C255.842 97.6115 254.53 98.4305 253.111 99.0172C251.84 99.4869 250.494 99.7246 249.138 99.7191C247.184 99.8514 245.253 99.236 243.735 97.9975C243.117 97.4478 242.627 96.7691 242.3 96.0095C241.973 95.2498 241.816 94.4276 241.841 93.6009C241.832 92.6295 242.059 91.6705 242.505 90.8072C242.95 89.944 243.6 89.2028 244.397 88.648C245.206 88.1025 246.102 87.6993 247.046 87.4562C248.106 87.2073 249.181 87.026 250.264 86.9132C252.454 86.7132 254.619 86.2962 256.727 85.6684C256.727 85.1651 256.727 84.8606 256.727 84.7149C256.787 84.1535 256.728 83.5855 256.552 83.0489C256.376 82.5123 256.088 82.0193 255.707 81.6028C254.527 80.7001 253.057 80.2619 251.575 80.3712C250.254 80.2768 248.937 80.5912 247.801 81.2717C246.823 82.0914 246.159 83.2235 245.92 84.4765L242.384 83.9998C242.621 82.6659 243.165 81.4054 243.974 80.3182C244.839 79.3076 245.973 78.5636 247.245 78.1729C248.809 77.6435 250.453 77.3882 252.105 77.418C253.6 77.3744 255.092 77.5894 256.515 78.0537C257.48 78.3702 258.347 78.9314 259.031 79.6826C259.598 80.4017 259.984 81.2464 260.156 82.1458C260.309 83.2512 260.371 84.3674 260.342 85.483V90.3166C260.283 92.4469 260.358 94.5789 260.567 96.6997C260.725 97.6012 261.034 98.4697 261.481 99.2688H257.706C257.308 98.4277 257.066 97.5214 256.991 96.5938V96.5938ZM256.687 88.5024C254.771 89.169 252.785 89.6134 250.767 89.8266C249.688 89.942 248.626 90.182 247.602 90.5418C247.023 90.7905 246.527 91.1994 246.172 91.7204C245.76 92.3687 245.594 93.1429 245.703 93.9031C245.813 94.6633 246.19 95.3593 246.768 95.8654C247.689 96.5653 248.832 96.9087 249.986 96.8321C251.286 96.8511 252.568 96.5316 253.707 95.9051C254.748 95.3416 255.586 94.4663 256.104 93.4022C256.55 92.2467 256.748 91.0106 256.687 89.7737V88.5024Z" fill="#263238"/>
<path d="M279.836 99.2424V96.5938C279.217 97.6136 278.334 98.4473 277.28 99.0068C276.227 99.5662 275.042 99.8306 273.85 99.7721C272.181 99.7794 270.548 99.2858 269.162 98.3551C267.696 97.3774 266.542 95.9982 265.838 94.3822C265.019 92.5605 264.616 90.5789 264.659 88.5818C264.634 86.5937 264.994 84.6195 265.719 82.7682C266.35 81.1438 267.47 79.7556 268.924 78.7953C270.348 77.8939 272.006 77.4332 273.691 77.471C274.889 77.446 276.073 77.7239 277.134 78.2788C278.106 78.7941 278.948 79.5231 279.597 80.4109V69.8166H283.2V99.2424H279.836ZM268.434 88.648C268.269 90.8326 268.884 93.0049 270.168 94.7795C270.648 95.4075 271.265 95.9176 271.972 96.2711C272.679 96.6245 273.457 96.8119 274.247 96.8189C275.024 96.8217 275.791 96.6479 276.491 96.3107C277.191 95.9734 277.805 95.4815 278.286 94.8722C279.522 93.1572 280.108 91.0596 279.942 88.9526C280.127 86.6745 279.534 84.401 278.26 82.5033C277.771 81.862 277.139 81.3429 276.415 80.9867C275.692 80.6305 274.895 80.447 274.088 80.4507C273.32 80.4561 272.563 80.6367 271.874 80.9786C271.186 81.3205 270.584 81.8148 270.116 82.4239C268.868 84.2491 268.275 86.4429 268.434 88.648V88.648Z" fill="#263238"/>
<path d="M300.866 99.2424V69.7636H313.95C315.981 69.6758 318.011 69.9447 319.949 70.5582C321.327 71.1005 322.483 72.089 323.233 73.3657C324.054 74.7035 324.481 76.2458 324.465 77.8153C324.49 78.7889 324.322 79.7579 323.972 80.6668C323.622 81.5756 323.097 82.4067 322.426 83.1125C320.697 84.7216 318.466 85.6851 316.109 85.8405C316.972 86.2223 317.779 86.7215 318.506 87.3237C319.752 88.5043 320.843 89.8394 321.75 91.2966L326.875 99.2424H321.962L318.056 93.1109C316.917 91.3363 315.976 89.9856 315.248 89.0453C314.695 88.2862 314.024 87.6201 313.262 87.0721C312.714 86.7102 312.11 86.4417 311.474 86.2776C310.755 86.1673 310.028 86.123 309.302 86.1451H304.773V99.2424H300.866ZM304.773 82.7549H313.169C314.584 82.8114 315.999 82.6278 317.354 82.212C318.295 81.889 319.105 81.2655 319.658 80.4374C320.17 79.6493 320.442 78.7289 320.439 77.7889C320.456 77.138 320.328 76.4915 320.065 75.896C319.802 75.3006 319.409 74.771 318.916 74.3457C317.53 73.3406 315.828 72.8702 314.122 73.0214H304.773V82.7549Z" fill="#263238"/>
<path d="M344.752 92.3958L348.5 92.846C348.021 94.8574 346.872 96.646 345.242 97.9181C343.182 99.2649 340.733 99.8902 338.279 99.6961C335.825 99.502 333.505 98.4994 331.681 96.8454C329.744 94.6056 328.76 91.6966 328.94 88.7407C328.749 85.6961 329.746 82.696 331.721 80.3712C332.638 79.3868 333.756 78.6112 334.999 78.0971C336.242 77.583 337.581 77.3423 338.925 77.3915C340.233 77.3479 341.536 77.5854 342.744 78.088C343.953 78.5906 345.039 79.3466 345.931 80.305C347.855 82.5924 348.827 85.5318 348.646 88.5156C348.646 88.7275 348.646 89.0585 348.646 89.4823H332.754C332.719 91.4558 333.391 93.3768 334.648 94.8987C335.217 95.5097 335.908 95.9932 336.678 96.3174C337.447 96.6415 338.276 96.7989 339.111 96.7792C340.33 96.8168 341.527 96.4488 342.514 95.733C343.569 94.8619 344.347 93.7022 344.752 92.3958V92.3958ZM332.834 86.5292H344.752C344.723 85.0809 344.262 83.6744 343.428 82.4901C342.892 81.8182 342.208 81.2796 341.429 80.9166C340.65 80.5535 339.798 80.3759 338.939 80.3977C338.165 80.3726 337.395 80.504 336.673 80.7839C335.952 81.0638 335.295 81.4865 334.741 82.0266C333.563 83.2333 332.891 84.8436 332.86 86.5292H332.834Z" fill="#263238"/>
<path d="M366.669 107.466V97.0043C366.049 97.8379 365.241 98.5138 364.312 98.9775C363.312 99.492 362.204 99.7599 361.08 99.7588C359.832 99.7612 358.597 99.4897 357.465 98.9635C356.332 98.4372 355.329 97.669 354.525 96.713C352.581 94.3876 351.596 91.409 351.771 88.3832C351.742 86.4013 352.125 84.4351 352.896 82.6093C353.551 81.0118 354.685 79.6563 356.141 78.7291C357.533 77.8549 359.145 77.3955 360.789 77.4048C362.027 77.3685 363.253 77.6531 364.348 78.231C365.444 78.8088 366.371 79.6601 367.04 80.7023V77.8948H370.298V107.466H366.669ZM355.505 88.5289C355.341 90.7279 355.95 92.9152 357.227 94.7133C357.718 95.3508 358.347 95.8682 359.068 96.2261C359.788 96.5841 360.581 96.7732 361.385 96.7792C362.152 96.7733 362.908 96.594 363.596 96.2546C364.284 95.9151 364.886 95.4245 365.358 94.8192C366.611 93.0915 367.207 90.9741 367.04 88.8467C367.201 86.5677 366.579 84.302 365.279 82.4239C364.799 81.771 364.176 81.237 363.457 80.8627C362.738 80.4885 361.943 80.2841 361.133 80.2653C360.36 80.2694 359.599 80.4534 358.909 80.8028C358.22 81.1522 357.621 81.6573 357.161 82.2782C355.914 84.1127 355.33 86.3176 355.505 88.5289Z" fill="#263238"/>
<path d="M389.976 99.2424V96.1303C389.256 97.2693 388.253 98.2023 387.064 98.8382C385.876 99.4742 384.543 99.7913 383.196 99.7588C381.979 99.7695 380.774 99.5212 379.66 99.0305C378.706 98.6515 377.869 98.0253 377.237 97.2162C376.672 96.4265 376.287 95.5223 376.111 94.5676C375.932 93.4468 375.857 92.312 375.886 91.1774V77.9345H379.514V89.8531C379.474 91.1331 379.549 92.414 379.74 93.6803C379.927 94.5828 380.441 95.3843 381.183 95.9316C381.985 96.4906 382.947 96.774 383.924 96.7395C385.001 96.7421 386.058 96.4538 386.983 95.9052C387.897 95.3969 388.611 94.5939 389.01 93.6274C389.468 92.2865 389.67 90.8714 389.606 89.4559V77.8948H393.221V99.2424H389.976Z" fill="#263238"/>
<path d="M413.536 92.3958L417.284 92.846C416.793 94.859 415.636 96.6466 414 97.9181C411.939 99.2649 409.49 99.8902 407.036 99.6961C404.582 99.502 402.262 98.4994 400.439 96.8454C398.502 94.6056 397.518 91.6966 397.698 88.7407C397.508 85.6986 398.5 82.7008 400.465 80.3712C401.386 79.3879 402.506 78.6131 403.751 78.0992C404.996 77.5852 406.337 77.3439 407.683 77.3916C408.991 77.3479 410.293 77.5854 411.502 78.088C412.71 78.5906 413.797 79.3466 414.688 80.305C416.613 82.5924 417.585 85.5318 417.403 88.5156C417.403 88.7275 417.403 89.0586 417.403 89.4823H401.512C401.507 91.4612 402.217 93.3753 403.511 94.8722C404.079 95.4846 404.771 95.969 405.54 96.2932C406.31 96.6175 407.139 96.7741 407.974 96.7527C409.193 96.7903 410.39 96.4223 411.378 95.7065C412.399 94.832 413.148 93.683 413.536 92.3958V92.3958ZM401.618 86.5292H413.536C413.507 85.0809 413.046 83.6744 412.212 82.4901C411.676 81.8182 410.992 81.2796 410.213 80.9166C409.434 80.5536 408.582 80.3759 407.723 80.3977C406.947 80.3708 406.174 80.5013 405.45 80.7813C404.726 81.0612 404.067 81.4848 403.511 82.0266C402.339 83.2354 401.671 84.8455 401.644 86.5292H401.618Z" fill="#263238"/>
<path d="M420.384 92.899L423.959 92.3295C424.081 93.6025 424.682 94.7815 425.641 95.627C426.75 96.4532 428.115 96.8612 429.495 96.7792C430.812 96.8807 432.123 96.5201 433.203 95.7595C433.573 95.4812 433.874 95.1214 434.083 94.7081C434.292 94.2948 434.403 93.8389 434.408 93.3757C434.415 92.9892 434.32 92.6076 434.135 92.2686C433.949 91.9295 433.678 91.6447 433.349 91.4423C432.166 90.8854 430.921 90.4719 429.641 90.2107C427.752 89.7971 425.904 89.2166 424.118 88.4759C423.174 88.0546 422.374 87.3662 421.816 86.4955C421.258 85.6248 420.968 84.6099 420.98 83.576C420.974 82.6515 421.202 81.7405 421.642 80.9274C422.058 80.1288 422.652 79.4358 423.377 78.9012C424.082 78.4247 424.86 78.0669 425.681 77.8418C426.701 77.5485 427.758 77.4057 428.82 77.418C430.321 77.3888 431.815 77.6311 433.229 78.1331C434.339 78.5007 435.315 79.187 436.037 80.1063C436.732 81.0905 437.186 82.2248 437.361 83.4171L433.812 83.8938C433.767 83.381 433.619 82.8823 433.378 82.4274C433.137 81.9725 432.807 81.5706 432.408 81.2452C431.453 80.5787 430.3 80.2565 429.137 80.3315C427.893 80.2215 426.646 80.509 425.575 81.1525C425.257 81.3673 424.996 81.6548 424.811 81.991C424.627 82.3273 424.526 82.7027 424.516 83.086C424.502 83.5649 424.657 84.0334 424.953 84.4103C425.323 84.849 425.803 85.1824 426.343 85.377C426.701 85.5094 427.773 85.814 429.548 86.2908C431.368 86.7415 433.159 87.3032 434.911 87.9726C435.87 88.3711 436.696 89.0321 437.295 89.8796C437.896 90.7984 438.197 91.8813 438.156 92.9784C438.154 94.1959 437.79 95.3854 437.11 96.3951C436.332 97.5166 435.24 98.3829 433.971 98.8848C432.547 99.4865 431.014 99.7842 429.468 99.7588C427.215 99.9102 424.976 99.2991 423.112 98.024C421.589 96.7209 420.614 94.8903 420.384 92.899V92.899Z" fill="#263238"/>
<path d="M450.351 96.0376L450.881 99.2291C449.982 99.4372 449.063 99.5481 448.14 99.5602C447.082 99.6197 446.027 99.4005 445.081 98.9245C444.404 98.5647 443.864 97.9923 443.545 97.2957C443.167 95.9032 443.019 94.4583 443.108 93.0182V80.7023H440.459V77.8948H443.108V72.5976L446.71 70.4258V77.8948H450.351V80.7023H446.71V93.2036C446.671 93.8713 446.733 94.5411 446.895 95.19C447.027 95.4849 447.244 95.7338 447.517 95.9052C447.903 96.0964 448.333 96.1832 448.762 96.1568C449.294 96.1525 449.825 96.1127 450.351 96.0376V96.0376Z" fill="#263238"/>
</g>
<defs>
<clipPath id="clip0_204_3212">
<rect width="662.146" height="537" fill="white" transform="translate(0.926758)"/>
</clipPath>
</defs>
</svg>
