<svg width="38" height="26" viewBox="0 0 38 26" fill="none" xmlns="http://www.w3.org/2000/svg">
<path fill-rule="evenodd" clip-rule="evenodd" d="M19 0C13.764 0 9.056 2.102 5.664 4.706C3.964 6.01 2.57 7.458 1.592 8.866C0.632 10.25 0 11.702 0 13C0 14.298 0.634 15.75 1.592 17.132C2.572 18.542 3.964 19.99 5.664 21.292C9.056 23.9 13.764 26 19 26C24.236 26 28.944 23.898 32.336 21.294C34.036 19.99 35.43 18.542 36.406 17.134C37.366 15.75 38 14.298 38 13C38 11.702 37.366 10.25 36.406 8.868C35.43 7.458 34.036 6.01 32.336 4.708C28.944 2.1 24.236 0 19 0ZM11.5 13C11.5 11.0109 12.2902 9.10322 13.6967 7.6967C15.1032 6.29018 17.0109 5.5 19 5.5C20.9891 5.5 22.8968 6.29018 24.3033 7.6967C25.7098 9.10322 26.5 11.0109 26.5 13C26.5 14.9891 25.7098 16.8968 24.3033 18.3033C22.8968 19.7098 20.9891 20.5 19 20.5C17.0109 20.5 15.1032 19.7098 13.6967 18.3033C12.2902 16.8968 11.5 14.9891 11.5 13Z" fill="white"/>
</svg>
