<svg width="186" height="150" viewBox="0 0 186 150" fill="none" xmlns="http://www.w3.org/2000/svg">
<mask id="path-1-outside-1_5556_4925" maskUnits="userSpaceOnUse" x="-0.886963" y="-0.886719" width="187" height="151" fill="black">
<rect fill="white" x="-0.886963" y="-0.886719" width="187" height="151"/>
<path d="M7.11304 27.0296C7.11304 16.0301 16.0299 7.11328 27.0294 7.11328H158.197C169.196 7.11328 178.113 16.0301 178.113 27.0296V150.113H7.11304V27.0296Z"/>
</mask>
<path d="M6.62804e-05 27.0296C6.62804e-05 12.1017 12.1015 0.000310421 27.0294 0.000310421H158.197C173.125 0.000310421 185.226 12.1017 185.226 27.0296H171C171 19.9585 165.268 14.2263 158.197 14.2263H27.0294C19.9583 14.2263 14.226 19.9585 14.226 27.0296H6.62804e-05ZM178.113 150.113H7.11304H178.113ZM6.62804e-05 150.113V27.0296C6.62804e-05 12.1017 12.1015 0.000310421 27.0294 0.000310421V14.2263C19.9583 14.2263 14.226 19.9585 14.226 27.0296V150.113H6.62804e-05ZM158.197 0.000310421C173.125 0.000310421 185.226 12.1017 185.226 27.0296V150.113H171V27.0296C171 19.9585 165.268 14.2263 158.197 14.2263V0.000310421Z" fill="#12121C" mask="url(#path-1-outside-1_5556_4925)"/>
<g clip-path="url(#clip0_5556_4925)">
<path d="M7.11304 36.9933C7.11304 27.7117 7.11304 23.0709 8.62936 19.4102C10.6511 14.5293 14.529 10.6514 19.41 8.6296C23.0707 7.11328 27.7115 7.11328 36.993 7.11328H148.233C157.515 7.11328 162.155 7.11328 165.816 8.6296C170.697 10.6514 174.575 14.5293 176.597 19.4102C178.113 23.0709 178.113 27.7117 178.113 36.9933V150.113H7.11304V36.9933Z" fill="white"/>
<rect x="14.4089" y="34.1133" width="156.408" height="32.768" rx="5.472" fill="#FFF7F0"/>
<rect x="14.4089" y="34.1133" width="156.408" height="32.768" rx="5.472" stroke="#FFE0C2" stroke-width="0.456"/>
<rect x="21.7048" y="39.5859" width="18.24" height="18.24" rx="9.12" fill="#FFF1E4"/>
<path fill-rule="evenodd" clip-rule="evenodd" d="M26.7205 48.7059C26.7205 48.3431 26.8646 47.9951 27.1211 47.7386C27.3777 47.482 27.7256 47.3379 28.0885 47.3379H33.5605C33.9233 47.3379 34.2712 47.482 34.5278 47.7386C34.7843 47.9951 34.9285 48.3431 34.9285 48.7059V51.8979C34.9285 52.2607 34.7843 52.6087 34.5278 52.8652C34.2712 53.1218 33.9233 53.2659 33.5605 53.2659H28.0885C27.7256 53.2659 27.3777 53.1218 27.1211 52.8652C26.8646 52.6087 26.7205 52.2607 26.7205 51.8979V48.7059ZM31.2805 49.6179C31.2805 49.497 31.2324 49.381 31.1469 49.2954C31.0614 49.2099 30.9454 49.1619 30.8245 49.1619C30.7035 49.1619 30.5875 49.2099 30.502 49.2954C30.4165 49.381 30.3685 49.497 30.3685 49.6179V50.9859C30.3685 51.1068 30.4165 51.2228 30.502 51.3083C30.5875 51.3938 30.7035 51.4419 30.8245 51.4419C30.9454 51.4419 31.0614 51.3938 31.1469 51.3083C31.2324 51.2228 31.2805 51.1068 31.2805 50.9859V49.6179Z" fill="#FF7A00"/>
<path d="M29.0007 47.7955V46.4275C29.0007 45.9438 29.1929 45.4798 29.535 45.1378C29.877 44.7957 30.341 44.6035 30.8247 44.6035C31.3085 44.6035 31.7724 44.7957 32.1145 45.1378C32.4566 45.4798 32.6487 45.9438 32.6487 46.4275V47.7955" stroke="#FF7A00" stroke-width="0.912" stroke-linecap="round" stroke-linejoin="round"/>
<path d="M45.8749 41.943H46.9042L48.2825 45.3073H48.3369L49.7153 41.943H50.7445V46.5859H49.9375V43.3962H49.8944L48.6113 46.5723H48.0082L46.7251 43.3894H46.682V46.5859H45.8749V41.943ZM51.67 46.5859V46.0645L53.4655 43.8133V43.7839H51.729V43.1038H54.4698V43.6637L52.7605 45.8764V45.9058H54.5288V46.5859H51.67ZM56.3934 46.6562C56.1727 46.6562 55.974 46.6169 55.7971 46.5383C55.6218 46.4582 55.4828 46.3403 55.38 46.1847C55.2787 46.029 55.2281 45.8371 55.2281 45.6088C55.2281 45.4124 55.2644 45.2499 55.3369 45.1214C55.4095 44.993 55.5085 44.8902 55.6339 44.8131C55.7593 44.736 55.9007 44.6778 56.0578 44.6385C56.2165 44.5977 56.3805 44.5683 56.5498 44.5501C56.7538 44.529 56.9193 44.5101 57.0463 44.4935C57.1732 44.4753 57.2654 44.4481 57.3229 44.4118C57.3818 44.3741 57.4113 44.3159 57.4113 44.2373V44.2237C57.4113 44.0529 57.3606 43.9206 57.2594 43.8269C57.1581 43.7332 57.0123 43.6864 56.8218 43.6864C56.6208 43.6864 56.4614 43.7302 56.3435 43.8179C56.2271 43.9055 56.1485 44.0091 56.1077 44.1285L55.3415 44.0196C55.4019 43.8081 55.5017 43.6312 55.6407 43.4892C55.7797 43.3456 55.9498 43.2383 56.1508 43.1672C56.3518 43.0947 56.574 43.0584 56.8173 43.0584C56.9851 43.0584 57.1521 43.0781 57.3183 43.1174C57.4846 43.1567 57.6365 43.2216 57.774 43.3123C57.9115 43.4015 58.0219 43.5232 58.105 43.6773C58.1896 43.8315 58.2319 44.0242 58.2319 44.2554V46.5859H57.443V46.1076H57.4158C57.3659 46.2043 57.2956 46.295 57.205 46.3796C57.1158 46.4628 57.0032 46.53 56.8672 46.5814C56.7327 46.6313 56.5747 46.6562 56.3934 46.6562ZM56.6065 46.0532C56.7712 46.0532 56.914 46.0207 57.0349 45.9557C57.1558 45.8892 57.2488 45.8015 57.3138 45.6927C57.3803 45.5839 57.4135 45.4653 57.4135 45.3368V44.9265C57.3878 44.9476 57.344 44.9673 57.282 44.9854C57.2216 45.0035 57.1536 45.0194 57.078 45.033C57.0024 45.0466 56.9276 45.0587 56.8536 45.0693C56.7795 45.0799 56.7153 45.0889 56.6609 45.0965C56.5385 45.1131 56.4289 45.1403 56.3322 45.1781C56.2354 45.2159 56.1591 45.2688 56.1032 45.3368C56.0473 45.4033 56.0193 45.4894 56.0193 45.5952C56.0193 45.7464 56.0745 45.8605 56.1848 45.9376C56.2951 46.0146 56.4357 46.0532 56.6065 46.0532ZM59.969 44.5456V46.5859H59.1483V43.1038H59.9327V43.6955H59.9735C60.0536 43.5005 60.1814 43.3456 60.3567 43.2307C60.5335 43.1158 60.7519 43.0584 61.0119 43.0584C61.2522 43.0584 61.4615 43.1098 61.6398 43.2126C61.8197 43.3153 61.9587 43.4642 62.057 43.6592C62.1567 43.8541 62.2058 44.0907 62.2043 44.3688V46.5859H61.3836V44.4957C61.3836 44.263 61.3232 44.0809 61.2023 43.9494C61.0829 43.8179 60.9174 43.7521 60.7058 43.7521C60.5622 43.7521 60.4345 43.7839 60.3227 43.8473C60.2123 43.9093 60.1254 43.9992 60.062 44.1171C60 44.235 59.969 44.3778 59.969 44.5456ZM65.882 44.0242L65.1339 44.1058C65.1127 44.0302 65.0757 43.9592 65.0228 43.8927C64.9714 43.8262 64.9019 43.7725 64.8142 43.7317C64.7265 43.6909 64.6192 43.6705 64.4923 43.6705C64.3215 43.6705 64.1779 43.7075 64.0615 43.7816C63.9467 43.8557 63.89 43.9516 63.8915 44.0695C63.89 44.1708 63.927 44.2531 64.0026 44.3166C64.0797 44.3801 64.2066 44.4322 64.3835 44.4731L64.9774 44.6C65.3069 44.671 65.5518 44.7836 65.712 44.9378C65.8737 45.092 65.9553 45.2937 65.9568 45.5431C65.9553 45.7622 65.8911 45.9557 65.7641 46.1235C65.6387 46.2897 65.4641 46.4197 65.2404 46.5134C65.0167 46.6071 64.7598 46.6539 64.4696 46.6539C64.0434 46.6539 63.7003 46.5648 63.4404 46.3864C63.1804 46.2066 63.0255 45.9565 62.9756 45.636L63.7759 45.559C63.8122 45.7161 63.8893 45.8348 64.0071 45.9149C64.125 45.995 64.2784 46.035 64.4673 46.035C64.6623 46.035 64.8187 45.995 64.9366 45.9149C65.056 45.8348 65.1157 45.7358 65.1157 45.6179C65.1157 45.5182 65.0772 45.4358 65.0001 45.3708C64.9245 45.3058 64.8066 45.2559 64.6464 45.2212L64.0525 45.0965C63.7185 45.027 63.4714 44.9098 63.3112 44.7451C63.1509 44.5788 63.0716 44.3688 63.0731 44.1149C63.0716 43.9002 63.1298 43.7143 63.2477 43.5572C63.3671 43.3985 63.5326 43.2761 63.7442 43.1899C63.9573 43.1022 64.2029 43.0584 64.4809 43.0584C64.889 43.0584 65.2102 43.1453 65.4444 43.3191C65.6802 43.4929 65.8261 43.7279 65.882 44.0242ZM66.7247 46.5859V43.1038H67.5454V46.5859H66.7247ZM67.1373 42.6095C67.0073 42.6095 66.8955 42.5665 66.8018 42.4803C66.7081 42.3927 66.6612 42.2876 66.6612 42.1652C66.6612 42.0413 66.7081 41.9362 66.8018 41.8501C66.8955 41.7624 67.0073 41.7186 67.1373 41.7186C67.2688 41.7186 67.3806 41.7624 67.4728 41.8501C67.5665 41.9362 67.6134 42.0413 67.6134 42.1652C67.6134 42.2876 67.5665 42.3927 67.4728 42.4803C67.3806 42.5665 67.2688 42.6095 67.1373 42.6095ZM70.1915 46.5859V41.943H73.1659V42.6481H71.0326V43.9086H72.9618V44.6136H71.0326V46.5859H70.1915ZM75.273 46.6539C74.9239 46.6539 74.6224 46.5814 74.3685 46.4363C74.1161 46.2897 73.9219 46.0827 73.7858 45.8151C73.6498 45.5461 73.5818 45.2295 73.5818 44.8653C73.5818 44.5071 73.6498 44.1927 73.7858 43.9222C73.9234 43.6501 74.1153 43.4385 74.3617 43.2874C74.608 43.1347 74.8975 43.0584 75.23 43.0584C75.4446 43.0584 75.6471 43.0932 75.8375 43.1627C76.0295 43.2307 76.1987 43.3365 76.3453 43.4801C76.4935 43.6237 76.6098 43.8065 76.6945 44.0287C76.7791 44.2494 76.8214 44.5123 76.8214 44.8176V45.0693H73.9672V44.5161H76.0348C76.0332 44.3589 75.9992 44.2191 75.9327 44.0967C75.8662 43.9728 75.7733 43.8753 75.6539 43.8043C75.536 43.7332 75.3985 43.6977 75.2413 43.6977C75.0735 43.6977 74.9262 43.7385 74.7992 43.8201C74.6723 43.9002 74.5733 44.006 74.5022 44.1375C74.4327 44.2675 74.3972 44.4103 74.3957 44.566V45.0489C74.3957 45.2514 74.4327 45.4252 74.5068 45.5703C74.5808 45.7139 74.6843 45.8242 74.8173 45.9013C74.9503 45.9769 75.106 46.0146 75.2844 46.0146C75.4038 46.0146 75.5118 45.998 75.6085 45.9648C75.7053 45.93 75.7892 45.8794 75.8602 45.8129C75.9312 45.7464 75.9849 45.664 76.0211 45.5658L76.7874 45.6519C76.739 45.8544 76.6469 46.0313 76.5108 46.1824C76.3763 46.332 76.204 46.4484 75.9939 46.5315C75.7839 46.6131 75.5436 46.6539 75.273 46.6539ZM80.3591 44.0242L79.611 44.1058C79.5898 44.0302 79.5528 43.9592 79.4999 43.8927C79.4485 43.8262 79.379 43.7725 79.2913 43.7317C79.2037 43.6909 79.0963 43.6705 78.9694 43.6705C78.7986 43.6705 78.655 43.7075 78.5387 43.7816C78.4238 43.8557 78.3671 43.9516 78.3686 44.0695C78.3671 44.1708 78.4041 44.2531 78.4797 44.3166C78.5568 44.3801 78.6837 44.4322 78.8606 44.4731L79.4545 44.6C79.784 44.671 80.0289 44.7836 80.1891 44.9378C80.3508 45.092 80.4324 45.2937 80.4339 45.5431C80.4324 45.7622 80.3682 45.9557 80.2412 46.1235C80.1158 46.2897 79.9412 46.4197 79.7175 46.5134C79.4938 46.6071 79.2369 46.6539 78.9467 46.6539C78.5205 46.6539 78.1774 46.5648 77.9175 46.3864C77.6575 46.2066 77.5026 45.9565 77.4527 45.636L78.253 45.559C78.2893 45.7161 78.3664 45.8348 78.4842 45.9149C78.6021 45.995 78.7555 46.035 78.9445 46.035C79.1394 46.035 79.2958 45.995 79.4137 45.9149C79.5331 45.8348 79.5928 45.7358 79.5928 45.6179C79.5928 45.5182 79.5543 45.4358 79.4772 45.3708C79.4016 45.3058 79.2838 45.2559 79.1236 45.2212L78.5296 45.0965C78.1956 45.027 77.9485 44.9098 77.7883 44.7451C77.6281 44.5788 77.5487 44.3688 77.5502 44.1149C77.5487 43.9002 77.6069 43.7143 77.7248 43.5572C77.8442 43.3985 78.0097 43.2761 78.2213 43.1899C78.4344 43.1022 78.68 43.0584 78.9581 43.0584C79.3661 43.0584 79.6873 43.1453 79.9216 43.3191C80.1573 43.4929 80.3032 43.7279 80.3591 44.0242ZM82.9406 43.1038V43.7385H80.9388V43.1038H82.9406ZM81.4331 42.2695H82.2537V45.5386C82.2537 45.6489 82.2704 45.7335 82.3036 45.7925C82.3384 45.8499 82.3837 45.8892 82.4396 45.9104C82.4955 45.9315 82.5575 45.9421 82.6255 45.9421C82.6769 45.9421 82.7238 45.9383 82.7661 45.9308C82.8099 45.9232 82.8432 45.9164 82.8658 45.9104L83.0041 46.5519C82.9603 46.567 82.8976 46.5837 82.816 46.6018C82.7359 46.6199 82.6376 46.6305 82.5212 46.6335C82.3157 46.6396 82.1306 46.6086 81.9658 46.5406C81.8011 46.4711 81.6703 46.3638 81.5736 46.2187C81.4784 46.0736 81.4315 45.8922 81.4331 45.6746V42.2695ZM83.7182 46.5859V43.1038H84.5389V46.5859H83.7182ZM84.1308 42.6095C84.0008 42.6095 83.889 42.5665 83.7953 42.4803C83.7016 42.3927 83.6547 42.2876 83.6547 42.1652C83.6547 42.0413 83.7016 41.9362 83.7953 41.8501C83.889 41.7624 84.0008 41.7186 84.1308 41.7186C84.2623 41.7186 84.3741 41.7624 84.4663 41.8501C84.56 41.9362 84.6069 42.0413 84.6069 42.1652C84.6069 42.2876 84.56 42.3927 84.4663 42.4803C84.3741 42.5665 84.2623 42.6095 84.1308 42.6095ZM88.5844 43.1038L87.3443 46.5859H86.4375L85.1974 43.1038H86.0725L86.8727 45.6905H86.909L87.7115 43.1038H88.5844ZM90.6666 46.6539C90.3175 46.6539 90.0159 46.5814 89.762 46.4363C89.5096 46.2897 89.3154 46.0827 89.1794 45.8151C89.0434 45.5461 88.9754 45.2295 88.9754 44.8653C88.9754 44.5071 89.0434 44.1927 89.1794 43.9222C89.3169 43.6501 89.5089 43.4385 89.7552 43.2874C90.0016 43.1347 90.291 43.0584 90.6235 43.0584C90.8381 43.0584 91.0407 43.0932 91.2311 43.1627C91.423 43.2307 91.5923 43.3365 91.7389 43.4801C91.887 43.6237 92.0034 43.8065 92.088 44.0287C92.1727 44.2494 92.215 44.5123 92.215 44.8176V45.0693H89.3608V44.5161H91.4283C91.4268 44.3589 91.3928 44.2191 91.3263 44.0967C91.2598 43.9728 91.1668 43.8753 91.0475 43.8043C90.9296 43.7332 90.792 43.6977 90.6348 43.6977C90.4671 43.6977 90.3197 43.7385 90.1928 43.8201C90.0658 43.9002 89.9668 44.006 89.8958 44.1375C89.8263 44.2675 89.7908 44.4103 89.7892 44.566V45.0489C89.7892 45.2514 89.8263 45.4252 89.9003 45.5703C89.9744 45.7139 90.0779 45.8242 90.2109 45.9013C90.3439 45.9769 90.4996 46.0146 90.6779 46.0146C90.7973 46.0146 90.9054 45.998 91.0021 45.9648C91.0988 45.93 91.1827 45.8794 91.2538 45.8129C91.3248 45.7464 91.3784 45.664 91.4147 45.5658L92.181 45.6519C92.1326 45.8544 92.0404 46.0313 91.9044 46.1824C91.7699 46.332 91.5976 46.4484 91.3875 46.5315C91.1774 46.6131 90.9371 46.6539 90.6666 46.6539ZM97.8219 43.4257C97.7841 43.3033 97.7319 43.1937 97.6654 43.097C97.6004 42.9987 97.5218 42.9148 97.4297 42.8453C97.339 42.7758 97.2347 42.7236 97.1168 42.6889C96.9989 42.6526 96.8704 42.6345 96.7314 42.6345C96.482 42.6345 96.2599 42.6972 96.0649 42.8226C95.8699 42.9481 95.7165 43.1325 95.6047 43.3758C95.4944 43.6176 95.4392 43.9123 95.4392 44.2599C95.4392 44.6106 95.4944 44.9076 95.6047 45.1509C95.715 45.3942 95.8684 45.5794 96.0649 45.7063C96.2614 45.8318 96.4896 45.8945 96.7495 45.8945C96.9853 45.8945 97.1893 45.8491 97.3616 45.7585C97.5354 45.6678 97.6692 45.5393 97.7629 45.3731C97.8566 45.2053 97.9035 45.0088 97.9035 44.7836L98.0939 44.8131H96.8334V44.1557H98.7173V44.7134C98.7173 45.1108 98.6327 45.4547 98.4634 45.7449C98.2942 46.035 98.0614 46.2587 97.7652 46.4159C97.4689 46.5716 97.1289 46.6494 96.745 46.6494C96.3173 46.6494 95.9417 46.5534 95.6183 46.3615C95.2964 46.168 95.0447 45.8937 94.8634 45.5386C94.6835 45.1819 94.5936 44.7587 94.5936 44.269C94.5936 43.8942 94.6465 43.5594 94.7523 43.2647C94.8596 42.97 95.0092 42.7199 95.2011 42.5143C95.3931 42.3073 95.6183 42.1501 95.8767 42.0428C96.1352 41.934 96.4163 41.8796 96.7201 41.8796C96.977 41.8796 97.2165 41.9173 97.4387 41.9929C97.6609 42.067 97.8581 42.1728 98.0304 42.3103C98.2042 42.4478 98.347 42.6111 98.4589 42.8C98.5707 42.9889 98.644 43.1975 98.6788 43.4257H97.8219ZM101.104 46.6539C100.764 46.6539 100.47 46.5791 100.22 46.4295C99.971 46.2799 99.7775 46.0706 99.64 45.8015C99.504 45.5325 99.4359 45.2182 99.4359 44.8584C99.4359 44.4987 99.504 44.1836 99.64 43.9131C99.7775 43.6426 99.971 43.4325 100.22 43.2829C100.47 43.1332 100.764 43.0584 101.104 43.0584C101.445 43.0584 101.739 43.1332 101.989 43.2829C102.238 43.4325 102.431 43.6426 102.567 43.9131C102.704 44.1836 102.773 44.4987 102.773 44.8584C102.773 45.2182 102.704 45.5325 102.567 45.8015C102.431 46.0706 102.238 46.2799 101.989 46.4295C101.739 46.5791 101.445 46.6539 101.104 46.6539ZM101.109 45.9965C101.293 45.9965 101.448 45.9459 101.571 45.8446C101.695 45.7418 101.788 45.6043 101.848 45.432C101.91 45.2597 101.941 45.0678 101.941 44.8562C101.941 44.6431 101.91 44.4504 101.848 44.2781C101.788 44.1043 101.695 43.966 101.571 43.8632C101.448 43.7604 101.293 43.7091 101.109 43.7091C100.92 43.7091 100.763 43.7604 100.637 43.8632C100.514 43.966 100.421 44.1043 100.359 44.2781C100.298 44.4504 100.268 44.6431 100.268 44.8562C100.268 45.0678 100.298 45.2597 100.359 45.432C100.421 45.6043 100.514 45.7418 100.637 45.8446C100.763 45.9459 100.92 45.9965 101.109 45.9965ZM104.563 46.6562C104.342 46.6562 104.143 46.6169 103.967 46.5383C103.791 46.4582 103.652 46.3403 103.549 46.1847C103.448 46.029 103.398 45.8371 103.398 45.6088C103.398 45.4124 103.434 45.2499 103.506 45.1214C103.579 44.993 103.678 44.8902 103.803 44.8131C103.929 44.736 104.07 44.6778 104.227 44.6385C104.386 44.5977 104.55 44.5683 104.719 44.5501C104.923 44.529 105.089 44.5101 105.216 44.4935C105.343 44.4753 105.435 44.4481 105.492 44.4118C105.551 44.3741 105.581 44.3159 105.581 44.2373V44.2237C105.581 44.0529 105.53 43.9206 105.429 43.8269C105.328 43.7332 105.182 43.6864 104.991 43.6864C104.79 43.6864 104.631 43.7302 104.513 43.8179C104.397 43.9055 104.318 44.0091 104.277 44.1285L103.511 44.0196C103.571 43.8081 103.671 43.6312 103.81 43.4892C103.949 43.3456 104.119 43.2383 104.32 43.1672C104.521 43.0947 104.743 43.0584 104.987 43.0584C105.155 43.0584 105.322 43.0781 105.488 43.1174C105.654 43.1567 105.806 43.2216 105.943 43.3123C106.081 43.4015 106.191 43.5232 106.274 43.6773C106.359 43.8315 106.401 44.0242 106.401 44.2554V46.5859H105.612V46.1076H105.585C105.535 46.2043 105.465 46.295 105.374 46.3796C105.285 46.4628 105.173 46.53 105.037 46.5814C104.902 46.6313 104.744 46.6562 104.563 46.6562ZM104.776 46.0532C104.941 46.0532 105.083 46.0207 105.204 45.9557C105.325 45.8892 105.418 45.8015 105.483 45.6927C105.55 45.5839 105.583 45.4653 105.583 45.3368V44.9265C105.557 44.9476 105.513 44.9673 105.451 44.9854C105.391 45.0035 105.323 45.0194 105.247 45.033C105.172 45.0466 105.097 45.0587 105.023 45.0693C104.949 45.0799 104.885 45.0889 104.83 45.0965C104.708 45.1131 104.598 45.1403 104.502 45.1781C104.405 45.2159 104.329 45.2688 104.273 45.3368C104.217 45.4033 104.189 45.4894 104.189 45.5952C104.189 45.7464 104.244 45.8605 104.354 45.9376C104.465 46.0146 104.605 46.0532 104.776 46.0532ZM108.138 41.943V46.5859H107.318V41.943H108.138Z" fill="#12121C"/>
<path d="M45.8989 54.4305H46.4741L47.8265 57.7339H47.8732L49.2256 54.4305H49.8008V58.4102H49.35V55.3866H49.3111L48.0675 58.4102H47.6322L46.3886 55.3866H46.3497V58.4102H45.8989V54.4305ZM52.0086 58.4723C51.7392 58.4723 51.5027 58.4082 51.2994 58.28C51.0973 58.1517 50.9392 57.9723 50.8252 57.7417C50.7125 57.5111 50.6562 57.2417 50.6562 56.9333C50.6562 56.6224 50.7125 56.351 50.8252 56.1191C50.9392 55.8873 51.0973 55.7072 51.2994 55.5789C51.5027 55.4507 51.7392 55.3866 52.0086 55.3866C52.2781 55.3866 52.5138 55.4507 52.7159 55.5789C52.9193 55.7072 53.0774 55.8873 53.1901 56.1191C53.3041 56.351 53.3611 56.6224 53.3611 56.9333C53.3611 57.2417 53.3041 57.5111 53.1901 57.7417C53.0774 57.9723 52.9193 58.1517 52.7159 58.28C52.5138 58.4082 52.2781 58.4723 52.0086 58.4723ZM52.0086 58.0604C52.2133 58.0604 52.3817 58.0079 52.5138 57.903C52.646 57.7981 52.7438 57.6601 52.8073 57.4891C52.8707 57.3181 52.9025 57.1328 52.9025 56.9333C52.9025 56.7338 52.8707 56.5479 52.8073 56.3756C52.7438 56.2033 52.646 56.0641 52.5138 55.9579C52.3817 55.8516 52.2133 55.7985 52.0086 55.7985C51.8039 55.7985 51.6355 55.8516 51.5034 55.9579C51.3713 56.0641 51.2735 56.2033 51.21 56.3756C51.1465 56.5479 51.1148 56.7338 51.1148 56.9333C51.1148 57.1328 51.1465 57.3181 51.21 57.4891C51.2735 57.6601 51.3713 57.7981 51.5034 57.903C51.6355 58.0079 51.8039 58.0604 52.0086 58.0604ZM54.6109 56.6147V58.4102H54.1523V55.4254H54.5954V55.8918H54.6342C54.7042 55.7402 54.8104 55.6185 54.9529 55.5265C55.0954 55.4332 55.2794 55.3866 55.5048 55.3866C55.7069 55.3866 55.8837 55.428 56.0353 55.5109C56.1868 55.5925 56.3047 55.7169 56.3889 55.884C56.4731 56.0498 56.5152 56.2597 56.5152 56.5136V58.4102H56.0566V56.5447C56.0566 56.3102 55.9957 56.1276 55.874 55.9967C55.7522 55.8646 55.5851 55.7985 55.3726 55.7985C55.2262 55.7985 55.0954 55.8303 54.9801 55.8937C54.8661 55.9572 54.7761 56.0498 54.71 56.1716C54.6439 56.2934 54.6109 56.4411 54.6109 56.6147ZM58.7425 55.4254V55.8141H57.1957V55.4254H58.7425ZM57.6465 54.7103H58.1051V57.5552C58.1051 57.6847 58.1239 57.7819 58.1614 57.8466C58.2003 57.9101 58.2495 57.9529 58.3091 57.9749C58.37 57.9956 58.4341 58.006 58.5015 58.006C58.552 58.006 58.5935 58.0034 58.6259 57.9982C58.6583 57.9917 58.6842 57.9865 58.7036 57.9827L58.7969 58.3946C58.7658 58.4063 58.7224 58.4179 58.6667 58.4296C58.611 58.4425 58.5404 58.449 58.4549 58.449C58.3253 58.449 58.1984 58.4212 58.074 58.3655C57.9509 58.3098 57.8486 58.2249 57.767 58.1109C57.6867 57.9969 57.6465 57.8531 57.6465 57.6795V54.7103ZM60.0462 56.6147V58.4102H59.5876V54.4305H60.0462V55.8918H60.0851C60.155 55.7376 60.26 55.6152 60.3999 55.5245C60.5411 55.4326 60.7289 55.3866 60.9634 55.3866C61.1668 55.3866 61.3449 55.4274 61.4978 55.509C61.6506 55.5893 61.7692 55.713 61.8534 55.8801C61.9389 56.046 61.9816 56.2571 61.9816 56.5136V58.4102H61.523V56.5447C61.523 56.3076 61.4615 56.1243 61.3384 55.9948C61.2166 55.8639 61.0476 55.7985 60.8313 55.7985C60.681 55.7985 60.5463 55.8303 60.4271 55.8937C60.3092 55.9572 60.2159 56.0498 60.1473 56.1716C60.0799 56.2934 60.0462 56.4411 60.0462 56.6147ZM63.3704 54.4305V58.4102H62.9118V54.4305H63.3704ZM64.5969 59.5294C64.5192 59.5294 64.4498 59.523 64.389 59.51C64.3281 59.4983 64.286 59.4867 64.2626 59.475L64.3792 59.0708C64.4907 59.0993 64.5891 59.1097 64.6746 59.1019C64.7601 59.0942 64.8359 59.0559 64.902 58.9873C64.9693 58.9199 65.0309 58.8105 65.0866 58.6589L65.1721 58.4257L64.0683 55.4254H64.5658L65.3897 57.8039H65.4208L66.2447 55.4254H66.7422L65.4752 58.8454C65.4182 58.9996 65.3476 59.1272 65.2634 59.2282C65.1792 59.3306 65.0814 59.4064 64.97 59.4556C64.8599 59.5048 64.7355 59.5294 64.5969 59.5294ZM70.1881 57.2753C70.0314 57.2753 69.8882 57.2371 69.7587 57.1607C69.6291 57.083 69.5255 56.9793 69.4478 56.8498C69.3713 56.7202 69.3331 56.5771 69.3331 56.4203C69.3331 56.2623 69.3713 56.1191 69.4478 55.9909C69.5255 55.8613 69.6291 55.7584 69.7587 55.6819C69.8882 55.6042 70.0314 55.5653 70.1881 55.5653C70.3462 55.5653 70.4893 55.6042 70.6176 55.6819C70.7471 55.7584 70.8501 55.8613 70.9265 55.9909C71.0043 56.1191 71.0431 56.2623 71.0431 56.4203C71.0431 56.5771 71.0043 56.7202 70.9265 56.8498C70.8501 56.9793 70.7471 57.083 70.6176 57.1607C70.4893 57.2371 70.3462 57.2753 70.1881 57.2753ZM73.9304 58.4102V54.4305H75.2751C75.586 54.4305 75.8412 54.4836 76.0407 54.5899C76.2402 54.6948 76.3879 54.8392 76.4838 55.0232C76.5796 55.2071 76.6276 55.4164 76.6276 55.6508C76.6276 55.8853 76.5796 56.0932 76.4838 56.2746C76.3879 56.456 76.2409 56.5985 76.0427 56.7021C75.8445 56.8044 75.5912 56.8556 75.2829 56.8556H74.1947V56.4203H75.2673C75.4798 56.4203 75.6508 56.3892 75.7803 56.3271C75.9112 56.2649 76.0058 56.1768 76.064 56.0628C76.1236 55.9475 76.1534 55.8102 76.1534 55.6508C76.1534 55.4915 76.1236 55.3522 76.064 55.2331C76.0045 55.1139 75.9092 55.0219 75.7784 54.9571C75.6476 54.8911 75.4746 54.858 75.2596 54.858H74.4123V58.4102H73.9304ZM75.8037 56.6224L76.783 58.4102H76.2234L75.2596 56.6224H75.8037ZM78.6955 58.4646C78.4675 58.4646 78.2621 58.4192 78.0795 58.3285C77.8968 58.2379 77.7504 58.1135 77.6403 57.9555C77.5302 57.7974 77.47 57.6173 77.4596 57.4152H77.926C77.9441 57.5953 78.0257 57.7443 78.1708 57.8622C78.3172 57.9788 78.4921 58.0371 78.6955 58.0371C78.8587 58.0371 79.0038 57.9988 79.1307 57.9224C79.259 57.846 79.3594 57.7411 79.4319 57.6076C79.5058 57.4729 79.5427 57.3207 79.5427 57.151C79.5427 56.9774 79.5045 56.8226 79.4281 56.6866C79.3529 56.5492 79.2493 56.4411 79.1171 56.362C78.985 56.283 78.8341 56.2429 78.6644 56.2416C78.5426 56.2403 78.4176 56.2591 78.2893 56.2979C78.1611 56.3355 78.0555 56.3841 77.9726 56.4437L77.5218 56.3892L77.7627 54.4305H79.8303V54.858H78.1669L78.027 56.0317H78.0503C78.1319 55.9669 78.2343 55.9132 78.3574 55.8704C78.4804 55.8277 78.6087 55.8063 78.7421 55.8063C78.9857 55.8063 79.2026 55.8646 79.3931 55.9812C79.5848 56.0965 79.7351 56.2545 79.8439 56.4553C79.954 56.6561 80.0091 56.8854 80.0091 57.1432C80.0091 57.3971 79.9521 57.6238 79.8381 57.8233C79.7254 58.0215 79.5699 58.1783 79.3717 58.2936C79.1735 58.4076 78.9481 58.4646 78.6955 58.4646ZM82.1702 58.4646C81.8775 58.4646 81.6281 58.3849 81.4221 58.2256C81.2161 58.0649 81.0587 57.8324 80.9499 57.528C80.8411 57.2222 80.7867 56.853 80.7867 56.4203C80.7867 55.9902 80.8411 55.623 80.9499 55.3186C81.06 55.0128 81.2181 54.7796 81.4241 54.619C81.6313 54.4571 81.8801 54.3761 82.1702 54.3761C82.4604 54.3761 82.7085 54.4571 82.9145 54.619C83.1217 54.7796 83.2798 55.0128 83.3886 55.3186C83.4987 55.623 83.5538 55.9902 83.5538 56.4203C83.5538 56.853 83.4994 57.2222 83.3906 57.528C83.2817 57.8324 83.1243 58.0649 82.9184 58.2256C82.7124 58.3849 82.463 58.4646 82.1702 58.4646ZM82.1702 58.0371C82.4604 58.0371 82.6858 57.8972 82.8465 57.6173C83.0071 57.3375 83.0874 56.9385 83.0874 56.4203C83.0874 56.0757 83.0505 55.7823 82.9767 55.5401C82.9041 55.2978 82.7992 55.1132 82.6619 54.9863C82.5258 54.8593 82.362 54.7958 82.1702 54.7958C81.8826 54.7958 81.6579 54.9377 81.496 55.2214C81.334 55.5038 81.2531 55.9035 81.2531 56.4203C81.2531 56.7649 81.2893 57.0577 81.3619 57.2987C81.4344 57.5396 81.5387 57.7229 81.6747 57.8486C81.812 57.9742 81.9772 58.0371 82.1702 58.0371ZM85.6814 58.4646C85.3887 58.4646 85.1393 58.3849 84.9333 58.2256C84.7273 58.0649 84.5699 57.8324 84.4611 57.528C84.3523 57.2222 84.2979 56.853 84.2979 56.4203C84.2979 55.9902 84.3523 55.623 84.4611 55.3186C84.5712 55.0128 84.7293 54.7796 84.9353 54.619C85.1425 54.4571 85.3913 54.3761 85.6814 54.3761C85.9716 54.3761 86.2197 54.4571 86.4257 54.619C86.6329 54.7796 86.791 55.0128 86.8998 55.3186C87.0099 55.623 87.065 55.9902 87.065 56.4203C87.065 56.853 87.0106 57.2222 86.9018 57.528C86.7929 57.8324 86.6355 58.0649 86.4296 58.2256C86.2236 58.3849 85.9742 58.4646 85.6814 58.4646ZM85.6814 58.0371C85.9716 58.0371 86.197 57.8972 86.3577 57.6173C86.5183 57.3375 86.5986 56.9385 86.5986 56.4203C86.5986 56.0757 86.5617 55.7823 86.4879 55.5401C86.4153 55.2978 86.3104 55.1132 86.1731 54.9863C86.037 54.8593 85.8732 54.7958 85.6814 54.7958C85.3938 54.7958 85.1691 54.9377 85.0072 55.2214C84.8452 55.5038 84.7643 55.9035 84.7643 56.4203C84.7643 56.7649 84.8005 57.0577 84.8731 57.2987C84.9456 57.5396 85.0499 57.7229 85.1859 57.8486C85.3232 57.9742 85.4884 58.0371 85.6814 58.0371ZM89.5326 59.5294V55.4254H89.9756V55.8996H90.03C90.0637 55.8477 90.1103 55.7817 90.1699 55.7014C90.2308 55.6197 90.3176 55.5472 90.4303 55.4837C90.5443 55.419 90.6985 55.3866 90.8928 55.3866C91.1441 55.3866 91.3656 55.4494 91.5574 55.5751C91.7491 55.7007 91.8987 55.8788 92.0062 56.1094C92.1138 56.34 92.1675 56.6121 92.1675 56.9256C92.1675 57.2417 92.1138 57.5156 92.0062 57.7475C91.8987 57.9781 91.7497 58.1569 91.5593 58.2838C91.3689 58.4095 91.1493 58.4723 90.9006 58.4723C90.7088 58.4723 90.5553 58.4406 90.44 58.3771C90.3247 58.3123 90.236 58.2392 90.1738 58.1575C90.1116 58.0746 90.0637 58.006 90.03 57.9516H89.9912V59.5294H89.5326ZM89.9834 56.9178C89.9834 57.1432 90.0164 57.3421 90.0825 57.5143C90.1486 57.6853 90.2451 57.8194 90.372 57.9166C90.499 58.0125 90.6544 58.0604 90.8384 58.0604C91.0301 58.0604 91.1901 58.0099 91.3184 57.9088C91.4479 57.8065 91.5451 57.6692 91.6098 57.4969C91.6759 57.3233 91.7089 57.1302 91.7089 56.9178C91.7089 56.7079 91.6765 56.5188 91.6118 56.3504C91.5483 56.1807 91.4518 56.0466 91.3222 55.9481C91.194 55.8484 91.0327 55.7985 90.8384 55.7985C90.6518 55.7985 90.4951 55.8458 90.3681 55.9404C90.2412 56.0336 90.1453 56.1645 90.0805 56.3329C90.0158 56.5 89.9834 56.695 89.9834 56.9178ZM94.2097 58.4723C93.9221 58.4723 93.674 58.4089 93.4654 58.2819C93.2582 58.1537 93.0982 57.9749 92.9855 57.7456C92.8741 57.515 92.8184 57.2468 92.8184 56.9411C92.8184 56.6354 92.8741 56.3659 92.9855 56.1327C93.0982 55.8983 93.2549 55.7156 93.4557 55.5848C93.6578 55.4526 93.8936 55.3866 94.163 55.3866C94.3185 55.3866 94.472 55.4125 94.6236 55.4643C94.7751 55.5161 94.9131 55.6003 95.0375 55.7169C95.1618 55.8322 95.2609 55.9851 95.3348 56.1755C95.4086 56.3659 95.4455 56.6004 95.4455 56.8789V57.0732H93.1448V56.6768H94.9792C94.9792 56.5084 94.9455 56.3582 94.8781 56.226C94.8121 56.0939 94.7175 55.9896 94.5944 55.9132C94.4726 55.8367 94.3289 55.7985 94.163 55.7985C93.9804 55.7985 93.8223 55.8439 93.6889 55.9345C93.5568 56.0239 93.4551 56.1405 93.3838 56.2843C93.3126 56.4281 93.2769 56.5823 93.2769 56.7468V57.0111C93.2769 57.2365 93.3158 57.4276 93.3935 57.5843C93.4726 57.7398 93.582 57.8583 93.7219 57.9399C93.8618 58.0202 94.0244 58.0604 94.2097 58.0604C94.3301 58.0604 94.439 58.0435 94.5361 58.0099C94.6346 57.9749 94.7194 57.9231 94.7907 57.8544C94.8619 57.7845 94.917 57.6977 94.9559 57.594L95.3989 57.7184C95.3523 57.8687 95.2739 58.0008 95.1638 58.1148C95.0537 58.2275 94.9176 58.3156 94.7557 58.3791C94.5938 58.4412 94.4118 58.4723 94.2097 58.4723ZM96.2343 58.4102V55.4254H96.6774V55.8762H96.7085C96.7629 55.7286 96.8613 55.6087 97.0038 55.5168C97.1463 55.4248 97.307 55.3788 97.4857 55.3788C97.5194 55.3788 97.5615 55.3794 97.6121 55.3807C97.6626 55.382 97.7008 55.384 97.7267 55.3866V55.8529C97.7112 55.849 97.6755 55.8432 97.6198 55.8354C97.5654 55.8264 97.5078 55.8218 97.4469 55.8218C97.3018 55.8218 97.1722 55.8523 97.0582 55.9132C96.9455 55.9728 96.8562 56.0557 96.7901 56.1619C96.7253 56.2668 96.6929 56.3867 96.6929 56.5214V58.4102H96.2343ZM99.9917 58.4102V55.4254H100.435V55.8918H100.474C100.536 55.7325 100.636 55.6087 100.775 55.5206C100.913 55.4313 101.08 55.3866 101.274 55.3866C101.471 55.3866 101.635 55.4313 101.766 55.5206C101.898 55.6087 102.001 55.7325 102.075 55.8918H102.106C102.182 55.7376 102.297 55.6152 102.45 55.5245C102.603 55.4326 102.786 55.3866 103 55.3866C103.267 55.3866 103.485 55.4701 103.655 55.6372C103.824 55.8031 103.909 56.0615 103.909 56.4126V58.4102H103.451V56.4126C103.451 56.1923 103.39 56.0349 103.27 55.9404C103.149 55.8458 103.008 55.7985 102.844 55.7985C102.634 55.7985 102.472 55.862 102.357 55.989C102.241 56.1146 102.184 56.274 102.184 56.467V58.4102H101.717V56.3659C101.717 56.1962 101.662 56.0596 101.552 55.9559C101.442 55.851 101.3 55.7985 101.127 55.7985C101.007 55.7985 100.896 55.8303 100.792 55.8937C100.69 55.9572 100.607 56.0453 100.544 56.158C100.481 56.2694 100.45 56.3983 100.45 56.5447V58.4102H99.9917ZM106.09 58.4723C105.803 58.4723 105.555 58.4089 105.346 58.2819C105.139 58.1537 104.979 57.9749 104.866 57.7456C104.755 57.515 104.699 57.2468 104.699 56.9411C104.699 56.6354 104.755 56.3659 104.866 56.1327C104.979 55.8983 105.136 55.7156 105.336 55.5848C105.538 55.4526 105.774 55.3866 106.044 55.3866C106.199 55.3866 106.353 55.4125 106.504 55.4643C106.656 55.5161 106.794 55.6003 106.918 55.7169C107.042 55.8322 107.142 55.9851 107.215 56.1755C107.289 56.3659 107.326 56.6004 107.326 56.8789V57.0732H105.025V56.6768H106.86C106.86 56.5084 106.826 56.3582 106.759 56.226C106.693 56.0939 106.598 55.9896 106.475 55.9132C106.353 55.8367 106.209 55.7985 106.044 55.7985C105.861 55.7985 105.703 55.8439 105.569 55.9345C105.437 56.0239 105.336 56.1405 105.264 56.2843C105.193 56.4281 105.158 56.5823 105.158 56.7468V57.0111C105.158 57.2365 105.196 57.4276 105.274 57.5843C105.353 57.7398 105.463 57.8583 105.603 57.9399C105.742 58.0202 105.905 58.0604 106.09 58.0604C106.211 58.0604 106.32 58.0435 106.417 58.0099C106.515 57.9749 106.6 57.9231 106.671 57.8544C106.743 57.7845 106.798 57.6977 106.836 57.594L107.279 57.7184C107.233 57.8687 107.154 58.0008 107.044 58.1148C106.934 58.2275 106.798 58.3156 106.636 58.3791C106.474 58.4412 106.292 58.4723 106.09 58.4723ZM108.115 58.4102V55.4254H108.558V55.8918H108.597C108.659 55.7325 108.759 55.6087 108.898 55.5206C109.037 55.4313 109.203 55.3866 109.397 55.3866C109.594 55.3866 109.758 55.4313 109.889 55.5206C110.021 55.6087 110.124 55.7325 110.198 55.8918H110.229C110.306 55.7376 110.42 55.6152 110.573 55.5245C110.726 55.4326 110.909 55.3866 111.123 55.3866C111.39 55.3866 111.608 55.4701 111.778 55.6372C111.948 55.8031 112.032 56.0615 112.032 56.4126V58.4102H111.574V56.4126C111.574 56.1923 111.514 56.0349 111.393 55.9404C111.273 55.8458 111.131 55.7985 110.968 55.7985C110.758 55.7985 110.595 55.862 110.48 55.989C110.364 56.1146 110.307 56.274 110.307 56.467V58.4102H109.84V56.3659C109.84 56.1962 109.785 56.0596 109.675 55.9559C109.565 55.851 109.423 55.7985 109.25 55.7985C109.131 55.7985 109.019 55.8303 108.916 55.8937C108.813 55.9572 108.73 56.0453 108.667 56.158C108.605 56.2694 108.574 56.3983 108.574 56.5447V58.4102H108.115ZM113.024 58.4102V54.4305H113.483V55.8996H113.522C113.555 55.8477 113.602 55.7817 113.662 55.7014C113.722 55.6197 113.809 55.5472 113.922 55.4837C114.036 55.419 114.19 55.3866 114.384 55.3866C114.636 55.3866 114.857 55.4494 115.049 55.5751C115.241 55.7007 115.39 55.8788 115.498 56.1094C115.605 56.34 115.659 56.6121 115.659 56.9256C115.659 57.2417 115.605 57.5156 115.498 57.7475C115.39 57.9781 115.241 58.1569 115.051 58.2838C114.861 58.4095 114.641 58.4723 114.392 58.4723C114.201 58.4723 114.047 58.4406 113.932 58.3771C113.816 58.3123 113.728 58.2392 113.665 58.1575C113.603 58.0746 113.555 58.006 113.522 57.9516H113.467V58.4102H113.024ZM113.475 56.9178C113.475 57.1432 113.508 57.3421 113.574 57.5143C113.64 57.6853 113.737 57.8194 113.864 57.9166C113.991 58.0125 114.146 58.0604 114.33 58.0604C114.522 58.0604 114.682 58.0099 114.81 57.9088C114.94 57.8065 115.037 57.6692 115.101 57.4969C115.168 57.3233 115.201 57.1302 115.201 56.9178C115.201 56.7079 115.168 56.5188 115.103 56.3504C115.04 56.1807 114.943 56.0466 114.814 55.9481C114.686 55.8484 114.524 55.7985 114.33 55.7985C114.144 55.7985 113.987 55.8458 113.86 55.9404C113.733 56.0336 113.637 56.1645 113.572 56.3329C113.507 56.5 113.475 56.695 113.475 56.9178ZM117.703 58.4723C117.416 58.4723 117.168 58.4089 116.959 58.2819C116.752 58.1537 116.592 57.9749 116.479 57.7456C116.368 57.515 116.312 57.2468 116.312 56.9411C116.312 56.6354 116.368 56.3659 116.479 56.1327C116.592 55.8983 116.749 55.7156 116.949 55.5848C117.151 55.4526 117.387 55.3866 117.657 55.3866C117.812 55.3866 117.966 55.4125 118.117 55.4643C118.269 55.5161 118.407 55.6003 118.531 55.7169C118.655 55.8322 118.755 55.9851 118.828 56.1755C118.902 56.3659 118.939 56.6004 118.939 56.8789V57.0732H116.638V56.6768H118.473C118.473 56.5084 118.439 56.3582 118.372 56.226C118.306 56.0939 118.211 55.9896 118.088 55.9132C117.966 55.8367 117.822 55.7985 117.657 55.7985C117.474 55.7985 117.316 55.8439 117.183 55.9345C117.05 56.0239 116.949 56.1405 116.877 56.2843C116.806 56.4281 116.771 56.5823 116.771 56.7468V57.0111C116.771 57.2365 116.809 57.4276 116.887 57.5843C116.966 57.7398 117.076 57.8583 117.216 57.9399C117.355 58.0202 117.518 58.0604 117.703 58.0604C117.824 58.0604 117.933 58.0435 118.03 58.0099C118.128 57.9749 118.213 57.9231 118.284 57.8544C118.356 57.7845 118.411 57.6977 118.449 57.594L118.893 57.7184C118.846 57.8687 118.768 58.0008 118.657 58.1148C118.547 58.2275 118.411 58.3156 118.249 58.3791C118.087 58.4412 117.905 58.4723 117.703 58.4723ZM119.728 58.4102V55.4254H120.171V55.8762H120.202C120.257 55.7286 120.355 55.6087 120.497 55.5168C120.64 55.4248 120.801 55.3788 120.979 55.3788C121.013 55.3788 121.055 55.3794 121.106 55.3807C121.156 55.382 121.194 55.384 121.22 55.3866V55.8529C121.205 55.849 121.169 55.8432 121.113 55.8354C121.059 55.8264 121.001 55.8218 120.941 55.8218C120.795 55.8218 120.666 55.8523 120.552 55.9132C120.439 55.9728 120.35 56.0557 120.284 56.1619C120.219 56.2668 120.187 56.3867 120.187 56.5214V58.4102H119.728Z" fill="#12121C"/>
<path d="M14.919 81.1777V76.5348H16.574C16.9337 76.5348 17.2322 76.5968 17.4694 76.7207C17.7082 76.8447 17.8866 77.0162 18.0045 77.2353C18.1224 77.453 18.1813 77.7046 18.1813 77.9903C18.1813 78.2744 18.1216 78.5245 18.0022 78.7407C17.8843 78.9553 17.706 79.1223 17.4672 79.2417C17.2299 79.3611 16.9314 79.4208 16.5717 79.4208H15.318V78.8177H16.5082C16.7349 78.8177 16.9193 78.7852 17.0614 78.7203C17.205 78.6553 17.31 78.5608 17.3765 78.4369C17.443 78.3129 17.4762 78.1641 17.4762 77.9903C17.4762 77.815 17.4422 77.6631 17.3742 77.5346C17.3077 77.4061 17.2027 77.3079 17.0591 77.2399C16.917 77.1704 16.7304 77.1356 16.4992 77.1356H15.6195V81.1777H14.919ZM17.211 79.083L18.3581 81.1777H17.5601L16.4357 79.083H17.211ZM20.5276 81.248C20.1846 81.248 19.8891 81.1747 19.6412 81.0281C19.3949 80.88 19.2044 80.6722 19.0699 80.4047C18.9369 80.1356 18.8704 79.8205 18.8704 79.4593C18.8704 79.1026 18.9369 78.7883 19.0699 78.5162C19.2044 78.2442 19.3919 78.0318 19.6322 77.8792C19.874 77.7265 20.1566 77.6502 20.48 77.6502C20.6765 77.6502 20.8669 77.6827 21.0513 77.7477C21.2357 77.8127 21.4012 77.9147 21.5478 78.0537C21.6944 78.1928 21.81 78.3734 21.8947 78.5956C21.9793 78.8162 22.0216 79.0845 22.0216 79.4004V79.6407H19.2536V79.1329H21.3574C21.3574 78.9545 21.3211 78.7966 21.2486 78.659C21.176 78.52 21.074 78.4104 20.9425 78.3303C20.8125 78.2502 20.6599 78.2102 20.4846 78.2102C20.2941 78.2102 20.1279 78.257 19.9858 78.3507C19.8453 78.4429 19.7364 78.5638 19.6594 78.7135C19.5838 78.8616 19.546 79.0225 19.546 79.1963V79.5931C19.546 79.8258 19.5868 80.0238 19.6684 80.187C19.7516 80.3503 19.8672 80.475 20.0153 80.5611C20.1634 80.6457 20.3365 80.6881 20.5344 80.6881C20.6629 80.6881 20.78 80.6699 20.8858 80.6336C20.9916 80.5959 21.0831 80.5399 21.1601 80.4659C21.2372 80.3918 21.2962 80.3004 21.337 80.1916L21.9786 80.3072C21.9272 80.4961 21.835 80.6616 21.702 80.8037C21.5705 80.9442 21.405 81.0538 21.2055 81.1324C21.0075 81.2095 20.7816 81.248 20.5276 81.248ZM24.3317 81.248C23.9947 81.248 23.7045 81.1717 23.4612 81.019C23.2193 80.8649 23.0334 80.6525 22.9035 80.382C22.7735 80.1115 22.7085 79.8016 22.7085 79.4525C22.7085 79.0989 22.775 78.7868 22.908 78.5162C23.041 78.2442 23.2284 78.0318 23.4702 77.8792C23.712 77.7265 23.9969 77.6502 24.3249 77.6502C24.5894 77.6502 24.8252 77.6993 25.0322 77.7976C25.2393 77.8943 25.4063 78.0303 25.5332 78.2056C25.6617 78.381 25.738 78.5857 25.7622 78.82H25.1025C25.0662 78.6568 24.9831 78.5162 24.8531 78.3983C24.7247 78.2805 24.5524 78.2215 24.3362 78.2215C24.1473 78.2215 23.9818 78.2714 23.8397 78.3711C23.6992 78.4694 23.5896 78.6099 23.511 78.7928C23.4324 78.9742 23.3931 79.1888 23.3931 79.4366C23.3931 79.6906 23.4317 79.9097 23.5088 80.0941C23.5858 80.2785 23.6947 80.4213 23.8352 80.5226C23.9773 80.6238 24.1443 80.6745 24.3362 80.6745C24.4647 80.6745 24.5811 80.651 24.6854 80.6042C24.7912 80.5558 24.8796 80.487 24.9506 80.3979C25.0231 80.3087 25.0738 80.2014 25.1025 80.076H25.7622C25.738 80.3011 25.6647 80.5022 25.5423 80.679C25.4199 80.8558 25.2559 80.9949 25.0503 81.0961C24.8463 81.1974 24.6068 81.248 24.3317 81.248ZM26.5783 81.1777V77.6956H27.2561V81.1777H26.5783ZM26.9206 77.1583C26.8027 77.1583 26.7015 77.119 26.6168 77.0404C26.5337 76.9603 26.4921 76.8651 26.4921 76.7547C26.4921 76.6429 26.5337 76.5477 26.6168 76.4691C26.7015 76.389 26.8027 76.3489 26.9206 76.3489C27.0385 76.3489 27.139 76.389 27.2221 76.4691C27.3068 76.5477 27.3491 76.6429 27.3491 76.7547C27.3491 76.8651 27.3068 76.9603 27.2221 77.0404C27.139 77.119 27.0385 77.1583 26.9206 77.1583ZM28.2593 82.4836V77.6956H28.9212V78.26H28.9779C29.0172 78.1875 29.0739 78.1036 29.1479 78.0084C29.222 77.9132 29.3248 77.8301 29.4563 77.759C29.5877 77.6865 29.7616 77.6502 29.9777 77.6502C30.2588 77.6502 30.5097 77.7212 30.7303 77.8633C30.951 78.0054 31.124 78.2102 31.2495 78.4777C31.3764 78.7452 31.4399 79.0671 31.4399 79.4434C31.4399 79.8198 31.3772 80.1425 31.2518 80.4115C31.1263 80.679 30.954 80.8853 30.7349 81.0304C30.5157 81.174 30.2656 81.2457 29.9845 81.2457C29.7729 81.2457 29.5998 81.2102 29.4653 81.1392C29.3323 81.0682 29.228 80.985 29.1525 80.8898C29.0769 80.7946 29.0187 80.71 28.9779 80.6359H28.9371V82.4836H28.2593ZM28.9235 79.4366C28.9235 79.6815 28.959 79.8961 29.0301 80.0805C29.1011 80.2649 29.2039 80.4092 29.3384 80.5135C29.4729 80.6163 29.6376 80.6676 29.8326 80.6676C30.0351 80.6676 30.2044 80.614 30.3404 80.5067C30.4764 80.3979 30.5792 80.2505 30.6487 80.0646C30.7198 79.8787 30.7553 79.6694 30.7553 79.4366C30.7553 79.2069 30.7205 79.0006 30.651 78.8177C30.583 78.6349 30.4802 78.4905 30.3427 78.3847C30.2066 78.2789 30.0366 78.226 29.8326 78.226C29.6361 78.226 29.4699 78.2767 29.3338 78.3779C29.1993 78.4792 29.0973 78.6205 29.0278 78.8019C28.9583 78.9832 28.9235 79.1948 28.9235 79.4366ZM32.2906 81.1777V77.6956H32.9684V81.1777H32.2906ZM32.6329 77.1583C32.515 77.1583 32.4138 77.119 32.3291 77.0404C32.246 76.9603 32.2044 76.8651 32.2044 76.7547C32.2044 76.6429 32.246 76.5477 32.3291 76.4691C32.4138 76.389 32.515 76.3489 32.6329 76.3489C32.7508 76.3489 32.8513 76.389 32.9344 76.4691C33.0191 76.5477 33.0614 76.6429 33.0614 76.7547C33.0614 76.8651 33.0191 76.9603 32.9344 77.0404C32.8513 77.119 32.7508 77.1583 32.6329 77.1583ZM35.4723 81.248C35.1292 81.248 34.8338 81.1747 34.5859 81.0281C34.3396 80.88 34.1491 80.6722 34.0146 80.4047C33.8816 80.1356 33.8151 79.8205 33.8151 79.4593C33.8151 79.1026 33.8816 78.7883 34.0146 78.5162C34.1491 78.2442 34.3365 78.0318 34.5768 77.8792C34.8187 77.7265 35.1013 77.6502 35.4247 77.6502C35.6212 77.6502 35.8116 77.6827 35.996 77.7477C36.1804 77.8127 36.3459 77.9147 36.4925 78.0537C36.6391 78.1928 36.7547 78.3734 36.8394 78.5956C36.924 78.8162 36.9663 79.0845 36.9663 79.4004V79.6407H34.1982V79.1329H36.3021C36.3021 78.9545 36.2658 78.7966 36.1932 78.659C36.1207 78.52 36.0187 78.4104 35.8872 78.3303C35.7572 78.2502 35.6046 78.2102 35.4293 78.2102C35.2388 78.2102 35.0726 78.257 34.9305 78.3507C34.7899 78.4429 34.6811 78.5638 34.6041 78.7135C34.5285 78.8616 34.4907 79.0225 34.4907 79.1963V79.5931C34.4907 79.8258 34.5315 80.0238 34.6131 80.187C34.6962 80.3503 34.8119 80.475 34.96 80.5611C35.1081 80.6457 35.2811 80.6881 35.4791 80.6881C35.6076 80.6881 35.7247 80.6699 35.8305 80.6336C35.9363 80.5959 36.0278 80.5399 36.1048 80.4659C36.1819 80.3918 36.2409 80.3004 36.2817 80.1916L36.9232 80.3072C36.8719 80.4961 36.7797 80.6616 36.6467 80.8037C36.5152 80.9442 36.3497 81.0538 36.1502 81.1324C35.9522 81.2095 35.7262 81.248 35.4723 81.248ZM38.4875 79.1102V81.1777H37.8096V77.6956H38.4602V78.2623H38.5033C38.5834 78.0779 38.7089 77.9298 38.8797 77.818C39.0519 77.7061 39.2688 77.6502 39.5303 77.6502C39.7676 77.6502 39.9754 77.7001 40.1537 77.7998C40.3321 77.8981 40.4704 78.0447 40.5686 78.2396C40.6668 78.4346 40.716 78.6757 40.716 78.9628V81.1777H40.0381V79.0444C40.0381 78.792 39.9724 78.5948 39.8409 78.4527C39.7094 78.3092 39.5288 78.2374 39.2991 78.2374C39.1419 78.2374 39.0021 78.2714 38.8797 78.3394C38.7587 78.4074 38.6628 78.5072 38.5917 78.6386C38.5222 78.7686 38.4875 78.9258 38.4875 79.1102ZM43.3417 77.6956V78.2396H41.4397V77.6956H43.3417ZM41.9497 76.8613H42.6276V80.1553C42.6276 80.2868 42.6472 80.3858 42.6865 80.4523C42.7258 80.5173 42.7765 80.5619 42.8384 80.586C42.9019 80.6087 42.9707 80.62 43.0447 80.62C43.0991 80.62 43.1467 80.6163 43.1876 80.6087C43.2284 80.6011 43.2601 80.5951 43.2828 80.5906L43.4052 81.1505C43.3659 81.1656 43.31 81.1808 43.2374 81.1959C43.1649 81.2125 43.0742 81.2216 42.9654 81.2231C42.787 81.2261 42.6208 81.1944 42.4666 81.1279C42.3125 81.0614 42.1878 80.9586 42.0926 80.8195C41.9974 80.6805 41.9497 80.5059 41.9497 80.2959V76.8613ZM46.736 78.5457L46.1216 78.6545C46.0959 78.5759 46.0551 78.5011 45.9992 78.4301C45.9448 78.359 45.8707 78.3009 45.777 78.2555C45.6833 78.2102 45.5662 78.1875 45.4256 78.1875C45.2337 78.1875 45.0735 78.2306 44.945 78.3167C44.8166 78.4014 44.7523 78.5109 44.7523 78.6454C44.7523 78.7618 44.7954 78.8555 44.8816 78.9266C44.9677 78.9976 45.1067 79.0558 45.2987 79.1011L45.8519 79.2281C46.1723 79.3021 46.4111 79.4162 46.5682 79.5704C46.7254 79.7246 46.804 79.9248 46.804 80.1712C46.804 80.3797 46.7436 80.5656 46.6226 80.7289C46.5032 80.8906 46.3362 81.0175 46.1216 81.1097C45.9085 81.2019 45.6614 81.248 45.3803 81.248C44.9904 81.248 44.6722 81.1649 44.4259 80.9986C44.1795 80.8309 44.0284 80.5928 43.9725 80.2845L44.6276 80.1848C44.6685 80.3556 44.7523 80.4848 44.8793 80.5724C45.0062 80.6586 45.1717 80.7017 45.3758 80.7017C45.5979 80.7017 45.7755 80.6556 45.9085 80.5634C46.0415 80.4697 46.108 80.3556 46.108 80.221C46.108 80.1122 46.0672 80.0208 45.9856 79.9467C45.9055 79.8727 45.7823 79.8168 45.6161 79.779L45.0266 79.6497C44.7017 79.5757 44.4614 79.4578 44.3057 79.2961C44.1516 79.1344 44.0745 78.9296 44.0745 78.6817C44.0745 78.4762 44.1319 78.2963 44.2468 78.1422C44.3616 77.988 44.5203 77.8678 44.7229 77.7817C44.9254 77.694 45.1574 77.6502 45.4188 77.6502C45.7952 77.6502 46.0914 77.7318 46.3075 77.8951C46.5237 78.0568 46.6665 78.2736 46.736 78.5457Z" fill="#12121C"/>
<rect x="14.4089" y="87.8262" width="53.592" height="15.296" rx="5.472" fill="#FFF7F0"/>
<rect x="14.4089" y="87.8262" width="53.592" height="15.296" rx="5.472" stroke="#FFE0C2" stroke-width="0.456"/>
<path d="M22.5427 97.4746H21.8522L23.4037 93.1633H24.1552L25.7067 97.4746H25.0162L23.7973 93.9464H23.7636L22.5427 97.4746ZM22.6585 95.7863H24.8983V96.3336H22.6585V95.7863ZM26.9993 93.1633V97.4746H26.3699V93.1633H26.9993ZM28.5668 93.1633V97.4746H27.9373V93.1633H28.5668ZM33.2131 96.1337V94.2412H33.8446V97.4746H33.2257V96.9146H33.192C33.1176 97.0873 32.9983 97.2311 32.8341 97.3462C32.6713 97.4599 32.4685 97.5167 32.2258 97.5167C32.0181 97.5167 31.8342 97.4711 31.6742 97.3799C31.5156 97.2873 31.3907 97.1504 31.2995 96.9694C31.2097 96.7883 31.1648 96.5645 31.1648 96.2979V94.2412H31.7942V96.2221C31.7942 96.4424 31.8553 96.6178 31.9774 96.7483C32.0994 96.8789 32.258 96.9441 32.4531 96.9441C32.571 96.9441 32.6882 96.9146 32.8047 96.8557C32.9225 96.7968 33.0201 96.7076 33.0973 96.5884C33.1759 96.4691 33.2145 96.3175 33.2131 96.1337ZM35.4109 95.5547V97.4746H34.7815V94.2412H35.3857V94.7674H35.4257C35.5001 94.5962 35.6165 94.4587 35.7751 94.3548C35.9351 94.251 36.1365 94.1991 36.3793 94.1991C36.5996 94.1991 36.7926 94.2454 36.9582 94.338C37.1238 94.4292 37.2522 94.5653 37.3434 94.7464C37.4347 94.9274 37.4803 95.1513 37.4803 95.4179V97.4746H36.8508V95.4937C36.8508 95.2593 36.7898 95.0762 36.6677 94.9443C36.5456 94.8109 36.3779 94.7443 36.1646 94.7443C36.0186 94.7443 35.8888 94.7759 35.7751 94.839C35.6629 94.9022 35.5737 94.9948 35.5078 95.1169C35.4432 95.2376 35.4109 95.3835 35.4109 95.5547ZM38.4156 98.6872V94.2412H39.0303V94.7653H39.0829C39.1194 94.698 39.1721 94.6201 39.2408 94.5317C39.3096 94.4432 39.405 94.3661 39.5271 94.3001C39.6492 94.2327 39.8106 94.1991 40.0113 94.1991C40.2723 94.1991 40.5053 94.265 40.7102 94.3969C40.9151 94.5289 41.0758 94.719 41.1923 94.9674C41.3102 95.2158 41.3691 95.5147 41.3691 95.8642C41.3691 96.2136 41.3109 96.5133 41.1944 96.7631C41.0779 97.0115 40.9179 97.203 40.7144 97.3378C40.5109 97.4711 40.2786 97.5378 40.0176 97.5378C39.8211 97.5378 39.6604 97.5048 39.5355 97.4388C39.412 97.3729 39.3152 97.2957 39.245 97.2073C39.1749 97.1188 39.1208 97.0403 39.0829 96.9715H39.0451V98.6872H38.4156ZM39.0324 95.8579C39.0324 96.0852 39.0654 96.2845 39.1314 96.4557C39.1973 96.627 39.2928 96.761 39.4177 96.8578C39.5426 96.9532 39.6955 97.001 39.8766 97.001C40.0646 97.001 40.2218 96.9511 40.3481 96.8515C40.4744 96.7505 40.5699 96.6136 40.6344 96.441C40.7004 96.2684 40.7334 96.074 40.7334 95.8579C40.7334 95.6446 40.7011 95.453 40.6365 95.2832C40.5734 95.1134 40.4779 94.9793 40.3502 94.8811C40.2239 94.7829 40.066 94.7338 39.8766 94.7338C39.6941 94.7338 39.5398 94.7808 39.4134 94.8748C39.2885 94.9688 39.1938 95.1 39.1293 95.2685C39.0647 95.4369 39.0324 95.6333 39.0324 95.8579ZM43.1065 97.5462C42.9016 97.5462 42.7163 97.5083 42.5507 97.4325C42.3851 97.3553 42.2539 97.2437 42.1571 97.0978C42.0617 96.9518 42.0139 96.7729 42.0139 96.561C42.0139 96.3785 42.049 96.2284 42.1192 96.1105C42.1894 95.9926 42.2841 95.8993 42.4034 95.8305C42.5227 95.7617 42.656 95.7098 42.8034 95.6747C42.9507 95.6397 43.1009 95.613 43.2539 95.5947C43.4475 95.5723 43.6047 95.554 43.7254 95.54C43.8461 95.5246 43.9338 95.5 43.9885 95.4663C44.0433 95.4326 44.0706 95.3779 44.0706 95.3021V95.2874C44.0706 95.1035 44.0187 94.9611 43.9149 94.8601C43.8124 94.759 43.6594 94.7085 43.4559 94.7085C43.244 94.7085 43.077 94.7555 42.9549 94.8495C42.8342 94.9422 42.7507 95.0453 42.7044 95.159L42.1129 95.0243C42.1831 94.8278 42.2855 94.6692 42.4202 94.5485C42.5564 94.4264 42.7128 94.338 42.8897 94.2833C43.0665 94.2271 43.2525 94.1991 43.4475 94.1991C43.5766 94.1991 43.7135 94.2145 43.858 94.2454C44.004 94.2748 44.1401 94.3296 44.2664 94.4096C44.3941 94.4896 44.4987 94.6039 44.5801 94.7527C44.6615 94.9001 44.7022 95.0916 44.7022 95.3274V97.4746H44.0875V97.0325H44.0622C44.0215 97.1139 43.9605 97.1939 43.8791 97.2725C43.7977 97.3511 43.6931 97.4164 43.5654 97.4683C43.4377 97.5202 43.2847 97.5462 43.1065 97.5462ZM43.2433 97.041C43.4174 97.041 43.5661 97.0066 43.6896 96.9378C43.8145 96.869 43.9092 96.7792 43.9738 96.6684C44.0398 96.5561 44.0727 96.4361 44.0727 96.3084V95.8916C44.0503 95.914 44.0068 95.9351 43.9422 95.9547C43.8791 95.973 43.8068 95.9891 43.7254 96.0031C43.644 96.0158 43.5647 96.0277 43.4875 96.0389C43.4103 96.0487 43.3458 96.0572 43.2939 96.0642C43.1718 96.0796 43.0602 96.1056 42.9591 96.1421C42.8595 96.1786 42.7795 96.2312 42.7192 96.3C42.6602 96.3673 42.6307 96.4571 42.6307 96.5694C42.6307 96.7252 42.6883 96.8431 42.8034 96.9231C42.9184 97.0017 43.0651 97.041 43.2433 97.041ZM45.6317 97.4746V94.2412H46.2612V97.4746H45.6317ZM45.9496 93.7422C45.8401 93.7422 45.7461 93.7058 45.6675 93.6328C45.5903 93.5584 45.5517 93.47 45.5517 93.3675C45.5517 93.2637 45.5903 93.1753 45.6675 93.1023C45.7461 93.0279 45.8401 92.9907 45.9496 92.9907C46.0591 92.9907 46.1524 93.0279 46.2296 93.1023C46.3082 93.1753 46.3475 93.2637 46.3475 93.3675C46.3475 93.47 46.3082 93.5584 46.2296 93.6328C46.1524 93.7058 46.0591 93.7422 45.9496 93.7422ZM48.4096 97.5378C48.1486 97.5378 47.9156 97.4711 47.7107 97.3378C47.5072 97.203 47.3472 97.0115 47.2307 96.7631C47.1156 96.5133 47.0581 96.2136 47.0581 95.8642C47.0581 95.5147 47.1163 95.2158 47.2328 94.9674C47.3507 94.719 47.5121 94.5289 47.717 94.3969C47.9219 94.265 48.1542 94.1991 48.4138 94.1991C48.6145 94.1991 48.7759 94.2327 48.898 94.3001C49.0215 94.3661 49.1169 94.4432 49.1843 94.5317C49.253 94.6201 49.3064 94.698 49.3443 94.7653H49.3821V93.1633H50.0116V97.4746H49.3969V96.9715H49.3443C49.3064 97.0403 49.2516 97.1188 49.1801 97.2073C49.1099 97.2957 49.0131 97.3729 48.8896 97.4388C48.7661 97.5048 48.6061 97.5378 48.4096 97.5378ZM48.5485 97.001C48.7296 97.001 48.8825 96.9532 49.0074 96.8578C49.1337 96.761 49.2292 96.627 49.2937 96.4557C49.3597 96.2845 49.3927 96.0852 49.3927 95.8579C49.3927 95.6333 49.3604 95.4369 49.2958 95.2685C49.2313 95.1 49.1366 94.9688 49.0116 94.8748C48.8867 94.7808 48.7324 94.7338 48.5485 94.7338C48.3591 94.7338 48.2012 94.7829 48.0749 94.8811C47.9486 94.9793 47.8531 95.1134 47.7886 95.2832C47.7254 95.453 47.6938 95.6446 47.6938 95.8579C47.6938 96.074 47.7261 96.2684 47.7907 96.441C47.8552 96.6136 47.9507 96.7505 48.077 96.8515C48.2047 96.9511 48.3619 97.001 48.5485 97.001ZM52.8443 95.319C52.8443 94.7913 52.9138 94.3057 53.0527 93.8622C53.1917 93.4188 53.3945 93.0097 53.6611 92.635H54.2379C54.134 92.7739 54.0372 92.9444 53.9474 93.1465C53.8576 93.3486 53.779 93.5703 53.7116 93.8117C53.6443 94.0517 53.5916 94.3008 53.5537 94.559C53.5158 94.8159 53.4969 95.0692 53.4969 95.319C53.4969 95.653 53.5299 95.9912 53.5958 96.3336C53.6618 96.6761 53.7509 96.9939 53.8632 97.2873C53.9755 97.5806 54.1004 97.8198 54.2379 98.0051H53.6611C53.3945 97.6304 53.1917 97.2213 53.0527 96.7778C52.9138 96.3343 52.8443 95.8481 52.8443 95.319ZM56.4074 97.5336C56.1435 97.5336 55.9064 97.483 55.6958 97.382C55.4867 97.2795 55.3197 97.1392 55.1948 96.961C55.0699 96.7827 55.0033 96.5792 54.9948 96.3505H55.6264C55.6418 96.5357 55.7239 96.688 55.8727 96.8073C56.0214 96.9266 56.1997 96.9862 56.4074 96.9862C56.573 96.9862 56.7196 96.9483 56.8473 96.8725C56.9765 96.7954 57.0775 96.6894 57.1505 96.5547C57.2249 96.4199 57.2621 96.2663 57.2621 96.0937C57.2621 95.9182 57.2242 95.7617 57.1484 95.6242C57.0726 95.4867 56.968 95.3786 56.8347 95.3C56.7028 95.2214 56.5512 95.1814 56.38 95.18C56.2495 95.18 56.1183 95.2025 55.9864 95.2474C55.8544 95.2923 55.7478 95.3513 55.6664 95.4242L55.0706 95.3358L55.3127 93.1633H57.6831V93.7212H55.8537L55.7169 94.9274H55.7422C55.8264 94.846 55.9379 94.778 56.0769 94.7232C56.2172 94.6685 56.3674 94.6411 56.5274 94.6411C56.7898 94.6411 57.0235 94.7036 57.2284 94.8285C57.4347 94.9534 57.5968 95.1239 57.7147 95.34C57.8339 95.5547 57.8929 95.8017 57.8915 96.081C57.8929 96.3603 57.8297 96.6094 57.702 96.8283C57.5757 97.0473 57.4003 97.2199 57.1757 97.3462C56.9526 97.4711 56.6965 97.5336 56.4074 97.5336ZM59.9704 95.319C59.9704 95.8481 59.901 96.3343 59.762 96.7778C59.6231 97.2213 59.4203 97.6304 59.1536 98.0051H58.5768C58.6807 97.8662 58.7775 97.6956 58.8674 97.4936C58.9572 97.2915 59.0358 97.0704 59.1031 96.8304C59.1705 96.5891 59.2231 96.3393 59.261 96.081C59.2989 95.8228 59.3178 95.5688 59.3178 95.319C59.3178 94.9864 59.2849 94.6488 59.2189 94.3064C59.1529 93.964 59.0638 93.6461 58.9516 93.3528C58.8393 93.0595 58.7144 92.8202 58.5768 92.635H59.1536C59.4203 93.0097 59.6231 93.4188 59.762 93.8622C59.901 94.3057 59.9704 94.7913 59.9704 95.319Z" fill="#FF7A00"/>
<rect x="71.6489" y="87.8262" width="66.592" height="15.296" rx="5.472" stroke="#EDEDED" stroke-width="0.456"/>
<path d="M82.9993 94.5653H82.3425C82.3172 94.425 82.2702 94.3015 82.2014 94.1948C82.1327 94.0882 82.0485 93.9977 81.9488 93.9233C81.8492 93.8489 81.7376 93.7928 81.6141 93.7549C81.492 93.717 81.3622 93.698 81.2247 93.698C80.9763 93.698 80.7538 93.7605 80.5573 93.8854C80.3623 94.0103 80.2079 94.1934 80.0942 94.4348C79.9819 94.6762 79.9258 94.9709 79.9258 95.319C79.9258 95.6698 79.9819 95.9659 80.0942 96.2073C80.2079 96.4487 80.363 96.6312 80.5594 96.7547C80.7559 96.8782 80.977 96.9399 81.2226 96.9399C81.3587 96.9399 81.4878 96.9217 81.6099 96.8852C81.7334 96.8473 81.845 96.7919 81.9446 96.7189C82.0443 96.6459 82.1285 96.5568 82.1972 96.4515C82.2674 96.3449 82.3158 96.2228 82.3425 96.0852L82.9993 96.0873C82.9642 96.2993 82.8961 96.4943 82.7951 96.6726C82.6954 96.8494 82.567 97.0024 82.4098 97.1315C82.2541 97.2592 82.0758 97.3581 81.8751 97.4283C81.6745 97.4985 81.4555 97.5336 81.2183 97.5336C80.845 97.5336 80.5124 97.4451 80.2205 97.2683C79.9286 97.0901 79.6985 96.8354 79.53 96.5042C79.363 96.1729 79.2795 95.7779 79.2795 95.319C79.2795 94.8587 79.3637 94.4636 79.5322 94.1338C79.7006 93.8026 79.9307 93.5486 80.2226 93.3717C80.5145 93.1935 80.8464 93.1044 81.2183 93.1044C81.4471 93.1044 81.6604 93.1374 81.8583 93.2033C82.0576 93.2679 82.2365 93.3633 82.3951 93.4896C82.5537 93.6145 82.6849 93.7675 82.7888 93.9485C82.8926 94.1282 82.9628 94.3338 82.9993 94.5653ZM84.4477 95.5547V97.4746H83.8183V93.1633H84.4393V94.7674H84.4793C84.5551 94.5934 84.6709 94.4552 84.8267 94.3527C84.9824 94.2503 85.1859 94.1991 85.4371 94.1991C85.6589 94.1991 85.8526 94.2447 86.0182 94.3359C86.1852 94.4271 86.3143 94.5632 86.4055 94.7443C86.4981 94.9239 86.5444 95.1485 86.5444 95.4179V97.4746H85.915V95.4937C85.915 95.2565 85.854 95.0727 85.7319 94.9422C85.6098 94.8102 85.44 94.7443 85.2224 94.7443C85.0737 94.7443 84.9403 94.7759 84.8225 94.839C84.706 94.9022 84.614 94.9948 84.5467 95.1169C84.4807 95.2376 84.4477 95.3835 84.4477 95.5547ZM88.8376 97.5399C88.5345 97.5399 88.2699 97.4704 88.044 97.3315C87.818 97.1925 87.6426 96.9982 87.5177 96.7483C87.3928 96.4985 87.3303 96.2066 87.3303 95.8726C87.3303 95.5372 87.3928 95.2439 87.5177 94.9927C87.6426 94.7415 87.818 94.5464 88.044 94.4075C88.2699 94.2685 88.5345 94.1991 88.8376 94.1991C89.1407 94.1991 89.4053 94.2685 89.6312 94.4075C89.8572 94.5464 90.0326 94.7415 90.1575 94.9927C90.2824 95.2439 90.3448 95.5372 90.3448 95.8726C90.3448 96.2066 90.2824 96.4985 90.1575 96.7483C90.0326 96.9982 89.8572 97.1925 89.6312 97.3315C89.4053 97.4704 89.1407 97.5399 88.8376 97.5399ZM88.8397 97.0115C89.0362 97.0115 89.199 96.9596 89.3281 96.8557C89.4572 96.7519 89.5526 96.6136 89.6144 96.441C89.6775 96.2684 89.7091 96.0782 89.7091 95.8705C89.7091 95.6642 89.6775 95.4748 89.6144 95.3021C89.5526 95.1281 89.4572 94.9885 89.3281 94.8832C89.199 94.778 89.0362 94.7253 88.8397 94.7253C88.6418 94.7253 88.4776 94.778 88.3471 94.8832C88.218 94.9885 88.1218 95.1281 88.0587 95.3021C87.9969 95.4748 87.9661 95.6642 87.9661 95.8705C87.9661 96.0782 87.9969 96.2684 88.0587 96.441C88.1218 96.6136 88.218 96.7519 88.3471 96.8557C88.4776 96.9596 88.6418 97.0115 88.8397 97.0115ZM92.5006 97.5399C92.1975 97.5399 91.933 97.4704 91.707 97.3315C91.4811 97.1925 91.3056 96.9982 91.1807 96.7483C91.0558 96.4985 90.9934 96.2066 90.9934 95.8726C90.9934 95.5372 91.0558 95.2439 91.1807 94.9927C91.3056 94.7415 91.4811 94.5464 91.707 94.4075C91.933 94.2685 92.1975 94.1991 92.5006 94.1991C92.8038 94.1991 93.0683 94.2685 93.2943 94.4075C93.5202 94.5464 93.6956 94.7415 93.8205 94.9927C93.9454 95.2439 94.0079 95.5372 94.0079 95.8726C94.0079 96.2066 93.9454 96.4985 93.8205 96.7483C93.6956 96.9982 93.5202 97.1925 93.2943 97.3315C93.0683 97.4704 92.8038 97.5399 92.5006 97.5399ZM92.5027 97.0115C92.6992 97.0115 92.862 96.9596 92.9911 96.8557C93.1202 96.7519 93.2157 96.6136 93.2774 96.441C93.3406 96.2684 93.3722 96.0782 93.3722 95.8705C93.3722 95.6642 93.3406 95.4748 93.2774 95.3021C93.2157 95.1281 93.1202 94.9885 92.9911 94.8832C92.862 94.778 92.6992 94.7253 92.5027 94.7253C92.3049 94.7253 92.1407 94.778 92.0101 94.8832C91.881 94.9885 91.7849 95.1281 91.7217 95.3021C91.66 95.4748 91.6291 95.6642 91.6291 95.8705C91.6291 96.0782 91.66 96.2684 91.7217 96.441C91.7849 96.6136 91.881 96.7519 92.0101 96.8557C92.1407 96.9596 92.3049 97.0115 92.5027 97.0115ZM97.2247 95.0306L96.6542 95.1316C96.6303 95.0586 96.5924 94.9892 96.5405 94.9232C96.49 94.8573 96.4212 94.8032 96.3342 94.7611C96.2472 94.719 96.1384 94.698 96.0079 94.698C95.8297 94.698 95.6809 94.738 95.5616 94.818C95.4423 94.8965 95.3827 94.9983 95.3827 95.1232C95.3827 95.2313 95.4227 95.3183 95.5027 95.3842C95.5827 95.4502 95.7118 95.5042 95.89 95.5463L96.4037 95.6642C96.7012 95.733 96.9229 95.8389 97.0689 95.9821C97.2148 96.1252 97.2878 96.3112 97.2878 96.5399C97.2878 96.7336 97.2317 96.9062 97.1194 97.0578C97.0085 97.208 96.8535 97.3258 96.6542 97.4115C96.4563 97.4971 96.2268 97.5399 95.9658 97.5399C95.6037 97.5399 95.3083 97.4627 95.0796 97.3083C94.8508 97.1525 94.7105 96.9315 94.6585 96.6452L95.2669 96.5526C95.3048 96.7112 95.3827 96.8311 95.5006 96.9125C95.6185 96.9925 95.7721 97.0325 95.9616 97.0325C96.1679 97.0325 96.3328 96.9897 96.4563 96.9041C96.5798 96.8171 96.6416 96.7112 96.6416 96.5863C96.6416 96.4852 96.6037 96.4003 96.5279 96.3315C96.4535 96.2628 96.3391 96.2108 96.1847 96.1758L95.6374 96.0558C95.3357 95.987 95.1125 95.8775 94.968 95.7274C94.8248 95.5772 94.7533 95.387 94.7533 95.1569C94.7533 94.966 94.8066 94.799 94.9133 94.6559C95.0199 94.5127 95.1673 94.4011 95.3553 94.3211C95.5434 94.2398 95.7588 94.1991 96.0016 94.1991C96.351 94.1991 96.6261 94.2748 96.8268 94.4264C97.0275 94.5766 97.1601 94.778 97.2247 95.0306ZM99.4647 97.5399C99.1461 97.5399 98.8717 97.4718 98.6416 97.3357C98.4128 97.1981 98.236 97.0052 98.1111 96.7568C97.9876 96.507 97.9258 96.2143 97.9258 95.8789C97.9258 95.5477 97.9876 95.2558 98.1111 95.0032C98.236 94.7506 98.41 94.5534 98.6331 94.4117C98.8577 94.2699 99.1201 94.1991 99.4205 94.1991C99.6029 94.1991 99.7797 94.2292 99.9509 94.2896C100.122 94.3499 100.276 94.4446 100.412 94.5738C100.548 94.7029 100.655 94.8706 100.734 95.0769C100.813 95.2818 100.852 95.5309 100.852 95.8242V96.0473H98.2816V95.5758H100.235C100.235 95.4102 100.201 95.2635 100.134 95.1358C100.067 95.0067 99.972 94.905 99.8499 94.8306C99.7292 94.7562 99.5875 94.719 99.4247 94.719C99.2478 94.719 99.0935 94.7625 98.9615 94.8495C98.831 94.9351 98.73 95.0474 98.6584 95.1864C98.5882 95.3239 98.5531 95.4733 98.5531 95.6347V96.0031C98.5531 96.2193 98.591 96.4031 98.6668 96.5547C98.744 96.7062 98.8514 96.822 98.9889 96.902C99.1264 96.9806 99.2871 97.0199 99.471 97.0199C99.5903 97.0199 99.699 97.0031 99.7973 96.9694C99.8955 96.9343 99.9804 96.8824 100.052 96.8136C100.124 96.7448 100.178 96.6599 100.216 96.5589L100.812 96.6662C100.764 96.8417 100.679 96.9953 100.555 97.1273C100.433 97.2578 100.279 97.3595 100.094 97.4325C99.9102 97.5041 99.7004 97.5399 99.4647 97.5399ZM103.302 97.4746V94.2412H103.906V94.7674H103.946C104.013 94.5892 104.123 94.4503 104.276 94.3506C104.429 94.2496 104.612 94.1991 104.826 94.1991C105.042 94.1991 105.223 94.2496 105.369 94.3506C105.516 94.4517 105.625 94.5906 105.695 94.7674H105.729C105.806 94.5948 105.929 94.4573 106.097 94.3548C106.266 94.251 106.466 94.1991 106.699 94.1991C106.993 94.1991 107.232 94.291 107.417 94.4748C107.604 94.6587 107.697 94.9358 107.697 95.3063V97.4746H107.068V95.3653C107.068 95.1464 107.008 94.9878 106.889 94.8895C106.769 94.7913 106.627 94.7422 106.461 94.7422C106.256 94.7422 106.097 94.8053 105.983 94.9316C105.87 95.0565 105.813 95.2172 105.813 95.4137V97.4746H105.186V95.3253C105.186 95.1499 105.131 95.0088 105.021 94.9022C104.912 94.7955 104.77 94.7422 104.594 94.7422C104.475 94.7422 104.365 94.7737 104.264 94.8369C104.164 94.8987 104.083 94.985 104.021 95.0958C103.961 95.2067 103.931 95.3351 103.931 95.4811V97.4746H103.302ZM110.025 97.5399C109.707 97.5399 109.432 97.4718 109.202 97.3357C108.974 97.1981 108.797 97.0052 108.672 96.7568C108.548 96.507 108.487 96.2143 108.487 95.8789C108.487 95.5477 108.548 95.2558 108.672 95.0032C108.797 94.7506 108.971 94.5534 109.194 94.4117C109.418 94.2699 109.681 94.1991 109.981 94.1991C110.164 94.1991 110.34 94.2292 110.512 94.2896C110.683 94.3499 110.837 94.4446 110.973 94.5738C111.109 94.7029 111.216 94.8706 111.295 95.0769C111.373 95.2818 111.413 95.5309 111.413 95.8242V96.0473H108.842V95.5758H110.796C110.796 95.4102 110.762 95.2635 110.695 95.1358C110.627 95.0067 110.533 94.905 110.411 94.8306C110.29 94.7562 110.148 94.719 109.985 94.719C109.809 94.719 109.654 94.7625 109.522 94.8495C109.392 94.9351 109.291 95.0474 109.219 95.1864C109.149 95.3239 109.114 95.4733 109.114 95.6347V96.0031C109.114 96.2193 109.152 96.4031 109.228 96.5547C109.305 96.7062 109.412 96.822 109.55 96.902C109.687 96.9806 109.848 97.0199 110.032 97.0199C110.151 97.0199 110.26 97.0031 110.358 96.9694C110.456 96.9343 110.541 96.8824 110.613 96.8136C110.684 96.7448 110.739 96.6599 110.777 96.5589L111.373 96.6662C111.325 96.8417 111.239 96.9953 111.116 97.1273C110.994 97.2578 110.84 97.3595 110.655 97.4325C110.471 97.5041 110.261 97.5399 110.025 97.5399ZM112.202 97.4746V94.2412H112.806V94.7674H112.846C112.914 94.5892 113.024 94.4503 113.177 94.3506C113.33 94.2496 113.513 94.1991 113.726 94.1991C113.942 94.1991 114.124 94.2496 114.269 94.3506C114.417 94.4517 114.526 94.5906 114.596 94.7674H114.629C114.707 94.5948 114.829 94.4573 114.998 94.3548C115.166 94.251 115.367 94.1991 115.6 94.1991C115.893 94.1991 116.133 94.291 116.318 94.4748C116.504 94.6587 116.598 94.9358 116.598 95.3063V97.4746H115.968V95.3653C115.968 95.1464 115.909 94.9878 115.789 94.8895C115.67 94.7913 115.528 94.7422 115.362 94.7422C115.157 94.7422 114.998 94.8053 114.884 94.9316C114.771 95.0565 114.714 95.2172 114.714 95.4137V97.4746H114.086V95.3253C114.086 95.1499 114.032 95.0088 113.922 94.9022C113.813 94.7955 113.67 94.7422 113.495 94.7422C113.376 94.7422 113.265 94.7737 113.164 94.8369C113.065 94.8987 112.984 94.985 112.922 95.0958C112.862 95.2067 112.832 95.3351 112.832 95.4811V97.4746H112.202ZM117.583 97.4746V93.1633H118.213V94.7653H118.25C118.287 94.698 118.34 94.6201 118.408 94.5317C118.477 94.4432 118.572 94.3661 118.695 94.3001C118.817 94.2327 118.978 94.1991 119.179 94.1991C119.44 94.1991 119.673 94.265 119.878 94.3969C120.083 94.5289 120.243 94.719 120.36 94.9674C120.478 95.2158 120.537 95.5147 120.537 95.8642C120.537 96.2136 120.478 96.5133 120.362 96.7631C120.245 97.0115 120.085 97.203 119.882 97.3378C119.678 97.4711 119.446 97.5378 119.185 97.5378C118.989 97.5378 118.828 97.5048 118.703 97.4388C118.58 97.3729 118.483 97.2957 118.413 97.2073C118.342 97.1188 118.288 97.0403 118.25 96.9715H118.198V97.4746H117.583ZM118.2 95.8579C118.2 96.0852 118.233 96.2845 118.299 96.4557C118.365 96.627 118.46 96.761 118.585 96.8578C118.71 96.9532 118.863 97.001 119.044 97.001C119.232 97.001 119.389 96.9511 119.516 96.8515C119.642 96.7505 119.737 96.6136 119.802 96.441C119.868 96.2684 119.901 96.074 119.901 95.8579C119.901 95.6446 119.869 95.453 119.804 95.2832C119.741 95.1134 119.645 94.9793 119.518 94.8811C119.391 94.7829 119.233 94.7338 119.044 94.7338C118.862 94.7338 118.707 94.7808 118.581 94.8748C118.456 94.9688 118.361 95.1 118.297 95.2685C118.232 95.4369 118.2 95.6333 118.2 95.8579ZM122.728 97.5399C122.41 97.5399 122.135 97.4718 121.905 97.3357C121.676 97.1981 121.499 97.0052 121.375 96.7568C121.251 96.507 121.189 96.2143 121.189 95.8789C121.189 95.5477 121.251 95.2558 121.375 95.0032C121.499 94.7506 121.673 94.5534 121.897 94.4117C122.121 94.2699 122.384 94.1991 122.684 94.1991C122.866 94.1991 123.043 94.2292 123.214 94.2896C123.386 94.3499 123.539 94.4446 123.675 94.5738C123.812 94.7029 123.919 94.8706 123.998 95.0769C124.076 95.2818 124.115 95.5309 124.115 95.8242V96.0473H121.545V95.5758H123.499C123.499 95.4102 123.465 95.2635 123.398 95.1358C123.33 95.0067 123.235 94.905 123.113 94.8306C122.993 94.7562 122.851 94.719 122.688 94.719C122.511 94.719 122.357 94.7625 122.225 94.8495C122.095 94.9351 121.993 95.0474 121.922 95.1864C121.852 95.3239 121.817 95.4733 121.817 95.6347V96.0031C121.817 96.2193 121.855 96.4031 121.93 96.5547C122.007 96.7062 122.115 96.822 122.252 96.902C122.39 96.9806 122.551 97.0199 122.734 97.0199C122.854 97.0199 122.963 97.0031 123.061 96.9694C123.159 96.9343 123.244 96.8824 123.315 96.8136C123.387 96.7448 123.442 96.6599 123.48 96.5589L124.075 96.6662C124.028 96.8417 123.942 96.9953 123.819 97.1273C123.696 97.2578 123.543 97.3595 123.358 97.4325C123.174 97.5041 122.964 97.5399 122.728 97.5399ZM124.905 97.4746V94.2412H125.513V94.7548H125.547C125.606 94.5808 125.71 94.4439 125.859 94.3443C126.009 94.2433 126.179 94.1927 126.368 94.1927C126.407 94.1927 126.454 94.1941 126.507 94.1969C126.562 94.1998 126.605 94.2033 126.635 94.2075V94.8095C126.61 94.8025 126.565 94.7948 126.501 94.7864C126.436 94.7766 126.372 94.7716 126.307 94.7716C126.158 94.7716 126.026 94.8032 125.909 94.8664C125.794 94.9281 125.703 95.0144 125.635 95.1253C125.568 95.2348 125.534 95.3597 125.534 95.5V97.4746H124.905ZM129.694 95.0306L129.124 95.1316C129.1 95.0586 129.062 94.9892 129.01 94.9232C128.96 94.8573 128.891 94.8032 128.804 94.7611C128.717 94.719 128.608 94.698 128.478 94.698C128.299 94.698 128.151 94.738 128.031 94.818C127.912 94.8965 127.852 94.9983 127.852 95.1232C127.852 95.2313 127.892 95.3183 127.972 95.3842C128.052 95.4502 128.181 95.5042 128.36 95.5463L128.873 95.6642C129.171 95.733 129.393 95.8389 129.538 95.9821C129.684 96.1252 129.757 96.3112 129.757 96.5399C129.757 96.7336 129.701 96.9062 129.589 97.0578C129.478 97.208 129.323 97.3258 129.124 97.4115C128.926 97.4971 128.696 97.5399 128.435 97.5399C128.073 97.5399 127.778 97.4627 127.549 97.3083C127.32 97.1525 127.18 96.9315 127.128 96.6452L127.737 96.5526C127.774 96.7112 127.852 96.8311 127.97 96.9125C128.088 96.9925 128.242 97.0325 128.431 97.0325C128.638 97.0325 128.802 96.9897 128.926 96.9041C129.049 96.8171 129.111 96.7112 129.111 96.5863C129.111 96.4852 129.073 96.4003 128.997 96.3315C128.923 96.2628 128.809 96.2108 128.654 96.1758L128.107 96.0558C127.805 95.987 127.582 95.8775 127.438 95.7274C127.294 95.5772 127.223 95.387 127.223 95.1569C127.223 94.966 127.276 94.799 127.383 94.6559C127.49 94.5127 127.637 94.4011 127.825 94.3211C128.013 94.2398 128.228 94.1991 128.471 94.1991C128.821 94.1991 129.096 94.2748 129.296 94.4264C129.497 94.5766 129.63 94.778 129.694 95.0306Z" fill="#6F6F7B"/>
<rect x="141.889" y="87.8262" width="42.592" height="15.296" rx="5.472" stroke="#EDEDED" stroke-width="0.456"/>
<path d="M149.658 97.4746V93.1633H152.361V93.7233H150.309V95.0369H152.22V95.5947H150.309V96.9146H152.387V97.4746H149.658ZM156.037 94.2412L154.865 97.4746H154.191L153.016 94.2412H153.692L154.511 96.7294H154.545L155.361 94.2412H156.037ZM158.003 97.5399C157.685 97.5399 157.411 97.4718 157.18 97.3357C156.952 97.1981 156.775 97.0052 156.65 96.7568C156.526 96.507 156.465 96.2143 156.465 95.8789C156.465 95.5477 156.526 95.2558 156.65 95.0032C156.775 94.7506 156.949 94.5534 157.172 94.4117C157.396 94.2699 157.659 94.1991 157.959 94.1991C158.142 94.1991 158.319 94.2292 158.49 94.2896C158.661 94.3499 158.815 94.4446 158.951 94.5738C159.087 94.7029 159.194 94.8706 159.273 95.0769C159.351 95.2818 159.391 95.5309 159.391 95.8242V96.0473H156.82V95.5758H158.774C158.774 95.4102 158.74 95.2635 158.673 95.1358C158.606 95.0067 158.511 94.905 158.389 94.8306C158.268 94.7562 158.126 94.719 157.963 94.719C157.787 94.719 157.632 94.7625 157.5 94.8495C157.37 94.9351 157.269 95.0474 157.197 95.1864C157.127 95.3239 157.092 95.4733 157.092 95.6347V96.0031C157.092 96.2193 157.13 96.4031 157.206 96.5547C157.283 96.7062 157.39 96.822 157.528 96.902C157.665 96.9806 157.826 97.0199 158.01 97.0199C158.129 97.0199 158.238 97.0031 158.336 96.9694C158.434 96.9343 158.519 96.8824 158.591 96.8136C158.662 96.7448 158.717 96.6599 158.755 96.5589L159.351 96.6662C159.303 96.8417 159.217 96.9953 159.094 97.1273C158.972 97.2578 158.818 97.3595 158.633 97.4325C158.449 97.5041 158.239 97.5399 158.003 97.5399ZM160.18 97.4746V94.2412H160.789V94.7548H160.822C160.881 94.5808 160.985 94.4439 161.134 94.3443C161.284 94.2433 161.454 94.1927 161.643 94.1927C161.683 94.1927 161.729 94.1941 161.782 94.1969C161.837 94.1998 161.88 94.2033 161.911 94.2075V94.8095C161.885 94.8025 161.841 94.7948 161.776 94.7864C161.711 94.7766 161.647 94.7716 161.582 94.7716C161.434 94.7716 161.301 94.8032 161.184 94.8664C161.069 94.9281 160.978 95.0144 160.911 95.1253C160.843 95.2348 160.81 95.3597 160.81 95.5V97.4746H160.18ZM163.043 98.6872C162.949 98.6872 162.863 98.6794 162.786 98.664C162.709 98.65 162.651 98.6345 162.613 98.6177L162.765 98.1019C162.88 98.1328 162.983 98.1461 163.072 98.1419C163.162 98.1377 163.241 98.104 163.31 98.0409C163.38 97.9777 163.442 97.8746 163.495 97.7314L163.573 97.5167L162.39 94.2412H163.064L163.883 96.7505H163.916L164.735 94.2412H165.411L164.079 97.9062C164.017 98.0746 163.938 98.217 163.843 98.3335C163.747 98.4514 163.634 98.5398 163.502 98.5987C163.37 98.6577 163.217 98.6872 163.043 98.6872ZM167.346 97.5399C167.043 97.5399 166.778 97.4704 166.552 97.3315C166.326 97.1925 166.151 96.9982 166.026 96.7483C165.901 96.4985 165.839 96.2066 165.839 95.8726C165.839 95.5372 165.901 95.2439 166.026 94.9927C166.151 94.7415 166.326 94.5464 166.552 94.4075C166.778 94.2685 167.043 94.1991 167.346 94.1991C167.649 94.1991 167.914 94.2685 168.139 94.4075C168.365 94.5464 168.541 94.7415 168.666 94.9927C168.791 95.2439 168.853 95.5372 168.853 95.8726C168.853 96.2066 168.791 96.4985 168.666 96.7483C168.541 96.9982 168.365 97.1925 168.139 97.3315C167.914 97.4704 167.649 97.5399 167.346 97.5399ZM167.348 97.0115C167.544 97.0115 167.707 96.9596 167.836 96.8557C167.965 96.7519 168.061 96.6136 168.123 96.441C168.186 96.2684 168.217 96.0782 168.217 95.8705C168.217 95.6642 168.186 95.4748 168.123 95.3021C168.061 95.1281 167.965 94.9885 167.836 94.8832C167.707 94.778 167.544 94.7253 167.348 94.7253C167.15 94.7253 166.986 94.778 166.855 94.8832C166.726 94.9885 166.63 95.1281 166.567 95.3021C166.505 95.4748 166.474 95.6642 166.474 95.8705C166.474 96.0782 166.505 96.2684 166.567 96.441C166.63 96.6136 166.726 96.7519 166.855 96.8557C166.986 96.9596 167.15 97.0115 167.348 97.0115ZM170.276 95.5547V97.4746H169.647V94.2412H170.251V94.7674H170.291C170.365 94.5962 170.482 94.4587 170.641 94.3548C170.801 94.251 171.002 94.1991 171.245 94.1991C171.465 94.1991 171.658 94.2454 171.824 94.338C171.989 94.4292 172.118 94.5653 172.209 94.7464C172.3 94.9274 172.346 95.1513 172.346 95.4179V97.4746H171.716V95.4937C171.716 95.2593 171.655 95.0762 171.533 94.9443C171.411 94.8109 171.243 94.7443 171.03 94.7443C170.884 94.7443 170.754 94.7759 170.641 94.839C170.528 94.9022 170.439 94.9948 170.373 95.1169C170.309 95.2376 170.276 95.3835 170.276 95.5547ZM174.675 97.5399C174.356 97.5399 174.082 97.4718 173.852 97.3357C173.623 97.1981 173.446 97.0052 173.321 96.7568C173.198 96.507 173.136 96.2143 173.136 95.8789C173.136 95.5477 173.198 95.2558 173.321 95.0032C173.446 94.7506 173.62 94.5534 173.843 94.4117C174.068 94.2699 174.33 94.1991 174.63 94.1991C174.813 94.1991 174.99 94.2292 175.161 94.2896C175.332 94.3499 175.486 94.4446 175.622 94.5738C175.758 94.7029 175.865 94.8706 175.944 95.0769C176.023 95.2818 176.062 95.5309 176.062 95.8242V96.0473H173.492V95.5758H175.445C175.445 95.4102 175.411 95.2635 175.344 95.1358C175.277 95.0067 175.182 94.905 175.06 94.8306C174.939 94.7562 174.797 94.719 174.635 94.719C174.458 94.719 174.303 94.7625 174.171 94.8495C174.041 94.9351 173.94 95.0474 173.868 95.1864C173.798 95.3239 173.763 95.4733 173.763 95.6347V96.0031C173.763 96.2193 173.801 96.4031 173.877 96.5547C173.954 96.7062 174.061 96.822 174.199 96.902C174.336 96.9806 174.497 97.0199 174.681 97.0199C174.8 97.0199 174.909 97.0031 175.007 96.9694C175.105 96.9343 175.19 96.8824 175.262 96.8136C175.334 96.7448 175.388 96.6599 175.426 96.5589L176.022 96.6662C175.974 96.8417 175.889 96.9953 175.765 97.1273C175.643 97.2578 175.489 97.3595 175.304 97.4325C175.12 97.5041 174.91 97.5399 174.675 97.5399Z" fill="#6F6F7B"/>
<rect x="14.4089" y="108.594" width="156.408" height="32.832" rx="6.384" fill="#F9FAFB"/>
<rect x="14.4089" y="108.594" width="156.408" height="32.832" rx="6.384" stroke="#EDEDED" stroke-width="0.456"/>
<rect x="21.7048" y="114.066" width="21.888" height="21.888" rx="10.944" fill="#FFF7F0"/>
<path opacity="0.15" d="M28.374 132.021C28.374 132.157 28.8244 132.287 29.6261 132.384C30.4279 132.48 31.5152 132.534 32.649 132.534C33.7828 132.534 34.8702 132.48 35.6719 132.384C36.4736 132.287 36.924 132.157 36.924 132.021C36.924 131.885 36.4736 131.754 35.6719 131.658C34.8702 131.562 33.7828 131.508 32.649 131.508C31.5152 131.508 30.4279 131.562 29.6261 131.658C28.8244 131.754 28.374 131.885 28.374 132.021Z" fill="#12121C"/>
<path d="M32.6489 118.592C32.2394 118.592 31.8315 118.644 31.4348 118.746C30.508 118.954 29.3041 119.303 28.2166 119.088C28.1729 119.369 28.187 119.655 28.2582 119.931C28.3293 120.206 28.456 120.464 28.6304 120.688C28.0613 121.509 27.7569 122.484 27.7583 123.482V126.037H37.5395V123.482C37.5395 122.185 37.0242 120.941 36.1071 120.024C35.1899 119.107 33.946 118.592 32.6489 118.592Z" fill="#A86C4D"/>
<path d="M32.649 118.592C32.2395 118.592 31.8316 118.644 31.4349 118.746C30.5081 118.954 29.3043 119.303 28.2167 119.088C28.1679 119.49 28.2245 119.897 28.3809 120.271C29.424 120.418 30.556 120.093 31.4349 119.895C32.1578 119.709 32.9136 119.691 33.6445 119.842C34.3753 119.994 35.0617 120.311 35.6511 120.769C36.2405 121.227 36.7171 121.814 37.0445 122.484C37.3719 123.155 37.5412 123.892 37.5396 124.638V123.482C37.5396 122.185 37.0244 120.941 36.1072 120.024C35.19 119.107 33.9461 118.592 32.649 118.592Z" fill="#DE926A"/>
<path d="M32.6489 118.592C32.2394 118.592 31.8315 118.644 31.4348 118.746C30.508 118.954 29.3041 119.303 28.2166 119.088C28.1729 119.369 28.187 119.655 28.2582 119.931C28.3293 120.206 28.456 120.464 28.6304 120.688C28.0613 121.509 27.7569 122.484 27.7583 123.482V126.037H37.5395V123.482C37.5395 122.185 37.0242 120.941 36.1071 120.024C35.1899 119.107 33.946 118.592 32.6489 118.592Z" stroke="#12121C" stroke-width="0.228" stroke-linecap="round" stroke-linejoin="round"/>
<path d="M38.0592 125.667C38.035 125.485 37.9569 125.315 37.835 125.177C37.7131 125.04 37.553 124.943 37.3752 124.897L37.0811 124.819C36.8667 124.758 36.678 124.629 36.5435 124.451C36.409 124.273 36.336 124.057 36.3356 123.834V122.808C36.3359 122.604 36.2691 122.406 36.1455 122.244C36.0218 122.082 35.8482 121.965 35.6516 121.912C34.6965 122.289 33.6755 122.472 32.6488 122.449C31.6299 122.467 30.6173 122.284 29.67 121.908C29.473 121.961 29.2991 122.078 29.1754 122.24C29.0517 122.402 28.9851 122.6 28.986 122.804V124.046C28.9851 124.256 28.9013 124.458 28.7528 124.607C28.6043 124.756 28.403 124.841 28.1925 124.843C27.9729 124.838 27.7588 124.911 27.5875 125.049C27.4162 125.186 27.2987 125.38 27.2555 125.595C27.2341 125.724 27.2412 125.857 27.2762 125.983C27.3113 126.11 27.3734 126.227 27.4584 126.327C27.5434 126.427 27.6491 126.507 27.7682 126.562C27.8873 126.617 28.0169 126.645 28.1481 126.645H28.2028C28.36 127.714 28.8967 128.692 29.7148 129.399C30.533 130.105 31.578 130.494 32.6591 130.494C33.7401 130.494 34.7852 130.105 35.6033 129.399C36.4214 128.692 36.9581 127.714 37.1153 126.645H37.17C37.2942 126.644 37.4169 126.617 37.5302 126.567C37.6436 126.516 37.7452 126.442 37.8288 126.351C37.9123 126.259 37.9759 126.15 38.0156 126.033C38.0552 125.915 38.0701 125.79 38.0592 125.667Z" fill="#FFCEBF" stroke="#12121C" stroke-width="0.228" stroke-linecap="round" stroke-linejoin="round"/>
<path d="M29.9436 125.561C29.9429 125.638 29.9651 125.713 30.0073 125.777C30.0495 125.841 30.1098 125.891 30.1806 125.921C30.2514 125.95 30.3293 125.958 30.4046 125.943C30.4799 125.929 30.5491 125.892 30.6033 125.837C30.6576 125.783 30.6945 125.714 30.7093 125.639C30.7241 125.563 30.7161 125.485 30.6865 125.415C30.6568 125.344 30.6067 125.284 30.5426 125.241C30.4786 125.199 30.4034 125.177 30.3267 125.178C30.2764 125.178 30.2265 125.188 30.1801 125.207C30.1336 125.226 30.0914 125.254 30.0558 125.29C30.0202 125.326 29.992 125.368 29.9728 125.414C29.9535 125.461 29.9436 125.51 29.9436 125.561ZM35.3541 125.561C35.3547 125.638 35.3326 125.713 35.2904 125.777C35.2482 125.841 35.1878 125.891 35.1171 125.921C35.0463 125.95 34.9683 125.958 34.8931 125.943C34.8178 125.929 34.7486 125.892 34.6943 125.837C34.6401 125.783 34.6032 125.714 34.5884 125.639C34.5736 125.563 34.5816 125.485 34.6112 125.415C34.6409 125.344 34.691 125.284 34.755 125.241C34.8191 125.199 34.8943 125.177 34.971 125.178C35.0726 125.178 35.17 125.218 35.2419 125.29C35.3137 125.362 35.3541 125.459 35.3541 125.561Z" fill="#12121C" stroke="#12121C" stroke-width="0.228" stroke-linecap="round" stroke-linejoin="round"/>
<path d="M31.2365 127.9C31.2049 127.9 31.1736 127.907 31.1447 127.92C31.1159 127.933 31.09 127.952 31.0689 127.976C31.0487 128 31.034 128.029 31.0257 128.059C31.0175 128.09 31.0159 128.122 31.0211 128.153C31.0871 128.537 31.2867 128.886 31.5846 129.136C31.8825 129.387 32.2595 129.525 32.649 129.525C33.0385 129.525 33.4155 129.387 33.7133 129.136C34.0112 128.886 34.2108 128.537 34.2769 128.153C34.2821 128.122 34.2805 128.09 34.2722 128.059C34.264 128.029 34.2492 128 34.229 127.976C34.2079 127.952 34.1821 127.933 34.1532 127.92C34.1244 127.907 34.0931 127.9 34.0614 127.9H31.2365Z" fill="#FF6242"/>
<path d="M32.6489 128.577C32.1996 128.562 31.758 128.697 31.3938 128.96C31.5501 129.14 31.743 129.283 31.9595 129.382C32.176 129.48 32.4111 129.531 32.6489 129.531C32.8868 129.531 33.1218 129.48 33.3383 129.382C33.5548 129.283 33.7477 129.14 33.9041 128.96C33.5398 128.697 33.0982 128.562 32.6489 128.577Z" fill="#FFA694"/>
<path d="M31.2365 127.9C31.2049 127.9 31.1736 127.907 31.1447 127.92C31.1159 127.933 31.09 127.952 31.0689 127.976C31.0487 128 31.034 128.029 31.0257 128.059C31.0175 128.09 31.0159 128.122 31.0211 128.153C31.0871 128.537 31.2867 128.886 31.5846 129.136C31.8825 129.387 32.2595 129.525 32.649 129.525C33.0385 129.525 33.4155 129.387 33.7133 129.136C34.0112 128.886 34.2108 128.537 34.2769 128.153C34.2821 128.122 34.2805 128.09 34.2722 128.059C34.264 128.029 34.2492 128 34.229 127.976C34.2079 127.952 34.1821 127.933 34.1532 127.92C34.1244 127.907 34.0931 127.9 34.0614 127.9H31.2365Z" stroke="#12121C" stroke-width="0.228" stroke-linecap="round" stroke-linejoin="round"/>
<path d="M29.1914 127.196C29.1914 127.275 29.244 127.351 29.3377 127.406C29.4313 127.462 29.5583 127.494 29.6907 127.494C29.8232 127.494 29.9502 127.462 30.0438 127.406C30.1374 127.351 30.19 127.275 30.19 127.196C30.19 127.117 30.1374 127.041 30.0438 126.986C29.9502 126.93 29.8232 126.898 29.6907 126.898C29.5583 126.898 29.4313 126.93 29.3377 126.986C29.244 127.041 29.1914 127.117 29.1914 127.196ZM35.108 127.196C35.108 127.275 35.1606 127.351 35.2543 127.406C35.3479 127.462 35.4749 127.494 35.6073 127.494C35.7398 127.494 35.8668 127.462 35.9604 127.406C36.054 127.351 36.1066 127.275 36.1066 127.196C36.1066 127.117 36.054 127.041 35.9604 126.986C35.8668 126.93 35.7398 126.898 35.6073 126.898C35.4749 126.898 35.3479 126.93 35.2543 126.986C35.1606 127.041 35.108 127.117 35.108 127.196Z" fill="#FFB59E"/>
<path d="M49.575 122.098V117.455H50.2755V121.495H52.3794V122.098H49.575ZM54.7161 122.168C54.373 122.168 54.0775 122.095 53.8297 121.948C53.5833 121.8 53.3929 121.592 53.2584 121.325C53.1254 121.056 53.0589 120.74 53.0589 120.379C53.0589 120.023 53.1254 119.708 53.2584 119.436C53.3929 119.164 53.5803 118.952 53.8206 118.799C54.0624 118.646 54.345 118.57 54.6685 118.57C54.8649 118.57 55.0554 118.603 55.2398 118.668C55.4241 118.733 55.5896 118.835 55.7362 118.974C55.8828 119.113 55.9985 119.293 56.0831 119.515C56.1677 119.736 56.2101 120.004 56.2101 120.32V120.561H53.442V120.053H55.5458C55.5458 119.874 55.5095 119.717 55.437 119.579C55.3644 119.44 55.2624 119.33 55.1309 119.25C55.001 119.17 54.8483 119.13 54.673 119.13C54.4826 119.13 54.3163 119.177 54.1742 119.271C54.0337 119.363 53.9249 119.484 53.8478 119.633C53.7722 119.781 53.7344 119.942 53.7344 120.116V120.513C53.7344 120.746 53.7752 120.944 53.8569 121.107C53.94 121.27 54.0556 121.395 54.2037 121.481C54.3518 121.566 54.5249 121.608 54.7229 121.608C54.8513 121.608 54.9685 121.59 55.0743 121.554C55.1801 121.516 55.2715 121.46 55.3486 121.386C55.4257 121.312 55.4846 121.22 55.5254 121.111L56.167 121.227C56.1156 121.416 56.0234 121.582 55.8904 121.724C55.7589 121.864 55.5934 121.974 55.3939 122.052C55.1959 122.129 54.97 122.168 54.7161 122.168ZM57.0533 122.098V118.615H57.7085V119.169H57.7448C57.8083 118.981 57.9201 118.834 58.0803 118.727C58.242 118.618 58.4249 118.563 58.6289 118.563C58.6713 118.563 58.7211 118.565 58.7786 118.568C58.8375 118.571 58.8836 118.575 58.9169 118.579V119.228C58.8897 119.22 58.8413 119.212 58.7718 119.203C58.7022 119.192 58.6327 119.187 58.5632 119.187C58.403 119.187 58.2602 119.221 58.1347 119.289C58.0108 119.355 57.9126 119.448 57.84 119.568C57.7675 119.686 57.7312 119.82 57.7312 119.971V122.098H57.0533ZM60.5769 122.175C60.3562 122.175 60.1567 122.134 59.9784 122.052C59.8 121.969 59.6587 121.849 59.5544 121.692C59.4516 121.535 59.4003 121.342 59.4003 121.114C59.4003 120.917 59.438 120.756 59.5136 120.629C59.5892 120.502 59.6912 120.401 59.8197 120.327C59.9481 120.253 60.0917 120.197 60.2504 120.159C60.4091 120.122 60.5708 120.093 60.7355 120.073C60.9441 120.049 61.1134 120.029 61.2434 120.014C61.3733 119.998 61.4678 119.971 61.5267 119.935C61.5857 119.899 61.6152 119.84 61.6152 119.758V119.742C61.6152 119.544 61.5592 119.391 61.4474 119.282C61.3371 119.173 61.1723 119.119 60.9532 119.119C60.725 119.119 60.5451 119.169 60.4136 119.271C60.2836 119.37 60.1937 119.481 60.1438 119.604L59.5068 119.459C59.5824 119.247 59.6927 119.076 59.8378 118.946C59.9844 118.815 60.1529 118.72 60.3433 118.661C60.5338 118.6 60.734 118.57 60.9441 118.57C61.0832 118.57 61.2305 118.587 61.3862 118.62C61.5434 118.652 61.69 118.711 61.826 118.797C61.9635 118.883 62.0761 119.006 62.1638 119.166C62.2514 119.325 62.2953 119.531 62.2953 119.785V122.098H61.6333V121.622H61.6061C61.5623 121.709 61.4965 121.795 61.4089 121.88C61.3212 121.965 61.2086 122.035 61.0711 122.091C60.9335 122.147 60.7688 122.175 60.5769 122.175ZM60.7242 121.631C60.9116 121.631 61.0718 121.594 61.2048 121.52C61.3393 121.446 61.4414 121.349 61.5109 121.229C61.5819 121.108 61.6174 120.979 61.6174 120.842V120.393C61.5932 120.417 61.5464 120.44 61.4769 120.461C61.4089 120.48 61.331 120.498 61.2434 120.513C61.1557 120.527 61.0703 120.539 60.9872 120.552C60.9041 120.562 60.8345 120.571 60.7786 120.579C60.6471 120.595 60.527 120.623 60.4182 120.663C60.3109 120.702 60.2247 120.759 60.1597 120.833C60.0962 120.905 60.0645 121.002 60.0645 121.123C60.0645 121.291 60.1265 121.418 60.2504 121.504C60.3743 121.588 60.5323 121.631 60.7242 121.631ZM64.9148 118.615V119.16H63.0127V118.615H64.9148ZM63.5228 117.781H64.2007V121.075C64.2007 121.207 64.2203 121.306 64.2596 121.372C64.2989 121.437 64.3495 121.482 64.4115 121.506C64.475 121.529 64.5438 121.54 64.6178 121.54C64.6722 121.54 64.7198 121.536 64.7606 121.529C64.8014 121.521 64.8332 121.515 64.8559 121.51L64.9783 122.07C64.939 122.086 64.8831 122.101 64.8105 122.116C64.738 122.132 64.6473 122.141 64.5385 122.143C64.3601 122.146 64.1939 122.114 64.0397 122.048C63.8856 121.981 63.7609 121.879 63.6657 121.739C63.5704 121.6 63.5228 121.426 63.5228 121.216V117.781ZM67.1852 122.168C66.8587 122.168 66.5738 122.093 66.3305 121.943C66.0872 121.794 65.8983 121.585 65.7638 121.316C65.6292 121.047 65.562 120.732 65.562 120.372C65.562 120.011 65.6292 119.695 65.7638 119.425C65.8983 119.154 66.0872 118.944 66.3305 118.795C66.5738 118.645 66.8587 118.57 67.1852 118.57C67.5116 118.57 67.7965 118.645 68.0399 118.795C68.2832 118.944 68.4721 119.154 68.6066 119.425C68.7411 119.695 68.8084 120.011 68.8084 120.372C68.8084 120.732 68.7411 121.047 68.6066 121.316C68.4721 121.585 68.2832 121.794 68.0399 121.943C67.7965 122.093 67.5116 122.168 67.1852 122.168ZM67.1875 121.599C67.399 121.599 67.5744 121.543 67.7134 121.431C67.8525 121.319 67.9552 121.17 68.0217 120.985C68.0897 120.799 68.1237 120.594 68.1237 120.37C68.1237 120.148 68.0897 119.944 68.0217 119.758C67.9552 119.571 67.8525 119.42 67.7134 119.307C67.5744 119.194 67.399 119.137 67.1875 119.137C66.9744 119.137 66.7975 119.194 66.657 119.307C66.5179 119.42 66.4144 119.571 66.3464 119.758C66.2799 119.944 66.2466 120.148 66.2466 120.37C66.2466 120.594 66.2799 120.799 66.3464 120.985C66.4144 121.17 66.5179 121.319 66.657 121.431C66.7975 121.543 66.9744 121.599 67.1875 121.599ZM71.4913 117.455H72.3415L73.8196 121.064H73.874L75.3521 117.455H76.2023V122.098H75.5358V118.738H75.4927L74.1234 122.091H73.5702L72.2009 118.736H72.1579V122.098H71.4913V117.455ZM77.7041 122.141C77.5802 122.141 77.4737 122.097 77.3845 122.009C77.2953 121.92 77.2507 121.813 77.2507 121.687C77.2507 121.563 77.2953 121.458 77.3845 121.37C77.4737 121.281 77.5802 121.236 77.7041 121.236C77.8281 121.236 77.9346 121.281 78.0238 121.37C78.113 121.458 78.1575 121.563 78.1575 121.687C78.1575 121.77 78.1364 121.847 78.0941 121.916C78.0533 121.984 77.9989 122.039 77.9308 122.08C77.8628 122.12 77.7873 122.141 77.7041 122.141Z" fill="#12121C"/>
<path d="M49.5469 132.922V128.942H50.8915C51.2037 128.942 51.4589 128.999 51.6571 129.111C51.8566 129.223 52.0043 129.374 52.1002 129.564C52.1961 129.754 52.244 129.967 52.244 130.201C52.244 130.436 52.1961 130.649 52.1002 130.841C52.0056 131.032 51.8592 131.185 51.661 131.299C51.4628 131.412 51.2089 131.468 50.8993 131.468H49.9355V131.041H50.8838C51.0975 131.041 51.2692 131.004 51.3987 130.93C51.5282 130.856 51.6222 130.757 51.6805 130.631C51.7401 130.504 51.7699 130.361 51.7699 130.201C51.7699 130.042 51.7401 129.9 51.6805 129.774C51.6222 129.648 51.5276 129.55 51.3968 129.479C51.2659 129.406 51.0923 129.37 50.876 129.37H50.0288V132.922H49.5469ZM54.2687 132.984C53.9811 132.984 53.733 132.921 53.5244 132.794C53.3171 132.665 53.1572 132.487 53.0444 132.257C52.933 132.027 52.8773 131.759 52.8773 131.453C52.8773 131.147 52.933 130.878 53.0444 130.644C53.1572 130.41 53.3139 130.227 53.5147 130.096C53.7168 129.964 53.9526 129.898 54.222 129.898C54.3775 129.898 54.531 129.924 54.6826 129.976C54.8341 130.028 54.9721 130.112 55.0964 130.229C55.2208 130.344 55.3199 130.497 55.3938 130.687C55.4676 130.878 55.5045 131.112 55.5045 131.391V131.585H53.2038V131.189H55.0382C55.0382 131.02 55.0045 130.87 54.9371 130.738C54.871 130.606 54.7765 130.501 54.6534 130.425C54.5316 130.348 54.3878 130.31 54.222 130.31C54.0394 130.31 53.8813 130.356 53.7479 130.446C53.6157 130.536 53.5141 130.652 53.4428 130.796C53.3716 130.94 53.3359 131.094 53.3359 131.259V131.523C53.3359 131.748 53.3748 131.939 53.4525 132.096C53.5315 132.251 53.641 132.37 53.7809 132.452C53.9208 132.532 54.0834 132.572 54.2687 132.572C54.3891 132.572 54.4979 132.555 54.5951 132.522C54.6936 132.487 54.7784 132.435 54.8497 132.366C54.9209 132.296 54.976 132.209 55.0148 132.106L55.4579 132.23C55.4112 132.38 55.3329 132.513 55.2228 132.627C55.1126 132.739 54.9766 132.827 54.8147 132.891C54.6528 132.953 54.4707 132.984 54.2687 132.984ZM56.7519 131.126V132.922H56.2933V129.937H56.7364V130.404H56.7752C56.8452 130.252 56.9514 130.13 57.0939 130.038C57.2364 129.945 57.4204 129.898 57.6458 129.898C57.8479 129.898 58.0247 129.94 58.1763 130.023C58.3278 130.104 58.4457 130.229 58.5299 130.396C58.6141 130.562 58.6562 130.771 58.6562 131.025V132.922H58.1976V131.056C58.1976 130.822 58.1368 130.639 58.015 130.508C57.8932 130.376 57.7261 130.31 57.5136 130.31C57.3673 130.31 57.2364 130.342 57.1211 130.405C57.0071 130.469 56.9171 130.562 56.851 130.683C56.7849 130.805 56.7519 130.953 56.7519 131.126ZM60.7125 132.984C60.4637 132.984 60.2442 132.921 60.0537 132.796C59.8633 132.669 59.7143 132.49 59.6068 132.259C59.4993 132.027 59.4455 131.753 59.4455 131.437C59.4455 131.124 59.4993 130.852 59.6068 130.621C59.7143 130.391 59.8639 130.212 60.0557 130.087C60.2474 129.961 60.4689 129.898 60.7202 129.898C60.9146 129.898 61.0681 129.931 61.1808 129.995C61.2948 130.059 61.3816 130.131 61.4412 130.213C61.5021 130.293 61.5493 130.359 61.583 130.411H61.6219V128.942H62.0805V132.922H61.6374V132.463H61.583C61.5493 132.518 61.5014 132.586 61.4392 132.669C61.377 132.751 61.2883 132.824 61.173 132.889C61.0577 132.952 60.9042 132.984 60.7125 132.984ZM60.7747 132.572C60.9586 132.572 61.1141 132.524 61.241 132.428C61.368 132.331 61.4645 132.197 61.5306 132.026C61.5966 131.854 61.6297 131.655 61.6297 131.43C61.6297 131.207 61.5973 131.012 61.5325 130.845C61.4677 130.676 61.3719 130.545 61.2449 130.452C61.1179 130.358 60.9612 130.31 60.7747 130.31C60.5803 130.31 60.4184 130.36 60.2889 130.46C60.1606 130.558 60.0641 130.692 59.9993 130.862C59.9358 131.031 59.9041 131.22 59.9041 131.43C59.9041 131.642 59.9365 131.835 60.0013 132.009C60.0673 132.181 60.1645 132.318 60.2927 132.421C60.4223 132.522 60.5829 132.572 60.7747 132.572ZM63.0753 132.922V129.937H63.5338V132.922H63.0753ZM63.3084 129.44C63.219 129.44 63.142 129.409 63.0772 129.348C63.0137 129.287 62.982 129.214 62.982 129.129C62.982 129.043 63.0137 128.97 63.0772 128.909C63.142 128.848 63.219 128.818 63.3084 128.818C63.3978 128.818 63.4743 128.848 63.5377 128.909C63.6025 128.97 63.6349 129.043 63.6349 129.129C63.6349 129.214 63.6025 129.287 63.5377 129.348C63.4743 129.409 63.3978 129.44 63.3084 129.44ZM64.9236 131.126V132.922H64.465V129.937H64.908V130.404H64.9469C65.0168 130.252 65.1231 130.13 65.2656 130.038C65.4081 129.945 65.592 129.898 65.8174 129.898C66.0195 129.898 66.1964 129.94 66.3479 130.023C66.4995 130.104 66.6174 130.229 66.7016 130.396C66.7858 130.562 66.8279 130.771 66.8279 131.025V132.922H66.3693V131.056C66.3693 130.822 66.3084 130.639 66.1866 130.508C66.0649 130.376 65.8978 130.31 65.6853 130.31C65.5389 130.31 65.4081 130.342 65.2928 130.405C65.1788 130.469 65.0887 130.562 65.0227 130.683C64.9566 130.805 64.9236 130.953 64.9236 131.126ZM68.9619 134.103C68.7403 134.103 68.5499 134.075 68.3906 134.018C68.2312 133.962 68.0984 133.888 67.9922 133.796C67.8873 133.706 67.8037 133.608 67.7415 133.505L68.1069 133.248C68.1483 133.303 68.2008 133.365 68.2643 133.435C68.3277 133.506 68.4145 133.568 68.5246 133.619C68.6361 133.673 68.7818 133.699 68.9619 133.699C69.2028 133.699 69.4017 133.641 69.5584 133.524C69.7152 133.408 69.7935 133.225 69.7935 132.976V132.37H69.7547C69.721 132.424 69.6731 132.492 69.6109 132.572C69.55 132.651 69.4619 132.722 69.3466 132.784C69.2326 132.845 69.0785 132.875 68.8841 132.875C68.6432 132.875 68.4268 132.818 68.2351 132.704C68.0447 132.59 67.8938 132.424 67.7823 132.207C67.6722 131.989 67.6172 131.725 67.6172 131.414C67.6172 131.108 67.6709 130.842 67.7785 130.615C67.886 130.387 68.0356 130.211 68.2273 130.087C68.4191 129.961 68.6406 129.898 68.8919 129.898C69.0862 129.898 69.2404 129.931 69.3544 129.995C69.4697 130.059 69.5578 130.131 69.6187 130.213C69.6808 130.293 69.7288 130.359 69.7625 130.411H69.8091V129.937H70.2521V133.007C70.2521 133.264 70.1938 133.472 70.0772 133.633C69.962 133.795 69.8065 133.914 69.6109 133.989C69.4166 134.065 69.2002 134.103 68.9619 134.103ZM68.9463 132.463C69.1303 132.463 69.2857 132.421 69.4127 132.337C69.5396 132.253 69.6361 132.132 69.7022 131.974C69.7683 131.816 69.8013 131.626 69.8013 131.406C69.8013 131.191 69.7689 131.001 69.7042 130.837C69.6394 130.672 69.5435 130.543 69.4166 130.45C69.2896 130.357 69.1329 130.31 68.9463 130.31C68.752 130.31 68.5901 130.359 68.4605 130.458C68.3323 130.556 68.2358 130.689 68.171 130.854C68.1075 131.02 68.0758 131.204 68.0758 131.406C68.0758 131.613 68.1082 131.797 68.1729 131.956C68.239 132.114 68.3362 132.239 68.4644 132.329C68.594 132.419 68.7546 132.463 68.9463 132.463Z" fill="#FF7A00"/>
<rect x="152.577" y="119.537" width="10.944" height="10.944" rx="2.736" fill="#FF7A00"/>
<path d="M157.649 127.373C157.285 127.806 156.619 127.806 156.255 127.373L154.666 125.489C154.513 125.307 154.513 125.042 154.666 124.86C154.861 124.629 155.217 124.629 155.412 124.86L156.255 125.86C156.619 126.293 157.285 126.293 157.649 125.86L160.686 122.259C160.881 122.028 161.237 122.028 161.432 122.259C161.585 122.44 161.585 122.706 161.432 122.887L157.649 127.373Z" fill="#EDEDED"/>
<rect x="14.4089" y="145.074" width="156.408" height="32.832" rx="5.472" fill="#F9FAFB"/>
<rect x="14.4089" y="145.074" width="156.408" height="32.832" rx="5.472" stroke="#EDEDED" stroke-width="0.456"/>
</g>
<defs>
<clipPath id="clip0_5556_4925">
<path d="M7.11304 36.9933C7.11304 27.7117 7.11304 23.0709 8.62936 19.4102C10.6511 14.5293 14.529 10.6514 19.41 8.6296C23.0707 7.11328 27.7115 7.11328 36.993 7.11328H148.233C157.515 7.11328 162.155 7.11328 165.816 8.6296C170.697 10.6514 174.575 14.5293 176.597 19.4102C178.113 23.0709 178.113 27.7117 178.113 36.9933V150.113H7.11304V36.9933Z" fill="white"/>
</clipPath>
</defs>
</svg>
