<svg width="19" height="20" viewBox="0 0 19 20" fill="none" xmlns="http://www.w3.org/2000/svg">
<path d="M1.24711 0.62676C1.02084 0.858017 0.889893 1.21806 0.889893 1.68434V18.316C0.889893 18.7823 1.02084 19.1424 1.24711 19.3736L1.30295 19.4244L10.8486 10.1083V9.88832L1.30295 0.572237L1.24711 0.62676Z" fill="url(#paint0_linear_197_1354)"/>
<path d="M14.0267 13.2152L10.8484 10.1083V9.88831L14.0306 6.78138L14.1019 6.8218L17.8704 8.91534C18.9459 9.50946 18.9459 10.4871 17.8704 11.085L14.1019 13.1748L14.0267 13.2152V13.2152Z" fill="url(#paint1_linear_197_1354)"/>
<path d="M14.1018 13.1748L10.8483 9.99833L1.24683 19.3736C1.60404 19.7403 2.18657 19.7844 2.849 19.4178L14.1018 13.1748" fill="url(#paint2_linear_197_1354)"/>
<path d="M14.1018 6.82186L2.849 0.578865C2.18657 0.215998 1.60404 0.26018 1.24683 0.626807L10.8483 9.99835L14.1018 6.82186Z" fill="url(#paint3_linear_197_1354)"/>
<defs>
<linearGradient id="paint0_linear_197_1354" x1="10.0011" y1="18.4892" x2="-2.61659" y2="5.56583" gradientUnits="userSpaceOnUse">
<stop stop-color="#00A0FF"/>
<stop offset="0.0066" stop-color="#00A1FF"/>
<stop offset="0.2601" stop-color="#00BEFF"/>
<stop offset="0.5122" stop-color="#00D2FF"/>
<stop offset="0.7604" stop-color="#00DFFF"/>
<stop offset="1" stop-color="#00E3FF"/>
</linearGradient>
<linearGradient id="paint1_linear_197_1354" x1="19.2709" y1="9.99724" x2="0.632576" y2="9.99724" gradientUnits="userSpaceOnUse">
<stop stop-color="#FFE000"/>
<stop offset="0.4087" stop-color="#FFBD00"/>
<stop offset="0.7754" stop-color="#FFA500"/>
<stop offset="1" stop-color="#FF9C00"/>
</linearGradient>
<linearGradient id="paint2_linear_197_1354" x1="12.3327" y1="8.27154" x2="-4.77792" y2="-9.25366" gradientUnits="userSpaceOnUse">
<stop stop-color="#FF3A44"/>
<stop offset="1" stop-color="#C31162"/>
</linearGradient>
<linearGradient id="paint3_linear_197_1354" x1="-1.17008" y1="24.9069" x2="6.47057" y2="17.0812" gradientUnits="userSpaceOnUse">
<stop stop-color="#32A071"/>
<stop offset="0.0685" stop-color="#2DA771"/>
<stop offset="0.4762" stop-color="#15CF74"/>
<stop offset="0.8009" stop-color="#06E775"/>
<stop offset="1" stop-color="#00F076"/>
</linearGradient>
</defs>
</svg>
