<svg width="24" height="24" viewBox="0 0 24 24" fill="none" xmlns="http://www.w3.org/2000/svg">
<g clip-path="url(#clip0_4616_2082)">
<path d="M14.707 5.63537L20.364 11.2924C20.5515 11.4799 20.6568 11.7342 20.6568 11.9994C20.6568 12.2645 20.5515 12.5188 20.364 12.7064L14.707 18.3634C14.5184 18.5455 14.2658 18.6463 14.0036 18.644C13.7414 18.6418 13.4906 18.5366 13.3052 18.3512C13.1198 18.1658 13.0146 17.915 13.0123 17.6528C13.01 17.3906 13.1108 17.138 13.293 16.9494L17.243 12.9994H4C3.73478 12.9994 3.48043 12.894 3.29289 12.7065C3.10536 12.5189 3 12.2646 3 11.9994C3 11.7341 3.10536 11.4798 3.29289 11.2923C3.48043 11.1047 3.73478 10.9994 4 10.9994H17.243L13.293 7.04937C13.1975 6.95712 13.1213 6.84677 13.0689 6.72477C13.0165 6.60277 12.9889 6.47155 12.9877 6.33877C12.9866 6.20599 13.0119 6.07431 13.0622 5.95141C13.1125 5.82852 13.1867 5.71686 13.2806 5.62297C13.3745 5.52908 13.4861 5.45483 13.609 5.40454C13.7319 5.35426 13.8636 5.32896 13.9964 5.33012C14.1292 5.33127 14.2604 5.35886 14.3824 5.41126C14.5044 5.46367 14.6148 5.53986 14.707 5.63537Z" fill="#00BFA6"/>
</g>
<defs>
<clipPath id="clip0_4616_2082">
<rect width="24" height="24" fill="white"/>
</clipPath>
</defs>
</svg>
