<svg width="48" height="48" viewBox="0 0 48 48" fill="none" xmlns="http://www.w3.org/2000/svg">
<path d="M24.0001 21.5992C25.9097 21.5992 27.741 20.8407 29.0913 19.4904C30.4416 18.1401 31.2001 16.3088 31.2001 14.3992C31.2001 12.4897 30.4416 10.6583 29.0913 9.30805C27.741 7.95779 25.9097 7.19922 24.0001 7.19922C22.0906 7.19922 20.2592 7.95779 18.909 9.30805C17.5587 10.6583 16.8001 12.4897 16.8001 14.3992C16.8001 16.3088 17.5587 18.1401 18.909 19.4904C20.2592 20.8407 22.0906 21.5992 24.0001 21.5992ZM14.4001 19.1992C14.4001 20.4723 13.8944 21.6932 12.9942 22.5933C12.0941 23.4935 10.8732 23.9992 9.60012 23.9992C8.32708 23.9992 7.10618 23.4935 6.20601 22.5933C5.30584 21.6932 4.80012 20.4723 4.80012 19.1992C4.80012 17.9262 5.30584 16.7053 6.20601 15.8051C7.10618 14.9049 8.32708 14.3992 9.60012 14.3992C10.8732 14.3992 12.0941 14.9049 12.9942 15.8051C13.8944 16.7053 14.4001 17.9262 14.4001 19.1992ZM3.57612 36.7816C3.16641 36.5488 2.85959 36.17 2.71692 35.7208C2.29406 34.3512 2.28962 32.8865 2.70419 31.5144C3.11875 30.1423 3.93345 28.9251 5.04394 28.0187C6.15444 27.1124 7.51019 26.5581 8.93759 26.427C10.365 26.2958 11.799 26.5937 13.0561 27.2824C10.4722 29.8206 8.85517 33.181 8.48412 36.784C8.42972 37.32 8.44972 37.8432 8.54412 38.3536C6.79297 38.1998 5.09699 37.6632 3.57612 36.7816ZM39.4561 38.3512C41.2071 38.1982 42.9031 37.6623 44.4241 36.7816C44.8329 36.5483 45.1388 36.1696 45.2809 35.7208C45.7045 34.3511 45.7094 32.886 45.2951 31.5134C44.8809 30.1408 44.0662 28.9232 42.9556 28.0165C41.8449 27.1098 40.4889 26.5553 39.0611 26.4241C37.6334 26.2929 36.199 26.5909 34.9417 27.28C37.5279 29.8181 39.1467 33.1796 39.5185 36.784C39.5727 37.3075 39.5516 37.8361 39.4561 38.3536M43.2001 19.1992C43.2001 20.4723 42.6944 21.6932 41.7942 22.5933C40.8941 23.4935 39.6732 23.9992 38.4001 23.9992C37.1271 23.9992 35.9062 23.4935 35.006 22.5933C34.1058 21.6932 33.6001 20.4723 33.6001 19.1992C33.6001 17.9262 34.1058 16.7053 35.006 15.8051C35.9062 14.9049 37.1271 14.3992 38.4001 14.3992C39.6732 14.3992 40.8941 14.9049 41.7942 15.8051C42.6944 16.7053 43.2001 17.9262 43.2001 19.1992ZM12.7297 38.8552C12.4924 38.6437 12.3085 38.3791 12.193 38.083C12.0774 37.7868 12.0335 37.4675 12.0649 37.1512C12.3702 34.198 13.7594 31.4627 15.9641 29.4742C18.1688 27.4857 21.0323 26.3851 24.0013 26.3851C26.9703 26.3851 29.8339 27.4857 32.0385 29.4742C34.2432 31.4627 35.6325 34.198 35.9377 37.1512C35.9691 37.4675 35.9252 37.7868 35.8097 38.083C35.6942 38.3791 35.5102 38.6437 35.2729 38.8552C32.1864 41.6549 28.1672 43.2037 24.0001 43.1992C19.8334 43.2054 15.8144 41.6563 12.7297 38.8552Z" fill="white"/>
</svg>
