<svg width="48" height="48" viewBox="0 0 48 48" fill="none" xmlns="http://www.w3.org/2000/svg">
<path d="M24.0006 20.4C25.9102 20.4 27.7415 19.6414 29.0918 18.2912C30.442 16.9409 31.2006 15.1096 31.2006 13.2C31.2006 11.2904 30.442 9.45909 29.0918 8.10883C27.7415 6.75857 25.9102 6 24.0006 6C22.0911 6 20.2597 6.75857 18.9094 8.10883C17.5592 9.45909 16.8006 11.2904 16.8006 13.2C16.8006 15.1096 17.5592 16.9409 18.9094 18.2912C20.2597 19.6414 22.0911 20.4 24.0006 20.4ZM14.4006 18C14.4006 19.273 13.8949 20.4939 12.9947 21.3941C12.0945 22.2943 10.8737 22.8 9.60061 22.8C8.32757 22.8 7.10667 22.2943 6.2065 21.3941C5.30632 20.4939 4.80061 19.273 4.80061 18C4.80061 16.727 5.30632 15.5061 6.2065 14.6059C7.10667 13.7057 8.32757 13.2 9.60061 13.2C10.8737 13.2 12.0945 13.7057 12.9947 14.6059C13.8949 15.5061 14.4006 16.727 14.4006 18ZM3.57661 35.5824C3.1669 35.3496 2.86008 34.9707 2.71741 34.5216C2.29454 33.152 2.29011 31.6873 2.70467 30.3152C3.11924 28.943 3.93394 27.7259 5.04443 26.8195C6.15493 25.9132 7.51068 25.3589 8.93807 25.2278C10.3655 25.0966 11.7995 25.3944 13.0566 26.0832C10.4727 28.6214 8.85566 31.9818 8.48461 35.5848C8.43021 36.1208 8.45021 36.644 8.54461 37.1544C6.79346 37.0006 5.09748 36.464 3.57661 35.5824ZM39.4566 37.152C41.2076 36.9989 42.9035 36.4631 44.4246 35.5824C44.8334 35.3491 45.1393 34.9703 45.2814 34.5216C45.705 33.1518 45.7099 31.6868 45.2956 30.3142C44.8813 28.9416 44.0667 27.724 42.9561 26.8173C41.8454 25.9105 40.4894 25.3561 39.0616 25.2249C37.6339 25.0937 36.1995 25.3917 34.9422 26.0808C37.5284 28.6189 39.1472 31.9804 39.519 35.5848C39.5731 36.1083 39.5521 36.6369 39.4566 37.1544M43.2006 18C43.2006 19.273 42.6949 20.4939 41.7947 21.3941C40.8946 22.2943 39.6736 22.8 38.4006 22.8C37.1276 22.8 35.9067 22.2943 35.0065 21.3941C34.1063 20.4939 33.6006 19.273 33.6006 18C33.6006 16.727 34.1063 15.5061 35.0065 14.6059C35.9067 13.7057 37.1276 13.2 38.4006 13.2C39.6736 13.2 40.8946 13.7057 41.7947 14.6059C42.6949 15.5061 43.2006 16.727 43.2006 18ZM12.7302 37.656C12.4929 37.4445 12.309 37.1799 12.1934 36.8837C12.0779 36.5876 12.034 36.2683 12.0654 35.952C12.3707 32.9988 13.7599 30.2635 15.9646 28.275C18.1693 26.2865 21.0328 25.1858 24.0018 25.1858C26.9708 25.1858 29.8344 26.2865 32.039 28.275C34.2437 30.2635 35.6329 32.9988 35.9382 35.952C35.9696 36.2683 35.9257 36.5876 35.8102 36.8837C35.6946 37.1799 35.5107 37.4445 35.2734 37.656C32.1869 40.4557 28.1677 42.0045 24.0006 42C19.8339 42.0062 15.8149 40.4571 12.7302 37.656Z" fill="white"/>
</svg>
