<svg width="1440" height="1178" viewBox="0 0 1440 1178" fill="none" xmlns="http://www.w3.org/2000/svg">
<g clip-path="url(#clip0_27_4161)">
<g filter="url(#filter0_f_27_4161)">
<circle cx="1298.07" cy="378.5" r="175.5" fill="#8A2BE2"/>
</g>
<g filter="url(#filter1_f_27_4161)">
<ellipse cx="84.6101" cy="643.038" rx="157.812" ry="99.6025" transform="rotate(-31.8411 84.6101 643.038)" fill="#8A2BE2"/>
</g>
<path d="M906.686 386.707C906.647 386.707 906.592 386.707 906.545 386.716C906.187 386.782 905.758 387.114 905.477 387.871C905.181 388.627 905.118 389.706 905.376 390.86C905.641 392.001 906.187 392.984 906.795 393.585C907.387 394.185 907.925 394.349 908.284 394.286C908.658 394.232 909.072 393.889 909.352 393.14C909.648 392.389 909.726 391.295 909.461 390.15C909.188 388.996 908.65 388.022 908.042 387.426C907.528 386.895 907.052 386.707 906.686 386.707V386.707ZM915.684 396.805C914.826 396.828 913.742 397.055 912.689 397.499C911.473 398.029 910.537 398.739 910.023 399.409C909.508 400.056 909.461 400.548 909.625 400.836C909.797 401.125 910.272 401.398 911.185 401.437C912.097 401.491 913.329 401.265 914.537 400.75C915.746 400.228 916.697 399.511 917.212 398.856C917.726 398.208 917.765 397.702 917.602 397.413C917.438 397.117 916.955 396.86 916.042 396.828C915.917 396.805 915.808 396.805 915.684 396.805V396.805ZM905.056 404.049C904.541 404.056 904.073 404.119 903.652 404.228C902.732 404.462 902.202 404.883 902.031 405.39C901.836 405.897 902.031 406.505 902.639 407.16C903.278 407.799 904.331 408.415 905.641 408.758C906.943 409.101 908.198 409.093 909.134 408.844C910.077 408.602 910.608 408.173 910.779 407.674C910.958 407.168 910.779 406.567 910.148 405.904C909.532 405.265 908.479 404.649 907.169 404.314C906.428 404.119 905.703 404.041 905.056 404.049V404.049ZM917.586 408.579L912.767 410.863C913.095 410.879 913.914 410.902 913.914 410.902L914.428 411.581L918.693 409.359L917.586 408.579V408.579ZM913.337 408.587L908.861 410.707C909.29 410.731 910.303 410.746 910.709 410.77L914.592 408.93L913.337 408.587ZM920.557 409.429L915.06 412.345L916.19 413.803L921.999 410.325L920.557 409.429V409.429ZM898.818 410.138C898.582 410.138 898.347 410.164 898.116 410.216C892.541 411.503 889.251 411.612 888.276 411.612H887.972V419.994C887.972 419.994 888.877 419.861 890.382 419.854C893.29 419.854 898.413 420.353 903.403 423.269C903.668 423.433 904.237 423.495 904.947 423.495C906.841 423.495 909.719 423.043 910.381 422.793C917.056 420.29 925.087 413.421 925.087 413.421L922.553 411.207C922.553 411.207 916.331 415.175 915.543 415.557C908.44 419.043 902.686 416.867 902.686 416.867C902.686 416.867 912.034 417.101 915.036 414.739L913.274 412.088C913.274 412.088 906.818 411.908 904.518 411.604C903.317 411.448 900.721 410.138 898.818 410.138V410.138Z" fill="#7750A1"/>
<path d="M1096.74 1008.98C1089.13 1007 1086.69 1004.95 1086.69 1001.77C1086.69 998.114 1090.07 995.566 1095.74 995.566C1101.71 995.566 1103.92 998.416 1104.12 1002.61H1111.53C1111.29 996.84 1107.77 991.543 1100.77 989.833V982.49H1090.71V989.732C1084.2 991.141 1078.97 995.365 1078.97 1001.84C1078.97 1009.58 1085.38 1013.44 1094.73 1015.68C1103.11 1017.7 1104.79 1020.65 1104.79 1023.76C1104.79 1026.08 1103.15 1029.77 1095.74 1029.77C1088.83 1029.77 1086.12 1026.68 1085.75 1022.72H1078.37C1078.77 1030.07 1084.27 1034.19 1090.71 1035.57V1042.84H1100.77V1035.63C1107.31 1034.39 1112.5 1030.6 1112.5 1023.73C1112.5 1014.21 1104.35 1010.96 1096.74 1008.98Z" fill="#7750A1"/>
<path d="M730.736 424.875C725.857 424.875 721.902 420.92 721.902 416.042C721.902 411.163 725.857 407.208 730.736 407.208C735.614 407.208 739.569 411.163 739.569 416.042C739.569 420.92 735.614 424.875 730.736 424.875ZM727.644 417.808V419.575H729.852V421.341H731.619V419.575H732.502C733.088 419.575 733.65 419.342 734.064 418.928C734.478 418.514 734.711 417.952 734.711 417.367C734.711 416.781 734.478 416.219 734.064 415.805C733.65 415.391 733.088 415.158 732.502 415.158H728.969C728.852 415.158 728.74 415.112 728.657 415.029C728.574 414.946 728.527 414.834 728.527 414.717C728.527 414.599 728.574 414.487 728.657 414.404C728.74 414.321 728.852 414.275 728.969 414.275H733.827V412.508H731.619V410.742H729.852V412.508H728.969C728.383 412.508 727.822 412.741 727.407 413.155C726.993 413.569 726.761 414.131 726.761 414.717C726.761 415.302 726.993 415.864 727.407 416.278C727.822 416.692 728.383 416.925 728.969 416.925H732.502C732.619 416.925 732.732 416.971 732.815 417.054C732.897 417.137 732.944 417.249 732.944 417.367C732.944 417.484 732.897 417.596 732.815 417.679C732.732 417.762 732.619 417.808 732.502 417.808H727.644Z" fill="#7750A1"/>
<g filter="url(#filter2_d_27_4161)">
<path d="M1134.49 294.534C1134.12 294.312 1133.76 294.092 1133.39 293.873C1131.62 292.816 1129.79 291.781 1127.94 290.757L1127.08 293.37C1129.1 294.293 1131.26 295.38 1133.37 296.546C1134.52 297.177 1135.65 297.825 1136.72 298.481C1139.95 300.449 1142.73 302.492 1144.2 304.395L1144.83 305.209L1143.98 305.79C1137.77 310.033 1133.74 315.311 1130.82 321.11C1134.99 314.654 1141.26 310.448 1149.37 305.107C1144.97 301.351 1139.95 297.85 1134.49 294.533L1134.49 294.534ZM1134.92 299.672C1134.11 299.187 1133.28 298.708 1132.44 298.244C1128.5 296.075 1124.4 294.217 1121.59 293.229C1121.26 300.086 1120.39 306.633 1118.8 312.568C1118.99 312.671 1119.17 312.782 1119.35 312.9C1119.71 313.141 1120.04 313.412 1120.35 313.707C1121.73 308.07 1122.67 302.677 1123.2 297.043L1123.32 295.77L1124.52 296.229C1127.52 297.382 1130.42 298.881 1133.09 300.483C1133.26 300.59 1133.44 300.698 1133.62 300.805C1135.3 301.839 1136.87 302.908 1138.31 303.95L1139.27 304.653L1138.38 305.454C1133.24 310.096 1129.22 315.994 1126.7 322.387C1126.71 322.411 1126.71 322.436 1126.72 322.461C1127.15 322.55 1127.55 322.622 1127.94 322.673C1130.92 315.994 1135.13 309.781 1141.99 304.825C1140.65 303.464 1138.36 301.794 1135.72 300.159C1135.45 299.995 1135.19 299.833 1134.92 299.672L1134.92 299.672ZM1147.88 308.413C1141.38 312.741 1136.43 316.367 1132.95 321.401C1138.51 316.35 1145.41 312.977 1151.63 311.88C1150.42 310.676 1149.18 309.519 1147.88 308.413V308.413ZM1119.63 293.722C1117.69 293.036 1115.72 292.471 1113.71 292.111C1114.09 293.281 1114.76 295.432 1115.47 298.191C1116.77 297.848 1118.09 297.524 1119.39 297.296C1119.49 296.106 1119.57 294.915 1119.63 293.722V293.722ZM1132.32 302.31C1131.07 301.546 1129.76 300.807 1128.42 300.118C1127.52 301.3 1126.06 302.031 1124.47 302.655C1123.87 306.879 1123.03 311.054 1121.94 315.368C1123.33 316.889 1124.65 318.492 1125.59 320.019C1127.44 315.796 1129.93 311.823 1132.95 308.292C1132.5 306.347 1132.7 304.61 1133.56 303.08C1133.15 302.819 1132.74 302.562 1132.32 302.31V302.31ZM1147.62 314.92C1143.71 316.249 1139.66 318.424 1136.07 321.282C1140.74 319.219 1145.52 318.292 1150 318.304C1149.22 317.165 1148.43 316.037 1147.62 314.92V314.92ZM1119.2 299.303C1117.12 299.708 1114.91 300.367 1112.69 300.924C1114.6 304.49 1115.87 308.117 1116.51 311.74C1116.67 311.769 1116.83 311.803 1116.98 311.842C1118.02 307.927 1118.75 303.719 1119.2 299.303ZM1133.8 323.792C1131.19 324.707 1129.19 324.812 1126.76 324.4C1126.47 325.384 1125.55 326.163 1124.35 326.456C1123.64 326.628 1122.78 326.793 1121.77 326.627C1121.84 326.767 1121.92 326.905 1122.01 327.04C1122.81 328.297 1124.93 329.328 1127.32 329.604C1129.7 329.88 1132.25 329.418 1133.76 328.305C1134.58 327.657 1134.62 327.088 1134.46 326.122C1134.35 325.435 1134.06 324.637 1133.8 323.792L1133.8 323.792ZM1118.08 314.39C1117.09 313.785 1115.92 313.465 1114.71 313.589C1112.99 313.766 1111.13 314.802 1109.5 317.487L1109.49 317.506L1109.48 317.523C1105.8 323.026 1104.64 325.891 1104.61 327.806C1104.59 329.497 1105.44 330.828 1106.55 332.999C1106.77 332.828 1107.02 332.608 1107.31 332.313C1108.05 331.563 1108.95 330.464 1109.86 329.198C1111.69 326.668 1113.58 323.451 1114.6 320.927L1115.14 319.593L1116.17 320.593C1118.68 323.022 1120.31 324.107 1121.38 324.519C1122.45 324.932 1122.98 324.792 1123.89 324.571C1124.74 324.364 1124.85 324.168 1124.91 323.802C1124.98 323.436 1124.82 322.671 1124.33 321.737C1123.36 319.87 1121.26 317.421 1119.21 315.296C1118.87 314.948 1118.49 314.644 1118.08 314.39V314.39ZM1131.67 331.31C1130.2 331.653 1128.62 331.707 1127.1 331.531C1124.63 331.245 1122.26 330.364 1120.84 328.713C1120.08 328.57 1119.56 328.618 1119.24 328.729C1118.81 328.881 1118.66 329.094 1118.55 329.465C1118.44 329.835 1118.47 330.367 1118.62 330.828C1118.76 331.29 1119.05 331.656 1119.19 331.748C1123.38 334.555 1126 334.441 1129.19 334.407C1130.13 334.397 1130.9 333.704 1131.34 332.817C1131.57 332.373 1131.68 331.901 1131.69 331.564C1131.69 331.479 1131.69 331.393 1131.67 331.31V331.31ZM1115.82 322.909C1114.68 325.374 1113.06 328.076 1111.43 330.333C1110.48 331.654 1109.54 332.812 1108.69 333.673C1108.32 334.048 1107.97 334.367 1107.63 334.625L1121.53 342.185C1121.72 341.525 1121.9 340.861 1122.09 340.197C1121.47 340.057 1120.85 339.873 1120.25 339.647L1120.22 339.717L1119.42 339.302C1118.91 339.074 1118.4 338.809 1117.89 338.505L1109.86 334.323L1110.74 333.391C1113.53 330.417 1115.41 327.451 1116.94 323.889C1116.56 323.57 1116.19 323.243 1115.82 322.909L1115.82 322.909ZM1118.51 325.119C1117.1 328.286 1115.37 331.072 1113 333.771L1114.84 334.732C1114.81 334.152 1114.9 333.573 1115.1 333.029C1115.37 332.322 1115.86 331.655 1116.63 331.321C1116.66 331.306 1116.69 331.293 1116.73 331.28C1116.51 330.541 1116.46 329.724 1116.69 328.925C1116.93 328.074 1117.6 327.25 1118.6 326.898C1118.93 326.782 1119.29 326.713 1119.67 326.689C1119.55 326.352 1119.46 326.021 1119.41 325.699C1119.12 325.531 1118.83 325.338 1118.51 325.119V325.119ZM1128.43 336.352C1125.48 336.363 1122.29 336.155 1118.11 333.36C1117.97 333.268 1117.85 333.165 1117.73 333.052C1117.58 333.034 1117.48 333.062 1117.4 333.099C1117.24 333.17 1117.05 333.364 1116.92 333.705C1116.67 334.386 1116.84 335.405 1117.34 335.793C1120.9 338.538 1124.29 338.878 1126.77 338.39C1127.91 338.165 1128.17 337.74 1128.34 337.209C1128.43 336.943 1128.45 336.645 1128.43 336.352V336.352ZM1125.09 340.508C1124.74 340.514 1124.38 340.505 1124.03 340.481C1123.85 341.131 1123.66 341.782 1123.48 342.431L1125.51 343.209C1125.28 342.518 1125.17 341.873 1125.12 341.275C1125.1 341.007 1125.09 340.755 1125.09 340.508Z" fill="#7750A1"/>
</g>
<path d="M472.454 1026.08C472.211 1026.19 471.968 1026.31 471.724 1026.43C470.553 1027.01 469.375 1027.62 468.194 1028.25L469.284 1029.6C470.467 1028.85 471.79 1028.08 473.137 1027.36C473.867 1026.97 474.6 1026.6 475.319 1026.25C477.476 1025.22 479.516 1024.45 481.034 1024.32L481.683 1024.27L481.698 1024.92C481.808 1029.68 483.22 1033.64 485.29 1037.18C483.303 1032.75 483.231 1027.97 483.194 1021.83C479.685 1022.87 476.097 1024.32 472.454 1026.08L472.454 1026.08ZM475.328 1027.62C474.793 1027.88 474.252 1028.16 473.716 1028.44C471.208 1029.78 468.807 1031.32 467.315 1032.47C470.839 1035.01 474.014 1037.73 476.614 1040.62C476.733 1040.55 476.854 1040.5 476.977 1040.44C477.229 1040.34 477.489 1040.25 477.753 1040.19C475.236 1037.51 472.701 1035.15 469.895 1032.93L469.261 1032.43L469.916 1031.95C471.561 1030.76 473.359 1029.73 475.127 1028.87C475.245 1028.81 475.363 1028.76 475.48 1028.7C476.609 1028.17 477.72 1027.7 478.765 1027.3L479.472 1027.03L479.591 1027.78C480.278 1032.11 482.023 1036.27 484.546 1039.81C484.561 1039.82 484.577 1039.82 484.592 1039.83C484.786 1039.63 484.965 1039.44 485.125 1039.25C482.611 1035.37 480.764 1030.99 480.501 1025.64C479.315 1025.89 477.639 1026.53 475.862 1027.37C475.683 1027.45 475.506 1027.53 475.328 1027.62L475.328 1027.62ZM484.436 1023.75C484.491 1028.7 484.708 1032.57 486.176 1036.16C485.415 1031.46 486.006 1026.64 487.565 1022.97C486.512 1023.19 485.468 1023.45 484.436 1023.75V1023.75ZM466.902 1033.68C465.867 1034.47 464.89 1035.32 464.005 1036.27C464.757 1036.47 466.127 1036.86 467.838 1037.43C468.105 1036.62 468.386 1035.81 468.714 1035.04C468.117 1034.58 467.513 1034.12 466.902 1033.68V1033.68ZM475.833 1029.91C474.996 1030.31 474.153 1030.75 473.324 1031.22C473.641 1032.11 473.527 1033.13 473.309 1034.19C475.342 1035.97 477.267 1037.85 479.18 1039.92C480.468 1039.7 481.774 1039.55 482.906 1039.59C481.305 1037.15 480.055 1034.46 479.223 1031.64C478.036 1031.2 477.185 1030.5 476.667 1029.52C476.388 1029.64 476.11 1029.77 475.833 1029.91V1029.91ZM487.798 1026.14C487.154 1028.67 486.911 1031.57 487.19 1034.46C487.706 1031.27 488.861 1028.42 490.412 1026.04C489.54 1026.06 488.669 1026.09 487.798 1026.14V1026.14ZM469.714 1035.83C469.212 1037.07 468.799 1038.47 468.328 1039.85C470.879 1040.06 473.243 1040.64 475.385 1041.55C475.455 1041.47 475.527 1041.4 475.601 1041.33C473.882 1039.43 471.9 1037.6 469.714 1035.83ZM487.741 1036.53C487.325 1038.23 486.69 1039.33 485.635 1040.47C486.056 1040.97 486.154 1041.72 485.894 1042.46C485.741 1042.9 485.532 1043.41 485.095 1043.89C485.196 1043.9 485.297 1043.9 485.398 1043.9C486.34 1043.91 487.62 1043.14 488.589 1041.97C489.555 1040.8 490.19 1039.29 490.121 1038.1C490.057 1037.45 489.77 1037.23 489.203 1036.98C488.8 1036.81 488.277 1036.68 487.741 1036.53L487.741 1036.53ZM477.33 1041.63C476.67 1041.94 476.095 1042.46 475.745 1043.14C475.247 1044.11 475.154 1045.46 476.017 1047.25L476.023 1047.26L476.028 1047.27C477.678 1051.12 478.799 1052.72 479.806 1053.4C480.694 1054 481.694 1054 483.229 1054.16C483.213 1053.99 483.184 1053.78 483.127 1053.52C482.984 1052.87 482.711 1052.01 482.354 1051.09C481.641 1049.25 480.587 1047.14 479.599 1045.73L479.077 1044.98L479.964 1044.78C482.119 1044.28 483.254 1043.8 483.842 1043.37C484.431 1042.94 484.54 1042.61 484.736 1042.06C484.92 1041.53 484.852 1041.41 484.681 1041.25C484.509 1041.09 484.049 1040.91 483.386 1040.84C482.058 1040.72 480.037 1040.98 478.201 1041.34C477.899 1041.4 477.607 1041.5 477.33 1041.63V1041.63ZM490.993 1040.25C490.669 1041.15 490.152 1042.01 489.534 1042.75C488.532 1043.96 487.247 1044.92 485.883 1045.1C485.544 1045.46 485.389 1045.75 485.339 1045.96C485.27 1046.24 485.332 1046.39 485.491 1046.58C485.651 1046.76 485.941 1046.93 486.238 1047.01C486.534 1047.09 486.827 1047.07 486.923 1047.02C489.858 1045.77 490.7 1044.34 491.783 1042.63C492.099 1042.13 491.997 1041.49 491.68 1040.94C491.522 1040.67 491.311 1040.45 491.136 1040.33C491.091 1040.3 491.043 1040.27 490.993 1040.25V1040.25ZM481.074 1045.76C481.988 1047.22 482.862 1049.01 483.498 1050.65C483.871 1051.61 484.161 1052.51 484.325 1053.26C484.397 1053.58 484.446 1053.88 484.463 1054.15L493.266 1049.38C492.981 1049.05 492.693 1048.73 492.406 1048.4C492.116 1048.68 491.807 1048.94 491.481 1049.18L491.505 1049.23L491.011 1049.51C490.715 1049.7 490.398 1049.88 490.06 1050.04L485.073 1052.86L484.881 1052.07C484.265 1049.57 483.34 1047.55 481.977 1045.51C481.678 1045.6 481.376 1045.68 481.074 1045.76L481.074 1045.76ZM483.174 1045.1C484.367 1046.94 485.246 1048.82 485.862 1051.01L487.008 1050.36C486.69 1050.17 486.413 1049.93 486.194 1049.63C485.909 1049.25 485.725 1048.76 485.813 1048.24C485.816 1048.21 485.822 1048.19 485.827 1048.17C485.361 1048.03 484.907 1047.78 484.563 1047.38C484.196 1046.95 483.987 1046.32 484.147 1045.66C484.199 1045.45 484.286 1045.24 484.406 1045.02C484.184 1044.97 483.978 1044.91 483.789 1044.82C483.601 1044.92 483.397 1045.01 483.174 1045.1V1045.1ZM492.553 1043.71C491.539 1045.28 490.329 1046.9 487.406 1048.15C487.311 1048.19 487.212 1048.22 487.111 1048.25C487.052 1048.32 487.032 1048.38 487.023 1048.44C487.004 1048.55 487.042 1048.72 487.179 1048.9C487.453 1049.27 488.054 1049.53 488.433 1049.4C491.114 1048.46 492.464 1046.78 493.059 1045.29C493.333 1044.61 493.199 1044.32 492.976 1044.05C492.865 1043.91 492.712 1043.8 492.553 1043.71V1043.71ZM493.605 1046.91C493.486 1047.1 493.36 1047.29 493.226 1047.47C493.507 1047.79 493.789 1048.11 494.069 1048.43L495.184 1047.62C494.738 1047.5 494.356 1047.34 494.022 1047.16C493.874 1047.08 493.737 1047 493.605 1046.91Z" fill="#7750A1"/>
<path d="M324.789 456.926C324.62 457.007 324.45 457.09 324.281 457.173C323.464 457.575 322.643 458 321.82 458.439L322.579 459.385C323.404 458.862 324.326 458.323 325.265 457.821C325.774 457.549 326.285 457.288 326.786 457.048C328.29 456.327 329.712 455.792 330.77 455.704L331.223 455.667L331.233 456.12C331.309 459.437 332.294 462.195 333.737 464.669C332.352 461.574 332.301 458.247 332.276 453.963C329.83 454.687 327.329 455.702 324.789 456.926L324.789 456.926ZM326.793 458.001C326.419 458.183 326.042 458.376 325.669 458.575C323.921 459.509 322.247 460.581 321.207 461.382C323.664 463.151 325.876 465.046 327.689 467.06C327.772 467.016 327.856 466.976 327.942 466.939C328.118 466.864 328.299 466.805 328.483 466.761C326.728 464.898 324.961 463.252 323.005 461.702L322.564 461.351L323.02 461.02C324.167 460.189 325.42 459.473 326.653 458.874C326.735 458.834 326.817 458.795 326.899 458.756C327.685 458.382 328.46 458.056 329.189 457.777L329.681 457.589L329.764 458.109C330.243 461.129 331.46 464.031 333.218 466.5C333.229 466.503 333.24 466.507 333.251 466.51C333.386 466.374 333.51 466.241 333.622 466.11C331.869 463.401 330.582 460.353 330.398 456.624C329.572 456.794 328.404 457.24 327.165 457.823C327.04 457.882 326.916 457.941 326.793 458.001L326.793 458.001ZM333.141 455.307C333.18 458.752 333.331 461.454 334.355 463.953C333.824 460.681 334.236 457.317 335.323 454.756C334.589 454.911 333.861 455.095 333.141 455.307V455.307ZM320.919 462.224C320.198 462.779 319.516 463.37 318.9 464.028C319.424 464.168 320.379 464.439 321.572 464.837C321.758 464.273 321.954 463.71 322.182 463.174C321.766 462.851 321.345 462.534 320.919 462.224V462.224ZM327.145 459.595C326.561 459.875 325.973 460.181 325.395 460.513C325.617 461.128 325.537 461.843 325.385 462.582C326.802 463.82 328.145 465.134 329.478 466.574C330.376 466.424 331.286 466.32 332.075 466.343C330.959 464.641 330.088 462.766 329.508 460.801C328.68 460.499 328.087 460.007 327.726 459.324C327.531 459.412 327.338 459.502 327.145 459.595V459.595ZM335.485 456.968C335.036 458.734 334.867 460.755 335.061 462.769C335.421 460.546 336.226 458.557 337.307 456.902C336.7 456.915 336.092 456.937 335.485 456.968V456.968ZM322.879 463.725C322.529 464.592 322.242 465.568 321.913 466.524C323.692 466.674 325.339 467.074 326.833 467.708C326.881 467.657 326.931 467.607 326.983 467.56C325.785 466.235 324.403 464.955 322.879 463.725ZM335.445 464.21C335.155 465.396 334.712 466.164 333.977 466.961C334.271 467.306 334.339 467.832 334.158 468.348C334.051 468.651 333.905 469.008 333.601 469.343C333.671 469.348 333.741 469.352 333.812 469.352C334.468 469.359 335.361 468.821 336.036 468.005C336.71 467.191 337.152 466.137 337.104 465.31C337.06 464.853 336.859 464.701 336.464 464.527C336.183 464.404 335.819 464.319 335.445 464.21L335.445 464.21ZM328.188 467.767C327.728 467.986 327.327 468.344 327.083 468.82C326.736 469.497 326.671 470.435 327.273 471.683L327.277 471.691L327.281 471.7C328.431 474.384 329.212 475.501 329.914 475.971C330.533 476.387 331.23 476.391 332.3 476.502C332.289 476.38 332.268 476.234 332.229 476.056C332.129 475.603 331.939 475.006 331.69 474.364C331.193 473.081 330.458 471.608 329.77 470.625L329.406 470.105L330.024 469.963C331.526 469.617 332.317 469.278 332.728 468.981C333.138 468.683 333.214 468.453 333.351 468.064C333.479 467.699 333.431 467.613 333.312 467.5C333.193 467.388 332.872 467.263 332.409 467.219C331.484 467.131 330.075 467.317 328.795 467.567C328.585 467.608 328.381 467.676 328.188 467.767V467.767ZM337.712 466.807C337.486 467.432 337.126 468.03 336.695 468.55C335.997 469.394 335.101 470.06 334.15 470.186C333.914 470.434 333.806 470.639 333.771 470.782C333.723 470.979 333.766 471.086 333.877 471.215C333.988 471.344 334.191 471.462 334.397 471.518C334.604 471.574 334.808 471.556 334.875 471.527C336.921 470.65 337.508 469.656 338.263 468.466C338.483 468.119 338.412 467.667 338.191 467.289C338.081 467.1 337.934 466.943 337.812 466.859C337.781 466.838 337.747 466.82 337.712 466.807V466.807ZM330.798 470.647C331.435 471.662 332.044 472.911 332.488 474.055C332.747 474.725 332.95 475.351 333.064 475.872C333.114 476.098 333.148 476.304 333.161 476.494L339.296 473.171C339.098 472.943 338.898 472.714 338.697 472.485C338.495 472.682 338.28 472.865 338.052 473.032L338.069 473.062L337.724 473.257C337.518 473.39 337.298 473.515 337.062 473.631L333.586 475.595L333.451 475.048C333.023 473.301 332.377 471.893 331.427 470.471C331.219 470.534 331.009 470.593 330.798 470.647L330.798 470.647ZM332.262 470.183C333.093 471.466 333.706 472.779 334.136 474.302L334.934 473.851C334.713 473.723 334.519 473.551 334.367 473.346C334.168 473.079 334.04 472.737 334.101 472.373C334.104 472.356 334.107 472.341 334.111 472.325C333.786 472.226 333.47 472.052 333.23 471.774C332.974 471.478 332.829 471.035 332.94 470.58C332.977 470.429 333.037 470.28 333.121 470.132C332.966 470.097 332.822 470.05 332.69 469.993C332.56 470.058 332.417 470.121 332.262 470.183V470.183ZM338.8 469.214C338.093 470.31 337.25 471.44 335.212 472.313C335.145 472.342 335.076 472.364 335.006 472.381C334.965 472.43 334.951 472.474 334.945 472.513C334.932 472.591 334.958 472.708 335.054 472.836C335.244 473.094 335.664 473.274 335.928 473.181C337.796 472.528 338.737 471.355 339.152 470.321C339.343 469.845 339.25 469.645 339.095 469.454C339.017 469.358 338.911 469.281 338.8 469.214V469.214ZM339.533 471.45C339.45 471.582 339.362 471.711 339.269 471.835C339.465 472.06 339.661 472.284 339.857 472.509L340.634 471.942C340.323 471.861 340.056 471.75 339.824 471.623C339.72 471.566 339.625 471.508 339.533 471.45Z" fill="#7750A1"/>
<g filter="url(#filter3_d_27_4161)">
<path d="M1232.44 756.756C1232.06 756.569 1231.68 756.382 1231.29 756.197C1229.43 755.304 1227.52 754.437 1225.58 753.584L1224.96 756.263C1227.05 757.001 1229.3 757.889 1231.51 758.86C1232.71 759.386 1233.89 759.93 1235.02 760.487C1238.42 762.157 1241.36 763.942 1243 765.705L1243.7 766.459L1242.91 767.113C1237.1 771.898 1233.57 777.517 1231.18 783.555C1234.76 776.749 1240.62 771.998 1248.22 765.949C1243.5 762.603 1238.18 759.568 1232.44 756.756L1232.44 756.756ZM1233.33 761.835C1232.49 761.424 1231.61 761.022 1230.73 760.636C1226.62 758.829 1222.37 757.348 1219.48 756.617C1219.77 763.475 1219.49 770.074 1218.44 776.127C1218.64 776.214 1218.83 776.308 1219.01 776.409C1219.39 776.618 1219.75 776.857 1220.09 777.122C1220.95 771.385 1221.41 765.929 1221.43 760.27L1221.44 758.992L1222.67 759.342C1225.76 760.22 1228.79 761.451 1231.58 762.808C1231.77 762.899 1231.95 762.99 1232.14 763.081C1233.91 763.959 1235.57 764.882 1237.09 765.791L1238.12 766.405L1237.3 767.282C1232.59 772.368 1229.13 778.603 1227.19 785.197C1227.2 785.221 1227.21 785.245 1227.22 785.269C1227.65 785.319 1228.06 785.355 1228.45 785.37C1230.82 778.451 1234.45 771.885 1240.84 766.331C1239.38 765.097 1236.95 763.64 1234.17 762.249C1233.89 762.109 1233.61 761.971 1233.33 761.835L1233.33 761.835ZM1247.03 769.375C1240.95 774.271 1236.34 778.327 1233.32 783.653C1238.41 778.123 1244.98 774.143 1251.07 772.492C1249.77 771.4 1248.42 770.36 1247.03 769.375V769.375ZM1217.57 757.284C1215.57 756.776 1213.57 756.389 1211.53 756.212C1212.01 757.343 1212.87 759.425 1213.83 762.108C1215.1 761.65 1216.38 761.21 1217.65 760.865C1217.65 759.671 1217.62 758.477 1217.57 757.284V757.284ZM1230.99 764.695C1229.67 764.048 1228.3 763.429 1226.9 762.864C1226.11 764.121 1224.73 764.981 1223.2 765.746C1222.97 770.006 1222.51 774.24 1221.82 778.634C1223.34 780.025 1224.8 781.501 1225.87 782.939C1227.34 778.566 1229.46 774.385 1232.15 770.597C1231.53 768.7 1231.57 766.952 1232.28 765.352C1231.85 765.128 1231.42 764.909 1230.99 764.695V764.695ZM1247.36 775.88C1243.58 777.555 1239.74 780.085 1236.42 783.255C1240.89 780.78 1245.56 779.427 1250.03 779.036C1249.15 777.971 1248.26 776.919 1247.36 775.88V775.88ZM1217.65 762.88C1215.61 763.471 1213.47 764.326 1211.3 765.081C1213.53 768.461 1215.13 771.958 1216.09 775.509C1216.25 775.524 1216.41 775.544 1216.56 775.569C1217.25 771.576 1217.59 767.32 1217.65 762.88ZM1234.39 785.958C1231.87 787.104 1229.88 787.389 1227.43 787.196C1227.23 788.202 1226.39 789.061 1225.21 789.461C1224.52 789.696 1223.68 789.937 1222.66 789.863C1222.75 789.996 1222.84 790.126 1222.94 790.253C1223.85 791.433 1226.06 792.268 1228.46 792.329C1230.85 792.39 1233.35 791.701 1234.76 790.456C1235.51 789.737 1235.5 789.167 1235.25 788.219C1235.08 787.545 1234.72 786.776 1234.39 785.958L1234.39 785.958ZM1217.88 778.007C1216.85 777.494 1215.65 777.281 1214.46 777.513C1212.77 777.844 1211 779.043 1209.62 781.863L1209.61 781.883L1209.6 781.902C1206.43 787.713 1205.53 790.67 1205.68 792.581C1205.81 794.267 1206.77 795.515 1208.08 797.578C1208.28 797.388 1208.51 797.146 1208.77 796.826C1209.44 796.013 1210.24 794.837 1211.03 793.495C1212.62 790.811 1214.22 787.436 1215.01 784.831L1215.42 783.454L1216.54 784.357C1219.26 786.55 1220.98 787.485 1222.08 787.8C1223.19 788.114 1223.7 787.926 1224.59 787.625C1225.42 787.342 1225.51 787.137 1225.54 786.767C1225.57 786.396 1225.34 785.649 1224.77 784.763C1223.64 782.99 1221.33 780.74 1219.09 778.809C1218.72 778.493 1218.32 778.223 1217.88 778.007V778.007ZM1232.94 793.637C1231.51 794.111 1229.94 794.307 1228.41 794.268C1225.93 794.205 1223.48 793.541 1221.93 792.024C1221.15 791.95 1220.64 792.045 1220.33 792.184C1219.91 792.374 1219.78 792.6 1219.71 792.979C1219.64 793.358 1219.71 793.885 1219.9 794.331C1220.09 794.777 1220.41 795.116 1220.55 795.195C1224.98 797.614 1227.58 797.266 1230.76 796.944C1231.68 796.85 1232.39 796.091 1232.75 795.167C1232.93 794.706 1233.01 794.224 1232.99 793.888C1232.98 793.803 1232.97 793.718 1232.94 793.637V793.637ZM1216.41 786.695C1215.49 789.253 1214.12 792.089 1212.7 794.483C1211.87 795.885 1211.04 797.123 1210.27 798.057C1209.94 798.463 1209.62 798.812 1209.3 799.1L1223.82 805.38C1223.95 804.706 1224.07 804.028 1224.2 803.35C1223.57 803.266 1222.94 803.138 1222.32 802.967L1222.29 803.04L1221.46 802.698C1220.94 802.517 1220.4 802.299 1219.87 802.042L1211.49 798.599L1212.28 797.591C1214.79 794.379 1216.4 791.256 1217.6 787.571C1217.2 787.287 1216.8 786.995 1216.41 786.695L1216.41 786.695ZM1219.28 788.654C1218.16 791.935 1216.68 794.866 1214.57 797.767L1216.49 798.558C1216.41 797.984 1216.44 797.398 1216.6 796.838C1216.8 796.111 1217.23 795.403 1217.96 795.001C1217.99 794.983 1218.03 794.967 1218.06 794.951C1217.78 794.234 1217.65 793.425 1217.81 792.609C1217.97 791.739 1218.56 790.859 1219.53 790.419C1219.85 790.273 1220.2 790.172 1220.58 790.113C1220.43 789.789 1220.31 789.467 1220.22 789.152C1219.93 789.009 1219.61 788.844 1219.28 788.654V788.654ZM1230.17 798.949C1227.23 799.226 1224.03 799.306 1219.62 796.898C1219.48 796.819 1219.34 796.728 1219.21 796.625C1219.07 796.621 1218.97 796.658 1218.89 796.702C1218.73 796.788 1218.56 796.998 1218.47 797.348C1218.28 798.049 1218.54 799.049 1219.08 799.39C1222.86 801.804 1226.27 801.839 1228.69 801.129C1229.81 800.803 1230.04 800.356 1230.16 799.811C1230.22 799.539 1230.21 799.241 1230.17 798.949V798.949ZM1227.22 803.389C1226.87 803.427 1226.51 803.45 1226.16 803.458C1226.03 804.122 1225.91 804.786 1225.78 805.45L1227.88 806.041C1227.59 805.374 1227.42 804.742 1227.32 804.15C1227.27 803.886 1227.24 803.635 1227.22 803.389Z" fill="#7750A1"/>
</g>
<path d="M1253.42 472.852L1232.62 458.731C1231.18 457.761 1230.81 455.796 1231.78 454.365L1241 440.775C1241.58 439.93 1242.5 439.414 1243.56 439.38L1261.11 439.132L1267.36 455.53C1267.77 456.471 1267.59 457.581 1267.01 458.426L1257.79 472.016C1256.82 473.447 1254.85 473.823 1253.42 472.852Z" fill="#5A2E8A"/>
<path d="M1254.17 435.369L1267.17 444.195L1253.49 464.352L1240.49 455.527L1254.17 435.369Z" fill="#AED581"/>
<path d="M1253.96 434.278L1239.4 455.736L1253.7 465.444L1268.26 443.986L1253.96 434.278ZM1253.28 463.261L1241.58 455.318L1254.38 436.461L1266.08 444.404L1253.28 463.261Z" fill="#558B2F"/>
<path d="M1266.29 445.495C1265.54 446.601 1264.77 447.314 1263.67 446.563C1262.56 445.813 1262.29 444.394 1263.04 443.289C1263.79 442.184 1264.77 442.562 1265.87 443.312C1266.98 444.062 1267.04 444.39 1266.29 445.495ZM1255.47 436.252C1256.57 437.002 1257.29 437.771 1256.54 438.876C1255.79 439.982 1254.37 440.253 1253.26 439.503C1252.16 438.753 1252.53 437.775 1253.28 436.67C1254.04 435.564 1254.36 435.502 1255.47 436.252Z" fill="#558B2F"/>
<path d="M1256.7 445.634C1257.42 446.122 1258.39 445.935 1258.88 445.216C1259.37 444.498 1259.18 443.521 1258.46 443.033C1257.75 442.546 1256.77 442.733 1256.28 443.451C1255.79 444.169 1255.98 445.147 1256.7 445.634Z" fill="#558B2F"/>
<path d="M1249.64 456.038C1251.79 457.5 1254.72 456.939 1256.19 454.784C1257.65 452.63 1257.09 449.697 1254.93 448.235C1252.78 446.773 1249.85 447.334 1248.38 449.489C1246.92 451.644 1247.48 454.576 1249.64 456.038Z" fill="#558B2F"/>
<path d="M1253.42 472.852L1232.62 458.731C1231.18 457.761 1230.81 455.796 1231.78 454.365L1240.6 441.361L1247.87 458.639L1266.61 459.011L1257.79 472.016C1256.82 473.447 1254.85 473.823 1253.42 472.852Z" fill="#7750A1"/>
<g filter="url(#filter4_d_27_4161)">
<path d="M781.745 1040.45H755.687V1044.93H781.745V1040.45Z" fill="#FA9445"/>
<path d="M782.088 1046.51L782.146 1046.51V1038.38C782.146 1038.2 782.11 1038.02 782.041 1037.85C781.972 1037.68 781.871 1037.53 781.743 1037.4C781.615 1037.28 781.463 1037.17 781.296 1037.1C781.128 1037.04 780.949 1037 780.768 1037H756.663C756.482 1037 756.303 1037.04 756.136 1037.1C755.968 1037.17 755.816 1037.28 755.688 1037.4C755.561 1037.53 755.459 1037.68 755.39 1037.85C755.321 1038.02 755.285 1038.2 755.285 1038.38V1053.19C755.285 1053.37 755.321 1053.55 755.39 1053.71C755.459 1053.88 755.561 1054.03 755.689 1054.16C755.817 1054.29 755.969 1054.39 756.136 1054.46C756.303 1054.53 756.482 1054.56 756.663 1054.56H775.699C775.583 1054.07 775.523 1053.57 775.522 1053.07C775.523 1049.45 778.468 1046.51 782.088 1046.51ZM755.687 1044V1039.53H781.745V1044H755.687Z" fill="#7750A1"/>
<path d="M774.868 1052.01C774.868 1055.31 777.555 1058 780.858 1058C782.043 1058 783.202 1057.65 784.187 1056.99C785.173 1056.33 785.941 1055.4 786.395 1054.3C786.849 1053.21 786.967 1052 786.736 1050.84C786.505 1049.68 785.935 1048.61 785.097 1047.77C784.259 1046.93 783.191 1046.36 782.029 1046.13C780.866 1045.9 779.661 1046.02 778.567 1046.47C777.472 1046.93 776.536 1047.69 775.877 1048.68C775.219 1049.66 774.868 1050.82 774.868 1052.01ZM785.529 1052.01C785.53 1052.92 785.259 1053.81 784.753 1054.57C784.247 1055.33 783.528 1055.92 782.686 1056.27C781.844 1056.61 780.918 1056.71 780.024 1056.53C779.13 1056.35 778.309 1055.91 777.665 1055.27C777.021 1054.62 776.582 1053.8 776.404 1052.91C776.226 1052.01 776.318 1051.09 776.666 1050.25C777.015 1049.4 777.606 1048.68 778.363 1048.18C779.121 1047.67 780.012 1047.4 780.923 1047.4C782.145 1047.4 783.316 1047.89 784.18 1048.75C785.044 1049.62 785.529 1050.79 785.529 1052.01V1052.01Z" fill="#7750A1"/>
<g clip-path="url(#clip1_27_4161)" filter="url(#filter5_d_27_4161)">
<path d="M779.115 1051.47H779.579V1050.08H780.043L780.837 1051.47H781.9V1050.08H782.364V1051.47H782.828V1051.93H782.364V1052.4H782.828V1052.86H782.364V1054.25H781.9L781.104 1052.86H780.043V1054.25H779.579V1052.86H779.115V1052.4H779.579V1051.93H779.115V1051.47ZM780.043 1051.47H780.305L780.043 1051.01V1051.47ZM780.043 1051.93V1052.4H780.837L780.572 1051.93H780.043ZM781.9 1053.32V1052.86H781.633L781.9 1053.32ZM781.102 1051.93L781.368 1052.4H781.9V1051.93H781.102Z" fill="#7750A1"/>
</g>
</g>
<g filter="url(#filter6_d_27_4161)">
<path d="M371.317 824.58H329.217V831.812H371.317V824.58Z" fill="#FA9445"/>
<path d="M371.872 834.358L371.965 834.362V821.226C371.966 820.934 371.908 820.644 371.796 820.374C371.685 820.104 371.521 819.859 371.314 819.652C371.107 819.445 370.862 819.281 370.592 819.169C370.322 819.057 370.032 819 369.74 819H330.795C330.502 819 330.213 819.057 329.942 819.169C329.672 819.281 329.427 819.445 329.22 819.652C329.013 819.858 328.849 820.104 328.737 820.374C328.626 820.644 328.568 820.934 328.568 821.226V845.151C328.568 845.444 328.626 845.733 328.738 846.003C328.85 846.273 329.014 846.518 329.22 846.725C329.427 846.932 329.673 847.096 329.943 847.207C330.213 847.319 330.502 847.377 330.795 847.377H361.55C361.362 846.587 361.266 845.778 361.263 844.966C361.265 839.117 366.024 834.358 371.872 834.358ZM329.217 830.314V823.081H371.317V830.314H329.217Z" fill="#7750A1"/>
<path d="M360.207 843.249C360.207 848.585 364.549 852.928 369.885 852.928C371.8 852.929 373.672 852.361 375.264 851.298C376.857 850.235 378.098 848.723 378.831 846.954C379.564 845.185 379.756 843.238 379.383 841.36C379.009 839.482 378.087 837.757 376.734 836.403C375.38 835.049 373.655 834.127 371.777 833.753C369.899 833.38 367.952 833.571 366.183 834.304C364.414 835.037 362.902 836.278 361.838 837.87C360.775 839.462 360.207 841.334 360.207 843.249ZM377.433 843.249C377.433 844.721 376.996 846.16 376.179 847.384C375.361 848.608 374.198 849.562 372.838 850.126C371.478 850.689 369.981 850.837 368.538 850.549C367.094 850.262 365.767 849.553 364.726 848.512C363.685 847.471 362.976 846.145 362.689 844.701C362.402 843.257 362.55 841.761 363.113 840.401C363.676 839.04 364.631 837.878 365.855 837.06C367.079 836.242 368.518 835.806 369.99 835.806C371.964 835.806 373.857 836.591 375.253 837.986C376.648 839.382 377.432 841.275 377.433 843.249V843.249Z" fill="#7750A1"/>
<g filter="url(#filter7_d_27_4161)">
<path d="M367.068 842.375H367.818V840.125H368.568L369.851 842.375H371.568V840.125H372.318V842.375H373.068V843.125H372.318V843.875H373.068V844.625H372.318V846.875H371.568L370.282 844.625H368.568V846.875H367.818V844.625H367.068V843.875H367.818V843.125H367.068V842.375ZM368.568 842.375H368.992L368.568 841.636V842.375ZM368.568 843.125V843.875H369.851L369.423 843.125H368.568ZM371.568 845.375V844.625H371.137L371.568 845.375ZM370.278 843.125L370.71 843.875H371.568V843.125H370.278Z" fill="#7750A1"/>
</g>
</g>
<path d="M260 295H262.625V287H265.25L269.739 295H275.75V287H278.375V295H281V297.667H278.375V300.333H281V303H278.375V311H275.75L271.248 303H265.25V311H262.625V303H260V300.333H262.625V297.667H260V295ZM265.25 295H266.733L265.25 292.373V295ZM265.25 297.667V300.333H269.739L268.242 297.667H265.25ZM275.75 305.667V303H274.241L275.75 305.667ZM271.235 297.667L272.744 300.333H275.75V297.667H271.235Z" fill="#7750A1"/>
<path d="M217.235 946.5H220.569V936.5H223.902L229.602 946.5H237.235V936.5H240.569V946.5H243.902V949.833H240.569V953.167H243.902V956.5H240.569V966.5H237.235L231.519 956.5H223.902V966.5H220.569V956.5H217.235V953.167H220.569V949.833H217.235V946.5ZM223.902 946.5H225.785L223.902 943.217V946.5ZM223.902 949.833V953.167H229.602L227.702 949.833H223.902ZM237.235 959.833V956.5H235.319L237.235 959.833ZM231.502 949.833L233.419 953.167H237.235V949.833H231.502Z" fill="#7750A1"/>
<g filter="url(#filter8_d_27_4161)">
<path d="M1122.67 649.367L1125.26 642.723C1125.29 642.618 1125.36 642.525 1125.44 642.455C1125.53 642.385 1125.63 642.34 1125.74 642.325C1125.85 642.311 1125.96 642.328 1126.06 642.374C1126.16 642.42 1126.25 642.493 1126.31 642.585L1130.78 648.145L1135.86 654.505L1127.82 655.74L1119.76 656.97L1122.67 649.367Z" fill="#7750A1"/>
<path d="M1116.76 664.537L1119.72 656.952L1124.82 663.307L1129.91 669.657L1121.86 670.892L1114.86 671.994C1114.75 672.012 1114.65 672.002 1114.55 671.965C1114.45 671.928 1114.37 671.866 1114.3 671.785C1114.24 671.703 1114.2 671.606 1114.18 671.503C1114.17 671.4 1114.18 671.295 1114.22 671.199L1116.76 664.537Z" fill="#764A9D"/>
<path d="M1132.86 662.072L1129.91 669.667L1124.82 663.307L1119.72 656.952L1127.77 655.721L1135.82 654.487L1132.86 662.072Z" fill="#41256A"/>
<path d="M1100.2 649.354L1103.16 641.768L1108.25 648.119L1113.35 654.474L1105.3 655.704L1097.25 656.948L1100.2 649.354Z" fill="#8B65AC"/>
<path d="M1094.29 664.533L1097.25 656.948L1102.34 663.299L1107.44 669.653L1099.38 670.893L1091.33 672.128L1094.29 664.533Z" fill="#9A72B2"/>
<path d="M1110.39 662.068L1107.44 669.653L1102.34 663.299L1097.25 656.948L1105.3 655.704L1113.35 654.474L1110.39 662.068Z" fill="#6E479C"/>
<path d="M1088.38 679.713L1091.33 672.128L1096.38 678.46L1101.48 684.815L1093.42 686.055L1086.42 687.148C1086.32 687.162 1086.21 687.15 1086.12 687.112C1086.02 687.074 1085.94 687.012 1085.87 686.932C1085.81 686.852 1085.77 686.756 1085.75 686.655C1085.74 686.553 1085.75 686.449 1085.78 686.353L1088.38 679.713Z" fill="#7750A1"/>
<path d="M1104.48 677.248L1101.52 684.842L1096.43 678.478L1091.33 672.128L1099.38 670.893L1107.44 669.653L1104.48 677.248Z" fill="#8059A5"/>
<path d="M1116.3 646.888L1113.35 654.474L1108.25 648.119L1103.2 641.786L1111.21 640.525L1118.25 639.446C1118.35 639.429 1118.46 639.44 1118.55 639.477C1118.65 639.515 1118.74 639.577 1118.8 639.658C1118.87 639.739 1118.91 639.836 1118.93 639.939C1118.94 640.042 1118.93 640.147 1118.89 640.244L1116.3 646.888Z" fill="#B292C4"/>
</g>
<g filter="url(#filter9_d_27_4161)">
<path d="M217.904 586.903L215.316 580.259C215.271 580.158 215.256 580.047 215.271 579.937C215.286 579.828 215.332 579.725 215.403 579.64C215.474 579.555 215.568 579.492 215.673 579.458C215.778 579.424 215.891 579.42 215.998 579.447L223.048 580.521L231.099 581.764L226.006 588.115L220.905 594.47L217.904 586.903Z" fill="#7750A1"/>
<path d="M223.813 602.073L220.858 594.488L228.914 595.719L236.961 596.952L231.868 603.304L227.452 608.855C227.389 608.937 227.304 609.001 227.208 609.04C227.111 609.078 227.006 609.09 226.903 609.074C226.801 609.059 226.704 609.015 226.624 608.949C226.543 608.883 226.482 608.797 226.447 608.699L223.813 602.073Z" fill="#764A9D"/>
<path d="M234.006 589.367L236.964 596.962L228.914 595.719L220.858 594.488L225.96 588.134L231.052 581.782L234.006 589.367Z" fill="#41256A"/>
<path d="M201.346 602.088L198.392 594.503L206.438 595.737L214.494 596.967L209.392 603.322L204.304 609.682L201.346 602.088Z" fill="#8B65AC"/>
<path d="M207.258 617.267L204.304 609.682L212.35 610.916L220.406 612.146L215.308 618.51L210.216 624.862L207.258 617.267Z" fill="#9A72B2"/>
<path d="M217.452 604.561L220.406 612.146L212.35 610.916L204.304 609.682L209.392 603.322L214.494 596.967L217.452 604.561Z" fill="#6E479C"/>
<path d="M213.17 632.447L210.216 624.862L218.216 626.114L226.271 627.344L221.174 633.708L216.754 639.25C216.688 639.329 216.604 639.391 216.508 639.427C216.412 639.464 216.308 639.475 216.206 639.459C216.105 639.444 216.009 639.402 215.929 639.338C215.849 639.274 215.786 639.19 215.748 639.094L213.17 632.447Z" fill="#7750A1"/>
<path d="M223.364 619.741L226.321 627.335L218.262 626.095L210.216 624.862L215.308 618.51L220.406 612.146L223.364 619.741Z" fill="#8059A5"/>
<path d="M211.54 589.382L214.494 596.967L206.438 595.737L198.438 594.485L203.48 588.142L207.938 582.586C208.002 582.504 208.087 582.441 208.184 582.402C208.281 582.364 208.386 582.352 208.489 582.367C208.592 582.382 208.689 582.425 208.771 582.49C208.852 582.555 208.914 582.641 208.952 582.738L211.54 589.382Z" fill="#B292C4"/>
</g>
</g>
<defs>
<filter id="filter0_f_27_4161" x="565.568" y="-354" width="1465" height="1465" filterUnits="userSpaceOnUse" color-interpolation-filters="sRGB">
<feFlood flood-opacity="0" result="BackgroundImageFix"/>
<feBlend mode="normal" in="SourceGraphic" in2="BackgroundImageFix" result="shape"/>
<feGaussianBlur stdDeviation="278.5" result="effect1_foregroundBlur_27_4161"/>
</filter>
<filter id="filter1_f_27_4161" x="-462.287" y="121.467" width="1093.79" height="1043.14" filterUnits="userSpaceOnUse" color-interpolation-filters="sRGB">
<feFlood flood-opacity="0" result="BackgroundImageFix"/>
<feBlend mode="normal" in="SourceGraphic" in2="BackgroundImageFix" result="shape"/>
<feGaussianBlur stdDeviation="201.432" result="effect1_foregroundBlur_27_4161"/>
</filter>
<filter id="filter2_d_27_4161" x="1086.83" y="290.757" width="82.5712" height="98.2295" filterUnits="userSpaceOnUse" color-interpolation-filters="sRGB">
<feFlood flood-opacity="0" result="BackgroundImageFix"/>
<feColorMatrix in="SourceAlpha" type="matrix" values="0 0 0 0 0 0 0 0 0 0 0 0 0 0 0 0 0 0 127 0" result="hardAlpha"/>
<feOffset dy="28"/>
<feGaussianBlur stdDeviation="8.88889"/>
<feComposite in2="hardAlpha" operator="out"/>
<feColorMatrix type="matrix" values="0 0 0 0 0.316667 0 0 0 0 0.316667 0 0 0 0 0.316667 0 0 0 0.25 0"/>
<feBlend mode="normal" in2="BackgroundImageFix" result="effect1_dropShadow_27_4161"/>
<feBlend mode="normal" in="SourceGraphic" in2="effect1_dropShadow_27_4161" result="shape"/>
</filter>
<filter id="filter3_d_27_4161" x="1187.89" y="753.584" width="80.9633" height="98.2355" filterUnits="userSpaceOnUse" color-interpolation-filters="sRGB">
<feFlood flood-opacity="0" result="BackgroundImageFix"/>
<feColorMatrix in="SourceAlpha" type="matrix" values="0 0 0 0 0 0 0 0 0 0 0 0 0 0 0 0 0 0 127 0" result="hardAlpha"/>
<feOffset dy="28"/>
<feGaussianBlur stdDeviation="8.88889"/>
<feComposite in2="hardAlpha" operator="out"/>
<feColorMatrix type="matrix" values="0 0 0 0 0 0 0 0 0 0 0 0 0 0 0 0 0 0 0.25 0"/>
<feBlend mode="normal" in2="BackgroundImageFix" result="effect1_dropShadow_27_4161"/>
<feBlend mode="normal" in="SourceGraphic" in2="effect1_dropShadow_27_4161" result="shape"/>
</filter>
<filter id="filter4_d_27_4161" x="744.282" y="1037" width="53.5735" height="43.0071" filterUnits="userSpaceOnUse" color-interpolation-filters="sRGB">
<feFlood flood-opacity="0" result="BackgroundImageFix"/>
<feColorMatrix in="SourceAlpha" type="matrix" values="0 0 0 0 0 0 0 0 0 0 0 0 0 0 0 0 0 0 127 0" result="hardAlpha"/>
<feOffset dy="11.0036"/>
<feGaussianBlur stdDeviation="5.50178"/>
<feComposite in2="hardAlpha" operator="out"/>
<feColorMatrix type="matrix" values="0 0 0 0 0 0 0 0 0 0 0 0 0 0 0 0 0 0 0.25 0"/>
<feBlend mode="normal" in2="BackgroundImageFix" result="effect1_dropShadow_27_4161"/>
<feBlend mode="normal" in="SourceGraphic" in2="effect1_dropShadow_27_4161" result="shape"/>
</filter>
<filter id="filter5_d_27_4161" x="775.711" y="1049.38" width="10.5219" height="10.5222" filterUnits="userSpaceOnUse" color-interpolation-filters="sRGB">
<feFlood flood-opacity="0" result="BackgroundImageFix"/>
<feColorMatrix in="SourceAlpha" type="matrix" values="0 0 0 0 0 0 0 0 0 0 0 0 0 0 0 0 0 0 127 0" result="hardAlpha"/>
<feOffset dy="2.4758"/>
<feGaussianBlur stdDeviation="1.2379"/>
<feComposite in2="hardAlpha" operator="out"/>
<feColorMatrix type="matrix" values="0 0 0 0 0 0 0 0 0 0 0 0 0 0 0 0 0 0 0.25 0"/>
<feBlend mode="normal" in2="BackgroundImageFix" result="effect1_dropShadow_27_4161"/>
<feBlend mode="normal" in="SourceGraphic" in2="effect1_dropShadow_27_4161" result="shape"/>
</filter>
<filter id="filter6_d_27_4161" x="310.791" y="819" width="86.5556" height="69.484" filterUnits="userSpaceOnUse" color-interpolation-filters="sRGB">
<feFlood flood-opacity="0" result="BackgroundImageFix"/>
<feColorMatrix in="SourceAlpha" type="matrix" values="0 0 0 0 0 0 0 0 0 0 0 0 0 0 0 0 0 0 127 0" result="hardAlpha"/>
<feOffset dy="17.7778"/>
<feGaussianBlur stdDeviation="8.88889"/>
<feComposite in2="hardAlpha" operator="out"/>
<feColorMatrix type="matrix" values="0 0 0 0 0 0 0 0 0 0 0 0 0 0 0 0 0 0 0.25 0"/>
<feBlend mode="normal" in2="BackgroundImageFix" result="effect1_dropShadow_27_4161"/>
<feBlend mode="normal" in="SourceGraphic" in2="effect1_dropShadow_27_4161" result="shape"/>
</filter>
<filter id="filter7_d_27_4161" x="361.568" y="839" width="17" height="17" filterUnits="userSpaceOnUse" color-interpolation-filters="sRGB">
<feFlood flood-opacity="0" result="BackgroundImageFix"/>
<feColorMatrix in="SourceAlpha" type="matrix" values="0 0 0 0 0 0 0 0 0 0 0 0 0 0 0 0 0 0 127 0" result="hardAlpha"/>
<feOffset dy="4"/>
<feGaussianBlur stdDeviation="2"/>
<feComposite in2="hardAlpha" operator="out"/>
<feColorMatrix type="matrix" values="0 0 0 0 0 0 0 0 0 0 0 0 0 0 0 0 0 0 0.25 0"/>
<feBlend mode="normal" in2="BackgroundImageFix" result="effect1_dropShadow_27_4161"/>
<feBlend mode="normal" in="SourceGraphic" in2="effect1_dropShadow_27_4161" result="shape"/>
</filter>
<filter id="filter8_d_27_4161" x="1067.97" y="639.439" width="85.6752" height="93.493" filterUnits="userSpaceOnUse" color-interpolation-filters="sRGB">
<feFlood flood-opacity="0" result="BackgroundImageFix"/>
<feColorMatrix in="SourceAlpha" type="matrix" values="0 0 0 0 0 0 0 0 0 0 0 0 0 0 0 0 0 0 127 0" result="hardAlpha"/>
<feOffset dy="28"/>
<feGaussianBlur stdDeviation="8.88889"/>
<feComposite in2="hardAlpha" operator="out"/>
<feColorMatrix type="matrix" values="0 0 0 0 0 0 0 0 0 0 0 0 0 0 0 0 0 0 0.25 0"/>
<feBlend mode="normal" in2="BackgroundImageFix" result="effect1_dropShadow_27_4161"/>
<feBlend mode="normal" in="SourceGraphic" in2="effect1_dropShadow_27_4161" result="shape"/>
</filter>
<filter id="filter9_d_27_4161" x="180.614" y="579.429" width="74.1278" height="105.815" filterUnits="userSpaceOnUse" color-interpolation-filters="sRGB">
<feFlood flood-opacity="0" result="BackgroundImageFix"/>
<feColorMatrix in="SourceAlpha" type="matrix" values="0 0 0 0 0 0 0 0 0 0 0 0 0 0 0 0 0 0 127 0" result="hardAlpha"/>
<feOffset dy="28"/>
<feGaussianBlur stdDeviation="8.88889"/>
<feComposite in2="hardAlpha" operator="out"/>
<feColorMatrix type="matrix" values="0 0 0 0 0 0 0 0 0 0 0 0 0 0 0 0 0 0 0.25 0"/>
<feBlend mode="normal" in2="BackgroundImageFix" result="effect1_dropShadow_27_4161"/>
<feBlend mode="normal" in="SourceGraphic" in2="effect1_dropShadow_27_4161" result="shape"/>
</filter>
<clipPath id="clip0_27_4161">
<rect width="1440" height="1178" fill="white"/>
</clipPath>
<clipPath id="clip1_27_4161">
<rect width="5.57055" height="5.57055" fill="white" transform="translate(778.187 1049.38)"/>
</clipPath>
</defs>
</svg>
