<svg width="19" height="20" viewBox="0 0 19 20" fill="none" xmlns="http://www.w3.org/2000/svg">
<path fill-rule="evenodd" clip-rule="evenodd" d="M0.849609 9.41479C0.849609 5.81966 0.849609 4.02209 1.7063 2.72735C2.08886 2.14918 2.584 1.65404 3.16216 1.27149C4.4569 0.414795 6.25447 0.414795 9.84961 0.414795C13.4447 0.414795 15.2423 0.414795 16.5371 1.27149C17.1152 1.65404 17.6104 2.14918 17.9929 2.72735C18.8496 4.02209 18.8496 5.81966 18.8496 9.41479C18.8496 13.0099 18.8496 14.8075 17.9929 16.1022C17.6104 16.6804 17.1152 17.1755 16.5371 17.5581C15.2423 18.4148 13.4447 18.4148 9.84961 18.4148C6.25447 18.4148 4.4569 18.4148 3.16216 17.5581C2.584 17.1755 2.08886 16.6804 1.7063 16.1022C0.849609 14.8075 0.849609 13.0099 0.849609 9.41479ZM14.5089 9.41502C14.5089 11.9883 12.4228 14.0744 9.84945 14.0744C7.27613 14.0744 5.19004 11.9883 5.19004 9.41502C5.19004 6.8417 7.27613 4.75561 9.84945 4.75561C12.4228 4.75561 14.5089 6.8417 14.5089 9.41502ZM9.84945 12.498C11.5521 12.498 12.9325 11.1177 12.9325 9.41502C12.9325 7.71233 11.5521 6.33202 9.84945 6.33202C8.14675 6.33202 6.76645 7.71233 6.76645 9.41502C6.76645 11.1177 8.14675 12.498 9.84945 12.498ZM14.6929 5.61634C15.2975 5.61634 15.7877 5.12617 15.7877 4.52152C15.7877 3.91687 15.2975 3.4267 14.6929 3.4267C14.0882 3.4267 13.5981 3.91687 13.5981 4.52152C13.5981 5.12617 14.0882 5.61634 14.6929 5.61634Z" fill="white"/>
</svg>
