<svg width="48" height="48" viewBox="0 0 48 48" fill="none" xmlns="http://www.w3.org/2000/svg">
<path d="M28 26H38V22H28V26ZM28 20H38V16H28V20ZM10 32H26V30.9C26 29.4 25.2667 28.2087 23.8 27.326C22.3333 26.4433 20.4 26.0013 18 26C15.6 25.9987 13.6667 26.4407 12.2 27.326C10.7333 28.2113 10 29.4027 10 30.9V32ZM18 24C19.1 24 20.042 23.6087 20.826 22.826C21.61 22.0433 22.0013 21.1013 22 20C21.9987 18.8987 21.6073 17.9573 20.826 17.176C20.0447 16.3947 19.1027 16.0027 18 16C16.8973 15.9973 15.956 16.3893 15.176 17.176C14.396 17.9627 14.004 18.904 14 20C13.996 21.096 14.388 22.038 15.176 22.826C15.964 23.614 16.9053 24.0053 18 24ZM8 40C6.9 40 5.95867 39.6087 5.176 38.826C4.39333 38.0433 4.00133 37.1013 4 36V12C4 10.9 4.392 9.95867 5.176 9.176C5.96 8.39333 6.90133 8.00133 8 8H40C41.1 8 42.042 8.392 42.826 9.176C43.61 9.96 44.0013 10.9013 44 12V36C44 37.1 43.6087 38.042 42.826 38.826C42.0433 39.61 41.1013 40.0013 40 40H8Z" fill="#5856D6"/>
</svg>
