<svg width="48" height="48" viewBox="0 0 48 48" fill="none" xmlns="http://www.w3.org/2000/svg">
<path fill-rule="evenodd" clip-rule="evenodd" d="M24.1647 1.38086C19.6477 1.38086 15.5327 2.87286 13.0977 4.09186C12.8777 4.20186 12.6724 4.30919 12.4817 4.41386C12.1037 4.61986 11.7817 4.81186 11.5257 4.98086L14.2957 9.05886L15.5997 9.57786C20.6957 12.1489 27.5297 12.1489 32.6267 9.57786L34.1067 8.80986L36.7257 4.98086C36.1826 4.62797 35.6186 4.30838 35.0367 4.02386C32.6137 2.81786 28.5967 1.38086 24.1657 1.38086M17.7237 5.99686C16.7431 5.81231 15.7743 5.5692 14.8227 5.26886C17.1037 4.25586 20.5027 3.18086 24.1657 3.18086C26.7027 3.18086 29.1017 3.69686 31.0857 4.35086C28.7607 4.67786 26.2797 5.23286 23.9157 5.91586C22.0557 6.45386 19.8817 6.39586 17.7237 5.99686ZM33.6837 11.0609L33.4377 11.1849C27.8317 14.0129 20.3957 14.0129 14.7897 11.1849L14.5567 11.0669C6.13371 20.3079 -0.296286 37.3779 24.1647 37.3779C48.6257 37.3779 42.0397 19.9909 33.6837 11.0609ZM23.1257 19.3809C22.5953 19.3809 22.0866 19.5916 21.7115 19.9666C21.3364 20.3417 21.1257 20.8504 21.1257 21.3809C21.1257 21.9113 21.3364 22.42 21.7115 22.7951C22.0866 23.1701 22.5953 23.3809 23.1257 23.3809V19.3809ZM25.1257 17.3809V16.3809H23.1257V17.3809C22.0648 17.3809 21.0474 17.8023 20.2973 18.5524C19.5471 19.3026 19.1257 20.32 19.1257 21.3809C19.1257 22.4417 19.5471 23.4591 20.2973 24.2093C21.0474 24.9594 22.0648 25.3809 23.1257 25.3809V29.3809C22.2557 29.3809 21.5147 28.8259 21.2387 28.0479C21.1978 27.9206 21.1317 27.8028 21.0444 27.7015C20.9572 27.6002 20.8505 27.5174 20.7307 27.458C20.6109 27.3987 20.4804 27.364 20.3469 27.3559C20.2134 27.3479 20.0797 27.3667 19.9536 27.4112C19.8276 27.4558 19.7117 27.5251 19.6129 27.6152C19.5141 27.7054 19.4344 27.8144 19.3785 27.9358C19.3225 28.0572 19.2915 28.1887 19.2873 28.3223C19.283 28.456 19.3056 28.5891 19.3537 28.7139C19.6294 29.4939 20.1402 30.1693 20.8158 30.6469C21.4913 31.1246 22.2984 31.381 23.1257 31.3809V32.3809H25.1257V31.3809C26.1866 31.3809 27.204 30.9594 27.9541 30.2093C28.7043 29.4591 29.1257 28.4417 29.1257 27.3809C29.1257 26.32 28.7043 25.3026 27.9541 24.5524C27.204 23.8023 26.1866 23.3809 25.1257 23.3809V19.3809C25.9957 19.3809 26.7367 19.9359 27.0127 20.7139C27.0537 20.8411 27.1197 20.9589 27.207 21.0602C27.2942 21.1615 27.4009 21.2443 27.5208 21.3037C27.6406 21.363 27.7711 21.3978 27.9045 21.4058C28.038 21.4138 28.1717 21.395 28.2978 21.3505C28.4239 21.3059 28.5397 21.2366 28.6385 21.1465C28.7373 21.0564 28.817 20.9474 28.873 20.8259C28.9289 20.7045 28.9599 20.573 28.9642 20.4394C28.9684 20.3058 28.9458 20.1726 28.8977 20.0479C28.622 19.2678 28.1112 18.5924 27.4356 18.1148C26.7601 17.6371 25.9531 17.3807 25.1257 17.3809ZM25.1257 25.3809V29.3809C25.6561 29.3809 26.1649 29.1701 26.5399 28.7951C26.915 28.42 27.1257 27.9113 27.1257 27.3809C27.1257 26.8504 26.915 26.3417 26.5399 25.9666C26.1649 25.5916 25.6561 25.3809 25.1257 25.3809Z" fill="#5856D6"/>
</svg>
