<svg width="40" height="41" viewBox="0 0 40 41" fill="none" xmlns="http://www.w3.org/2000/svg">
<rect y="0.5" width="40" height="40" rx="20" fill="white"/>
<path d="M12.93 12.93C12 13.8573 11.2624 14.9593 10.7595 16.1726C10.2567 17.3859 9.99859 18.6866 10 20C10 22.76 11.12 25.26 12.93 27.07L14.34 25.66C13.5946 24.9185 13.0038 24.0364 12.6021 23.0648C12.2004 22.0931 11.9958 21.0514 12 20C12 17.79 12.89 15.78 14.34 14.34L12.93 12.93ZM27.07 12.93L25.66 14.34C26.4047 15.082 26.9949 15.9643 27.3965 16.9358C27.7982 17.9073 28.0033 18.9487 28 20C28 22.22 27.11 24.22 25.66 25.66L27.07 27.07C28 26.1426 28.7376 25.0407 29.2405 23.8274C29.7433 22.6141 30.0014 21.3134 30 20C30 17.24 28.88 14.74 27.07 12.93M15.76 15.76C15.2018 16.316 14.759 16.9767 14.4569 17.7044C14.1549 18.432 13.9996 19.2122 14 20C14 21.65 14.67 23.15 15.76 24.24L17.17 22.83C16.7982 22.4586 16.5035 22.0174 16.3027 21.5317C16.1019 21.0461 15.999 20.5255 16 20C16 18.89 16.45 17.89 17.17 17.17L15.76 15.76ZM24.24 15.76L22.83 17.17C23.2018 17.5414 23.4965 17.9826 23.6973 18.4683C23.8981 18.9539 24.001 19.4745 24 20C24 21.11 23.55 22.11 22.83 22.83L24.24 24.24C24.7982 23.684 25.241 23.0232 25.5431 22.2956C25.8451 21.568 26.0004 20.7878 26 20C26 18.35 25.33 16.85 24.24 15.76M20 18C19.4696 18 18.9609 18.2107 18.5858 18.5858C18.2107 18.9609 18 19.4696 18 20C18 20.5304 18.2107 21.0391 18.5858 21.4142C18.9609 21.7893 19.4696 22 20 22C20.5304 22 21.0391 21.7893 21.4142 21.4142C21.7893 21.0391 22 20.5304 22 20C22 19.4696 21.7893 18.9609 21.4142 18.5858C21.0391 18.2107 20.5304 18 20 18ZM19 24V28H18C17.7348 28 17.4804 28.1053 17.2929 28.2929C17.1054 28.4804 17 28.7348 17 29H10V31H17C17 31.2652 17.1054 31.5196 17.2929 31.7071C17.4804 31.8946 17.7348 32 18 32H22C22.2652 32 22.5196 31.8946 22.7071 31.7071C22.8946 31.5196 23 31.2652 23 31H30V29H23C23 28.7348 22.8946 28.4804 22.7071 28.2929C22.5196 28.1053 22.2652 28 22 28H21V24H19Z" fill="#7750A1"/>
</svg>
