<svg width="156" height="271" viewBox="0 0 156 271" fill="none" xmlns="http://www.w3.org/2000/svg">
<path d="M87.6094 37.1261V2.83666C87.6103 2.34052 87.7411 1.85326 87.9887 1.42335C88.2364 0.993437 88.5923 0.63585 89.021 0.386152C89.4497 0.136453 89.9364 0.00334398 90.4325 6.21889e-05C90.9286 -0.00321961 91.417 0.12344 91.849 0.367446L121.596 17.5355L155.536 37.1261L121.596 56.74L87.6094 76.354V37.1261Z" fill="#DCDADD"/>
<path d="M87.6094 115.559V76.354L121.596 95.9446L155.536 115.559L121.596 135.103L91.849 152.317C91.4283 152.563 90.951 152.696 90.4638 152.702C89.9765 152.709 89.4959 152.589 89.0688 152.354C88.6417 152.12 88.2827 151.778 88.027 151.364C87.7712 150.949 87.6273 150.475 87.6094 149.988V115.559Z" fill="#E4E4E4"/>
<path d="M155.513 76.354V115.559L121.573 95.9679L87.6094 76.354L121.573 56.74L155.513 37.1261V76.354Z" fill="white"/>
<path d="M0.464355 76.354V37.1261L34.4277 56.74L68.391 76.354L34.4277 95.9679L0.464355 115.559V76.354Z" fill="#EBEBEB"/>
<path d="M0.464355 154.763V115.559L34.4277 135.172L68.391 154.763L34.4277 174.377L0.464355 193.991V154.763Z" fill="#CAC7CF"/>
<path d="M68.391 115.559V154.763L34.4277 135.172L0.464355 115.559L34.4277 95.9679L68.391 76.354V115.559Z" fill="#DCDADD"/>
<path d="M0.464355 233.196V193.991L34.4277 213.582L68.391 233.196L34.4277 252.81L4.72724 269.954C4.3048 270.199 3.82649 270.33 3.3384 270.337C2.8503 270.343 2.36888 270.223 1.94053 269.989C1.51218 269.755 1.15135 269.414 0.892792 269C0.634239 268.586 0.486686 268.112 0.464355 267.625L0.464355 233.196Z" fill="#CAC7CF"/>
<path d="M68.391 193.991V233.196L34.4277 213.582L0.464355 193.991L34.4277 174.377L68.391 154.763V193.991Z" fill="white"/>
<path d="M68.391 37.1262V76.3541L34.4277 56.7402L0.464355 37.1262L34.4277 17.5356L64.1281 0.390871C64.559 0.142076 65.0477 0.010777 65.5453 0.0101039C66.0429 0.0094308 66.5319 0.139407 66.9635 0.387035C67.395 0.634662 67.754 0.991261 68.0046 1.42117C68.2551 1.85108 68.3883 2.33922 68.391 2.83679V37.1262Z" fill="#FEFEFE"/>
</svg>
