<svg width="48" height="48" viewBox="0 0 48 48" fill="none" xmlns="http://www.w3.org/2000/svg">
<path d="M8 40C6.9 40 5.95867 39.6087 5.176 38.826C4.39333 38.0433 4.00133 37.1013 4 36V18C4 17.3667 4.142 16.7667 4.426 16.2C4.71 15.6333 5.10133 15.1667 5.6 14.8L17.6 5.8C17.9667 5.53333 18.35 5.33333 18.75 5.2C19.15 5.06667 19.5667 5 20 5C20.4333 5 20.85 5.06667 21.25 5.2C21.65 5.33333 22.0333 5.53333 22.4 5.8L31 12.2C31.4667 12.5333 31.6253 12.9667 31.476 13.5C31.3267 14.0333 30.968 14.35 30.4 14.45C28.4667 14.9167 26.6833 15.692 25.05 16.776C23.4167 17.86 22.0333 19.218 20.9 20.85C19.9667 22.2167 19.2587 23.6753 18.776 25.226C18.2933 26.7767 18.0513 28.368 18.05 30C18.05 31.3333 18.2087 32.65 18.526 33.95C18.8433 35.25 19.3347 36.4833 20 37.65C20.3 38.1833 20.3087 38.7087 20.026 39.226C19.7433 39.7433 19.318 40.0013 18.75 40H8ZM34 20C31.2333 20 28.8753 20.9667 26.926 22.9C24.9767 24.8333 24.0013 27.2 24 30C24 31.0667 24.1667 32.1 24.5 33.1C24.8333 34.1 25.3167 35.0333 25.95 35.9C26.2167 36.2667 26.342 36.65 26.326 37.05C26.31 37.45 26.1513 37.8 25.85 38.1C25.5487 38.4 25.1987 38.5413 24.8 38.524C24.4013 38.5067 24.068 38.332 23.8 38C22.9333 36.8333 22.25 35.5747 21.75 34.224C21.25 32.8733 21 31.4653 21 30C21 26.3667 22.2667 23.292 24.8 20.776C27.3333 18.26 30.4 17.0013 34 17C37.6333 17 40.7087 18.2587 43.226 20.776C45.7433 23.2933 47.0013 26.368 47 30C47 31.4667 46.7667 32.8753 46.3 34.226C45.8333 35.5767 45.15 36.8347 44.25 38C43.9833 38.3333 43.65 38.5087 43.25 38.526C42.85 38.5433 42.5 38.4013 42.2 38.1C41.9 37.7987 41.7413 37.4407 41.724 37.026C41.7067 36.6113 41.832 36.2193 42.1 35.85C42.7333 34.9833 43.2087 34.058 43.526 33.074C43.8433 32.09 44.0013 31.0653 44 30C44 27.2 43.0333 24.8333 41.1 22.9C39.1667 20.9667 36.8 20 34 20ZM34 25C32.6 25 31.4167 25.4833 30.45 26.45C29.4833 27.4167 29 28.6 29 30C29 30.4 29.05 30.7833 29.15 31.15C29.25 31.5167 29.4 31.8833 29.6 32.25C29.8 32.6167 29.9 33.0253 29.9 33.476C29.9 33.9267 29.75 34.3013 29.45 34.6C29.15 34.8987 28.792 35.0407 28.376 35.026C27.96 35.0113 27.6347 34.8193 27.4 34.45C26.9333 33.7833 26.5833 33.0753 26.35 32.326C26.1167 31.5767 26 30.8013 26 30C26 27.7667 26.7833 25.8753 28.35 24.326C29.9167 22.7767 31.8 22.0013 34 22C36.2333 22 38.1253 22.7753 39.676 24.326C41.2267 25.8767 42.0013 27.768 42 30C42 30.7667 41.892 31.5333 41.676 32.3C41.46 33.0667 41.118 33.7833 40.65 34.45C40.4167 34.7833 40.1 34.9587 39.7 34.976C39.3 34.9933 38.95 34.8513 38.65 34.55C38.35 34.2487 38.192 33.882 38.176 33.45C38.16 33.018 38.2513 32.618 38.45 32.25C38.6167 31.8833 38.75 31.5167 38.85 31.15C38.95 30.7833 39 30.4 39 30C39 28.6 38.5167 27.4167 37.55 26.45C36.5833 25.4833 35.4 25 34 25ZM34 42C33.5667 42 33.2087 41.858 32.926 41.574C32.6433 41.29 32.5013 40.932 32.5 40.5V32C32.2 31.7333 31.958 31.4253 31.774 31.076C31.59 30.7267 31.4987 30.368 31.5 30C31.5 29.3 31.75 28.708 32.25 28.224C32.75 27.74 33.3333 27.4987 34 27.5C34.7 27.5 35.292 27.742 35.776 28.226C36.26 28.71 36.5013 29.3013 36.5 30C36.5 30.3667 36.4253 30.7333 36.276 31.1C36.1267 31.4667 35.868 31.7667 35.5 32V40.5C35.5 40.9333 35.358 41.292 35.074 41.576C34.79 41.86 34.432 42.0013 34 42Z" fill="white"/>
</svg>
