<svg width="48" height="48" viewBox="0 0 48 48" fill="none" xmlns="http://www.w3.org/2000/svg">
<path d="M14 40H34M12 12L24 10L36 12M12 12L18 24C18 25.5913 17.3679 27.1174 16.2426 28.2426C15.1174 29.3679 13.5913 30 12 30C10.4087 30 8.88258 29.3679 7.75736 28.2426C6.63214 27.1174 6 25.5913 6 24L12 12ZM36 12L42 24C42 25.5913 41.3679 27.1174 40.2426 28.2426C39.1174 29.3679 37.5913 30 36 30C34.4087 30 32.8826 29.3679 31.7574 28.2426C30.6321 27.1174 30 25.5913 30 24L36 12ZM24 6V40" stroke="#5856D6" stroke-width="4" stroke-linecap="round" stroke-linejoin="round"/>
</svg>
