<svg width="48" height="48" viewBox="0 0 48 48" fill="none" xmlns="http://www.w3.org/2000/svg">
<path d="M20.84 1.38086H28.16C29.23 1.38086 30.12 1.38086 30.85 1.44086C31.61 1.50086 32.322 1.63686 32.996 1.98086C34.0311 2.5082 34.8727 3.34975 35.4 4.38486C35.744 5.05886 35.88 5.77086 35.94 6.53086C36 7.26086 36 8.15086 36 9.22086V32.5409C36 33.6109 36 34.5009 35.94 35.2309C35.88 35.9909 35.744 36.7029 35.4 37.3769C34.8732 38.4117 34.0324 39.2532 32.998 39.7809C32.322 40.1249 31.61 40.2609 30.85 40.3209C30.12 40.3809 29.23 40.3809 28.162 40.3809H20.84C19.77 40.3809 18.88 40.3809 18.15 40.3209C17.39 40.2609 16.678 40.1249 16.004 39.7809C14.9695 39.2546 14.128 38.4145 13.6 37.3809C13.256 36.7049 13.12 35.9929 13.06 35.2329C13 34.5029 13 33.6129 13 32.5449V9.22086C13 8.15086 13 7.26086 13.06 6.53086C13.12 5.77086 13.256 5.05886 13.6 4.38486C14.1273 3.34975 14.9689 2.5082 16.004 1.98086C16.678 1.63686 17.39 1.50086 18.15 1.44086C18.88 1.38086 19.77 1.38086 20.84 1.38086ZM28.1 4.38086H20C20.16 4.84886 20.26 5.10886 20.426 5.30686C20.5972 5.51262 20.8172 5.67216 21.066 5.77086C21.35 5.88086 21.682 5.88086 22.346 5.88086H26.654C27.318 5.88086 27.65 5.88086 27.934 5.77086C28.1828 5.67216 28.4028 5.51262 28.574 5.30686C28.74 5.10686 28.842 4.84686 29 4.38286L28.1 4.38086ZM21 33.8809C20.7348 33.8809 20.4804 33.9862 20.2929 34.1738C20.1054 34.3613 20 34.6156 20 34.8809C20 35.1461 20.1054 35.4004 20.2929 35.588C20.4804 35.7755 20.7348 35.8809 21 35.8809H28C28.2652 35.8809 28.5196 35.7755 28.7071 35.588C28.8946 35.4004 29 35.1461 29 34.8809C29 34.6156 28.8946 34.3613 28.7071 34.1738C28.5196 33.9862 28.2652 33.8809 28 33.8809H21Z" fill="#5856D6"/>
</svg>
