<svg width="48" height="48" viewBox="0 0 48 48" fill="none" xmlns="http://www.w3.org/2000/svg">
<path d="M25.884 36H23C18.824 36 15.28 34.5447 12.368 31.634C9.456 28.7233 8 25.1813 8 21.008C8 16.8347 9.45533 13.29 12.366 10.374C15.2767 7.458 18.82 6 22.996 6C25.084 6 27.0373 6.39067 28.856 7.172C30.6747 7.952 32.2633 9.02133 33.622 10.38C34.9807 11.7387 36.05 13.3247 36.83 15.138C37.61 16.9513 38 18.9053 38 21C38 24.544 37.1133 27.8673 35.34 30.97C33.5667 34.0727 31.276 36.6813 28.468 38.796C28.1867 38.9507 27.9113 39.0393 27.642 39.062C27.3727 39.0847 27.1047 39.0253 26.838 38.884C26.5713 38.7427 26.3573 38.5587 26.196 38.332C26.0347 38.1053 25.95 37.8333 25.942 37.516L25.884 36ZM23.072 31.142C23.48 31.142 23.8267 30.998 24.112 30.71C24.3973 30.422 24.5393 30.0733 24.538 29.664C24.5367 29.2547 24.3927 28.908 24.106 28.624C23.8193 28.34 23.4707 28.1973 23.06 28.196C22.6493 28.1947 22.3027 28.3387 22.02 28.628C21.7373 28.9173 21.5947 29.266 21.592 29.674C21.5893 30.082 21.734 30.4287 22.026 30.714C22.318 30.9993 22.6667 31.142 23.072 31.142ZM18.918 16.404C19.15 16.4933 19.3813 16.4873 19.612 16.386C19.8427 16.2847 20.0313 16.1213 20.178 15.896C20.4513 15.444 20.8393 15.084 21.342 14.816C21.8447 14.5493 22.4233 14.416 23.078 14.416C24.0593 14.416 24.8573 14.6727 25.472 15.186C26.0867 15.6993 26.3933 16.3933 26.392 17.268C26.392 17.8093 26.2607 18.316 25.998 18.788C25.7353 19.26 25.2873 19.8127 24.654 20.446C23.7953 21.282 23.1787 21.9993 22.804 22.598C22.4293 23.1967 22.2427 23.778 22.244 24.342C22.244 24.6047 22.3293 24.8287 22.5 25.014C22.6707 25.1993 22.8773 25.2927 23.12 25.294C23.3627 25.2953 23.566 25.202 23.73 25.014C23.894 24.83 23.9913 24.602 24.022 24.33C24.0873 23.9167 24.3107 23.458 24.692 22.954C25.0747 22.4487 25.5387 21.9227 26.084 21.376C26.836 20.6253 27.374 19.9173 27.698 19.252C28.022 18.5867 28.184 17.9207 28.184 17.254C28.184 15.882 27.7107 14.7787 26.764 13.944C25.8173 13.1093 24.614 12.692 23.154 12.692C22.1727 12.692 21.2687 12.9313 20.442 13.41C19.614 13.8873 18.9927 14.458 18.578 15.122C18.4313 15.3913 18.388 15.65 18.448 15.898C18.508 16.146 18.6647 16.3147 18.918 16.404Z" fill="white"/>
</svg>
