<svg width="328" height="314" viewBox="0 0 328 314" fill="none" xmlns="http://www.w3.org/2000/svg">
<g clip-path="url(#clip0_379_3174)">
<rect x="328" y="58.1478" width="244.188" height="129.668" rx="8.92528" transform="rotate(116.428 328 58.1478)" fill="#7750A1"/>
<path d="M219.741 256.113L204.55 266.173L203.416 247.999L203.416 247.999L202.292 229.8L218.649 237.805L218.65 237.805L233.407 245.14L233.415 245.144L233.423 245.147C233.597 245.223 233.745 245.347 233.852 245.504C233.959 245.66 234.02 245.844 234.028 246.034C234.036 246.223 233.99 246.411 233.896 246.576C233.802 246.741 233.663 246.876 233.496 246.966L233.482 246.974L233.468 246.983L219.742 256.112L219.741 256.113Z" stroke="white" stroke-width="0.702002"/>
<path d="M169.768 231.146L169.768 231.145L168.685 214.783L168.685 214.783L168.684 214.777C168.67 214.601 168.703 214.423 168.78 214.263C168.858 214.104 168.977 213.968 169.125 213.87C169.273 213.772 169.444 213.716 169.621 213.707C169.799 213.698 169.975 213.737 170.132 213.82L170.132 213.82L170.142 213.825L184.95 221.055L184.951 221.056L201.255 229.159L186.073 239.25L186.073 239.25L170.902 249.319L169.768 231.146Z" stroke="white" stroke-width="0.702002"/>
<path d="M186.462 239.835L201.643 229.745L202.767 247.938L202.767 247.938L203.901 266.112L187.596 258.008L171.271 249.895L186.462 239.835L186.462 239.835Z" stroke="white" stroke-width="0.702002"/>
<path d="M208.171 196.156L207.017 177.973L223.342 186.086L239.647 194.19L224.476 204.26L224.475 204.26L209.295 214.35L208.171 196.156L208.171 196.156Z" stroke="white" stroke-width="0.702002"/>
<path d="M174.431 179.387L173.297 161.214L189.623 169.328L205.928 177.431L190.757 187.501L190.757 187.501L175.575 197.591L174.431 179.387L174.431 179.387Z" stroke="white" stroke-width="0.702002"/>
<path d="M192.268 206.28L175.962 198.176L191.144 188.086L191.144 188.086L206.316 178.015L207.47 196.199L207.47 196.2L208.594 214.394L192.268 206.28Z" stroke="white" stroke-width="0.702002"/>
<path d="M155.903 152.568L155.903 152.569L172.206 160.671L157.089 170.638L157.088 170.639L141.907 180.729L140.763 162.524L140.763 162.524L139.7 146.177C139.7 146.176 139.7 146.175 139.7 146.175C139.691 145.999 139.728 145.824 139.807 145.668C139.887 145.51 140.006 145.376 140.153 145.279C140.3 145.181 140.47 145.124 140.646 145.113C140.822 145.101 140.997 145.136 141.156 145.213L155.903 152.568Z" stroke="white" stroke-width="0.702002"/>
<path d="M173.729 179.431L174.873 197.635L158.548 189.521L142.223 181.407L157.424 171.327L157.424 171.327L172.595 161.257L173.729 179.431L173.729 179.431Z" stroke="white" stroke-width="0.702002"/>
<path d="M242.211 229.392L242.211 229.392L242.211 229.395C242.224 229.574 242.189 229.753 242.111 229.913C242.032 230.074 241.912 230.211 241.764 230.31C241.615 230.41 241.443 230.468 241.264 230.479C241.085 230.49 240.907 230.454 240.747 230.374L240.746 230.373L225.987 223.038L209.682 214.934L224.863 204.845L224.864 204.844L239.986 194.874L241.189 212.958L241.189 212.959L242.211 229.392Z" stroke="white" stroke-width="0.702002"/>
<circle opacity="0.5" cx="293.999" cy="77.8042" r="7.25072" transform="rotate(116.428 293.999 77.8042)" fill="white"/>
<circle opacity="0.8" cx="298.219" cy="69.3134" r="7.25072" transform="rotate(116.428 298.219 69.3134)" fill="white"/>
<path d="M280.123 52.899L280.83 54.4257L281.898 53.2495L282.527 53.8842L281.326 54.962L282.869 55.6268L282.453 56.4619L280.966 55.6099L280.841 57.1902L279.944 57.0612L280.248 55.4783L278.645 55.8197L278.507 54.9085L280.158 54.7412L279.331 53.348L280.123 52.899ZM278.04 57.0911L278.746 58.6178L279.814 57.4415L280.443 58.0763L279.242 59.154L280.785 59.8189L280.37 60.6539L278.883 59.8019L278.757 61.3822L277.861 61.2532L278.164 59.6704L276.561 60.0117L276.424 59.1006L278.074 58.9332L277.248 57.5401L278.04 57.0911ZM275.956 61.2831L276.663 62.8098L277.731 61.6336L278.36 62.2683L277.159 63.3461L278.702 64.0109L278.287 64.846L276.799 63.994L276.674 65.5743L275.777 65.4453L276.081 63.8624L274.478 64.2038L274.34 63.2926L275.991 63.1253L275.164 61.7321L275.956 61.2831ZM273.873 65.4752L274.579 67.0019L275.647 65.8256L276.276 66.4604L275.075 67.5381L276.618 68.203L276.203 69.038L274.716 68.186L274.59 69.7663L273.694 69.6373L273.997 68.0545L272.394 68.3958L272.257 67.4847L273.907 67.3173L273.081 65.9242L273.873 65.4752ZM269.419 74.4356L270.126 75.9623L271.194 74.786L271.823 75.4208L270.622 76.4985L272.165 77.1634L271.75 77.9984L270.262 77.1464L270.137 78.7267L269.24 78.5977L269.544 77.0149L267.941 77.3562L267.803 76.4451L269.454 76.2777L268.627 74.8846L269.419 74.4356ZM267.336 78.6276L268.043 80.1543L269.11 78.9781L269.74 79.6129L268.538 80.6906L270.081 81.3554L269.666 82.1905L268.179 81.3385L268.054 82.9188L267.157 82.7898L267.46 81.2069L265.858 81.5483L265.72 80.6371L267.371 80.4698L266.544 79.0766L267.336 78.6276ZM265.253 82.8197L265.959 84.3464L267.027 83.1701L267.656 83.8049L266.455 84.8826L267.998 85.5475L267.583 86.3825L266.095 85.5305L265.97 87.1108L265.073 86.9818L265.377 85.399L263.774 85.7403L263.637 84.8292L265.287 84.6618L264.46 83.2687L265.253 82.8197ZM263.169 87.0117L263.876 88.5384L264.943 87.3622L265.573 87.997L264.371 89.0747L265.914 89.7395L265.499 90.5746L264.012 89.7226L263.887 91.3029L262.99 91.1739L263.293 89.591L261.691 89.9324L261.553 89.0212L263.204 88.8539L262.377 87.4607L263.169 87.0117ZM258.716 95.9721L259.422 97.4988L260.49 96.3226L261.119 96.9574L259.918 98.0351L261.461 98.6999L261.046 99.535L259.558 98.683L259.433 100.263L258.536 100.134L258.84 98.5514L257.237 98.8928L257.1 97.9816L258.75 97.8143L257.924 96.4212L258.716 95.9721ZM256.632 100.164L257.339 101.691L258.407 100.515L259.036 101.149L257.835 102.227L259.377 102.892L258.962 103.727L257.475 102.875L257.35 104.455L256.453 104.326L256.757 102.743L255.154 103.085L255.016 102.174L256.667 102.006L255.84 100.613L256.632 100.164ZM254.549 104.356L255.255 105.883L256.323 104.707L256.952 105.341L255.751 106.419L257.294 107.084L256.879 107.919L255.391 107.067L255.266 108.647L254.37 108.518L254.673 106.936L253.07 107.277L252.933 106.366L254.583 106.198L253.757 104.805L254.549 104.356ZM252.465 108.548L253.172 110.075L254.24 108.899L254.869 109.534L253.668 110.611L255.21 111.276L254.795 112.111L253.308 111.259L253.183 112.839L252.286 112.71L252.59 111.128L250.987 111.469L250.849 110.558L252.5 110.39L251.673 108.997L252.465 108.548ZM249.867 122.059L243.587 118.938L244.203 117.698L249.054 120.109L249.321 118.385L250.298 118.87L249.934 121.926L249.867 122.059ZM241.317 125.936L240.348 125.455L242.479 121.167L243.306 121.578L244.472 124.686C244.597 125.002 244.717 125.262 244.83 125.465C244.947 125.67 245.061 125.832 245.173 125.952C245.287 126.077 245.407 126.17 245.533 126.233C245.722 126.327 245.9 126.376 246.066 126.38C246.236 126.386 246.388 126.345 246.524 126.259C246.659 126.175 246.77 126.045 246.858 125.867C246.953 125.677 246.988 125.491 246.965 125.308C246.94 125.127 246.863 124.96 246.736 124.807C246.606 124.657 246.438 124.531 246.232 124.428L246.85 123.184C247.223 123.369 247.52 123.628 247.742 123.96C247.966 124.293 248.089 124.668 248.112 125.083C248.137 125.5 248.039 125.931 247.818 126.376C247.6 126.815 247.344 127.15 247.051 127.38C246.759 127.614 246.442 127.742 246.098 127.765C245.755 127.791 245.4 127.713 245.033 127.531C244.826 127.428 244.641 127.294 244.475 127.13C244.313 126.967 244.165 126.775 244.031 126.555C243.899 126.339 243.776 126.096 243.664 125.825C243.552 125.554 243.441 125.262 243.333 124.946L242.652 123.25L241.317 125.936ZM242.91 129.513L242.58 130.176C242.475 130.388 242.424 130.581 242.427 130.754C242.433 130.929 242.486 131.082 242.585 131.214C242.686 131.35 242.825 131.462 243.003 131.551C243.164 131.63 243.321 131.669 243.476 131.668C243.632 131.67 243.776 131.625 243.908 131.533C244.042 131.443 244.157 131.301 244.253 131.109C244.329 130.957 244.368 130.801 244.372 130.642C244.376 130.483 244.343 130.338 244.272 130.206C244.202 130.074 244.089 129.97 243.934 129.893L244.552 128.649C244.897 128.82 245.151 129.061 245.315 129.372C245.478 129.685 245.553 130.034 245.541 130.418C245.529 130.802 245.43 131.182 245.243 131.558C245.032 131.983 244.778 132.32 244.482 132.57C244.189 132.822 243.866 132.971 243.514 133.018C243.161 133.064 242.79 132.991 242.4 132.797C242.202 132.698 242.032 132.557 241.891 132.372C241.753 132.189 241.653 131.974 241.589 131.728C241.527 131.486 241.512 131.221 241.544 130.933C241.579 130.646 241.672 130.351 241.823 130.046L242.251 129.186L242.91 129.513ZM241.967 129.044L242.609 129.363L242.181 130.224C242.011 130.566 241.823 130.846 241.617 131.066C241.412 131.286 241.192 131.447 240.959 131.549C240.728 131.653 240.492 131.7 240.25 131.69C240.01 131.682 239.771 131.619 239.533 131.501C239.241 131.355 239.007 131.17 238.833 130.944C238.662 130.719 238.548 130.466 238.492 130.183C238.434 129.904 238.43 129.609 238.481 129.298C238.535 128.988 238.641 128.674 238.799 128.355C238.93 128.091 239.095 127.85 239.294 127.63C239.494 127.414 239.719 127.24 239.968 127.106C240.218 126.976 240.486 126.905 240.771 126.893C241.058 126.885 241.356 126.959 241.666 127.113L241.048 128.357C240.887 128.277 240.724 128.246 240.557 128.263C240.391 128.281 240.237 128.342 240.096 128.447C239.953 128.555 239.838 128.696 239.751 128.871C239.652 129.069 239.604 129.256 239.606 129.433C239.609 129.613 239.658 129.774 239.753 129.914C239.849 130.058 239.987 130.175 240.164 130.263C240.394 130.377 240.598 130.427 240.777 130.412C240.959 130.399 241.122 130.331 241.265 130.209C241.408 130.087 241.532 129.92 241.638 129.707L241.967 129.044ZM237.419 137.224L236.446 136.74L238.69 132.225L239.474 132.539L242.32 137.212L241.83 138.197L240.575 136.242L239.081 133.879L237.419 137.224ZM241.698 138.464L235.43 135.349L236.047 134.11L242.314 137.225L241.698 138.464Z" fill="white"/>
<path opacity="0.6" d="M269.017 50.0572L263.615 47.3727L263.955 46.6901L268.504 48.9511L268.686 47.3255L269.302 47.6317L269.07 49.9502L269.017 50.0572ZM265.051 52.0667L264.809 52.5537C264.69 52.7923 264.632 53.0086 264.633 53.2027C264.636 53.4005 264.688 53.5717 264.787 53.7164C264.889 53.8648 265.026 53.9824 265.201 54.0692C265.408 54.1719 265.598 54.2236 265.773 54.2244C265.947 54.2253 266.104 54.1745 266.244 54.0722C266.384 53.9699 266.506 53.813 266.611 53.6015C266.707 53.4096 266.753 53.221 266.75 53.0355C266.748 52.8537 266.699 52.6867 266.603 52.5347C266.506 52.385 266.364 52.2638 266.177 52.1708L266.516 51.4883C266.789 51.624 267.003 51.8163 267.159 52.0653C267.314 52.3143 267.396 52.596 267.406 52.9105C267.414 53.2274 267.336 53.5506 267.172 53.8802C267.011 54.2049 266.812 54.4603 266.575 54.6463C266.341 54.8336 266.077 54.9386 265.784 54.9614C265.492 54.9855 265.18 54.9144 264.845 54.7481C264.71 54.6809 264.581 54.5768 264.457 54.4358C264.336 54.2985 264.241 54.1305 264.174 53.9316C264.106 53.7352 264.081 53.5111 264.099 53.2593C264.119 53.0086 264.202 52.737 264.348 52.4442L264.637 51.8613L265.051 52.0667ZM264.49 51.788L264.899 51.9915L264.61 52.5744C264.44 52.9163 264.259 53.179 264.066 53.3625C263.874 53.546 263.678 53.6681 263.479 53.7288C263.279 53.7919 263.085 53.8089 262.897 53.7799C262.71 53.7546 262.537 53.7022 262.377 53.6227C262.126 53.498 261.925 53.3443 261.774 53.1617C261.621 52.9814 261.515 52.7802 261.457 52.558C261.397 52.3383 261.385 52.108 261.418 51.8672C261.452 51.6263 261.53 51.3842 261.651 51.1406C261.767 50.907 261.909 50.7033 262.079 50.5297C262.246 50.3586 262.432 50.2255 262.636 50.1304C262.842 50.0366 263.059 49.9912 263.288 49.9943C263.519 49.9987 263.754 50.0602 263.992 50.1787L263.653 50.8613C263.466 50.7684 263.282 50.7277 263.102 50.7392C262.92 50.7531 262.752 50.8168 262.597 50.9302C262.444 51.0472 262.315 51.2103 262.212 51.4194C262.108 51.6284 262.054 51.8257 262.051 52.0112C262.049 52.2004 262.101 52.3722 262.209 52.5268C262.315 52.6837 262.48 52.8179 262.703 52.9291C262.927 53.0403 263.134 53.0847 263.323 53.0621C263.514 53.0408 263.687 52.9611 263.842 52.8232C263.998 52.6889 264.133 52.5062 264.248 52.275L264.49 51.788ZM264.472 59.1277L259.752 53.989L260.044 53.4024L264.762 58.5447L264.472 59.1277ZM257.484 61.1167L256.923 60.838L258.671 57.3219L259.161 57.5658L260.246 60.2994C260.379 60.6356 260.5 60.9044 260.609 61.1056C260.719 61.3104 260.828 61.4692 260.938 61.582C261.049 61.6984 261.174 61.7915 261.315 61.8612C261.492 61.9492 261.67 61.9917 261.849 61.9889C262.03 61.9897 262.198 61.9413 262.354 61.8439C262.509 61.7465 262.637 61.5982 262.736 61.3989C262.854 61.1604 262.907 60.9379 262.893 60.7316C262.88 60.5289 262.811 60.3473 262.685 60.1867C262.559 60.026 262.39 59.8926 262.176 59.7862L262.515 59.1036C262.817 59.254 263.061 59.4579 263.246 59.7155C263.431 59.973 263.532 60.2688 263.55 60.6028C263.571 60.9381 263.486 61.2964 263.297 61.6777C263.128 62.0171 262.924 62.2774 262.683 62.4586C262.445 62.6409 262.186 62.7423 261.906 62.7626C261.628 62.7866 261.344 62.7271 261.056 62.5841C260.899 62.5058 260.753 62.3993 260.617 62.2645C260.483 62.1334 260.359 61.9814 260.246 61.8084C260.131 61.638 260.027 61.4527 259.933 61.2527C259.838 61.0552 259.75 60.8503 259.668 60.638L258.823 58.4234L257.484 61.1167ZM256.47 66.2865L255.909 66.0077L257.838 62.1263L258.24 62.3262L260.767 66.582L260.49 67.1391L259.71 66.006L258.014 63.1799L256.47 66.2865ZM260.406 67.3089L255.034 64.639L255.373 63.9564L260.745 66.6263L260.406 67.3089Z" fill="white"/>
<path d="M238.111 32.6845L237.632 33.6487L231.897 33.0584L235.833 37.2688L235.353 38.233L230.276 32.7248L230.656 31.9586L238.111 32.6845ZM238.329 32.2455L237.874 33.1623L233.61 31.2422L231.527 30.2067L232.062 29.1306L238.329 32.2455ZM235.591 37.7552L235.133 38.6763L228.866 35.5615L229.403 34.481L231.486 35.5165L235.591 37.7552ZM227.815 40.0197L230.036 41.1236C230.202 41.2064 230.361 41.2475 230.511 41.2472C230.662 41.2468 230.801 41.2013 230.928 41.1108C231.054 41.023 231.162 40.8873 231.254 40.7037C231.338 40.5344 231.382 40.3738 231.386 40.2218C231.39 40.0699 231.36 39.9353 231.297 39.8179C231.233 39.7006 231.14 39.6112 231.017 39.5499L231.53 38.5168C231.714 38.6081 231.87 38.741 231.997 38.9155C232.125 39.0901 232.215 39.2955 232.266 39.5318C232.316 39.7682 232.322 40.0233 232.282 40.2971C232.243 40.5709 232.15 40.8542 232.005 41.1469C231.831 41.497 231.618 41.7776 231.366 41.9889C231.113 42.2031 230.829 42.3284 230.514 42.365C230.2 42.4059 229.865 42.3379 229.51 42.161L227.439 41.132C227.227 41.0265 227.029 40.946 226.845 40.8905C226.663 40.8394 226.496 40.8118 226.344 40.8079L226.275 40.7737L226.804 39.7105C226.94 39.7173 227.101 39.7492 227.288 39.806C227.475 39.8672 227.651 39.9384 227.815 40.0197ZM229.638 41.1138L228.992 40.8037L229.363 40.059C229.458 39.8668 229.524 39.6882 229.559 39.5233C229.597 39.3598 229.606 39.2122 229.586 39.0804C229.566 38.9486 229.519 38.8341 229.445 38.7368C229.372 38.6395 229.274 38.5602 229.15 38.4989C229.027 38.4375 228.899 38.4099 228.767 38.416C228.639 38.4234 228.518 38.4674 228.407 38.5479C228.294 38.6313 228.198 38.7519 228.119 38.9098C228.014 39.1221 227.965 39.3286 227.973 39.5292C227.982 39.7341 228.027 39.9139 228.107 40.0685C228.191 40.2245 228.288 40.3339 228.4 40.3967L227.773 40.5035C227.672 40.4106 227.575 40.289 227.482 40.1388C227.388 39.9885 227.313 39.8153 227.257 39.6191C227.202 39.4272 227.182 39.2187 227.197 38.9937C227.211 38.7715 227.278 38.5399 227.398 38.2989C227.549 37.9947 227.744 37.7534 227.983 37.5752C228.225 37.3983 228.482 37.2938 228.756 37.2616C229.033 37.2309 229.303 37.2811 229.567 37.4123C229.814 37.5349 230.009 37.6893 230.153 37.8752C230.298 38.0655 230.39 38.2831 230.429 38.5281C230.467 38.7759 230.454 39.0482 230.388 39.345C230.326 39.6433 230.211 39.9617 230.042 40.3003L229.638 41.1138ZM228.983 44.7866L225.212 42.9125L225.728 41.8751L230.385 44.1899L229.893 45.1799L228.983 44.7866ZM229.192 46.667L228.232 46.1792C228.275 46.1218 228.317 46.0572 228.36 45.9854C228.402 45.9165 228.44 45.8462 228.476 45.7745C228.564 45.5965 228.616 45.4273 228.632 45.2668C228.65 45.1076 228.634 44.9586 228.585 44.8197C228.538 44.6852 228.46 44.5607 228.352 44.4463C228.245 44.3319 228.111 44.2297 227.952 44.1398L228.052 43.8945C228.345 44.04 228.602 44.2035 228.823 44.3849C229.044 44.5664 229.221 44.7616 229.353 44.9705C229.484 45.1823 229.559 45.4021 229.578 45.6299C229.596 45.8606 229.547 46.0922 229.432 46.3246C229.4 46.3878 229.361 46.4524 229.314 46.5184C229.265 46.5873 229.225 46.6368 229.192 46.667ZM223.925 47.3606C223.841 47.5299 223.798 47.6984 223.797 47.8661C223.797 48.038 223.837 48.1956 223.916 48.3387C223.994 48.4847 224.11 48.6012 224.263 48.6883L223.778 49.6654C223.479 49.5099 223.249 49.2847 223.088 48.9899C222.927 48.6951 222.844 48.3692 222.839 48.0124C222.836 47.657 222.921 47.3071 223.092 46.9627C223.269 46.6069 223.483 46.3269 223.735 46.1228C223.989 45.9202 224.268 45.7848 224.57 45.7167C224.872 45.6486 225.186 45.64 225.511 45.6908C225.835 45.7445 226.158 45.8512 226.48 46.0109L226.63 46.0858C226.952 46.2455 227.232 46.4383 227.47 46.6642C227.71 46.8943 227.894 47.1504 228.022 47.4325C228.15 47.7145 228.209 48.0174 228.198 48.3413C228.191 48.6667 228.099 49.0058 227.924 49.3588C227.738 49.7318 227.501 50.0219 227.212 50.229C226.926 50.4374 226.611 50.5564 226.267 50.5859C225.925 50.6197 225.578 50.5532 225.228 50.3863L225.714 49.4092C225.89 49.4862 226.067 49.5202 226.243 49.5111C226.421 49.5064 226.585 49.4559 226.737 49.3595C226.887 49.266 227.009 49.1245 227.104 48.9351C227.208 48.7256 227.251 48.5306 227.233 48.3501C227.219 48.171 227.157 48.0063 227.049 47.8561C226.944 47.7073 226.81 47.5708 226.646 47.4465C226.484 47.3265 226.307 47.2187 226.115 47.1232L225.964 47.0483C225.772 46.9527 225.577 46.8758 225.381 46.8175C225.184 46.7592 224.995 46.7332 224.813 46.7394C224.633 46.7498 224.465 46.8025 224.311 46.8975C224.159 46.9939 224.03 47.1482 223.925 47.3606ZM221.452 53.2325L225.012 55.0017L224.494 56.0434L219.837 53.7286L220.324 52.7472L221.452 53.2325ZM222.348 53.8602L222.183 54.2131C221.87 54.0576 221.599 53.8799 221.369 53.6798C221.142 53.4811 220.967 53.2616 220.843 53.0211C220.722 52.7821 220.663 52.5235 220.665 52.2455C220.67 51.9689 220.75 51.6742 220.906 51.3614C221.018 51.1347 221.155 50.9431 221.315 50.7865C221.475 50.6299 221.658 50.5169 221.864 50.4477C222.069 50.3812 222.301 50.3656 222.559 50.4008C222.817 50.4361 223.099 50.53 223.406 50.6826L226.415 52.178L225.9 53.2153L222.882 51.7157C222.713 51.6315 222.561 51.581 222.426 51.5641C222.294 51.5487 222.177 51.5583 222.074 51.5929C221.97 51.6276 221.882 51.6837 221.807 51.7612C221.733 51.8388 221.67 51.9292 221.619 52.0325C221.472 52.3281 221.414 52.5891 221.444 52.8154C221.477 53.0461 221.574 53.2465 221.736 53.4166C221.897 53.5897 222.101 53.7375 222.348 53.8602ZM219.177 58.2203C219.28 58.2717 219.386 58.2922 219.495 58.2819C219.607 58.2731 219.734 58.2126 219.875 58.1004C220.015 57.9912 220.184 57.8102 220.381 57.5575C220.558 57.3378 220.736 57.1432 220.913 56.9737C221.092 56.8084 221.272 56.6797 221.454 56.5876C221.636 56.4954 221.821 56.4463 222.01 56.4401C222.199 56.4339 222.391 56.4793 222.587 56.5763C222.776 56.6704 222.935 56.8012 223.063 56.9685C223.191 57.1359 223.281 57.3291 223.333 57.5483C223.385 57.7674 223.393 58.006 223.358 58.2641C223.321 58.525 223.235 58.7932 223.098 59.0687C222.904 59.4589 222.672 59.7604 222.401 59.9732C222.132 60.1902 221.849 60.3177 221.551 60.3557C221.256 60.3951 220.969 60.3456 220.691 60.2073L221.206 59.1699C221.33 59.2313 221.46 59.2567 221.598 59.2464C221.737 59.2403 221.87 59.192 221.997 59.1014C222.127 59.0122 222.239 58.8744 222.332 58.6879C222.42 58.5099 222.465 58.3479 222.466 58.2017C222.468 58.0598 222.439 57.9381 222.379 57.8365C222.317 57.7377 222.233 57.662 222.127 57.6092C222.049 57.5707 221.972 57.5501 221.895 57.5474C221.819 57.549 221.737 57.5729 221.65 57.619C221.565 57.6665 221.471 57.7412 221.366 57.8432C221.261 57.9481 221.141 58.0852 221.006 58.2546C220.755 58.5734 220.507 58.8312 220.262 59.0282C220.019 59.2294 219.771 59.3532 219.519 59.3997C219.27 59.4476 219.006 59.4023 218.728 59.264C218.521 59.1613 218.354 59.0227 218.226 58.8482C218.1 58.6779 218.015 58.4782 217.971 58.249C217.93 58.0213 217.933 57.774 217.98 57.5074C218.025 57.2436 218.119 56.9682 218.262 56.6812C218.471 56.2594 218.724 55.9392 219.018 55.7207C219.316 55.5035 219.62 55.3774 219.931 55.3423C220.243 55.3114 220.527 55.3595 220.783 55.4864L220.284 56.4894C220.086 56.4053 219.906 56.3821 219.744 56.4197C219.584 56.4617 219.442 56.5415 219.319 56.6593C219.198 56.7814 219.099 56.92 219.021 57.0749C218.929 57.2615 218.875 57.43 218.861 57.5805C218.85 57.7324 218.871 57.8628 218.925 57.9716C218.981 58.0818 219.065 58.1647 219.177 58.2203ZM217.293 65.9519L218.087 64.355L218.879 64.7379L218.186 66.1325C218.069 66.3678 218.004 66.5844 217.992 66.7822C217.981 66.9843 218.02 67.1612 218.109 67.3129C218.201 67.466 218.342 67.5896 218.531 67.6837C218.741 67.7878 218.932 67.8325 219.104 67.8178C219.276 67.803 219.433 67.7274 219.576 67.5909C219.718 67.4573 219.852 67.2628 219.979 67.0074L220.499 65.9614L215.092 63.2744L215.629 62.194L221.896 65.3089L220.84 67.4353C220.668 67.7796 220.483 68.0703 220.283 68.3072C220.081 68.547 219.863 68.7267 219.628 68.8462C219.395 68.97 219.148 69.0279 218.887 69.02C218.625 69.0149 218.347 68.9396 218.055 68.7941C217.797 68.6657 217.59 68.4864 217.437 68.256C217.286 68.0271 217.202 67.7586 217.187 67.4505C217.172 67.1424 217.241 66.8026 217.393 66.4311L217.293 65.9519ZM214.485 64.4969L215.424 62.6072L216.039 63.5194L215.341 64.9226C215.22 65.1665 215.159 65.3902 215.158 65.5937C215.16 65.7987 215.213 65.977 215.316 66.1286C215.421 66.2846 215.571 66.4111 215.766 66.508C215.97 66.6093 216.164 66.6611 216.349 66.6636C216.537 66.6674 216.71 66.6118 216.867 66.4968C217.027 66.3832 217.169 66.2016 217.293 65.9519L217.897 64.7381L218.68 65.1382L217.895 66.7179L217.476 66.8156C217.293 67.1543 217.077 67.3992 216.826 67.5502C216.575 67.7042 216.31 67.7801 216.032 67.7779C215.754 67.7757 215.485 67.7104 215.227 67.582C214.828 67.3838 214.538 67.1301 214.355 66.821C214.171 66.5147 214.089 66.1645 214.109 65.7704C214.133 65.3777 214.258 64.9532 214.485 64.4969ZM215.194 68.7833L215.293 68.8325C215.629 68.9993 215.916 69.2029 216.154 69.4431C216.395 69.6847 216.577 69.9501 216.698 70.2393C216.82 70.5328 216.874 70.8422 216.859 71.1676C216.846 71.4972 216.755 71.8313 216.586 72.17C216.417 72.5114 216.205 72.7857 215.952 72.9926C215.7 73.2039 215.42 73.3493 215.113 73.4289C214.807 73.5099 214.486 73.5271 214.147 73.4806C213.812 73.4356 213.476 73.3296 213.141 73.1628L213.042 73.1136C212.706 72.9467 212.419 72.7432 212.18 72.503C211.942 72.2628 211.761 71.9959 211.639 71.7024C211.519 71.4104 211.465 71.1009 211.478 70.7742C211.492 70.4488 211.584 70.1168 211.752 69.7782C211.922 69.4367 212.133 69.1604 212.385 68.9491C212.638 68.7421 212.917 68.5981 213.222 68.5171C213.53 68.4376 213.852 68.4203 214.187 68.4654C214.522 68.5104 214.858 68.6164 215.194 68.7833ZM214.777 69.8698L214.678 69.8206C214.469 69.7165 214.26 69.6396 214.052 69.59C213.844 69.5403 213.647 69.5265 213.461 69.5484C213.275 69.5703 213.106 69.6331 212.954 69.7366C212.802 69.8402 212.677 69.991 212.579 70.189C212.483 70.3812 212.441 70.5676 212.451 70.7482C212.46 70.9316 212.512 71.1042 212.607 71.2659C212.702 71.4276 212.832 71.5763 212.997 71.7121C213.161 71.8507 213.348 71.9721 213.557 72.0762L213.656 72.1254C213.863 72.2281 214.069 72.3021 214.276 72.3475C214.484 72.3971 214.683 72.4103 214.874 72.3869C215.063 72.3664 215.233 72.3043 215.385 72.2008C215.538 72.1015 215.663 71.9543 215.76 71.7592C215.857 71.5641 215.899 71.3741 215.887 71.1892C215.877 71.0087 215.823 70.8368 215.725 70.6737C215.627 70.5106 215.496 70.3611 215.331 70.2254C215.168 70.091 214.984 69.9725 214.777 69.8698ZM210.201 76.2799C210.304 76.3312 210.411 76.3517 210.519 76.3415C210.631 76.3326 210.758 76.2721 210.9 76.16C211.04 76.0507 211.208 75.8697 211.406 75.617C211.583 75.3974 211.76 75.2027 211.937 75.0332C212.116 74.868 212.296 74.7393 212.478 74.6471C212.66 74.555 212.845 74.5058 213.034 74.4996C213.224 74.4934 213.416 74.5388 213.611 74.6358C213.8 74.7299 213.959 74.8607 214.087 75.0281C214.215 75.1954 214.305 75.3887 214.357 75.6078C214.409 75.827 214.418 76.0656 214.382 76.3236C214.346 76.5845 214.259 76.8527 214.122 77.1282C213.928 77.5185 213.696 77.82 213.426 78.0327C213.157 78.2498 212.873 78.3773 212.575 78.4153C212.28 78.4547 211.993 78.4052 211.715 78.2668L212.231 77.2295C212.354 77.2908 212.484 77.3163 212.622 77.3059C212.761 77.2998 212.894 77.2515 213.021 77.1609C213.152 77.0718 213.263 76.9339 213.356 76.7474C213.444 76.5695 213.489 76.4074 213.49 76.2612C213.493 76.1194 213.464 75.9976 213.403 75.896C213.341 75.7973 213.257 75.7215 213.151 75.6688C213.074 75.6302 212.996 75.6096 212.919 75.607C212.843 75.6086 212.761 75.6324 212.674 75.6785C212.59 75.726 212.495 75.8007 212.391 75.9027C212.285 76.0076 212.165 76.1448 212.031 76.3142C211.779 76.6329 211.531 76.8908 211.287 77.0877C211.043 77.2889 210.796 77.4128 210.544 77.4592C210.294 77.5071 210.031 77.4619 209.752 77.3235C209.546 77.2209 209.378 77.0822 209.25 76.9077C209.124 76.7375 209.039 76.5378 208.995 76.3086C208.955 76.0808 208.958 75.8336 209.004 75.5669C209.049 75.3031 209.143 75.0277 209.286 74.7408C209.496 74.3189 209.748 73.9987 210.043 73.7802C210.34 73.5631 210.644 73.437 210.955 73.4018C211.268 73.371 211.551 73.419 211.807 73.546L211.308 74.5489C211.11 74.4648 210.93 74.4416 210.769 74.4792C210.608 74.5212 210.467 74.6011 210.344 74.7189C210.222 74.841 210.123 74.9795 210.046 75.1345C209.953 75.321 209.9 75.4895 209.886 75.64C209.875 75.792 209.896 75.9223 209.949 76.0311C210.005 76.1413 210.089 76.2243 210.201 76.2799ZM207.685 80.0366C207.6 80.2059 207.558 80.3744 207.557 80.5421C207.557 80.714 207.597 80.8716 207.676 81.0147C207.754 81.1607 207.87 81.2772 208.023 81.3643L207.537 82.3414C207.239 82.1859 207.009 81.9607 206.848 81.6659C206.687 81.3711 206.604 81.0452 206.598 80.6884C206.596 80.333 206.681 79.9831 206.852 79.6387C207.029 79.2829 207.243 79.0029 207.495 78.7988C207.749 78.5962 208.028 78.4608 208.33 78.3927C208.632 78.3246 208.946 78.316 209.271 78.3668C209.595 78.4205 209.918 78.5272 210.239 78.6869L210.39 78.7618C210.711 78.9215 210.991 79.1143 211.23 79.3402C211.47 79.5703 211.654 79.8264 211.782 80.1085C211.91 80.3905 211.969 80.6934 211.958 81.0173C211.95 81.3427 211.859 81.6818 211.683 82.0348C211.498 82.4078 211.261 82.6979 210.972 82.905C210.686 83.1134 210.371 83.2324 210.027 83.2619C209.684 83.2957 209.338 83.2292 208.988 83.0623L209.474 82.0852C209.65 82.1622 209.826 82.1962 210.003 82.1871C210.18 82.1824 210.345 82.1319 210.497 82.0355C210.647 81.942 210.769 81.8005 210.863 81.6111C210.967 81.4016 211.011 81.2066 210.993 81.0261C210.978 80.847 210.917 80.6823 210.809 80.5321C210.704 80.3833 210.57 80.2468 210.406 80.1225C210.244 80.0025 210.067 79.8947 209.874 79.7992L209.724 79.7243C209.532 79.6287 209.337 79.5518 209.141 79.4935C208.944 79.4352 208.755 79.4092 208.573 79.4154C208.392 79.4258 208.225 79.4785 208.07 79.5735C207.919 79.6699 207.79 79.8242 207.685 80.0366ZM207.882 83.4944L207.981 83.5436C208.317 83.7105 208.604 83.914 208.843 84.1542C209.084 84.3958 209.265 84.6613 209.386 84.9504C209.509 85.2439 209.562 85.5534 209.548 85.8787C209.534 86.2084 209.443 86.5425 209.275 86.8811C209.105 87.2226 208.894 87.4968 208.64 87.7038C208.389 87.9151 208.109 88.0605 207.801 88.1401C207.496 88.221 207.174 88.2383 206.836 88.1918C206.5 88.1468 206.165 88.0408 205.829 87.8739L205.73 87.8247C205.394 87.6578 205.107 87.4543 204.869 87.2141C204.63 86.9739 204.45 86.7071 204.327 86.4136C204.208 86.1215 204.154 85.8121 204.166 85.4853C204.181 85.16 204.273 84.828 204.441 84.4894C204.611 84.1479 204.821 83.8715 205.073 83.6602C205.326 83.4533 205.605 83.3093 205.91 83.2283C206.218 83.1487 206.54 83.1315 206.875 83.1765C207.211 83.2216 207.547 83.3276 207.882 83.4944ZM207.466 84.581L207.367 84.5318C207.157 84.4277 206.948 84.3508 206.741 84.3011C206.533 84.2515 206.336 84.2376 206.149 84.2596C205.963 84.2815 205.794 84.3443 205.642 84.4478C205.491 84.5514 205.366 84.7021 205.267 84.9001C205.172 85.0924 205.129 85.2788 205.14 85.4594C205.149 85.6428 205.201 85.8153 205.296 85.977C205.391 86.1388 205.521 86.2875 205.686 86.4232C205.85 86.5619 206.036 86.6832 206.246 86.7873L206.345 86.8365C206.551 86.9392 206.758 87.0133 206.964 87.0586C207.172 87.1083 207.371 87.1214 207.562 87.098C207.751 87.0775 207.922 87.0155 208.073 86.9119C208.226 86.8127 208.351 86.6655 208.448 86.4704C208.545 86.2752 208.588 86.0852 208.576 85.9004C208.565 85.7198 208.511 85.548 208.413 85.3849C208.316 85.2217 208.184 85.0723 208.019 84.9365C207.857 84.8022 207.672 84.6837 207.466 84.581ZM202.29 93.7522L206.677 95.9322L206.142 97.0083L201.755 94.8283C201.339 94.6215 201.029 94.3564 200.825 94.033C200.621 93.7096 200.517 93.3559 200.515 92.9718C200.513 92.5877 200.608 92.2006 200.802 91.8103C201.001 91.4114 201.244 91.0905 201.533 90.8476C201.821 90.6076 202.147 90.4692 202.512 90.4325C202.878 90.3958 203.274 90.4837 203.702 90.6963L203.163 91.781C202.916 91.6583 202.697 91.5979 202.507 91.5998C202.317 91.606 202.153 91.6637 202.013 91.773C201.874 91.8865 201.756 92.0409 201.659 92.236C201.566 92.4225 201.526 92.6082 201.538 92.7931C201.551 92.9822 201.619 93.159 201.741 93.3235C201.866 93.4895 202.049 93.6324 202.29 93.7522ZM198.918 98.5707L202.478 100.34L201.961 101.382L197.303 99.0668L197.791 98.0854L198.918 98.5707ZM199.814 99.1984L199.65 99.5513C199.337 99.3959 199.066 99.2181 198.836 99.018C198.609 98.8194 198.433 98.5998 198.31 98.3593C198.189 98.1203 198.129 97.8618 198.131 97.5837C198.137 97.3071 198.217 97.0124 198.372 96.6996C198.485 96.4729 198.621 96.2813 198.781 96.1247C198.942 95.9681 199.125 95.8552 199.331 95.7859C199.536 95.7195 199.767 95.7039 200.025 95.7391C200.283 95.7743 200.566 95.8682 200.873 96.0208L203.882 97.5162L203.366 98.5536L200.349 97.0539C200.179 96.9698 200.027 96.9192 199.893 96.9024C199.761 96.8869 199.643 96.8965 199.54 96.9312C199.437 96.9658 199.348 97.0219 199.274 97.0995C199.2 97.177 199.137 97.2675 199.085 97.3708C198.939 97.6664 198.88 97.9273 198.911 98.1537C198.943 98.3843 199.04 98.5847 199.203 98.7549C199.364 98.9279 199.567 99.0757 199.814 99.1984ZM202.741 104.716L196.129 101.429L196.647 100.388L203.258 103.674L202.741 104.716ZM199.576 106.18L194.918 103.865L195.436 102.824L200.093 105.138L199.576 106.18ZM201.35 105.677C201.508 105.756 201.613 105.872 201.665 106.027C201.718 106.186 201.699 106.358 201.606 106.545C201.515 106.729 201.389 106.847 201.23 106.901C201.074 106.955 200.917 106.944 200.76 106.865C200.605 106.788 200.502 106.671 200.451 106.513C200.401 106.356 200.421 106.185 200.513 106.002C200.605 105.815 200.73 105.694 200.886 105.64C201.04 105.588 201.195 105.6 201.35 105.677ZM193.153 107.201C193.324 106.857 193.535 106.573 193.785 106.35C194.037 106.132 194.313 105.976 194.614 105.882C194.913 105.791 195.226 105.762 195.553 105.796C195.88 105.829 196.202 105.925 196.521 106.084L196.693 106.169C197.058 106.35 197.361 106.568 197.604 106.821C197.847 107.074 198.026 107.347 198.141 107.641C198.26 107.935 198.31 108.24 198.294 108.554C198.278 108.868 198.194 109.175 198.045 109.477C197.879 109.809 197.679 110.073 197.443 110.267C197.207 110.461 196.946 110.589 196.661 110.651C196.377 110.718 196.076 110.722 195.758 110.664C195.438 110.609 195.111 110.498 194.775 110.331L194.332 110.111L196.12 106.512L196.865 106.883L195.585 109.457L195.667 109.497C195.857 109.584 196.05 109.634 196.248 109.646C196.444 109.662 196.627 109.625 196.796 109.538C196.965 109.45 197.106 109.291 197.22 109.062C197.306 108.889 197.345 108.717 197.337 108.545C197.331 108.378 197.281 108.215 197.188 108.058C197.094 107.9 196.962 107.749 196.791 107.603C196.622 107.461 196.417 107.331 196.175 107.211L196.003 107.125C195.8 107.024 195.597 106.957 195.394 106.925C195.194 106.897 195.002 106.905 194.818 106.95C194.635 106.995 194.468 107.076 194.316 107.194C194.167 107.313 194.044 107.472 193.945 107.67C193.821 107.92 193.761 108.167 193.764 108.412C193.768 108.657 193.826 108.897 193.938 109.132L193.137 109.415C193.04 109.242 192.965 109.042 192.91 108.814C192.858 108.588 192.848 108.338 192.88 108.064C192.911 107.793 193.002 107.505 193.153 107.201ZM195.413 114.556L194.655 114.179L195.96 111.553L196.718 111.93L195.413 114.556ZM197.482 113.254L196.967 114.292L192.456 112.05C192.312 111.978 192.192 111.944 192.094 111.945C191.998 111.951 191.919 111.985 191.856 112.047C191.793 112.109 191.736 112.19 191.687 112.29C191.651 112.362 191.621 112.433 191.597 112.503C191.573 112.573 191.555 112.631 191.543 112.675L190.749 112.286C190.766 112.187 190.793 112.075 190.83 111.95C190.866 111.829 190.92 111.694 190.993 111.548C191.111 111.31 191.257 111.12 191.432 110.977C191.609 110.836 191.82 110.762 192.063 110.754C192.307 110.747 192.588 110.822 192.907 110.98L197.482 113.254Z" fill="white"/>
</g>
<g filter="url(#filter0_d_379_3174)">
<g clip-path="url(#clip1_379_3174)">
<rect x="116.917" y="0.436676" width="244.188" height="129.668" rx="8.92528" transform="rotate(64.3774 116.917 0.436676)" fill="#7750A1"/>
<path d="M206.447 207.546L205.037 225.712L190.009 215.43L190.009 215.43L174.967 205.125L191.338 197.149L191.339 197.148L206.198 190.022L206.206 190.018L206.213 190.014C206.38 189.924 206.569 189.883 206.759 189.895C206.948 189.907 207.13 189.972 207.285 190.082C207.439 190.193 207.559 190.345 207.631 190.52C207.703 190.696 207.725 190.888 207.693 191.075L207.69 191.091L207.689 191.107L206.447 207.546L206.447 207.546Z" stroke="white" stroke-width="0.702002"/>
<path d="M156.027 231.598L156.026 231.598L142.458 222.39L142.458 222.39L142.453 222.387C142.305 222.29 142.185 222.154 142.107 221.995C142.029 221.836 141.995 221.659 142.009 221.482C142.023 221.305 142.084 221.135 142.186 220.99C142.288 220.845 142.427 220.73 142.589 220.657L142.589 220.657L142.599 220.652L157.407 213.422L157.408 213.421L173.824 205.548L172.445 223.725L172.445 223.725L171.056 241.88L156.027 231.598Z" stroke="white" stroke-width="0.702002"/>
<path d="M173.145 223.778L174.525 205.602L189.562 215.904L189.562 215.904L204.59 226.186L188.173 234.06L171.736 241.943L173.145 223.778L173.145 223.778Z" stroke="white" stroke-width="0.702002"/>
<path d="M152.052 179.799L137.004 169.526L153.441 161.643L169.859 153.769L168.469 171.925L168.469 171.925L167.09 190.101L152.052 179.799L152.052 179.799Z" stroke="white" stroke-width="0.702002"/>
<path d="M118.08 196.092L103.052 185.81L119.49 177.926L135.907 170.052L134.518 188.208L134.518 188.208L133.139 206.385L118.08 196.092L118.08 196.092Z" stroke="white" stroke-width="0.702002"/>
<path d="M150.255 198.565L133.838 206.439L135.217 188.262L135.217 188.262L136.607 170.106L151.655 180.378L151.656 180.378L166.694 190.681L150.255 198.565Z" stroke="white" stroke-width="0.702002"/>
<path d="M85.5373 194.209L85.5377 194.209L101.953 186.336L100.516 204.386L100.516 204.387L99.1362 222.564L84.0776 212.271L84.077 212.27L70.5333 203.055C70.5328 203.055 70.5322 203.054 70.5316 203.054C70.3878 202.953 70.2727 202.816 70.1976 202.658C70.1223 202.498 70.0898 202.322 70.1036 202.146C70.1174 201.97 70.1768 201.801 70.276 201.655C70.3751 201.51 70.5103 201.392 70.6683 201.315L85.5373 194.209Z" stroke="white" stroke-width="0.702002"/>
<path d="M117.682 196.672L132.741 206.965L116.303 214.848L99.8654 222.732L101.265 204.546L101.265 204.546L102.654 186.39L117.682 196.672L117.682 196.672Z" stroke="white" stroke-width="0.702002"/>
<path d="M199.194 173.395L199.194 173.395L199.197 173.397C199.346 173.497 199.465 173.634 199.544 173.795C199.622 173.956 199.656 174.134 199.643 174.313C199.63 174.491 199.57 174.663 199.469 174.811C199.368 174.958 199.23 175.077 199.068 175.153L199.067 175.154L184.207 182.281L167.789 190.155L169.169 171.979L169.169 171.978L170.606 153.923L185.607 164.094L185.608 164.095L199.194 173.395Z" stroke="white" stroke-width="0.702002"/>
<circle opacity="0.5" cx="111.507" cy="39.3358" r="7.25072" transform="rotate(64.3774 111.507 39.3358)" fill="white"/>
<circle opacity="0.8" cx="107.407" cy="30.787" r="7.25072" transform="rotate(64.3774 107.407 30.787)" fill="white"/>
<path d="M83.335 34.9619L84.9734 35.3436L84.7025 33.7783L85.59 33.6725L85.7011 35.2825L87.1742 34.4747L87.5775 35.3155L85.9909 35.9645L87.1601 37.035L86.5069 37.6628L85.4454 36.45L84.7289 37.9238L83.9258 37.472L84.8089 36.0676L83.2019 35.8627L83.335 34.9619ZM85.3594 39.1828L86.9978 39.5645L86.7269 37.9992L87.6144 37.8934L87.7255 39.5034L89.1986 38.6956L89.6019 39.5364L88.0153 40.1854L89.1844 41.2559L88.5313 41.8837L87.4698 40.6709L86.7533 42.1447L85.9502 41.6929L86.8333 40.2885L85.2263 40.0836L85.3594 39.1828ZM87.3838 43.4037L89.0222 43.7854L88.7512 42.2201L89.6388 42.1143L89.7499 43.7243L91.223 42.9165L91.6262 43.7573L90.0396 44.4063L91.2088 45.4768L90.5556 46.1046L89.4942 44.8918L88.7776 46.3656L87.9745 45.9138L88.8576 44.5094L87.2507 44.3045L87.3838 43.4037ZM89.4081 47.6246L91.0466 48.0063L90.7756 46.441L91.6631 46.3352L91.7742 47.9452L93.2473 47.1374L93.6506 47.9782L92.064 48.6272L93.2332 49.6977L92.58 50.3255L91.5185 49.1127L90.802 50.5865L89.9989 50.1347L90.882 48.7303L89.2751 48.5254L89.4081 47.6246ZM93.7352 56.6467L95.3736 57.0284L95.1027 55.4631L95.9902 55.3573L96.1013 56.9673L97.5744 56.1595L97.9777 57.0003L96.3911 57.6493L97.5602 58.7198L96.9071 59.3476L95.8456 58.1348L95.1291 59.6086L94.326 59.1568L95.209 57.7524L93.6021 57.5475L93.7352 56.6467ZM95.7595 60.8676L97.398 61.2493L97.127 59.684L98.0145 59.5782L98.1257 61.1882L99.5988 60.3804L100.002 61.2212L98.4154 61.8702L99.5846 62.9407L98.9314 63.5685L97.87 62.3557L97.1534 63.8295L96.3503 63.3777L97.2334 61.9733L95.6265 61.7684L95.7595 60.8676ZM97.7839 65.0885L99.4223 65.4702L99.1514 63.9049L100.039 63.7991L100.15 65.4091L101.623 64.6013L102.026 65.4421L100.44 66.0911L101.609 67.1617L100.956 67.7894L99.8943 66.5766L99.1778 68.0504L98.3747 67.5986L99.2578 66.1942L97.6508 65.9893L97.7839 65.0885ZM99.8083 69.3094L101.447 69.6911L101.176 68.1258L102.063 68.02L102.174 69.63L103.648 68.8222L104.051 69.663L102.464 70.312L103.633 71.3826L102.98 72.0104L101.919 70.7975L101.202 72.2714L100.399 71.8196L101.282 70.4151L99.6752 70.2102L99.8083 69.3094ZM104.135 78.3315L105.774 78.7132L105.503 77.1479L106.39 77.0421L106.501 78.6521L107.975 77.8443L108.378 78.6851L106.791 79.3341L107.96 80.4047L107.307 81.0325L106.246 79.8196L105.529 81.2934L104.726 80.8416L105.609 79.4372L104.002 79.2323L104.135 78.3315ZM106.16 82.5524L107.798 82.9341L107.527 81.3688L108.415 81.263L108.526 82.873L109.999 82.0652L110.402 82.906L108.816 83.555L109.985 84.6256L109.332 85.2534L108.27 84.0405L107.554 85.5144L106.75 85.0626L107.634 83.6581L106.027 83.4532L106.16 82.5524ZM108.184 86.7734L109.823 87.155L109.552 85.5897L110.439 85.4839L110.55 87.0939L112.023 86.2861L112.427 87.1269L110.84 87.7759L112.009 88.8465L111.356 89.4743L110.294 88.2614L109.578 89.7353L108.775 89.2835L109.658 87.879L108.051 87.6741L108.184 86.7734ZM110.208 90.9943L111.847 91.376L111.576 89.8106L112.463 89.7048L112.575 91.3148L114.048 90.507L114.451 91.3478L112.864 91.9968L114.033 93.0674L113.38 93.6952L112.319 92.4823L111.602 93.9562L110.799 93.5044L111.682 92.0999L110.075 91.8951L110.208 90.9943ZM114.919 101.138L114.679 100.027L118.05 98.853L119.751 102.398L118.741 102.883L117.533 100.365L116.058 100.88C116.148 100.94 116.261 101.042 116.397 101.186C116.537 101.329 116.657 101.506 116.759 101.717C116.905 102.023 116.988 102.318 117.006 102.6C117.025 102.883 116.982 103.15 116.879 103.402C116.777 103.657 116.616 103.891 116.395 104.104C116.173 104.317 115.896 104.503 115.564 104.662C115.284 104.797 114.996 104.881 114.7 104.917C114.407 104.951 114.119 104.927 113.835 104.847C113.554 104.764 113.293 104.618 113.053 104.406C112.813 104.194 112.605 103.906 112.431 103.542C112.3 103.27 112.215 102.988 112.174 102.695C112.134 102.405 112.145 102.121 112.207 101.842C112.27 101.566 112.386 101.314 112.553 101.085C112.724 100.857 112.955 100.67 113.244 100.524L113.838 101.764C113.667 101.867 113.535 101.987 113.441 102.125C113.351 102.264 113.302 102.413 113.294 102.574C113.285 102.734 113.322 102.9 113.404 103.07C113.48 103.229 113.576 103.35 113.69 103.434C113.805 103.517 113.932 103.568 114.073 103.586C114.216 103.603 114.367 103.593 114.527 103.555C114.691 103.519 114.858 103.46 115.028 103.378C115.199 103.297 115.344 103.202 115.463 103.095C115.582 102.988 115.672 102.869 115.733 102.736C115.794 102.604 115.821 102.46 115.814 102.303C115.808 102.15 115.764 101.988 115.682 101.818C115.571 101.586 115.449 101.425 115.316 101.332C115.184 101.242 115.052 101.178 114.919 101.138ZM121.938 106.792L122.025 106.974L121.028 107.452L120.993 107.378C120.835 107.049 120.645 106.779 120.424 106.569C120.202 106.359 119.957 106.208 119.689 106.116C119.426 106.026 119.144 105.994 118.844 106.021C118.545 106.05 118.238 106.14 117.924 106.291L116.875 106.794C116.649 106.903 116.46 107.02 116.308 107.146C116.159 107.274 116.048 107.408 115.972 107.547C115.901 107.688 115.864 107.83 115.862 107.973C115.863 108.115 115.897 108.258 115.967 108.403C116.032 108.539 116.12 108.647 116.23 108.73C116.342 108.815 116.469 108.871 116.61 108.899C116.756 108.929 116.909 108.93 117.07 108.902C117.235 108.877 117.403 108.823 117.574 108.741C117.744 108.659 117.891 108.562 118.015 108.449C118.14 108.34 118.235 108.219 118.3 108.089C118.368 107.956 118.404 107.819 118.406 107.675C118.408 107.532 118.375 107.388 118.306 107.244C118.211 107.047 118.082 106.896 117.917 106.79C117.757 106.686 117.586 106.626 117.404 106.61C117.223 106.594 117.052 106.62 116.894 106.689L116.955 106.196C117.182 106.098 117.415 106.043 117.655 106.031C117.896 106.022 118.129 106.056 118.354 106.133C118.583 106.211 118.793 106.337 118.982 106.509C119.174 106.68 119.335 106.899 119.464 107.168C119.605 107.463 119.673 107.748 119.667 108.025C119.662 108.304 119.597 108.566 119.473 108.811C119.349 109.055 119.176 109.277 118.955 109.475C118.734 109.674 118.477 109.843 118.185 109.983C117.879 110.13 117.57 110.216 117.259 110.241C116.949 110.269 116.65 110.236 116.364 110.142C116.079 110.051 115.819 109.902 115.584 109.695C115.35 109.488 115.155 109.222 115 108.898C114.839 108.563 114.753 108.229 114.743 107.897C114.737 107.566 114.798 107.248 114.927 106.945C115.055 106.642 115.246 106.363 115.501 106.11C115.758 105.859 116.068 105.646 116.432 105.471L116.917 105.239C117.426 104.995 117.927 104.845 118.419 104.79C118.916 104.737 119.386 104.776 119.83 104.908C120.276 105.039 120.68 105.261 121.04 105.575C121.4 105.889 121.7 106.295 121.938 106.792ZM124.92 113.176L124.248 113.498L117.439 113.763L116.807 112.445L123.313 112.326L121.806 109.184L122.781 108.716L124.92 113.176ZM122.858 120.626C122.462 120.816 122.084 120.883 121.724 120.829C121.366 120.772 121.041 120.616 120.747 120.359C120.457 120.103 120.215 119.772 120.019 119.364C119.824 118.957 119.716 118.559 119.697 118.17C119.68 117.78 119.762 117.427 119.94 117.11C120.122 116.792 120.41 116.538 120.806 116.348C121.072 116.221 121.338 116.159 121.603 116.163C121.871 116.166 122.127 116.226 122.371 116.344C122.62 116.462 122.848 116.632 123.053 116.854C123.262 117.074 123.439 117.337 123.586 117.643C123.783 118.053 123.887 118.455 123.898 118.848C123.908 119.241 123.827 119.593 123.652 119.904C123.478 120.215 123.213 120.455 122.858 120.626ZM122.337 119.329C122.531 119.237 122.679 119.119 122.782 118.978C122.889 118.838 122.948 118.683 122.959 118.514C122.971 118.345 122.934 118.172 122.85 117.996C122.765 117.82 122.653 117.683 122.514 117.587C122.376 117.49 122.217 117.438 122.04 117.43C121.866 117.425 121.683 117.468 121.489 117.561C121.299 117.653 121.151 117.768 121.047 117.906C120.945 118.048 120.888 118.203 120.876 118.372C120.869 118.543 120.908 118.717 120.994 118.897C121.08 119.076 121.191 119.213 121.325 119.308C121.464 119.405 121.619 119.455 121.791 119.458C121.965 119.464 122.147 119.421 122.337 119.329ZM125.702 119.097C125.381 119.25 125.055 119.302 124.725 119.25C124.398 119.198 124.092 119.053 123.808 118.816C123.525 118.582 123.291 118.272 123.105 117.884C122.918 117.494 122.821 117.114 122.814 116.744C122.807 116.374 122.886 116.045 123.05 115.757C123.216 115.467 123.46 115.246 123.781 115.092C124.162 114.909 124.524 114.84 124.866 114.886C125.212 114.933 125.525 115.075 125.805 115.31C126.086 115.548 126.319 115.86 126.503 116.244C126.69 116.634 126.788 117.012 126.796 117.377C126.806 117.746 126.72 118.079 126.539 118.375C126.362 118.673 126.083 118.914 125.702 119.097ZM125.047 117.875C125.217 117.794 125.35 117.693 125.445 117.572C125.543 117.451 125.6 117.317 125.615 117.171C125.632 117.028 125.601 116.876 125.524 116.714C125.449 116.558 125.351 116.439 125.231 116.358C125.112 116.281 124.974 116.242 124.818 116.242C124.666 116.244 124.502 116.287 124.325 116.371C124.155 116.453 124.018 116.554 123.916 116.674C123.818 116.796 123.76 116.93 123.742 117.078C123.724 117.225 123.753 117.378 123.829 117.537C123.905 117.696 124.006 117.813 124.131 117.888C124.257 117.966 124.397 118.004 124.552 118.001C124.711 117.999 124.876 117.957 125.047 117.875Z" fill="white"/>
<path opacity="0.6" d="M74.2642 41.9719L68.8255 44.5803L68.4959 43.8931L73.0764 41.6962L71.9066 40.5529L72.527 40.2553L74.2125 41.8642L74.2642 41.9719ZM73.4096 46.3353L73.6448 46.8256C73.76 47.0659 73.8946 47.245 74.0487 47.363C74.2065 47.4823 74.3731 47.5471 74.5486 47.5574C74.7278 47.5689 74.9053 47.5325 75.0811 47.4482C75.2892 47.3484 75.4471 47.23 75.555 47.0929C75.6629 46.9559 75.7196 46.8008 75.7249 46.6277C75.7302 46.4545 75.6817 46.2615 75.5796 46.0485C75.4869 45.8553 75.3666 45.7028 75.2186 45.591C75.0742 45.4806 74.9124 45.4165 74.7334 45.3988C74.5555 45.3836 74.3724 45.4211 74.1842 45.5114L73.8546 44.8241C74.1295 44.6923 74.4129 44.6416 74.7048 44.6722C74.9967 44.7028 75.2695 44.8111 75.5232 44.9971C75.7781 45.1856 75.9851 45.4458 76.1443 45.7776C76.3011 46.1046 76.38 46.4185 76.3812 46.7195C76.3849 47.0194 76.3055 47.292 76.143 47.5375C75.9829 47.7818 75.7345 47.9847 75.3977 48.1463C75.2614 48.2116 75.0999 48.2495 74.913 48.2599C74.7297 48.2717 74.5392 48.2427 74.3413 48.1731C74.1446 48.106 73.9524 47.988 73.7648 47.819C73.5796 47.6489 73.4164 47.4165 73.275 47.1218L72.9935 46.5348L73.4096 46.3353ZM72.8449 46.6061L73.2573 46.4083L73.5388 46.9953C73.7039 47.3395 73.7996 47.6439 73.826 47.9085C73.8523 48.1731 73.8283 48.4024 73.7538 48.5965C73.6806 48.7931 73.5747 48.9566 73.4362 49.087C73.3013 49.2187 73.1534 49.3232 72.9924 49.4004C72.7398 49.5215 72.4949 49.5857 72.2577 49.5928C72.0216 49.6025 71.7981 49.5619 71.587 49.4712C71.3772 49.383 71.1877 49.2515 71.0186 49.0767C70.8495 48.902 70.7061 48.692 70.5885 48.4468C70.4757 48.2115 70.4028 47.9738 70.3699 47.7337C70.3382 47.4961 70.3474 47.2677 70.3977 47.0486C70.4505 46.8284 70.5484 46.6291 70.6914 46.4509C70.8368 46.2714 71.0297 46.1241 71.2699 46.0089L71.5995 46.6962C71.4113 46.7864 71.2662 46.9063 71.1642 47.0557C71.0634 47.2076 71.0103 47.3794 71.0046 47.5709C71.0027 47.7638 71.0522 47.9655 71.1532 48.176C71.2541 48.3865 71.3768 48.5501 71.521 48.6667C71.669 48.7846 71.8368 48.8488 72.0246 48.8592C72.2136 48.8722 72.4208 48.8246 72.6462 48.7165C72.8715 48.6084 73.0335 48.4729 73.132 48.3099C73.233 48.1457 73.2766 47.9603 73.2628 47.7537C73.2526 47.5483 73.1917 47.3293 73.0801 47.0965L72.8449 46.6061ZM78.6217 51.1338L71.6669 51.6957L71.3836 51.105L78.3402 50.5469L78.6217 51.1338ZM75.8927 57.8675L75.328 58.1383L73.63 54.598L74.1241 54.361L76.9466 55.187C77.2939 55.2885 77.5802 55.3583 77.8056 55.3965C78.0347 55.4358 78.2274 55.447 78.3837 55.4299C78.5437 55.4141 78.6943 55.3724 78.8354 55.3047C79.0137 55.2191 79.1569 55.1048 79.2649 54.9616C79.3766 54.8197 79.4419 54.6574 79.4609 54.4746C79.4799 54.2919 79.4413 54.1002 79.345 53.8996C79.2298 53.6594 79.0866 53.4813 78.9152 53.3655C78.7476 53.2509 78.5618 53.1938 78.3578 53.1942C78.1539 53.1945 77.9442 53.2463 77.7287 53.3497L77.3991 52.6624C77.7037 52.5163 78.0144 52.4495 78.3312 52.4621C78.6479 52.4747 78.9436 52.5766 79.2181 52.7679C79.4951 52.9579 79.7256 53.2449 79.9097 53.6288C80.0736 53.9706 80.1531 54.2919 80.1482 54.5928C80.1457 54.8925 80.0664 55.1591 79.9102 55.3924C79.7577 55.627 79.5365 55.8138 79.2468 55.9527C79.0883 56.0288 78.9142 56.0787 78.7246 56.1026C78.5387 56.1278 78.3427 56.132 78.1366 56.1151C77.9316 56.1006 77.7215 56.0689 77.5061 56.0199C77.2918 55.9734 77.0759 55.917 76.8583 55.8508L74.592 55.1556L75.8927 57.8675ZM79.3455 61.8466L78.7809 62.1174L76.9065 58.2093L77.3114 58.0151L82.2215 58.6395L82.4905 59.2004L81.1171 59.1189L77.8453 58.7186L79.3455 61.8466ZM82.5725 59.3713L77.1635 61.9655L76.8339 61.2782L82.2429 58.684L82.5725 59.3713Z" fill="white"/>
<path d="M41.868 56.305L35.5576 59.3315L35.0358 58.2436L41.3463 55.2171L41.868 56.305ZM43.6868 60.0973L39.4222 58.9973L37.1809 58.2811L38.1686 57.5728L39.9504 57.9977L43.0508 58.7711L43.6868 60.0973ZM36.8152 61.9536L38.81 58.4433L39.9108 58.8377L37.4346 63.2452L36.8152 61.9536ZM40.1755 66.1256L43.7598 64.4065L44.2628 65.4554L39.5733 67.7045L39.0994 66.7163L40.1755 66.1256ZM41.2213 65.8052L41.3984 66.1521C41.0834 66.3032 40.7764 66.4078 40.4773 66.4659C40.1811 66.5227 39.9001 66.5259 39.6344 66.4757C39.3715 66.4241 39.1311 66.3119 38.9132 66.1392C38.6982 65.9651 38.5152 65.7206 38.3642 65.4056C38.2547 65.1774 38.1874 64.9519 38.1624 64.7294C38.1374 64.5068 38.161 64.2929 38.2332 64.0877C38.3067 63.8854 38.4368 63.6933 38.6232 63.5115C38.8097 63.3297 39.0575 63.1646 39.3666 63.0163L42.3962 61.5633L42.8971 62.6079L39.8589 64.065C39.6884 64.1468 39.5551 64.2356 39.4589 64.3315C39.3657 64.426 39.301 64.5245 39.2649 64.6271C39.2288 64.7297 39.2185 64.8342 39.2339 64.9405C39.2494 65.0468 39.2821 65.152 39.3319 65.256C39.4747 65.5536 39.6447 65.7599 39.842 65.875C40.0437 65.9915 40.2615 66.0381 40.4955 66.0147C40.7309 65.9942 40.9728 65.9244 41.2213 65.8052ZM44.3631 68.2321L40.6748 70.001L40.1738 68.9565L44.8633 66.7074L45.3351 67.6913L44.3631 68.2321ZM43.1035 68.607L42.9457 68.2668C43.2793 68.1104 43.6064 68.0104 43.9267 67.9669C44.2484 67.9264 44.5478 67.9392 44.8247 68.0054C45.1031 68.0744 45.3505 68.1975 45.5668 68.3744C45.7861 68.5501 45.963 68.778 46.0974 69.0583C46.2055 69.2836 46.2714 69.5026 46.2951 69.7151C46.3231 69.9291 46.299 70.1344 46.2226 70.3309C46.1477 70.5304 46.0156 70.7181 45.8264 70.8942C45.6401 71.0688 45.3865 71.2331 45.0658 71.3869L42.0363 72.8399L41.5332 71.791L44.5671 70.336C44.7925 70.2279 44.9542 70.1094 45.0524 69.9806C45.1548 69.8533 45.2037 69.7143 45.199 69.5638C45.1986 69.4147 45.1547 69.2491 45.0674 69.0671C44.9815 68.888 44.867 68.7456 44.724 68.6401C44.581 68.5345 44.4209 68.4638 44.2438 68.4279C44.068 68.3949 43.8824 68.3933 43.687 68.4231C43.4916 68.4528 43.2971 68.5141 43.1035 68.607ZM49.8323 72.0216L43.1751 75.2145L42.6721 74.1656L49.3293 70.9728L49.8323 72.0216ZM44.72 78.6578C44.5537 78.3111 44.4597 77.9705 44.4379 77.6362C44.4205 77.3034 44.4672 76.9896 44.5781 76.6947C44.6904 76.4027 44.8603 76.1382 45.0878 75.9012C45.3153 75.6641 45.5894 75.4687 45.9101 75.3148L46.0835 75.2317C46.4504 75.0557 46.8084 74.9498 47.1572 74.914C47.5061 74.8781 47.8318 74.905 48.1341 74.9945C48.4394 75.0827 48.7108 75.2298 48.9482 75.4358C49.1856 75.6418 49.377 75.8965 49.5225 76.1999C49.6833 76.535 49.7676 76.8553 49.7755 77.1607C49.7833 77.4662 49.7242 77.7504 49.598 78.0135C49.4762 78.2781 49.2945 78.518 49.053 78.7334C48.8129 78.9516 48.5239 79.1418 48.1858 79.3039L47.7394 79.518L46.0016 75.8947L46.7514 75.5351L47.9945 78.1269L48.0768 78.0874C48.2619 77.9915 48.4201 77.8694 48.5515 77.7211C48.6844 77.5756 48.7681 77.4093 48.8027 77.2221C48.8373 77.0349 48.7992 76.8258 48.6883 76.5946C48.6052 76.4213 48.4935 76.2847 48.3532 76.1849C48.2172 76.0867 48.0584 76.026 47.8768 76.0029C47.6951 75.9799 47.4943 75.9909 47.2742 76.036C47.0585 76.0826 46.8292 76.1641 46.5865 76.2806L46.4132 76.3637C46.208 76.4621 46.0305 76.581 45.8806 76.7204C45.7349 76.8614 45.6234 77.0179 45.546 77.1901C45.4687 77.3622 45.4298 77.5443 45.4296 77.7364C45.4322 77.9271 45.4813 78.1221 45.5769 78.3214C45.6974 78.5728 45.8554 78.7725 46.0508 78.9205C46.2461 79.0685 46.4709 79.1703 46.7251 79.2261L46.456 80.0322C46.2602 80.0018 46.0555 79.9382 45.8421 79.8415C45.6316 79.7435 45.4283 79.5975 45.2323 79.4037C45.0376 79.2127 44.8669 78.9641 44.72 78.6578ZM53.0649 86.4092L52.2024 86.8229L50.5956 83.4726L51.4581 83.0589L53.0649 86.4092ZM54.2221 82.0638L47.9117 85.0904L47.3899 84.0025L53.7004 80.976L54.2221 82.0638ZM56.1012 85.9819L49.7908 89.0084L49.2711 87.9249L55.5816 84.8983L56.1012 85.9819ZM52.6621 92.5832L54.8985 91.5106C55.0661 91.4302 55.196 91.3306 55.2883 91.2117C55.3805 91.0928 55.4301 90.9553 55.4369 90.7992C55.4452 90.646 55.405 90.4769 55.3163 90.292C55.2345 90.1215 55.135 89.988 55.0176 89.8915C54.9002 89.795 54.7758 89.7356 54.6443 89.7134C54.5128 89.6911 54.3849 89.7098 54.2607 89.7694L53.7618 88.7292C53.9467 88.6405 54.1473 88.5994 54.3637 88.6058C54.58 88.6122 54.7969 88.6681 55.0145 88.7735C55.232 88.8788 55.4366 89.0312 55.6283 89.2308C55.8199 89.4303 55.9864 89.6774 56.1278 89.9721C56.2968 90.3246 56.3873 90.6651 56.3991 90.9935C56.4123 91.3248 56.3364 91.626 56.1714 91.897C56.0107 92.1696 55.7512 92.3918 55.3929 92.5636L53.3082 93.5634C53.0944 93.666 52.9091 93.7726 52.7525 93.8832C52.6002 93.9954 52.4757 94.1102 52.3792 94.2275L52.3099 94.2608L51.7964 93.1903C51.8856 93.0871 52.0099 92.9795 52.1694 92.8675C52.3332 92.7569 52.4974 92.6622 52.6621 92.5832ZM54.6462 91.8182L54.0046 92.1366L53.645 91.3868C53.5521 91.1932 53.4516 91.0317 53.3433 90.9024C53.238 90.7717 53.1271 90.6738 53.0106 90.6088C52.8942 90.5438 52.775 90.5103 52.6532 90.5083C52.5314 90.5063 52.4084 90.5351 52.2842 90.5947C52.1599 90.6543 52.0597 90.7379 51.9834 90.8456C51.9099 90.9519 51.8707 91.0738 51.8655 91.2113C51.8618 91.3517 51.898 91.5014 51.9743 91.6603C52.0768 91.8741 52.2095 92.0397 52.3724 92.157C52.5396 92.2759 52.7089 92.351 52.8804 92.3825C53.0548 92.4126 53.2011 92.4029 53.3195 92.3532L53.0179 92.9137C52.8828 92.9358 52.7272 92.9376 52.5512 92.9189C52.3753 92.9002 52.1926 92.8528 52.0032 92.7766C51.8181 92.7019 51.6415 92.5893 51.4734 92.4389C51.3067 92.2914 51.1652 92.0963 51.0488 91.8536C50.9019 91.5473 50.8316 91.2452 50.8379 90.9472C50.8471 90.6478 50.9232 90.3803 51.0661 90.1447C51.2119 89.9077 51.4177 89.7255 51.6835 89.598C51.932 89.4788 52.1738 89.4197 52.4088 89.4207C52.6482 89.4232 52.8765 89.4843 53.0938 89.604C53.3125 89.7266 53.5189 89.9048 53.7128 90.1388C53.9096 90.3713 54.0898 90.6581 54.2533 90.999L54.6462 91.8182ZM60.0332 93.2909L53.376 96.4837L52.873 95.4348L59.5301 92.242L60.0332 93.2909ZM59.2418 96.6872L54.5523 98.9363L54.0492 97.8874L58.7387 95.6383L59.2418 96.6872ZM59.9363 94.9787C60.0953 94.9024 60.2517 94.8914 60.4056 94.9455C60.5638 95.0012 60.6879 95.1229 60.778 95.3107C60.8667 95.4956 60.8832 95.6672 60.8275 95.8254C60.7748 95.9821 60.669 96.0987 60.5101 96.1749C60.354 96.2497 60.1984 96.2586 60.0431 96.2016C59.8878 96.1446 59.7658 96.0236 59.6771 95.8387C59.587 95.6509 59.5684 95.4786 59.6211 95.3218C59.6752 95.1679 59.7803 95.0535 59.9363 94.9787ZM59.4292 99.5234L55.6932 101.315L55.1923 100.271L59.8817 98.0216L60.3536 99.0054L59.4292 99.5234ZM58.1303 99.9385L57.9641 99.581C58.2877 99.4258 58.6062 99.3228 58.9195 99.2721C59.2328 99.2213 59.528 99.2255 59.8051 99.2845C60.085 99.3421 60.3354 99.4602 60.556 99.6387C60.781 99.8187 60.9669 100.062 61.1138 100.368C61.2163 100.582 61.2781 100.792 61.299 100.999C61.3243 101.207 61.3016 101.408 61.2311 101.602C61.1619 101.799 61.0399 101.982 60.8651 102.151C60.6918 102.323 60.4577 102.479 60.163 102.621L57.0381 104.119L56.5371 103.075L59.571 101.62C59.7993 101.51 59.9618 101.39 60.0585 101.258C60.1567 101.129 60.2027 100.988 60.1967 100.835C60.1949 100.683 60.1524 100.52 60.0692 100.347C59.975 100.15 59.8571 100.001 59.7154 99.8979C59.5752 99.7981 59.4192 99.7361 59.2477 99.7118C59.0761 99.6875 58.8953 99.696 58.7054 99.7373C58.5156 99.7786 58.3238 99.8456 58.1303 99.9385ZM59.8024 102.714L59.4592 102.276C59.7423 102.14 60.0283 102.051 60.3171 102.008C60.6102 101.967 60.8888 101.978 61.1529 102.039C61.4213 102.102 61.6652 102.222 61.8845 102.397C62.1037 102.573 62.284 102.808 62.4254 103.103C62.5404 103.343 62.6097 103.572 62.6334 103.792C62.6612 104.013 62.6377 104.224 62.5628 104.423C62.4878 104.623 62.3557 104.81 62.1665 104.986C61.9802 105.161 61.731 105.323 61.4189 105.473L58.3851 106.928L57.882 105.879L60.9202 104.422C61.1572 104.308 61.324 104.186 61.4208 104.054C61.5189 103.925 61.5628 103.787 61.5523 103.639C61.5447 103.49 61.4994 103.328 61.4162 103.155C61.3386 102.993 61.2397 102.865 61.1194 102.77C61.0034 102.676 60.8719 102.613 60.7248 102.58C60.5806 102.547 60.4302 102.54 60.2736 102.562C60.1184 102.587 59.9613 102.637 59.8024 102.714ZM61.2003 110.386L63.4367 109.313C63.6043 109.233 63.7342 109.133 63.8264 109.014C63.9187 108.895 63.9682 108.758 63.9751 108.602C63.9834 108.448 63.9431 108.279 63.8545 108.094C63.7727 107.924 63.6731 107.79 63.5557 107.694C63.4384 107.597 63.3139 107.538 63.1824 107.516C63.0509 107.494 62.9231 107.512 62.7988 107.572L62.2999 106.532C62.4849 106.443 62.6855 106.402 62.9018 106.408C63.1181 106.415 63.3351 106.471 63.5526 106.576C63.7702 106.681 63.9748 106.834 64.1665 107.033C64.3581 107.233 64.5246 107.48 64.6659 107.775C64.835 108.127 64.9254 108.468 64.9372 108.796C64.9504 109.127 64.8745 109.428 64.7095 109.699C64.5488 109.972 64.2893 110.194 63.931 110.366L61.8463 111.366C61.6325 111.468 61.4473 111.575 61.2907 111.686C61.1383 111.798 61.0139 111.913 60.9174 112.03L60.848 112.063L60.3346 110.993C60.4237 110.89 60.5481 110.782 60.7076 110.67C60.8713 110.559 61.0356 110.465 61.2003 110.386ZM63.1844 109.621L62.5427 109.939L62.1831 109.189C62.0903 108.996 61.9897 108.834 61.8815 108.705C61.7762 108.574 61.6653 108.476 61.5488 108.411C61.4323 108.346 61.3132 108.313 61.1914 108.311C61.0696 108.309 60.9466 108.338 60.8223 108.397C60.6981 108.457 60.5978 108.54 60.5215 108.648C60.4481 108.754 60.4088 108.876 60.4037 109.014C60.4 109.154 60.4362 109.304 60.5124 109.463C60.615 109.677 60.7477 109.842 60.9106 109.959C61.0778 110.078 61.2471 110.154 61.4186 110.185C61.5929 110.215 61.7393 110.205 61.8576 110.156L61.556 110.716C61.4209 110.738 61.2654 110.74 61.0894 110.721C60.9134 110.703 60.7307 110.655 60.5414 110.579C60.3563 110.504 60.1797 110.392 60.0116 110.241C59.8449 110.094 59.7033 109.899 59.5869 109.656C59.44 109.35 59.3697 109.048 59.3761 108.75C59.3853 108.45 59.4614 108.183 59.6043 107.947C59.7501 107.71 59.9559 107.528 60.2217 107.4C60.4702 107.281 60.712 107.222 60.947 107.223C61.1863 107.226 61.4146 107.287 61.632 107.406C61.8507 107.529 62.057 107.707 62.251 107.941C62.4478 108.174 62.628 108.461 62.7915 108.802L63.1844 109.621ZM67.0984 113.069L66.3356 113.434L65.0676 110.791L65.8304 110.425L67.0984 113.069ZM67.3448 110.637L67.8457 111.681L63.3036 113.86C63.1591 113.929 63.0576 114.003 62.999 114.08C62.9446 114.16 62.9225 114.243 62.9325 114.331C62.9425 114.418 62.9718 114.513 63.0203 114.614C63.0549 114.686 63.0925 114.753 63.1331 114.816C63.1736 114.878 63.2079 114.927 63.236 114.964L62.4406 115.35C62.373 115.276 62.3014 115.186 62.2257 115.08C62.1515 114.977 62.079 114.852 62.0083 114.705C61.8933 114.465 61.8333 114.233 61.8284 114.007C61.8264 113.781 61.8973 113.569 62.041 113.372C62.1847 113.176 62.4169 113 62.7376 112.846L67.3448 110.637ZM67.9299 121.561L68.4496 122.644C68.0198 122.808 67.596 122.869 67.1781 122.828C66.7632 122.785 66.378 122.63 66.0226 122.363C65.6673 122.097 65.3676 121.709 65.1237 121.201C64.9367 120.811 64.8376 120.426 64.8267 120.048C64.8186 119.668 64.8898 119.305 65.0402 118.959C65.1936 118.612 65.4253 118.291 65.7354 117.997C66.047 117.705 66.4295 117.45 66.8832 117.233L67.4076 116.981C67.8612 116.764 68.2999 116.626 68.7237 116.569C69.1489 116.514 69.5455 116.537 69.9136 116.638C70.2847 116.737 70.615 116.911 70.9048 117.159C71.1959 117.411 71.4364 117.734 71.6262 118.13C71.8674 118.633 71.9786 119.102 71.96 119.537C71.9414 119.973 71.8145 120.364 71.5795 120.711C71.3458 121.061 71.0285 121.359 70.6274 121.605L70.1077 120.522C70.3655 120.362 70.5676 120.187 70.7141 119.996C70.8619 119.808 70.9414 119.596 70.9524 119.359C70.9664 119.122 70.9006 118.851 70.7551 118.548C70.6359 118.299 70.4858 118.105 70.3046 117.964C70.1235 117.824 69.9135 117.734 69.6748 117.696C69.4361 117.657 69.17 117.67 68.8766 117.732C68.5874 117.796 68.2752 117.909 67.9401 118.069L67.407 118.325C67.0892 118.477 66.8134 118.643 66.5797 118.823C66.3502 119.004 66.1708 119.197 66.0413 119.401C65.9132 119.608 65.8422 119.827 65.8284 120.058C65.8145 120.288 65.8686 120.531 65.9906 120.785C66.1388 121.094 66.3078 121.32 66.4975 121.464C66.6886 121.61 66.9016 121.688 67.1365 121.696C67.3757 121.706 67.6402 121.661 67.9299 121.561ZM74.0624 122.543L67.4052 125.735L66.9064 124.695L73.5635 121.502L74.0624 122.543ZM69.836 124.346L69.6782 124.005C70.0032 123.853 70.3238 123.755 70.6398 123.71C70.9573 123.667 71.2553 123.677 71.5337 123.739C71.8165 123.803 72.0668 123.921 72.2847 124.094C72.5055 124.265 72.6817 124.488 72.8133 124.762C72.9242 124.993 72.9922 125.217 73.0173 125.432C73.0438 125.65 73.0188 125.861 72.9424 126.065C72.8688 126.267 72.736 126.457 72.5439 126.635C72.356 126.814 72.1018 126.98 71.781 127.134L68.7688 128.579L68.2658 127.53L71.2867 126.081C71.512 125.973 71.6752 125.854 71.7763 125.723C71.8787 125.596 71.929 125.456 71.9272 125.304C71.9283 125.151 71.8859 124.985 71.8 124.806C71.7099 124.618 71.5927 124.47 71.4482 124.361C71.3052 124.256 71.1458 124.187 70.9701 124.154C70.7943 124.121 70.6094 124.12 70.4154 124.153C70.2227 124.189 70.0296 124.253 69.836 124.346ZM74.593 128.695L69.9035 130.944L69.4005 129.896L74.09 127.646L74.593 128.695ZM75.2876 126.987C75.4465 126.911 75.6029 126.9 75.7569 126.954C75.915 127.009 76.0392 127.131 76.1292 127.319C76.2179 127.504 76.2345 127.675 76.1788 127.833C76.1261 127.99 76.0202 128.107 75.8613 128.183C75.7053 128.258 75.5496 128.267 75.3943 128.21C75.2391 128.153 75.1171 128.032 75.0284 127.847C74.9383 127.659 74.9196 127.487 74.9724 127.33C75.0265 127.176 75.1316 127.062 75.2876 126.987ZM72.752 134.472L74.9884 133.399C75.156 133.319 75.2859 133.219 75.3782 133.1C75.4704 132.981 75.52 132.844 75.5268 132.688C75.5351 132.534 75.4949 132.365 75.4062 132.18C75.3244 132.01 75.2249 131.876 75.1075 131.78C74.9901 131.683 74.8657 131.624 74.7342 131.602C74.6027 131.58 74.4748 131.598 74.3506 131.658L73.8517 130.618C74.0366 130.529 74.2372 130.488 74.4535 130.494C74.6699 130.501 74.8868 130.557 75.1044 130.662C75.3219 130.767 75.5265 130.92 75.7182 131.119C75.9098 131.319 76.0763 131.566 76.2177 131.86C76.3867 132.213 76.4772 132.553 76.489 132.882C76.5022 133.213 76.4262 133.514 76.2613 133.785C76.1005 134.058 75.841 134.28 75.4828 134.452L73.3981 135.452C73.1843 135.554 72.999 135.661 72.8424 135.772C72.6901 135.884 72.5656 135.999 72.4691 136.116L72.3998 136.149L71.8863 135.079C71.9755 134.975 72.0998 134.868 72.2593 134.756C72.4231 134.645 72.5873 134.551 72.752 134.472ZM74.7361 133.707L74.0945 134.025L73.7349 133.275C73.642 133.082 73.5415 132.92 73.4332 132.791C73.3279 132.66 73.217 132.562 73.1005 132.497C72.9841 132.432 72.8649 132.399 72.7431 132.397C72.6213 132.395 72.4983 132.424 72.3741 132.483C72.2498 132.543 72.1496 132.626 72.0733 132.734C71.9998 132.84 71.9606 132.962 71.9554 133.1C71.9517 133.24 71.9879 133.39 72.0642 133.549C72.1667 133.762 72.2994 133.928 72.4623 134.045C72.6295 134.164 72.7988 134.239 72.9703 134.271C73.1447 134.301 73.291 134.291 73.4094 134.242L73.1078 134.802C72.9727 134.824 72.8171 134.826 72.6411 134.807C72.4651 134.789 72.2825 134.741 72.0931 134.665C71.908 134.59 71.7314 134.478 71.5633 134.327C71.3966 134.18 71.2551 133.985 71.1386 133.742C70.9918 133.436 70.9215 133.134 70.9278 132.836C70.937 132.536 71.0131 132.269 71.156 132.033C71.3018 131.796 71.5076 131.614 71.7734 131.486C72.0219 131.367 72.2637 131.308 72.4987 131.309C72.7381 131.312 72.9664 131.373 73.1837 131.492C73.4024 131.615 73.6087 131.793 73.8027 132.027C73.9995 132.26 74.1797 132.546 74.3432 132.887L74.7361 133.707ZM77.1665 136.507L73.4305 138.298L72.9296 137.254L77.6191 135.005L78.0909 135.989L77.1665 136.507ZM75.8676 136.922L75.7015 136.564C76.0251 136.409 76.3435 136.306 76.6568 136.255C76.9701 136.205 77.2653 136.209 77.5424 136.268C77.8224 136.325 78.0727 136.443 78.2934 136.622C78.5183 136.802 78.7042 137.045 78.8511 137.351C78.9536 137.565 79.0154 137.775 79.0364 137.982C79.0616 138.19 79.0389 138.391 78.9684 138.585C78.8992 138.782 78.7773 138.965 78.6025 139.134C78.4291 139.306 78.195 139.462 77.9003 139.604L74.7754 141.103L74.2745 140.058L77.3083 138.603C77.5366 138.494 77.6991 138.373 77.7959 138.241C77.894 138.112 77.9401 137.971 77.934 137.818C77.9322 137.666 77.8897 137.503 77.8066 137.33C77.7123 137.133 77.5944 136.984 77.4528 136.881C77.3125 136.781 77.1566 136.719 76.985 136.695C76.8134 136.671 76.6327 136.679 76.4428 136.72C76.2529 136.762 76.0612 136.829 75.8676 136.922ZM77.5397 139.697L77.1965 139.259C77.4797 139.123 77.7656 139.034 78.0544 138.991C78.3475 138.95 78.6261 138.961 78.8903 139.022C79.1587 139.086 79.4025 139.205 79.6218 139.381C79.8411 139.556 80.0214 139.791 80.1627 140.086C80.2777 140.326 80.3471 140.556 80.3707 140.775C80.3986 140.997 80.3751 141.207 80.3001 141.406C80.2252 141.606 80.0931 141.793 79.9039 141.969C79.7175 142.144 79.4683 142.306 79.1563 142.456L76.1224 143.911L75.6194 142.862L78.6576 141.405C78.8945 141.291 79.0613 141.169 79.1581 141.037C79.2563 140.908 79.3001 140.77 79.2896 140.622C79.2821 140.473 79.2367 140.312 79.1535 140.138C79.0759 139.976 78.977 139.848 78.8567 139.753C78.7407 139.659 78.6092 139.596 78.4621 139.564C78.3179 139.53 78.1675 139.524 78.0109 139.545C77.8557 139.57 77.6987 139.621 77.5397 139.697ZM78.9376 147.369L81.174 146.296C81.3416 146.216 81.4715 146.116 81.5638 145.997C81.656 145.878 81.7056 145.741 81.7124 145.585C81.7207 145.432 81.6805 145.263 81.5918 145.078C81.51 144.907 81.4105 144.774 81.2931 144.677C81.1757 144.581 81.0513 144.521 80.9198 144.499C80.7883 144.477 80.6604 144.495 80.5362 144.555L80.0373 143.515C80.2222 143.426 80.4228 143.385 80.6391 143.391C80.8555 143.398 81.0724 143.454 81.29 143.559C81.5075 143.664 81.7121 143.817 81.9038 144.016C82.0954 144.216 82.2619 144.463 82.4033 144.758C82.5723 145.11 82.6628 145.451 82.6746 145.779C82.6878 146.11 82.6118 146.412 82.4469 146.683C82.2861 146.955 82.0266 147.177 81.6684 147.349L79.5837 148.349C79.3699 148.452 79.1846 148.558 79.028 148.669C78.8757 148.781 78.7512 148.896 78.6547 149.013L78.5854 149.046L78.0719 147.976C78.1611 147.873 78.2854 147.765 78.4449 147.653C78.6087 147.543 78.7729 147.448 78.9376 147.369ZM80.9217 146.604L80.2801 146.922L79.9205 146.172C79.8276 145.979 79.7271 145.817 79.6188 145.688C79.5135 145.557 79.4026 145.459 79.2861 145.394C79.1697 145.329 79.0505 145.296 78.9287 145.294C78.8069 145.292 78.6839 145.321 78.5597 145.38C78.4354 145.44 78.3352 145.524 78.2589 145.631C78.1854 145.738 78.1462 145.859 78.141 145.997C78.1373 146.137 78.1735 146.287 78.2498 146.446C78.3523 146.66 78.485 146.825 78.6479 146.943C78.8151 147.062 78.9844 147.137 79.1559 147.168C79.3303 147.198 79.4766 147.189 79.595 147.139L79.2934 147.699C79.1583 147.721 79.0027 147.723 78.8267 147.705C78.6507 147.686 78.4681 147.638 78.2787 147.562C78.0936 147.488 77.917 147.375 77.7489 147.225C77.5822 147.077 77.4407 146.882 77.3242 146.639C77.1774 146.333 77.1071 146.031 77.1134 145.733C77.1226 145.433 77.1987 145.166 77.3416 144.93C77.4874 144.693 77.6932 144.511 77.959 144.384C78.2075 144.264 78.4493 144.205 78.6843 144.206C78.9237 144.209 79.152 144.27 79.3693 144.39C79.588 144.512 79.7943 144.69 79.9883 144.924C80.1851 145.157 80.3653 145.444 80.5288 145.785L80.9217 146.604ZM86.2775 148.012L79.6203 151.204L79.1173 150.155L85.7744 146.963L86.2775 148.012ZM85.7066 151.868L82.4652 150.911L80.7847 150.342L81.5379 149.645L82.9878 149.989L85.1018 150.607L85.7066 151.868ZM80.5204 153.081L81.9925 150.504L83.0409 150.811L81.1003 154.29L80.5204 153.081ZM83.6349 157.163L85.8713 156.09C86.0389 156.01 86.1688 155.91 86.261 155.791C86.3533 155.673 86.4028 155.535 86.4097 155.379C86.418 155.226 86.3778 155.057 86.2891 154.872C86.2073 154.701 86.1077 154.568 85.9904 154.471C85.873 154.375 85.7485 154.315 85.617 154.293C85.4856 154.271 85.3577 154.29 85.2334 154.349L84.7346 153.309C84.9195 153.22 85.1201 153.179 85.3364 153.186C85.5527 153.192 85.7697 153.248 85.9873 153.353C86.2048 153.459 86.4094 153.611 86.6011 153.81C86.7927 154.01 86.9592 154.257 87.1006 154.552C87.2696 154.904 87.3601 155.245 87.3718 155.573C87.385 155.905 87.3091 156.206 87.1441 156.477C86.9834 156.749 86.7239 156.971 86.3656 157.143L84.2809 158.143C84.0671 158.246 83.8819 158.352 83.7253 158.463C83.573 158.575 83.4485 158.69 83.352 158.807L83.2826 158.84L82.7692 157.77C82.8583 157.667 82.9827 157.559 83.1422 157.447C83.306 157.337 83.4702 157.242 83.6349 157.163ZM85.619 156.398L84.9774 156.716L84.6177 155.966C84.5249 155.773 84.4244 155.611 84.3161 155.482C84.2108 155.351 84.0999 155.253 83.9834 155.189C83.8669 155.124 83.7478 155.09 83.626 155.088C83.5042 155.086 83.3812 155.115 83.257 155.174C83.1327 155.234 83.0324 155.318 82.9561 155.425C82.8827 155.532 82.8435 155.653 82.8383 155.791C82.8346 155.931 82.8708 156.081 82.947 156.24C83.0496 156.454 83.1823 156.619 83.3452 156.737C83.5124 156.856 83.6817 156.931 83.8532 156.962C84.0275 156.992 84.1739 156.983 84.2923 156.933L83.9906 157.493C83.8555 157.516 83.7 157.517 83.524 157.499C83.348 157.48 83.1653 157.432 82.976 157.356C82.7909 157.282 82.6143 157.169 82.4462 157.019C82.2795 156.871 82.1379 156.676 82.0215 156.433C81.8746 156.127 81.8044 155.825 81.8107 155.527C81.8199 155.227 81.896 154.96 82.0389 154.724C82.1847 154.487 82.3905 154.305 82.6563 154.178C82.9048 154.059 83.1466 153.999 83.3816 154C83.6209 154.003 83.8493 154.064 84.0666 154.184C84.2853 154.306 84.4916 154.485 84.6856 154.718C84.8824 154.951 85.0626 155.238 85.2261 155.579L85.619 156.398Z" fill="white"/>
</g>
</g>
<g opacity="0.5" filter="url(#filter1_f_379_3174)">
<path d="M275.605 296.623C275.605 298.559 225.582 300.127 163.889 300.127C102.196 300.127 52.1724 298.559 52.1724 296.623C52.1724 294.687 102.189 293.129 163.889 293.129C225.588 293.129 275.605 294.697 275.605 296.623Z" fill="url(#paint0_radial_379_3174)"/>
</g>
<defs>
<filter id="filter0_d_379_3174" x="0" y="0.436676" width="237.958" height="288.885" filterUnits="userSpaceOnUse" color-interpolation-filters="sRGB">
<feFlood flood-opacity="0" result="BackgroundImageFix"/>
<feColorMatrix in="SourceAlpha" type="matrix" values="0 0 0 0 0 0 0 0 0 0 0 0 0 0 0 0 0 0 127 0" result="hardAlpha"/>
<feMorphology radius="0.702002" operator="dilate" in="SourceAlpha" result="effect1_dropShadow_379_3174"/>
<feOffset dx="9.12603" dy="6.31802"/>
<feGaussianBlur stdDeviation="2.80801"/>
<feColorMatrix type="matrix" values="0 0 0 0 0.266667 0 0 0 0 0.266667 0 0 0 0 0.266667 0 0 0 0.33 0"/>
<feBlend mode="normal" in2="BackgroundImageFix" result="effect1_dropShadow_379_3174"/>
<feBlend mode="normal" in="SourceGraphic" in2="effect1_dropShadow_379_3174" result="shape"/>
</filter>
<filter id="filter1_f_379_3174" x="39.1293" y="280.086" width="249.519" height="33.0839" filterUnits="userSpaceOnUse" color-interpolation-filters="sRGB">
<feFlood flood-opacity="0" result="BackgroundImageFix"/>
<feBlend mode="normal" in="SourceGraphic" in2="BackgroundImageFix" result="shape"/>
<feGaussianBlur stdDeviation="6.52152" result="effect1_foregroundBlur_379_3174"/>
</filter>
<radialGradient id="paint0_radial_379_3174" cx="0" cy="0" r="1" gradientUnits="userSpaceOnUse" gradientTransform="translate(163.805 305.951) scale(111.704 3.71204)">
<stop/>
<stop offset="0.14"/>
<stop offset="1"/>
</radialGradient>
<clipPath id="clip0_379_3174">
<rect x="328" y="58.1478" width="244.188" height="129.668" rx="8.92528" transform="rotate(116.428 328 58.1478)" fill="white"/>
</clipPath>
<clipPath id="clip1_379_3174">
<rect x="116.917" y="0.436676" width="244.188" height="129.668" rx="8.92528" transform="rotate(64.3774 116.917 0.436676)" fill="white"/>
</clipPath>
</defs>
</svg>
