<svg width="478" height="456" viewBox="0 0 478 456" fill="none" xmlns="http://www.w3.org/2000/svg">
<g clip-path="url(#clip0_379_3174)">
<rect x="477.803" y="84.0687" width="355.713" height="188.89" rx="13.0016" transform="rotate(116.428 477.803 84.0687)" fill="#7750A1"/>
<path d="M296.32 360.628L294.682 334.117L318.509 345.778L318.511 345.779L340.009 356.463L340.02 356.469L340.031 356.473C340.284 356.585 340.501 356.765 340.657 356.993C340.813 357.221 340.901 357.489 340.912 357.765C340.924 358.041 340.857 358.315 340.72 358.555C340.583 358.796 340.381 358.992 340.138 359.124L340.117 359.135L340.097 359.148L320.102 372.447L320.101 372.448L297.971 387.102L296.32 360.628L296.32 360.628Z" stroke="white" stroke-width="1.02262"/>
<path d="M247.305 336.078L247.305 336.076L245.727 312.242L245.727 312.242L245.726 312.234C245.705 311.976 245.753 311.717 245.866 311.485C245.979 311.252 246.152 311.054 246.367 310.912C246.583 310.769 246.833 310.687 247.091 310.675C247.349 310.662 247.606 310.718 247.835 310.839L247.842 310.843L247.849 310.846L269.42 321.379L269.421 321.38L293.172 333.184L271.056 347.883L271.056 347.883L248.957 362.551L247.305 336.078Z" stroke="white" stroke-width="1.02262"/>
<path d="M271.622 348.735L271.623 348.735L293.737 334.037L295.374 360.539L295.374 360.54L297.026 387.013L273.274 375.209L249.494 363.389L271.622 348.735Z" stroke="white" stroke-width="1.02262"/>
<path d="M326.998 296.912L326.997 296.913L304.883 311.61L303.246 285.108L303.246 285.107L301.565 258.62L325.346 270.439L349.098 282.244L326.998 296.912Z" stroke="white" stroke-width="1.02262"/>
<path d="M277.879 272.5L277.878 272.5L255.763 287.198L254.097 260.68L254.097 260.68L252.445 234.207L276.227 246.026L299.978 257.831L277.879 272.5Z" stroke="white" stroke-width="1.02262"/>
<path d="M280.08 299.855L256.327 288.05L278.443 273.351L278.443 273.351L300.544 258.682L302.225 285.171L302.225 285.172L303.862 311.675L280.08 299.855Z" stroke="white" stroke-width="1.02262"/>
<path d="M227.106 221.613L227.107 221.613L250.856 233.416L228.835 247.935L228.833 247.936L206.718 262.634L205.052 236.116L205.052 236.115L203.504 212.302C203.504 212.301 203.504 212.3 203.504 212.299C203.491 212.043 203.545 211.789 203.66 211.56C203.776 211.331 203.949 211.135 204.164 210.994C204.378 210.852 204.625 210.769 204.882 210.752C205.138 210.735 205.393 210.786 205.624 210.898L227.106 221.613Z" stroke="white" stroke-width="1.02262"/>
<path d="M253.074 260.743L254.741 287.262L230.96 275.442L207.178 263.623L229.323 248.939L229.323 248.939L251.423 234.27L253.074 260.743L253.074 260.743Z" stroke="white" stroke-width="1.02262"/>
<path d="M352.833 333.523L352.833 333.528C352.852 333.788 352.802 334.048 352.687 334.282C352.573 334.516 352.398 334.716 352.182 334.861C351.965 335.006 351.714 335.09 351.454 335.107C351.193 335.123 350.934 335.07 350.701 334.953L350.699 334.952L329.2 324.267L305.448 312.462L327.562 297.764L327.563 297.763L349.591 283.24L351.345 309.583L351.345 309.585L352.833 333.523L352.833 333.523Z" stroke="white" stroke-width="1.02262"/>
<circle opacity="0.5" cx="428.273" cy="112.702" r="10.5622" transform="rotate(116.428 428.273 112.702)" fill="white"/>
<circle opacity="0.8" cx="434.42" cy="100.334" r="10.5622" transform="rotate(116.428 434.42 100.334)" fill="white"/>
<path d="M408.081 76.4334L409.111 78.6574L410.666 76.9439L411.583 77.8686L409.833 79.4385L412.08 80.407L411.476 81.6234L409.309 80.3823L409.127 82.6844L407.82 82.4965L408.263 80.1907L405.928 80.6879L405.727 79.3606L408.132 79.1169L406.927 77.0875L408.081 76.4334ZM405.046 82.54L406.076 84.764L407.631 83.0505L408.548 83.9752L406.798 85.5451L409.045 86.5136L408.441 87.7301L406.274 86.4889L406.092 88.791L404.785 88.6031L405.228 86.2973L402.893 86.7945L402.692 85.4673L405.097 85.2235L403.892 83.1941L405.046 82.54ZM402.011 88.6466L403.041 90.8706L404.596 89.1571L405.513 90.0818L403.763 91.6517L406.01 92.6202L405.406 93.8367L403.239 92.5956L403.057 94.8976L401.75 94.7097L402.193 92.4039L399.858 92.9012L399.657 91.5739L402.062 91.3301L400.857 89.3007L402.011 88.6466ZM398.976 94.7532L400.006 96.9772L401.561 95.2637L402.478 96.1884L400.728 97.7584L402.975 98.7269L402.371 99.9433L400.204 98.7022L400.022 101.004L398.715 100.816L399.158 98.5105L396.823 99.0078L396.622 97.6805L399.027 97.4368L397.822 95.4073L398.976 94.7532ZM392.489 107.806L393.518 110.03L395.074 108.316L395.99 109.241L394.24 110.811L396.488 111.78L395.883 112.996L393.717 111.755L393.534 114.057L392.228 113.869L392.67 111.563L390.335 112.061L390.135 110.733L392.539 110.49L391.335 108.46L392.489 107.806ZM389.454 113.913L390.483 116.137L392.039 114.423L392.955 115.348L391.205 116.918L393.453 117.886L392.848 119.103L390.682 117.862L390.499 120.164L389.193 119.976L389.635 117.67L387.3 118.167L387.1 116.84L389.504 116.596L388.3 114.567L389.454 113.913ZM386.419 120.019L387.448 122.243L389.004 120.53L389.92 121.454L388.17 123.024L390.418 123.993L389.813 125.209L387.646 123.968L387.464 126.27L386.158 126.082L386.6 123.777L384.265 124.274L384.065 122.947L386.469 122.703L385.265 120.673L386.419 120.019ZM383.384 126.126L384.413 128.35L385.969 126.636L386.885 127.561L385.135 129.131L387.383 130.099L386.778 131.316L384.611 130.075L384.429 132.377L383.123 132.189L383.565 129.883L381.23 130.38L381.03 129.053L383.434 128.809L382.23 126.78L383.384 126.126ZM376.897 139.179L377.926 141.403L379.481 139.689L380.398 140.614L378.648 142.184L380.896 143.152L380.291 144.369L378.124 143.128L377.942 145.43L376.636 145.242L377.078 142.936L374.743 143.433L374.542 142.106L376.947 141.862L375.743 139.833L376.897 139.179ZM373.862 145.285L374.891 147.509L376.446 145.796L377.363 146.72L375.613 148.29L377.861 149.259L377.256 150.475L375.089 149.234L374.907 151.536L373.6 151.348L374.043 149.043L371.708 149.54L371.507 148.213L373.912 147.969L372.708 145.939L373.862 145.285ZM370.826 151.392L371.856 153.616L373.411 151.902L374.328 152.827L372.578 154.397L374.825 155.366L374.221 156.582L372.054 155.341L371.872 157.643L370.565 157.455L371.008 155.149L368.673 155.646L368.472 154.319L370.877 154.075L369.673 152.046L370.826 151.392ZM367.791 157.499L368.821 159.723L370.376 158.009L371.293 158.934L369.543 160.504L371.79 161.472L371.186 162.689L369.019 161.447L368.837 163.75L367.53 163.562L367.973 161.256L365.638 161.753L365.437 160.426L367.842 160.182L366.638 158.153L367.791 157.499ZM364.007 177.18L354.858 172.633L355.756 170.828L362.823 174.34L363.211 171.827L364.634 172.535L364.103 176.986L364.007 177.18ZM351.551 182.827L350.14 182.126L353.244 175.881L354.448 176.479L356.147 181.006C356.33 181.467 356.504 181.846 356.67 182.142C356.839 182.44 357.006 182.676 357.169 182.851C357.335 183.033 357.509 183.169 357.693 183.26C357.969 183.398 358.228 183.469 358.47 183.475C358.717 183.482 358.939 183.423 359.137 183.298C359.333 183.176 359.495 182.986 359.624 182.727C359.761 182.451 359.813 182.179 359.779 181.912C359.742 181.649 359.631 181.406 359.445 181.183C359.256 180.964 359.012 180.78 358.711 180.631L359.611 178.819C360.155 179.089 360.588 179.465 360.911 179.949C361.237 180.435 361.417 180.98 361.45 181.585C361.487 182.193 361.344 182.821 361.022 183.468C360.704 184.108 360.332 184.595 359.905 184.93C359.48 185.272 359.017 185.459 358.516 185.491C358.017 185.53 357.5 185.416 356.965 185.15C356.664 185.001 356.393 184.806 356.152 184.567C355.916 184.329 355.7 184.05 355.505 183.729C355.313 183.414 355.134 183.06 354.97 182.666C354.807 182.272 354.646 181.845 354.488 181.386L353.496 178.915L351.551 182.827ZM353.872 188.038L353.392 189.004C353.238 189.313 353.164 189.594 353.169 189.847C353.178 190.101 353.254 190.324 353.399 190.516C353.545 190.714 353.748 190.878 354.008 191.006C354.242 191.123 354.471 191.18 354.697 191.177C354.924 191.181 355.134 191.115 355.326 190.981C355.522 190.849 355.689 190.643 355.828 190.363C355.939 190.142 355.996 189.915 356.002 189.683C356.008 189.451 355.959 189.24 355.857 189.048C355.754 188.856 355.59 188.704 355.364 188.592L356.265 186.78C356.766 187.029 357.137 187.38 357.376 187.832C357.613 188.289 357.722 188.797 357.705 189.357C357.687 189.916 357.543 190.47 357.271 191.017C356.963 191.636 356.594 192.127 356.162 192.492C355.735 192.858 355.265 193.075 354.752 193.143C354.238 193.211 353.697 193.104 353.129 192.822C352.84 192.678 352.594 192.472 352.388 192.203C352.187 191.937 352.04 191.624 351.948 191.265C351.857 190.912 351.835 190.526 351.882 190.106C351.933 189.689 352.069 189.258 352.289 188.815L352.913 187.561L353.872 188.038ZM352.499 187.356L353.433 187.82L352.81 189.074C352.563 189.571 352.289 189.98 351.989 190.3C351.689 190.62 351.369 190.855 351.029 191.004C350.694 191.155 350.349 191.224 349.997 191.21C349.648 191.198 349.3 191.106 348.953 190.934C348.527 190.722 348.187 190.451 347.934 190.122C347.684 189.795 347.518 189.426 347.436 189.015C347.352 188.608 347.346 188.178 347.42 187.725C347.499 187.274 347.653 186.816 347.884 186.352C348.075 185.967 348.315 185.615 348.605 185.295C348.896 184.981 349.223 184.727 349.586 184.532C349.951 184.343 350.341 184.24 350.756 184.222C351.174 184.211 351.608 184.317 352.06 184.541L351.159 186.354C350.925 186.237 350.687 186.192 350.445 186.217C350.203 186.243 349.979 186.332 349.772 186.485C349.564 186.642 349.396 186.848 349.27 187.103C349.126 187.392 349.056 187.664 349.059 187.921C349.063 188.184 349.135 188.418 349.273 188.622C349.414 188.833 349.613 189.002 349.873 189.131C350.207 189.297 350.505 189.37 350.766 189.348C351.031 189.329 351.267 189.23 351.476 189.052C351.684 188.874 351.865 188.631 352.019 188.321L352.499 187.356ZM345.873 199.27L344.456 198.566L347.725 191.988L348.866 192.446L353.013 199.253L352.299 200.689L350.47 197.841L348.295 194.398L345.873 199.27ZM352.106 201.078L342.977 196.54L343.874 194.734L353.004 199.272L352.106 201.078Z" fill="white"/>
<path opacity="0.6" d="M391.981 72.3322L384.112 68.4216L384.606 67.4273L391.233 70.7209L391.499 68.3529L392.396 68.799L392.058 72.1764L391.981 72.3322ZM386.203 75.2594L385.85 75.9689C385.677 76.3164 385.592 76.6316 385.595 76.9143C385.599 77.2024 385.674 77.4518 385.819 77.6626C385.967 77.8788 386.167 78.0501 386.422 78.1765C386.723 78.3261 387 78.4015 387.254 78.4027C387.509 78.4038 387.737 78.3299 387.941 78.1809C388.145 78.0319 388.323 77.8033 388.476 77.4952C388.615 77.2157 388.682 76.9409 388.678 76.6707C388.676 76.4059 388.605 76.1627 388.464 75.9411C388.323 75.7231 388.115 75.5465 387.843 75.4112L388.337 74.4168C388.735 74.6145 389.047 74.8947 389.273 75.2574C389.5 75.6201 389.62 76.0305 389.633 76.4886C389.645 76.9502 389.532 77.4211 389.293 77.9012C389.058 78.3742 388.768 78.7462 388.424 79.0172C388.082 79.29 387.698 79.443 387.27 79.4763C386.846 79.5113 386.391 79.4077 385.904 79.1655C385.706 79.0675 385.518 78.9159 385.339 78.7105C385.161 78.5106 385.024 78.2657 384.926 77.9761C384.827 77.69 384.791 77.3635 384.817 76.9967C384.846 76.6315 384.967 76.2358 385.179 75.8094L385.601 74.9602L386.203 75.2594ZM385.386 74.8534L385.982 75.1499L385.56 75.9991C385.313 76.4971 385.049 76.8798 384.769 77.1471C384.488 77.4144 384.203 77.5922 383.914 77.6806C383.622 77.7725 383.34 77.7974 383.066 77.7551C382.794 77.7182 382.541 77.6418 382.308 77.5261C381.943 77.3444 381.65 77.1206 381.429 76.8545C381.206 76.592 381.053 76.2989 380.968 75.9752C380.881 75.6551 380.862 75.3196 380.912 74.9688C380.961 74.6179 381.074 74.2652 381.25 73.9104C381.419 73.57 381.627 73.2734 381.873 73.0205C382.118 72.7712 382.389 72.5773 382.685 72.4388C382.986 72.3021 383.302 72.236 383.635 72.2406C383.971 72.2469 384.313 72.3365 384.661 72.5092L384.167 73.5035C383.894 73.3682 383.627 73.3089 383.364 73.3256C383.099 73.3459 382.854 73.4387 382.629 73.6038C382.406 73.7744 382.218 74.0119 382.067 74.3165C381.916 74.621 381.838 74.9084 381.833 75.1786C381.83 75.4542 381.907 75.7045 382.063 75.9296C382.217 76.1583 382.458 76.3537 382.784 76.5157C383.11 76.6778 383.41 76.7424 383.686 76.7095C383.965 76.6784 384.217 76.5624 384.442 76.3614C384.669 76.1658 384.866 75.8996 385.033 75.5628L385.386 74.8534ZM385.36 85.5453L378.484 78.0597L378.909 77.2052L385.782 84.6961L385.36 85.5453ZM375.18 88.4428L374.363 88.0367L376.909 82.9147L377.624 83.27L379.204 87.2521C379.398 87.7419 379.574 88.1334 379.732 88.4265C379.892 88.7249 380.052 88.9563 380.212 89.1205C380.373 89.2901 380.556 89.4257 380.76 89.5272C381.018 89.6554 381.278 89.7174 381.539 89.7132C381.802 89.7144 382.047 89.644 382.274 89.5021C382.501 89.3602 382.687 89.1441 382.831 88.8539C383.004 88.5063 383.08 88.1822 383.059 87.8817C383.041 87.5865 382.94 87.3219 382.757 87.0879C382.574 86.8539 382.326 86.6595 382.015 86.5046L382.509 85.5103C382.95 85.7293 383.305 86.0264 383.574 86.4015C383.843 86.7766 383.991 87.2075 384.017 87.6942C384.047 88.1826 383.924 88.7045 383.648 89.2599C383.402 89.7544 383.104 90.1335 382.754 90.3974C382.408 90.6631 382.03 90.8107 381.622 90.8403C381.216 90.8753 380.804 90.7886 380.384 90.5802C380.155 90.4663 379.942 90.3111 379.745 90.1147C379.549 89.9237 379.369 89.7023 379.203 89.4504C379.036 89.2021 378.885 88.9322 378.748 88.6409C378.609 88.3531 378.481 88.0546 378.362 87.7453L377.13 84.5193L375.18 88.4428ZM373.703 95.9736L372.886 95.5676L375.696 89.9135L376.282 90.2046L379.963 96.4041L379.56 97.2157L378.423 95.565L375.952 91.4482L373.703 95.9736ZM379.437 97.4629L371.611 93.5737L372.106 92.5793L379.931 96.4686L379.437 97.4629Z" fill="white"/>
<path d="M346.881 46.9866L346.183 48.3912L337.83 47.5313L343.563 53.6645L342.864 55.0691L335.467 47.0453L336.022 45.9292L346.881 46.9866ZM347.199 46.347L346.536 47.6826L340.325 44.8855L337.291 43.3771L338.07 41.8095L347.199 46.347ZM343.21 54.3731L342.543 55.715L333.414 51.1775L334.196 49.6036L337.231 51.1119L343.21 54.3731ZM331.883 57.6719L335.118 59.28C335.361 59.4005 335.592 59.4605 335.811 59.4599C336.03 59.4594 336.232 59.3932 336.418 59.2612C336.601 59.1334 336.759 58.9358 336.892 58.6682C337.015 58.4216 337.079 58.1876 337.085 57.9663C337.091 57.745 337.047 57.5489 336.955 57.3779C336.863 57.207 336.727 57.0768 336.547 56.9875L337.295 55.4826C337.562 55.6155 337.789 55.8091 337.976 56.0634C338.162 56.3176 338.292 56.6169 338.366 56.9612C338.44 57.3055 338.448 57.677 338.391 58.0759C338.333 58.4748 338.199 58.8874 337.987 59.3138C337.733 59.8238 337.423 60.2327 337.057 60.5404C336.688 60.8524 336.274 61.035 335.815 61.0883C335.358 61.1478 334.87 61.0488 334.352 60.7912L331.336 59.2922C331.026 59.1384 330.738 59.0212 330.47 58.9404C330.205 58.8659 329.962 58.8258 329.74 58.82L329.64 58.7702L330.41 57.2214C330.608 57.2313 330.843 57.2778 331.115 57.3606C331.389 57.4497 331.644 57.5535 331.883 57.6719ZM334.539 59.2657L333.598 58.8139L334.138 57.7291C334.277 57.4491 334.372 57.1889 334.424 56.9487C334.48 56.7106 334.493 56.4955 334.463 56.3035C334.433 56.1116 334.365 55.9447 334.258 55.803C334.151 55.6613 334.008 55.5458 333.828 55.4564C333.649 55.3671 333.463 55.3268 333.271 55.3357C333.083 55.3465 332.908 55.4106 332.745 55.5279C332.58 55.6494 332.441 55.8251 332.327 56.055C332.173 56.3644 332.102 56.6651 332.113 56.9574C332.126 57.2559 332.191 57.5177 332.309 57.7429C332.43 57.9702 332.573 58.1295 332.736 58.221L331.822 58.3766C331.675 58.2413 331.534 58.0642 331.398 57.8453C331.262 57.6264 331.152 57.3741 331.07 57.0883C330.99 56.8087 330.961 56.505 330.984 56.1772C331.004 55.8536 331.101 55.5162 331.276 55.1651C331.496 54.722 331.78 54.3706 332.128 54.1109C332.48 53.8532 332.855 53.701 333.254 53.6541C333.657 53.6093 334.051 53.6825 334.435 53.8736C334.795 54.0523 335.079 54.2771 335.289 54.548C335.5 54.8251 335.634 55.1421 335.692 55.4989C335.747 55.86 335.727 56.2567 335.632 56.689C335.541 57.1235 335.373 57.5873 335.128 58.0806L334.539 59.2657ZM333.584 64.6158L328.092 61.8858L328.843 60.3747L335.627 63.7466L334.91 65.1888L333.584 64.6158ZM333.889 67.3551L332.49 66.6445C332.553 66.5608 332.615 66.4667 332.677 66.3622C332.738 66.2618 332.794 66.1594 332.846 66.0549C332.975 65.7957 333.05 65.5492 333.073 65.3153C333.099 65.0836 333.077 64.8665 333.005 64.6642C332.936 64.4681 332.823 64.2867 332.666 64.1201C332.509 63.9535 332.314 63.8047 332.082 63.6737L332.229 63.3164C332.655 63.5283 333.029 63.7664 333.351 64.0308C333.673 64.2951 333.931 64.5795 334.124 64.8838C334.314 65.1923 334.424 65.5125 334.452 65.8444C334.478 66.1804 334.406 66.5178 334.238 66.8564C334.192 66.9483 334.135 67.0424 334.067 67.1386C333.996 67.239 333.936 67.3111 333.889 67.3551ZM326.216 68.3654C326.094 68.6121 326.032 68.8575 326.03 69.1018C326.031 69.3523 326.089 69.5818 326.204 69.7903C326.317 70.0029 326.486 70.1727 326.709 70.2995L326.002 71.7229C325.567 71.4964 325.232 71.1684 324.997 70.7389C324.763 70.3094 324.641 69.8347 324.634 69.3149C324.631 68.7972 324.754 68.2875 325.003 67.7859C325.261 67.2675 325.573 66.8597 325.939 66.5624C326.31 66.2671 326.716 66.0699 327.156 65.9708C327.596 65.8716 328.054 65.859 328.528 65.933C329 66.0112 329.47 66.1667 329.938 66.3994L330.157 66.5084C330.626 66.7411 331.033 67.022 331.381 67.351C331.73 67.6863 331.998 68.0593 332.185 68.4701C332.372 68.8809 332.457 69.3223 332.442 69.7941C332.43 70.268 332.297 70.7621 332.041 71.2762C331.771 71.8197 331.426 72.2422 331.005 72.5438C330.588 72.8475 330.129 73.0209 329.628 73.0638C329.129 73.113 328.625 73.0161 328.115 72.7731L328.822 71.3497C329.079 71.4618 329.336 71.5113 329.593 71.4982C329.852 71.4913 330.092 71.4177 330.313 71.2773C330.532 71.141 330.71 70.935 330.847 70.6591C330.998 70.3539 331.061 70.0699 331.036 69.8069C331.014 69.546 330.925 69.3061 330.768 69.0873C330.615 68.8705 330.419 68.6716 330.181 68.4906C329.945 68.3158 329.686 68.1588 329.406 68.0196L329.187 67.9105C328.907 67.7713 328.624 67.6593 328.337 67.5744C328.051 67.4895 327.776 67.4515 327.51 67.4605C327.247 67.4757 327.003 67.5525 326.778 67.6908C326.557 67.8312 326.37 68.0561 326.216 68.3654ZM322.614 76.9191L327.8 79.4964L327.045 81.0138L320.261 77.6418L320.971 76.2122L322.614 76.9191ZM323.919 77.8335L323.679 78.3476C323.223 78.1211 322.828 77.8622 322.493 77.5707C322.163 77.2813 321.907 76.9615 321.727 76.6112C321.551 76.263 321.464 75.8864 321.468 75.4814C321.475 75.0784 321.592 74.6492 321.818 74.1935C321.982 73.8633 322.181 73.5841 322.414 73.356C322.648 73.1279 322.914 72.9633 323.215 72.8624C323.513 72.7657 323.85 72.7429 324.226 72.7942C324.602 72.8455 325.014 72.9823 325.461 73.2046L329.844 75.383L329.093 76.8942L324.697 74.7096C324.451 74.587 324.229 74.5134 324.033 74.4888C323.841 74.4663 323.67 74.4803 323.519 74.5308C323.369 74.5812 323.24 74.6629 323.132 74.7759C323.023 74.8889 322.932 75.0207 322.857 75.1712C322.643 75.6017 322.558 75.9819 322.603 76.3116C322.65 76.6476 322.791 76.9395 323.028 77.1874C323.262 77.4394 323.559 77.6548 323.919 77.8335ZM319.3 84.185C319.45 84.2598 319.605 84.2897 319.764 84.2747C319.926 84.2618 320.111 84.1737 320.317 84.0104C320.521 83.8512 320.767 83.5876 321.054 83.2195C321.312 82.8994 321.571 82.6159 321.829 82.369C322.089 82.1283 322.352 81.9408 322.617 81.8066C322.881 81.6723 323.152 81.6007 323.427 81.5917C323.703 81.5827 323.983 81.6488 324.267 81.7901C324.543 81.9272 324.774 82.1177 324.96 82.3615C325.147 82.6053 325.278 82.8868 325.354 83.206C325.43 83.5252 325.442 83.8728 325.391 84.2487C325.337 84.6288 325.211 85.0195 325.011 85.4208C324.729 85.9893 324.391 86.4285 323.997 86.7384C323.605 87.0546 323.192 87.2403 322.758 87.2957C322.328 87.3531 321.911 87.281 321.505 87.0795L322.256 85.5683C322.436 85.6576 322.626 85.6948 322.826 85.6797C323.029 85.6708 323.223 85.6004 323.408 85.4685C323.598 85.3386 323.76 85.1378 323.895 84.8661C324.024 84.6069 324.089 84.3708 324.091 84.1579C324.095 83.9512 324.052 83.7738 323.964 83.6258C323.874 83.482 323.752 83.3717 323.597 83.2948C323.484 83.2387 323.372 83.2087 323.259 83.2048C323.148 83.2071 323.029 83.2419 322.902 83.309C322.779 83.3782 322.642 83.487 322.489 83.6356C322.335 83.7884 322.16 83.9882 321.965 84.235C321.599 84.6993 321.237 85.0749 320.881 85.3618C320.527 85.6549 320.166 85.8353 319.799 85.903C319.436 85.9728 319.051 85.9069 318.646 85.7053C318.345 85.5558 318.101 85.3538 317.915 85.0996C317.73 84.8516 317.607 84.5607 317.543 84.2268C317.484 83.895 317.488 83.5349 317.556 83.1464C317.622 82.7621 317.759 82.361 317.967 81.943C318.272 81.3285 318.639 80.862 319.069 80.5437C319.502 80.2274 319.945 80.0437 320.398 79.9925C320.853 79.9476 321.267 80.0176 321.639 80.2025L320.913 81.6635C320.624 81.541 320.362 81.5072 320.127 81.562C319.893 81.6231 319.686 81.7395 319.507 81.9111C319.33 82.089 319.186 82.2908 319.074 82.5165C318.938 82.7882 318.861 83.0337 318.84 83.2529C318.824 83.4743 318.855 83.6642 318.933 83.8227C319.014 83.9832 319.137 84.104 319.3 84.185ZM316.556 95.4477L317.712 93.1214L318.866 93.6792L317.856 95.7108C317.686 96.0536 317.592 96.369 317.574 96.6572C317.558 96.9516 317.615 97.2092 317.745 97.4302C317.879 97.6533 318.084 97.8334 318.36 97.9705C318.665 98.1222 318.943 98.1872 319.193 98.1658C319.444 98.1443 319.673 98.0341 319.881 97.8353C320.087 97.6407 320.283 97.3573 320.468 96.9853L321.225 95.4616L313.35 91.5474L314.132 89.9735L323.262 94.511L321.722 97.6086C321.473 98.1102 321.202 98.5336 320.911 98.8788C320.617 99.2281 320.3 99.4898 319.958 99.6639C319.618 99.8443 319.258 99.9286 318.878 99.917C318.496 99.9096 318.092 99.7999 317.665 99.588C317.289 99.401 316.989 99.1397 316.765 98.8041C316.545 98.4707 316.424 98.0795 316.402 97.6307C316.38 97.1819 316.48 96.6869 316.702 96.1457L316.556 95.4477ZM312.465 93.3282L313.833 90.5755L314.728 91.9042L313.712 93.9483C313.536 94.3036 313.447 94.6295 313.445 94.926C313.448 95.2245 313.525 95.4842 313.676 95.7052C313.829 95.9323 314.047 96.1166 314.332 96.2578C314.629 96.4054 314.912 96.4809 315.181 96.4844C315.454 96.49 315.706 96.409 315.935 96.2415C316.168 96.076 316.375 95.8114 316.556 95.4477L317.435 93.6795L318.576 94.2623L317.433 96.5636L316.822 96.7059C316.556 97.1993 316.241 97.556 315.876 97.776C315.509 98.0003 315.123 98.1108 314.718 98.1076C314.313 98.1044 313.923 98.0093 313.546 97.8223C312.965 97.5335 312.542 97.164 312.275 96.7137C312.007 96.2676 311.888 95.7575 311.918 95.1833C311.952 94.6112 312.134 93.9928 312.465 93.3282ZM313.498 99.5722L313.642 99.6439C314.131 99.887 314.549 100.183 314.897 100.533C315.248 100.885 315.512 101.272 315.688 101.693C315.867 102.121 315.945 102.571 315.923 103.045C315.904 103.526 315.771 104.012 315.526 104.506C315.279 105.003 314.971 105.403 314.602 105.704C314.235 106.012 313.828 106.224 313.379 106.34C312.935 106.458 312.466 106.483 311.973 106.415C311.485 106.349 310.996 106.195 310.507 105.952L310.363 105.88C309.873 105.637 309.455 105.341 309.108 104.991C308.76 104.641 308.498 104.252 308.319 103.825C308.145 103.399 308.066 102.948 308.084 102.472C308.106 101.998 308.239 101.515 308.485 101.022C308.732 100.524 309.039 100.122 309.405 99.8137C309.774 99.5122 310.181 99.3025 310.625 99.1845C311.074 99.0686 311.542 99.0435 312.031 99.1091C312.52 99.1748 313.009 99.3291 313.498 99.5722ZM312.891 101.155L312.747 101.083C312.441 100.932 312.137 100.82 311.835 100.747C311.532 100.675 311.245 100.655 310.973 100.687C310.702 100.719 310.456 100.81 310.235 100.961C310.014 101.112 309.832 101.331 309.688 101.62C309.549 101.9 309.487 102.172 309.503 102.435C309.516 102.702 309.591 102.953 309.73 103.189C309.868 103.424 310.058 103.641 310.298 103.839C310.537 104.041 310.808 104.217 311.114 104.369L311.258 104.441C311.559 104.59 311.86 104.698 312.16 104.764C312.463 104.837 312.754 104.856 313.031 104.822C313.307 104.792 313.555 104.701 313.776 104.551C313.999 104.406 314.181 104.192 314.322 103.907C314.464 103.623 314.525 103.346 314.508 103.077C314.493 102.814 314.414 102.564 314.271 102.326C314.129 102.088 313.937 101.871 313.697 101.673C313.46 101.477 313.192 101.305 312.891 101.155ZM306.225 110.493C306.375 110.567 306.53 110.597 306.688 110.582C306.851 110.569 307.036 110.481 307.242 110.318C307.446 110.159 307.692 109.895 307.979 109.527C308.237 109.207 308.495 108.924 308.754 108.677C309.014 108.436 309.277 108.248 309.542 108.114C309.806 107.98 310.077 107.908 310.352 107.899C310.628 107.89 310.908 107.956 311.192 108.098C311.468 108.235 311.699 108.425 311.885 108.669C312.072 108.913 312.203 109.194 312.279 109.514C312.355 109.833 312.367 110.18 312.316 110.556C312.262 110.936 312.136 111.327 311.936 111.728C311.654 112.297 311.316 112.736 310.922 113.046C310.53 113.362 310.117 113.548 309.683 113.603C309.253 113.661 308.835 113.589 308.43 113.387L309.181 111.876C309.361 111.965 309.551 112.002 309.751 111.987C309.954 111.978 310.148 111.908 310.333 111.776C310.523 111.646 310.685 111.445 310.82 111.174C310.949 110.914 311.014 110.678 311.016 110.465C311.02 110.259 310.977 110.081 310.889 109.933C310.799 109.79 310.677 109.679 310.522 109.602C310.409 109.546 310.296 109.516 310.184 109.512C310.073 109.515 309.954 109.549 309.827 109.617C309.704 109.686 309.566 109.795 309.414 109.943C309.26 110.096 309.085 110.296 308.89 110.543C308.523 111.007 308.162 111.383 307.806 111.669C307.452 111.963 307.091 112.143 306.724 112.211C306.361 112.28 305.976 112.214 305.571 112.013C305.27 111.863 305.026 111.661 304.84 111.407C304.655 111.159 304.532 110.868 304.468 110.534C304.409 110.203 304.413 109.843 304.481 109.454C304.547 109.07 304.684 108.669 304.892 108.251C305.197 107.636 305.564 107.17 305.994 106.851C306.427 106.535 306.87 106.351 307.323 106.3C307.778 106.255 308.192 106.325 308.564 106.51L307.838 107.971C307.549 107.849 307.287 107.815 307.051 107.87C306.818 107.931 306.611 108.047 306.432 108.219C306.255 108.397 306.111 108.598 305.998 108.824C305.863 109.096 305.786 109.341 305.765 109.561C305.749 109.782 305.78 109.972 305.858 110.13C305.939 110.291 306.062 110.412 306.225 110.493ZM302.559 115.965C302.436 116.212 302.374 116.457 302.373 116.701C302.373 116.952 302.431 117.181 302.547 117.39C302.66 117.603 302.828 117.772 303.052 117.899L302.345 119.323C301.91 119.096 301.575 118.768 301.34 118.339C301.105 117.909 300.984 117.434 300.977 116.915C300.973 116.397 301.096 115.887 301.346 115.386C301.603 114.867 301.915 114.459 302.282 114.162C302.653 113.867 303.059 113.67 303.499 113.57C303.939 113.471 304.396 113.459 304.87 113.533C305.342 113.611 305.812 113.766 306.281 113.999L306.5 114.108C306.968 114.341 307.376 114.622 307.723 114.951C308.073 115.286 308.341 115.659 308.528 116.07C308.714 116.481 308.8 116.922 308.784 117.394C308.773 117.868 308.64 118.362 308.384 118.876C308.114 119.419 307.768 119.842 307.347 120.143C306.931 120.447 306.472 120.621 305.971 120.663C305.472 120.713 304.968 120.616 304.458 120.373L305.165 118.949C305.422 119.061 305.679 119.111 305.936 119.098C306.195 119.091 306.435 119.017 306.655 118.877C306.874 118.741 307.052 118.535 307.189 118.259C307.341 117.954 307.404 117.67 307.378 117.407C307.357 117.146 307.268 116.906 307.111 116.687C306.958 116.47 306.762 116.271 306.524 116.09C306.287 115.915 306.029 115.758 305.749 115.619L305.529 115.51C305.249 115.371 304.966 115.259 304.68 115.174C304.394 115.089 304.118 115.051 303.853 115.06C303.59 115.075 303.346 115.152 303.121 115.29C302.9 115.431 302.713 115.656 302.559 115.965ZM302.847 121.002L302.991 121.074C303.48 121.317 303.898 121.613 304.246 121.963C304.597 122.315 304.861 122.702 305.038 123.123C305.216 123.551 305.294 124.001 305.273 124.475C305.253 124.956 305.12 125.442 304.875 125.936C304.628 126.433 304.32 126.833 303.951 127.134C303.585 127.442 303.177 127.654 302.728 127.77C302.284 127.888 301.815 127.913 301.323 127.845C300.834 127.779 300.345 127.625 299.856 127.382L299.712 127.31C299.223 127.067 298.804 126.771 298.457 126.421C298.11 126.071 297.847 125.682 297.668 125.255C297.494 124.829 297.416 124.378 297.433 123.902C297.455 123.428 297.589 122.945 297.834 122.452C298.081 121.954 298.388 121.551 298.755 121.244C299.123 120.942 299.53 120.732 299.974 120.615C300.423 120.499 300.892 120.473 301.38 120.539C301.869 120.605 302.358 120.759 302.847 121.002ZM302.24 122.585L302.096 122.513C301.791 122.362 301.487 122.25 301.184 122.177C300.881 122.105 300.594 122.085 300.322 122.117C300.051 122.149 299.805 122.24 299.584 122.391C299.363 122.542 299.181 122.761 299.038 123.05C298.898 123.33 298.836 123.602 298.852 123.865C298.865 124.132 298.941 124.383 299.079 124.619C299.217 124.854 299.407 125.071 299.647 125.269C299.886 125.471 300.158 125.647 300.463 125.799L300.607 125.871C300.908 126.02 301.209 126.128 301.51 126.194C301.812 126.267 302.103 126.286 302.38 126.252C302.656 126.222 302.904 126.131 303.125 125.981C303.348 125.836 303.53 125.622 303.671 125.337C303.813 125.053 303.875 124.776 303.857 124.507C303.842 124.244 303.763 123.994 303.621 123.756C303.478 123.518 303.287 123.301 303.046 123.103C302.81 122.907 302.541 122.735 302.24 122.585ZM294.701 135.945L301.09 139.12L300.311 140.688L293.922 137.512C293.316 137.211 292.864 136.825 292.566 136.354C292.269 135.883 292.118 135.367 292.115 134.808C292.111 134.249 292.251 133.685 292.533 133.116C292.822 132.535 293.177 132.068 293.598 131.714C294.017 131.364 294.492 131.163 295.024 131.109C295.557 131.056 296.134 131.184 296.757 131.493L295.972 133.073C295.612 132.895 295.294 132.807 295.016 132.809C294.74 132.818 294.5 132.903 294.296 133.062C294.094 133.227 293.922 133.452 293.781 133.736C293.646 134.008 293.587 134.278 293.605 134.548C293.624 134.823 293.723 135.081 293.901 135.32C294.083 135.562 294.35 135.77 294.701 135.945ZM289.789 142.964L294.975 145.541L294.221 147.059L287.436 143.687L288.147 142.257L289.789 142.964ZM291.094 143.878L290.854 144.393C290.398 144.166 290.003 143.907 289.669 143.616C289.338 143.326 289.083 143.006 288.902 142.656C288.726 142.308 288.64 141.931 288.643 141.526C288.65 141.123 288.767 140.694 288.993 140.238C289.158 139.908 289.356 139.629 289.59 139.401C289.823 139.173 290.09 139.008 290.39 138.907C290.688 138.811 291.025 138.788 291.401 138.839C291.777 138.89 292.189 139.027 292.636 139.25L297.019 141.428L296.268 142.939L291.873 140.754C291.626 140.632 291.404 140.558 291.208 140.534C291.016 140.511 290.845 140.525 290.695 140.576C290.544 140.626 290.415 140.708 290.307 140.821C290.199 140.934 290.107 141.066 290.032 141.216C289.818 141.647 289.734 142.027 289.778 142.357C289.825 142.693 289.967 142.984 290.203 143.232C290.438 143.484 290.735 143.7 291.094 143.878ZM295.357 151.915L285.725 147.128L286.48 145.611L296.111 150.398L295.357 151.915ZM290.746 154.049L283.962 150.677L284.716 149.159L291.501 152.531L290.746 154.049ZM293.331 153.316C293.561 153.43 293.714 153.6 293.79 153.825C293.868 154.057 293.839 154.309 293.704 154.58C293.571 154.848 293.389 155.02 293.157 155.098C292.93 155.178 292.701 155.161 292.471 155.047C292.245 154.935 292.096 154.764 292.022 154.534C291.949 154.305 291.978 154.056 292.111 153.789C292.246 153.517 292.427 153.341 292.655 153.261C292.88 153.186 293.106 153.204 293.331 153.316ZM281.391 155.536C281.64 155.034 281.947 154.621 282.311 154.297C282.678 153.979 283.08 153.751 283.518 153.614C283.954 153.482 284.41 153.44 284.887 153.489C285.363 153.538 285.833 153.678 286.297 153.908L286.548 154.033C287.078 154.297 287.521 154.613 287.874 154.982C288.228 155.351 288.489 155.749 288.657 156.176C288.829 156.606 288.903 157.049 288.879 157.507C288.855 157.964 288.734 158.412 288.516 158.851C288.275 159.336 287.983 159.719 287.639 160.002C287.295 160.285 286.916 160.471 286.501 160.562C286.087 160.659 285.649 160.666 285.185 160.581C284.72 160.501 284.242 160.339 283.753 160.096L283.107 159.775L285.713 154.533L286.797 155.072L284.934 158.822L285.053 158.881C285.329 159.008 285.611 159.08 285.899 159.098C286.185 159.12 286.451 159.068 286.697 158.94C286.943 158.812 287.149 158.581 287.315 158.246C287.44 157.995 287.497 157.745 287.486 157.494C287.477 157.25 287.404 157.013 287.268 156.784C287.132 156.555 286.939 156.334 286.69 156.121C286.443 155.915 286.145 155.725 285.793 155.55L285.543 155.426C285.246 155.278 284.95 155.181 284.656 155.134C284.363 155.093 284.084 155.105 283.817 155.17C283.549 155.235 283.305 155.354 283.085 155.526C282.868 155.699 282.688 155.931 282.545 156.219C282.364 156.583 282.276 156.943 282.281 157.3C282.286 157.657 282.37 158.006 282.534 158.348L281.367 158.761C281.226 158.509 281.116 158.217 281.036 157.885C280.96 157.556 280.946 157.192 280.993 156.793C281.038 156.398 281.17 155.979 281.391 155.536ZM284.683 166.249L283.579 165.701L285.48 161.876L286.584 162.425L284.683 166.249ZM287.697 164.354L286.946 165.865L280.374 162.599C280.165 162.495 279.99 162.445 279.848 162.447C279.708 162.456 279.592 162.505 279.501 162.595C279.409 162.685 279.327 162.803 279.254 162.949C279.202 163.054 279.159 163.157 279.123 163.26C279.088 163.362 279.062 163.446 279.046 163.51L277.889 162.943C277.914 162.799 277.953 162.636 278.007 162.455C278.058 162.277 278.137 162.082 278.243 161.868C278.416 161.521 278.629 161.244 278.883 161.037C279.142 160.832 279.448 160.724 279.803 160.712C280.158 160.701 280.567 160.811 281.031 161.041L287.697 164.354Z" fill="white"/>
</g>
<g filter="url(#filter0_d_379_3174)">
<g clip-path="url(#clip1_379_3174)">
<rect x="170.314" width="355.713" height="188.89" rx="13.0016" transform="rotate(64.3774 170.314 0)" fill="#7750A1"/>
<path d="M276.789 313.184L254.877 298.172L278.725 286.554L278.726 286.553L300.372 276.172L300.383 276.166L300.394 276.161C300.637 276.029 300.913 275.969 301.189 275.986C301.465 276.004 301.73 276.099 301.955 276.26C302.18 276.421 302.354 276.642 302.46 276.898C302.565 277.153 302.596 277.433 302.55 277.706L302.546 277.729L302.544 277.753L300.734 301.699L300.734 301.7L298.681 328.162L276.789 313.184L276.789 313.184Z" stroke="white" stroke-width="1.02262"/>
<path d="M227.287 336.737L227.286 336.736L207.521 323.323L207.521 323.323L207.514 323.318C207.298 323.177 207.124 322.98 207.01 322.748C206.896 322.516 206.846 322.257 206.866 322C206.886 321.742 206.975 321.495 207.124 321.283C207.273 321.072 207.475 320.904 207.711 320.798L207.718 320.795L207.725 320.791L229.296 310.259L229.298 310.258L253.212 298.789L251.203 325.267L251.203 325.267L249.179 351.715L227.287 336.737Z" stroke="white" stroke-width="1.02262"/>
<path d="M252.223 325.345L252.223 325.344L254.232 298.868L276.138 313.875L276.138 313.875L298.03 328.853L274.114 340.323L250.17 351.807L252.223 325.345Z" stroke="white" stroke-width="1.02262"/>
<path d="M245.412 249.81L245.412 249.81L243.403 276.287L221.497 261.28L221.497 261.279L199.576 246.316L223.521 234.832L247.436 223.362L245.412 249.81Z" stroke="white" stroke-width="1.02262"/>
<path d="M195.955 273.53L195.955 273.53L193.945 300.008L172.009 285.014L172.009 285.014L150.118 270.036L174.063 258.552L197.979 247.082L195.955 273.53Z" stroke="white" stroke-width="1.02262"/>
<path d="M218.88 288.616L194.964 300.087L196.973 273.608L196.973 273.608L198.997 247.159L220.919 262.124L220.919 262.124L242.826 277.132L218.88 288.616Z" stroke="white" stroke-width="1.02262"/>
<path d="M124.604 282.272L124.605 282.272L148.517 270.803L146.424 297.096L146.424 297.098L144.414 323.576L122.478 308.582L122.477 308.581L102.748 295.158C102.747 295.157 102.746 295.156 102.745 295.156C102.536 295.009 102.368 294.81 102.259 294.578C102.149 294.346 102.102 294.089 102.122 293.833C102.142 293.577 102.228 293.33 102.373 293.118C102.517 292.906 102.714 292.735 102.944 292.623L124.604 282.272Z" stroke="white" stroke-width="1.02262"/>
<path d="M171.43 285.859L193.366 300.853L169.421 312.337L145.476 323.821L147.515 297.329L147.515 297.329L149.539 270.881L171.43 285.859L171.43 285.859Z" stroke="white" stroke-width="1.02262"/>
<path d="M290.169 251.952L290.173 251.954C290.39 252.099 290.564 252.299 290.678 252.534C290.793 252.768 290.843 253.028 290.824 253.288C290.805 253.548 290.717 253.798 290.57 254.013C290.423 254.228 290.221 254.401 289.986 254.513L289.984 254.513L268.337 264.896L244.421 276.366L246.431 249.889L246.431 249.887L248.525 223.585L270.376 238.403L270.378 238.404L290.169 251.952L290.169 251.952Z" stroke="white" stroke-width="1.02262"/>
<circle opacity="0.5" cx="162.435" cy="56.6649" r="10.5622" transform="rotate(64.3774 162.435 56.6649)" fill="white"/>
<circle opacity="0.8" cx="156.461" cy="44.2118" r="10.5622" transform="rotate(64.3774 156.461 44.2118)" fill="white"/>
<path d="M121.418 50.2831L123.804 50.8392L123.41 48.5589L124.703 48.4048L124.864 50.7501L127.01 49.5734L127.598 50.7982L125.287 51.7436L126.99 53.3031L126.038 54.2176L124.492 52.4508L123.448 54.5978L122.278 53.9397L123.565 51.8938L121.224 51.5953L121.418 50.2831ZM124.367 56.4318L126.753 56.9878L126.359 54.7076L127.651 54.5535L127.813 56.8988L129.959 55.722L130.547 56.9469L128.235 57.8923L129.939 59.4518L128.987 60.3663L127.441 58.5995L126.397 60.7465L125.227 60.0883L126.514 58.0424L124.173 57.744L124.367 56.4318ZM127.316 62.5805L129.702 63.1365L129.308 60.8563L130.6 60.7021L130.762 63.0474L132.908 61.8707L133.496 63.0955L131.184 64.0409L132.888 65.6004L131.936 66.5149L130.39 64.7482L129.346 66.8951L128.176 66.237L129.463 64.1911L127.122 63.8927L127.316 62.5805ZM130.264 68.7291L132.651 69.2852L132.257 67.0049L133.549 66.8508L133.711 69.1961L135.857 68.0194L136.445 69.2442L134.133 70.1896L135.836 71.7491L134.885 72.6636L133.339 70.8968L132.295 73.0438L131.125 72.3857L132.411 70.3398L130.071 70.0413L130.264 68.7291ZM136.568 81.8718L138.954 82.4278L138.56 80.1476L139.853 79.9934L140.015 82.3387L142.16 81.162L142.748 82.3868L140.437 83.3322L142.14 84.8917L141.188 85.8062L139.642 84.0395L138.598 86.1864L137.428 85.5283L138.715 83.4824L136.374 83.184L136.568 81.8718ZM139.517 88.0204L141.903 88.5764L141.509 86.2962L142.802 86.1421L142.963 88.4874L145.109 87.3107L145.697 88.5355L143.386 89.4809L145.089 91.0404L144.137 91.9549L142.591 90.1881L141.547 92.3351L140.377 91.6769L141.664 89.6311L139.323 89.3326L139.517 88.0204ZM142.466 94.1691L144.852 94.7251L144.458 92.4449L145.751 92.2908L145.912 94.6361L148.058 93.4593L148.646 94.6842L146.334 95.6295L148.038 97.189L147.086 98.1036L145.54 96.3368L144.496 98.4838L143.326 97.8256L144.613 95.7797L142.272 95.4813L142.466 94.1691ZM145.415 100.318L147.801 100.874L147.407 98.5936L148.699 98.4394L148.861 100.785L151.007 99.608L151.595 100.833L149.283 101.778L150.987 103.338L150.035 104.252L148.489 102.485L147.445 104.632L146.275 103.974L147.562 101.928L145.221 101.63L145.415 100.318ZM151.718 113.46L154.105 114.016L153.71 111.736L155.003 111.582L155.165 113.927L157.31 112.751L157.898 113.975L155.587 114.921L157.29 116.48L156.338 117.395L154.792 115.628L153.748 117.775L152.578 117.117L153.865 115.071L151.524 114.773L151.718 113.46ZM154.667 119.609L157.053 120.165L156.659 117.885L157.952 117.731L158.114 120.076L160.259 118.899L160.847 120.124L158.536 121.07L160.239 122.629L159.287 123.544L157.741 121.777L156.697 123.924L155.527 123.266L156.814 121.22L154.473 120.921L154.667 119.609ZM157.616 125.758L160.002 126.314L159.608 124.034L160.901 123.879L161.062 126.225L163.208 125.048L163.796 126.273L161.485 127.218L163.188 128.778L162.236 129.692L160.69 127.925L159.646 130.072L158.476 129.414L159.763 127.368L157.422 127.07L157.616 125.758ZM160.565 131.906L162.951 132.462L162.557 130.182L163.85 130.028L164.011 132.373L166.157 131.197L166.745 132.421L164.433 133.367L166.137 134.926L165.185 135.841L163.639 134.074L162.595 136.221L161.425 135.563L162.712 133.517L160.371 133.219L160.565 131.906ZM167.427 146.684L167.077 145.065L171.988 143.354L174.465 148.519L172.994 149.224L171.235 145.556L169.086 146.307C169.217 146.395 169.381 146.544 169.58 146.754C169.784 146.961 169.959 147.219 170.106 147.526C170.32 147.972 170.44 148.401 170.467 148.813C170.494 149.225 170.432 149.614 170.282 149.981C170.134 150.353 169.899 150.693 169.576 151.003C169.254 151.313 168.85 151.584 168.366 151.817C167.958 152.012 167.538 152.136 167.107 152.187C166.681 152.237 166.261 152.203 165.847 152.085C165.438 151.966 165.058 151.752 164.708 151.443C164.358 151.135 164.056 150.715 163.802 150.185C163.612 149.789 163.487 149.378 163.428 148.951C163.37 148.528 163.386 148.114 163.476 147.709C163.568 147.307 163.736 146.939 163.98 146.605C164.23 146.273 164.565 146.001 164.986 145.788L165.852 147.594C165.603 147.745 165.41 147.92 165.273 148.12C165.143 148.323 165.071 148.541 165.059 148.774C165.047 149.008 165.1 149.249 165.219 149.497C165.33 149.729 165.469 149.905 165.637 150.027C165.804 150.149 165.989 150.223 166.194 150.249C166.402 150.274 166.622 150.258 166.855 150.204C167.094 150.151 167.338 150.066 167.586 149.947C167.834 149.827 168.045 149.69 168.219 149.534C168.393 149.378 168.524 149.204 168.613 149.011C168.702 148.819 168.741 148.608 168.73 148.381C168.721 148.157 168.657 147.921 168.538 147.673C168.376 147.336 168.199 147.1 168.005 146.966C167.813 146.835 167.62 146.741 167.427 146.684ZM177.651 154.919L177.778 155.184L176.326 155.88L176.275 155.773C176.044 155.293 175.768 154.9 175.445 154.594C175.123 154.288 174.766 154.069 174.376 153.935C173.992 153.803 173.581 153.757 173.144 153.795C172.709 153.838 172.262 153.97 171.803 154.19L170.275 154.923C169.947 155.08 169.672 155.251 169.45 155.435C169.234 155.622 169.071 155.816 168.961 156.019C168.857 156.224 168.804 156.431 168.8 156.64C168.801 156.847 168.852 157.055 168.953 157.266C169.048 157.463 169.176 157.622 169.336 157.742C169.499 157.865 169.684 157.948 169.89 157.989C170.102 158.032 170.326 158.034 170.56 157.994C170.801 157.956 171.045 157.877 171.294 157.758C171.542 157.639 171.756 157.497 171.936 157.333C172.119 157.174 172.257 156.998 172.352 156.808C172.451 156.615 172.503 156.415 172.506 156.206C172.51 155.997 172.461 155.788 172.36 155.577C172.223 155.291 172.034 155.071 171.794 154.916C171.561 154.764 171.312 154.677 171.047 154.654C170.782 154.63 170.534 154.669 170.303 154.77L170.393 154.051C170.723 153.908 171.063 153.828 171.412 153.811C171.763 153.798 172.102 153.847 172.43 153.959C172.765 154.073 173.07 154.256 173.345 154.507C173.625 154.755 173.859 155.076 174.047 155.467C174.253 155.896 174.351 156.312 174.342 156.715C174.336 157.122 174.242 157.504 174.061 157.86C173.879 158.216 173.628 158.539 173.305 158.828C172.983 159.117 172.61 159.363 172.185 159.567C171.738 159.781 171.289 159.907 170.835 159.943C170.383 159.984 169.949 159.936 169.531 159.799C169.116 159.667 168.737 159.45 168.396 159.148C168.054 158.846 167.77 158.459 167.544 157.988C167.31 157.5 167.185 157.013 167.17 156.528C167.162 156.046 167.251 155.584 167.437 155.142C167.624 154.701 167.903 154.295 168.275 153.925C168.648 153.56 169.1 153.25 169.631 152.995L170.338 152.656C171.079 152.301 171.808 152.083 172.525 152.003C173.249 151.925 173.934 151.983 174.58 152.175C175.23 152.365 175.818 152.689 176.343 153.147C176.868 153.604 177.304 154.195 177.651 154.919ZM181.995 164.219L181.016 164.688L171.098 165.073L170.177 163.154L179.654 162.981L177.459 158.404L178.879 157.723L181.995 164.219ZM178.991 175.071C178.415 175.348 177.864 175.446 177.339 175.366C176.818 175.285 176.344 175.057 175.916 174.682C175.494 174.31 175.141 173.827 174.856 173.234C174.571 172.64 174.415 172.06 174.387 171.494C174.363 170.926 174.481 170.411 174.741 169.949C175.005 169.486 175.426 169.116 176.003 168.84C176.39 168.654 176.777 168.564 177.163 168.571C177.553 168.575 177.926 168.662 178.283 168.833C178.645 169.006 178.976 169.254 179.276 169.576C179.58 169.896 179.838 170.28 180.052 170.726C180.339 171.323 180.49 171.908 180.506 172.481C180.521 173.053 180.402 173.566 180.149 174.019C179.895 174.472 179.509 174.823 178.991 175.071ZM178.233 173.183C178.515 173.047 178.731 172.877 178.88 172.67C179.036 172.466 179.122 172.241 179.139 171.995C179.156 171.749 179.102 171.497 178.979 171.241C178.856 170.984 178.693 170.785 178.491 170.644C178.289 170.503 178.058 170.427 177.799 170.416C177.547 170.408 177.28 170.471 176.998 170.607C176.72 170.74 176.505 170.908 176.354 171.11C176.204 171.316 176.121 171.542 176.104 171.788C176.094 172.037 176.151 172.291 176.277 172.552C176.402 172.813 176.562 173.013 176.758 173.152C176.961 173.293 177.187 173.366 177.438 173.37C177.69 173.378 177.955 173.316 178.233 173.183ZM183.134 172.844C182.667 173.068 182.192 173.142 181.711 173.068C181.234 172.991 180.789 172.78 180.375 172.435C179.963 172.094 179.622 171.642 179.351 171.078C179.079 170.509 178.938 169.956 178.928 169.417C178.918 168.878 179.032 168.399 179.271 167.979C179.514 167.557 179.869 167.234 180.336 167.01C180.891 166.743 181.418 166.643 181.916 166.71C182.42 166.779 182.876 166.985 183.284 167.328C183.694 167.675 184.033 168.128 184.301 168.688C184.574 169.256 184.716 169.807 184.728 170.339C184.742 170.876 184.618 171.36 184.354 171.792C184.096 172.227 183.689 172.577 183.134 172.844ZM182.18 171.065C182.428 170.945 182.621 170.798 182.76 170.623C182.903 170.446 182.985 170.251 183.008 170.038C183.032 169.83 182.988 169.608 182.875 169.372C182.766 169.145 182.623 168.972 182.448 168.855C182.274 168.741 182.074 168.685 181.846 168.685C181.625 168.688 181.386 168.751 181.129 168.874C180.881 168.993 180.682 169.14 180.533 169.315C180.39 169.492 180.305 169.688 180.279 169.903C180.252 170.117 180.295 170.34 180.406 170.572C180.517 170.803 180.663 170.974 180.845 171.083C181.029 171.197 181.234 171.252 181.459 171.247C181.691 171.244 181.931 171.184 182.18 171.065Z" fill="white"/>
<path opacity="0.6" d="M108.282 60.4573L100.359 64.257L99.879 63.2558L106.552 60.0557L104.847 58.3901L105.751 57.9567L108.207 60.3003L108.282 60.4573ZM107.037 66.8135L107.379 67.5278C107.547 67.8777 107.743 68.1387 107.968 68.3106C108.198 68.4844 108.44 68.5788 108.696 68.5937C108.957 68.6105 109.216 68.5575 109.472 68.4347C109.775 68.2893 110.005 68.1168 110.162 67.9172C110.319 67.7175 110.402 67.4916 110.41 67.2394C110.417 66.9872 110.347 66.7059 110.198 66.3957C110.063 66.1143 109.888 65.8922 109.672 65.7293C109.462 65.5684 109.226 65.475 108.965 65.4493C108.706 65.4271 108.439 65.4818 108.165 65.6133L107.685 64.6121C108.086 64.4201 108.498 64.3463 108.924 64.3909C109.349 64.4355 109.746 64.5932 110.116 64.8642C110.487 65.1387 110.789 65.5177 111.021 66.0012C111.249 66.4774 111.364 66.9347 111.366 67.3732C111.371 67.81 111.255 68.2072 111.019 68.5648C110.785 68.9207 110.424 69.2163 109.933 69.4516C109.735 69.5468 109.499 69.6019 109.227 69.6172C108.96 69.6342 108.682 69.5921 108.394 69.4907C108.108 69.3929 107.828 69.221 107.554 68.9749C107.285 68.7271 107.047 68.3885 106.841 67.9592L106.431 67.1041L107.037 66.8135ZM106.214 67.208L106.815 66.9199L107.225 67.7749C107.466 68.2764 107.605 68.7198 107.643 69.1052C107.682 69.4906 107.647 69.8247 107.538 70.1075C107.432 70.3939 107.277 70.632 107.076 70.822C106.879 71.0138 106.664 71.166 106.429 71.2784C106.061 71.4549 105.704 71.5484 105.359 71.5588C105.015 71.5728 104.689 71.5138 104.382 71.3817C104.076 71.2532 103.8 71.0616 103.554 70.807C103.308 70.5524 103.099 70.2465 102.927 69.8893C102.763 69.5466 102.657 69.2004 102.609 68.8506C102.563 68.5044 102.576 68.1718 102.649 67.8526C102.726 67.5318 102.869 67.2415 103.077 66.9819C103.289 66.7205 103.57 66.5059 103.92 66.338L104.4 67.3392C104.126 67.4707 103.915 67.6453 103.766 67.863C103.619 68.0842 103.542 68.3344 103.534 68.6135C103.531 68.8944 103.603 69.1882 103.75 69.4948C103.897 69.8015 104.076 70.0398 104.286 70.2097C104.501 70.3814 104.746 70.4749 105.019 70.4902C105.295 70.509 105.597 70.4397 105.925 70.2823C106.253 70.1248 106.489 69.9274 106.633 69.6899C106.78 69.4507 106.843 69.1806 106.823 68.8796C106.808 68.5805 106.72 68.2614 106.557 67.9223L106.214 67.208ZM114.629 73.8036L104.498 74.6221L104.086 73.7617L114.219 72.9485L114.629 73.8036ZM110.654 83.6127L109.831 84.0072L107.358 78.8499L108.078 78.5047L112.189 79.7079C112.695 79.8558 113.112 79.9575 113.441 80.013C113.774 80.0704 114.055 80.0867 114.283 80.0618C114.516 80.0388 114.735 79.978 114.941 79.8793C115.201 79.7547 115.409 79.5882 115.566 79.3796C115.729 79.1729 115.824 78.9364 115.852 78.6702C115.88 78.404 115.823 78.1248 115.683 77.8326C115.515 77.4826 115.307 77.2233 115.057 77.0545C114.813 76.8876 114.542 76.8044 114.245 76.8049C113.948 76.8054 113.643 76.8809 113.329 77.0314L112.849 76.0303C113.292 75.8175 113.745 75.7202 114.206 75.7386C114.668 75.7569 115.098 75.9053 115.498 76.1839C115.902 76.4608 116.238 76.8789 116.506 77.4381C116.745 77.9359 116.86 78.404 116.853 78.8424C116.849 79.279 116.734 79.6672 116.506 80.0071C116.284 80.3488 115.962 80.6209 115.54 80.8234C115.309 80.9341 115.056 81.0069 114.779 81.0417C114.509 81.0784 114.223 81.0845 113.923 81.0598C113.624 81.0388 113.318 80.9926 113.004 80.9213C112.692 80.8535 112.378 80.7714 112.061 80.6749L108.759 79.6622L110.654 83.6127ZM115.684 89.409L114.861 89.8035L112.131 84.1105L112.721 83.8276L119.873 84.7372L120.265 85.5543L118.265 85.4355L113.499 84.8524L115.684 89.409ZM120.385 85.8033L112.505 89.5822L112.025 88.5811L119.904 84.8021L120.385 85.8033Z" fill="white"/>
<path d="M61.0122 81.3739L51.8197 85.7827L51.0596 84.198L60.2522 79.7892L61.0122 81.3739ZM63.6617 86.8983L57.4494 85.2959L54.1843 84.2526L55.6232 83.2208L58.2187 83.8397L62.7351 84.9663L63.6617 86.8983ZM53.6516 89.6024L56.5575 84.4889L58.161 85.0634L54.554 91.4838L53.6516 89.6024ZM58.5466 95.6797L63.7679 93.1756L64.5007 94.7034L57.6694 97.9798L56.9791 96.5403L58.5466 95.6797ZM60.0701 95.2131L60.328 95.7184C59.8692 95.9385 59.422 96.0908 58.9863 96.1755C58.5548 96.2582 58.1455 96.263 57.7584 96.1898C57.3754 96.1146 57.0253 95.9512 56.7079 95.6996C56.3947 95.446 56.1281 95.0898 55.908 94.631C55.7486 94.2985 55.6506 93.9701 55.6142 93.6459C55.5778 93.3217 55.6121 93.0101 55.7173 92.7112C55.8244 92.4164 56.0138 92.1366 56.2854 91.8718C56.557 91.6069 56.918 91.3665 57.3684 91.1505L61.7815 89.0339L62.5113 90.5555L58.0855 92.6781C57.8372 92.7972 57.6429 92.9266 57.5028 93.0663C57.367 93.2039 57.2727 93.3475 57.2202 93.4969C57.1676 93.6464 57.1526 93.7986 57.1751 93.9534C57.1976 94.1083 57.2452 94.2615 57.3178 94.413C57.5258 94.8466 57.7735 95.1471 58.0609 95.3147C58.3546 95.4845 58.6719 95.5523 59.0128 95.5183C59.3557 95.4884 59.7081 95.3867 60.0701 95.2131ZM64.6468 98.7484L59.2739 101.325L58.5442 99.8036L65.3754 96.5273L66.0628 97.9605L64.6468 98.7484ZM62.8119 99.2945L62.582 98.799C63.0681 98.571 63.5444 98.4254 64.0111 98.3621C64.4797 98.303 64.9158 98.3216 65.3193 98.4181C65.7248 98.5187 66.0851 98.6979 66.4003 98.9557C66.7197 99.2115 66.9774 99.5436 67.1732 99.9519C67.3306 100.28 67.4266 100.599 67.4612 100.909C67.502 101.22 67.4668 101.519 67.3556 101.806C67.2465 102.096 67.0541 102.37 66.7784 102.626C66.507 102.881 66.1376 103.12 65.6704 103.344L61.2573 105.461L60.5245 103.933L64.944 101.813C65.2723 101.656 65.5079 101.483 65.6509 101.295C65.8001 101.11 65.8713 100.908 65.8645 100.688C65.8639 100.471 65.8 100.23 65.6728 99.9648C65.5476 99.7038 65.3809 99.4964 65.1725 99.3427C64.9642 99.1889 64.731 99.0859 64.4729 99.0336C64.2169 98.9856 63.9466 98.9832 63.6619 99.0266C63.3772 99.0699 63.0939 99.1592 62.8119 99.2945ZM72.6139 104.269L62.9163 108.92L62.1835 107.392L71.8811 102.741L72.6139 104.269ZM65.1667 113.936C64.9244 113.431 64.7875 112.935 64.7558 112.448C64.7304 111.963 64.7984 111.506 64.96 111.076C65.1236 110.651 65.3711 110.265 65.7025 109.92C66.0339 109.575 66.4332 109.29 66.9004 109.066L67.1529 108.945C67.6875 108.688 68.2089 108.534 68.7171 108.482C69.2253 108.43 69.6997 108.469 70.1401 108.599C70.5848 108.728 70.9801 108.942 71.3259 109.242C71.6718 109.542 71.9507 109.913 72.1626 110.355C72.3968 110.843 72.5196 111.31 72.5311 111.755C72.5426 112.2 72.4564 112.614 72.2726 112.997C72.0951 113.383 71.8304 113.732 71.4787 114.046C71.1289 114.364 70.7079 114.641 70.2154 114.877L69.5651 115.189L67.0337 109.911L68.1259 109.387L69.9367 113.162L70.0566 113.105C70.3262 112.965 70.5567 112.787 70.7482 112.571C70.9416 112.359 71.0636 112.117 71.114 111.844C71.1644 111.572 71.1089 111.267 70.9474 110.93C70.8263 110.678 70.6636 110.479 70.4593 110.333C70.2612 110.19 70.0298 110.102 69.7652 110.068C69.5006 110.035 69.208 110.051 68.8875 110.116C68.5732 110.184 68.2393 110.303 67.8857 110.473L67.6332 110.594C67.3343 110.737 67.0757 110.91 66.8573 111.113C66.6451 111.319 66.4827 111.547 66.37 111.798C66.2573 112.048 66.2008 112.314 66.2003 112.593C66.2041 112.871 66.2756 113.155 66.4149 113.446C66.5906 113.812 66.8207 114.103 67.1052 114.318C67.3898 114.534 67.7173 114.682 68.0876 114.764L67.6956 115.938C67.4103 115.893 67.1122 115.801 66.8013 115.66C66.4946 115.517 66.1985 115.305 65.913 115.022C65.6294 114.744 65.3806 114.382 65.1667 113.936ZM77.3229 125.227L76.0665 125.83L73.7258 120.949L74.9822 120.347L77.3229 125.227ZM79.0086 118.897L69.8161 123.306L69.056 121.721L78.2486 117.313L79.0086 118.897ZM81.7459 124.605L72.5534 129.014L71.7964 127.435L80.9889 123.026L81.7459 124.605ZM76.7361 134.221L79.9939 132.659C80.238 132.541 80.4273 132.396 80.5617 132.223C80.696 132.05 80.7682 131.85 80.7782 131.622C80.7903 131.399 80.7317 131.153 80.6025 130.883C80.4834 130.635 80.3383 130.441 80.1674 130.3C79.9964 130.159 79.8151 130.073 79.6236 130.04C79.432 130.008 79.2457 130.035 79.0647 130.122L78.338 128.607C78.6074 128.478 78.8996 128.418 79.2148 128.427C79.5299 128.436 79.8459 128.518 80.1628 128.671C80.4798 128.825 80.7778 129.047 81.057 129.337C81.3362 129.628 81.5787 129.988 81.7846 130.417C82.0309 130.931 82.1626 131.427 82.1798 131.905C82.199 132.388 82.0884 132.827 81.8481 133.221C81.614 133.618 81.236 133.942 80.714 134.192L77.6772 135.649C77.3658 135.798 77.096 135.954 76.8678 136.115C76.6459 136.278 76.4646 136.445 76.324 136.616L76.223 136.665L75.4751 135.105C75.6049 134.955 75.786 134.798 76.0184 134.635C76.2569 134.474 76.4962 134.336 76.7361 134.221ZM79.6264 133.107L78.6917 133.57L78.1679 132.478C78.0326 132.196 77.8861 131.961 77.7285 131.773C77.575 131.582 77.4135 131.44 77.2438 131.345C77.0742 131.25 76.9006 131.201 76.7232 131.199C76.5458 131.196 76.3666 131.238 76.1856 131.324C76.0046 131.411 75.8585 131.533 75.7474 131.69C75.6404 131.845 75.5832 132.022 75.5757 132.223C75.5703 132.427 75.6231 132.645 75.7341 132.877C75.8835 133.188 76.0768 133.429 76.3141 133.6C76.5576 133.773 76.8043 133.883 77.0541 133.929C77.3081 133.973 77.5213 133.958 77.6937 133.886L77.2543 134.702C77.0575 134.735 76.831 134.737 76.5746 134.71C76.3182 134.683 76.0521 134.614 75.7763 134.503C75.5066 134.394 75.2494 134.23 75.0045 134.011C74.7617 133.796 74.5555 133.512 74.3859 133.158C74.1719 132.712 74.0695 132.272 74.0788 131.838C74.0922 131.402 74.203 131.012 74.4112 130.669C74.6236 130.324 74.9234 130.058 75.3106 129.872C75.6726 129.699 76.0248 129.613 76.3672 129.614C76.7158 129.618 77.0484 129.707 77.365 129.881C77.6836 130.06 77.9841 130.319 78.2667 130.66C78.5534 130.999 78.8159 131.417 79.0541 131.913L79.6264 133.107ZM87.4736 135.252L77.776 139.903L77.0432 138.375L86.7408 133.724L87.4736 135.252ZM86.3208 140.199L79.4895 143.476L78.7567 141.948L85.588 138.671L86.3208 140.199ZM87.3326 137.711C87.5641 137.599 87.7919 137.583 88.0161 137.662C88.2466 137.743 88.4274 137.921 88.5586 138.194C88.6878 138.464 88.7119 138.713 88.6308 138.944C88.554 139.172 88.3998 139.342 88.1683 139.453C87.941 139.562 87.7143 139.575 87.4881 139.492C87.2619 139.409 87.0841 139.233 86.955 138.963C86.8237 138.69 86.7965 138.439 86.8734 138.21C86.9522 137.986 87.1053 137.82 87.3326 137.711ZM86.5938 144.331L81.1516 146.941L80.4218 145.42L87.2531 142.143L87.9404 143.576L86.5938 144.331ZM84.7016 144.936L84.4596 144.415C84.9311 144.189 85.395 144.039 85.8513 143.965C86.3077 143.891 86.7377 143.897 87.1414 143.983C87.5492 144.067 87.9139 144.239 88.2353 144.499C88.563 144.761 88.8338 145.115 89.0478 145.561C89.1971 145.873 89.2871 146.179 89.3176 146.48C89.3544 146.784 89.3214 147.077 89.2186 147.359C89.1179 147.645 88.9402 147.912 88.6856 148.158C88.433 148.409 88.0921 148.637 87.6627 148.843L83.1107 151.026L82.3809 149.504L86.8004 147.385C87.1329 147.225 87.3697 147.05 87.5106 146.858C87.6536 146.67 87.7207 146.465 87.7118 146.241C87.7092 146.02 87.6473 145.783 87.5262 145.53C87.3889 145.244 87.2171 145.026 87.0108 144.876C86.8065 144.731 86.5793 144.641 86.3294 144.605C86.0794 144.57 85.8161 144.582 85.5395 144.642C85.2629 144.703 84.9836 144.8 84.7016 144.936ZM87.1375 148.978L86.6375 148.34C87.05 148.143 87.4666 148.013 87.8872 147.951C88.3142 147.891 88.72 147.906 89.1048 147.996C89.4958 148.088 89.851 148.262 90.1704 148.518C90.4899 148.773 90.7525 149.116 90.9584 149.545C91.126 149.895 91.227 150.229 91.2614 150.549C91.302 150.872 91.2677 151.178 91.1586 151.468C91.0494 151.759 90.857 152.032 90.5813 152.289C90.3099 152.543 89.9469 152.779 89.4923 152.998L85.0728 155.117L84.34 153.589L88.7658 151.467C89.111 151.301 89.354 151.122 89.495 150.931C89.638 150.743 89.7018 150.541 89.6866 150.326C89.6755 150.109 89.6095 149.874 89.4883 149.621C89.3753 149.386 89.2312 149.198 89.056 149.06C88.887 148.923 88.6954 148.832 88.4811 148.784C88.2711 148.735 88.052 148.726 87.8239 148.758C87.5978 148.794 87.369 148.867 87.1375 148.978ZM89.1738 160.154L92.4316 158.592C92.6757 158.475 92.8649 158.329 92.9993 158.156C93.1337 157.983 93.2059 157.783 93.2159 157.555C93.2279 157.332 93.1694 157.086 93.0402 156.817C92.9211 156.568 92.776 156.374 92.605 156.233C92.4341 156.092 92.2528 156.006 92.0612 155.974C91.8697 155.941 91.6834 155.968 91.5024 156.055L90.7757 154.54C91.0451 154.411 91.3373 154.351 91.6524 154.36C91.9676 154.37 92.2836 154.451 92.6005 154.604C92.9174 154.758 93.2155 154.98 93.4947 155.271C93.7738 155.561 94.0164 155.921 94.2223 156.351C94.4686 156.864 94.6003 157.36 94.6175 157.838C94.6367 158.321 94.5261 158.76 94.2858 159.155C94.0517 159.552 93.6736 159.875 93.1517 160.126L90.1149 161.582C89.8034 161.731 89.5336 161.887 89.3055 162.048C89.0836 162.211 88.9023 162.379 88.7617 162.549L88.6607 162.598L87.9128 161.038C88.0426 160.888 88.2237 160.731 88.456 160.568C88.6946 160.407 88.9339 160.269 89.1738 160.154ZM92.064 159.04L91.1294 159.504L90.6055 158.411C90.4703 158.129 90.3238 157.894 90.1661 157.706C90.0127 157.515 89.8511 157.373 89.6815 157.278C89.5118 157.183 89.3383 157.135 89.1609 157.132C88.9834 157.129 88.8042 157.171 88.6232 157.257C88.4423 157.344 88.2962 157.466 88.185 157.623C88.0781 157.778 88.0209 157.955 88.0134 158.156C88.008 158.36 88.0608 158.578 88.1718 158.81C88.3212 159.121 88.5145 159.362 88.7518 159.533C88.9953 159.706 89.242 159.816 89.4918 159.862C89.7458 159.906 89.959 159.891 90.1314 159.819L89.692 160.636C89.4952 160.668 89.2686 160.67 89.0123 160.643C88.7559 160.616 88.4898 160.547 88.2139 160.436C87.9443 160.327 87.687 160.163 87.4422 159.944C87.1993 159.729 86.9931 159.445 86.8236 159.091C86.6096 158.645 86.5072 158.205 86.5164 157.771C86.5299 157.335 86.6407 156.945 86.8489 156.602C87.0612 156.257 87.3611 155.991 87.7483 155.806C88.1103 155.632 88.4624 155.546 88.8048 155.547C89.1535 155.551 89.4861 155.64 89.8026 155.814C90.1212 155.993 90.4218 156.253 90.7043 156.593C90.9911 156.932 91.2535 157.35 91.4917 157.846L92.064 159.04ZM97.7656 164.062L96.6544 164.595L94.8073 160.744L95.9185 160.211L97.7656 164.062ZM98.1245 160.52L98.8543 162.041L92.2377 165.215C92.0272 165.316 91.8793 165.423 91.794 165.536C91.7148 165.652 91.6825 165.774 91.6971 165.901C91.7117 166.029 91.7544 166.166 91.825 166.314C91.8755 166.419 91.9302 166.517 91.9893 166.608C92.0484 166.698 92.0983 166.77 92.1392 166.823L90.9806 167.386C90.8821 167.278 90.7778 167.147 90.6676 166.993C90.5594 166.843 90.4538 166.661 90.3509 166.446C90.1833 166.097 90.096 165.758 90.0888 165.43C90.0859 165.1 90.1891 164.792 90.3984 164.505C90.6078 164.218 90.946 163.963 91.4132 163.739L98.1245 160.52ZM98.977 176.433L99.734 178.011C99.1079 178.249 98.4905 178.339 97.8818 178.278C97.2773 178.216 96.7163 177.991 96.1986 177.602C95.6809 177.214 95.2444 176.649 94.8891 175.908C94.6166 175.34 94.4724 174.78 94.4564 174.229C94.4446 173.675 94.5483 173.147 94.7675 172.643C94.9909 172.137 95.3284 171.67 95.7802 171.241C96.234 170.816 96.7913 170.445 97.4521 170.128L98.2161 169.762C98.8769 169.445 99.516 169.245 100.133 169.161C100.753 169.081 101.33 169.115 101.867 169.262C102.407 169.406 102.888 169.659 103.31 170.021C103.735 170.387 104.085 170.859 104.361 171.435C104.713 172.168 104.875 172.851 104.848 173.485C104.82 174.12 104.636 174.69 104.293 175.196C103.953 175.706 103.491 176.14 102.906 176.498L102.149 174.919C102.525 174.687 102.819 174.432 103.033 174.154C103.248 173.88 103.364 173.571 103.38 173.226C103.4 172.88 103.304 172.486 103.092 172.044C102.919 171.682 102.7 171.399 102.436 171.194C102.172 170.989 101.866 170.859 101.519 170.803C101.171 170.747 100.783 170.765 100.356 170.856C99.9347 170.949 99.48 171.113 98.9918 171.347L98.2152 171.719C97.7522 171.942 97.3505 172.183 97.01 172.445C96.6758 172.709 96.4144 172.99 96.2257 173.287C96.0391 173.589 95.9357 173.908 95.9156 174.244C95.8955 174.579 95.9742 174.932 96.1519 175.303C96.3679 175.753 96.614 176.083 96.8904 176.292C97.1687 176.506 97.479 176.618 97.8212 176.63C98.1697 176.644 98.5549 176.578 98.977 176.433ZM107.91 177.863L98.2127 182.514L97.4859 180.999L107.184 176.348L107.91 177.863ZM101.754 180.49L101.524 179.994C101.997 179.772 102.464 179.629 102.925 179.563C103.387 179.502 103.821 179.516 104.227 179.607C104.639 179.699 105.003 179.871 105.321 180.123C105.642 180.372 105.899 180.697 106.091 181.097C106.252 181.433 106.351 181.759 106.388 182.072C106.426 182.39 106.39 182.698 106.279 182.995C106.172 183.289 105.978 183.566 105.698 183.824C105.425 184.085 105.054 184.327 104.587 184.551L100.199 186.656L99.4662 185.128L103.867 183.018C104.195 182.86 104.433 182.687 104.58 182.497C104.729 182.311 104.803 182.108 104.8 181.887C104.801 181.663 104.74 181.421 104.615 181.16C104.483 180.887 104.313 180.671 104.102 180.513C103.894 180.359 103.662 180.258 103.406 180.21C103.15 180.162 102.88 180.162 102.598 180.209C102.317 180.261 102.036 180.355 101.754 180.49ZM108.683 186.826L101.852 190.102L101.119 188.575L107.95 185.298L108.683 186.826ZM109.695 184.337C109.927 184.226 110.154 184.21 110.379 184.289C110.609 184.37 110.79 184.547 110.921 184.821C111.05 185.09 111.074 185.34 110.993 185.571C110.916 185.799 110.762 185.969 110.531 186.08C110.303 186.189 110.077 186.202 109.851 186.119C109.624 186.036 109.447 185.859 109.317 185.59C109.186 185.316 109.159 185.065 109.236 184.837C109.315 184.613 109.468 184.446 109.695 184.337ZM106.001 195.24L109.259 193.678C109.503 193.561 109.693 193.416 109.827 193.243C109.961 193.069 110.034 192.869 110.044 192.642C110.056 192.419 109.997 192.172 109.868 191.903C109.749 191.655 109.604 191.46 109.433 191.319C109.262 191.179 109.08 191.092 108.889 191.06C108.697 191.028 108.511 191.055 108.33 191.142L107.603 189.626C107.873 189.497 108.165 189.437 108.48 189.447C108.795 189.456 109.111 189.537 109.428 189.691C109.745 189.844 110.043 190.066 110.322 190.357C110.601 190.648 110.844 191.008 111.05 191.437C111.296 191.95 111.428 192.446 111.445 192.925C111.464 193.407 111.354 193.846 111.113 194.241C110.879 194.638 110.501 194.962 109.979 195.212L106.943 196.668C106.631 196.818 106.361 196.973 106.133 197.134C105.911 197.298 105.73 197.465 105.589 197.636L105.488 197.684L104.74 196.125C104.87 195.975 105.051 195.818 105.284 195.655C105.522 195.494 105.761 195.356 106.001 195.24ZM108.892 194.126L107.957 194.59L107.433 193.498C107.298 193.216 107.151 192.98 106.994 192.792C106.84 192.602 106.679 192.459 106.509 192.364C106.339 192.27 106.166 192.221 105.988 192.218C105.811 192.215 105.632 192.257 105.451 192.344C105.27 192.431 105.124 192.552 105.013 192.709C104.906 192.864 104.848 193.042 104.841 193.242C104.836 193.447 104.888 193.665 104.999 193.896C105.149 194.208 105.342 194.449 105.579 194.62C105.823 194.793 106.07 194.902 106.319 194.948C106.573 194.992 106.787 194.978 106.959 194.905L106.52 195.722C106.323 195.754 106.096 195.757 105.84 195.729C105.584 195.702 105.317 195.633 105.042 195.522C104.772 195.413 104.515 195.249 104.27 195.03C104.027 194.815 103.821 194.531 103.651 194.178C103.437 193.732 103.335 193.291 103.344 192.857C103.357 192.421 103.468 192.031 103.676 191.688C103.889 191.343 104.189 191.078 104.576 190.892C104.938 190.718 105.29 190.632 105.632 190.634C105.981 190.637 106.314 190.726 106.63 190.901C106.949 191.079 107.249 191.339 107.532 191.68C107.819 192.018 108.081 192.436 108.319 192.933L108.892 194.126ZM112.432 198.205L106.99 200.815L106.26 199.293L113.091 196.017L113.779 197.45L112.432 198.205ZM110.54 198.81L110.298 198.289C110.769 198.063 111.233 197.913 111.69 197.839C112.146 197.765 112.576 197.771 112.98 197.857C113.387 197.941 113.752 198.113 114.074 198.373C114.401 198.635 114.672 198.989 114.886 199.435C115.035 199.747 115.125 200.053 115.156 200.354C115.193 200.658 115.16 200.95 115.057 201.233C114.956 201.519 114.778 201.786 114.524 202.032C114.271 202.283 113.93 202.511 113.501 202.717L108.949 204.9L108.219 203.378L112.639 201.259C112.971 201.099 113.208 200.924 113.349 200.732C113.492 200.544 113.559 200.339 113.55 200.115C113.547 199.894 113.486 199.657 113.364 199.404C113.227 199.118 113.055 198.9 112.849 198.75C112.645 198.605 112.418 198.515 112.168 198.479C111.918 198.444 111.654 198.456 111.378 198.516C111.101 198.577 110.822 198.674 110.54 198.81ZM112.976 202.852L112.476 202.214C112.888 202.017 113.305 201.887 113.726 201.825C114.152 201.765 114.558 201.78 114.943 201.87C115.334 201.962 115.689 202.136 116.009 202.392C116.328 202.647 116.591 202.99 116.797 203.419C116.964 203.769 117.065 204.103 117.1 204.423C117.14 204.745 117.106 205.052 116.997 205.342C116.888 205.633 116.695 205.906 116.42 206.163C116.148 206.417 115.785 206.653 115.331 206.871L110.911 208.991L110.178 207.463L114.604 205.341C114.949 205.175 115.192 204.996 115.333 204.804C115.476 204.617 115.54 204.415 115.525 204.2C115.514 203.983 115.448 203.748 115.327 203.495C115.214 203.26 115.069 203.072 114.894 202.934C114.725 202.797 114.534 202.706 114.319 202.658C114.109 202.609 113.89 202.6 113.662 202.632C113.436 202.668 113.207 202.741 112.976 202.852ZM115.012 214.028L118.27 212.466C118.514 212.349 118.703 212.203 118.838 212.03C118.972 211.857 119.044 211.657 119.054 211.429C119.066 211.206 119.008 210.96 118.878 210.69C118.759 210.442 118.614 210.248 118.443 210.107C118.272 209.966 118.091 209.88 117.899 209.848C117.708 209.815 117.522 209.842 117.341 209.929L116.614 208.414C116.883 208.285 117.176 208.225 117.491 208.234C117.806 208.244 118.122 208.325 118.439 208.478C118.756 208.632 119.054 208.854 119.333 209.145C119.612 209.435 119.855 209.795 120.061 210.225C120.307 210.738 120.439 211.234 120.456 211.712C120.475 212.195 120.364 212.634 120.124 213.029C119.89 213.426 119.512 213.749 118.99 214L115.953 215.456C115.642 215.605 115.372 215.761 115.144 215.922C114.922 216.085 114.741 216.252 114.6 216.423L114.499 216.472L113.751 214.912C113.881 214.762 114.062 214.605 114.294 214.442C114.533 214.281 114.772 214.143 115.012 214.028ZM117.902 212.914L116.968 213.378L116.444 212.285C116.309 212.003 116.162 211.768 116.004 211.58C115.851 211.389 115.689 211.247 115.52 211.152C115.35 211.057 115.177 211.009 114.999 211.006C114.822 211.003 114.642 211.045 114.461 211.131C114.281 211.218 114.134 211.34 114.023 211.497C113.916 211.652 113.859 211.829 113.852 212.03C113.846 212.234 113.899 212.452 114.01 212.684C114.159 212.995 114.353 213.236 114.59 213.407C114.834 213.58 115.08 213.69 115.33 213.736C115.584 213.78 115.797 213.765 115.97 213.693L115.53 214.51C115.333 214.542 115.107 214.544 114.851 214.517C114.594 214.49 114.328 214.421 114.052 214.31C113.783 214.201 113.525 214.037 113.28 213.818C113.038 213.603 112.831 213.319 112.662 212.965C112.448 212.519 112.345 212.079 112.355 211.645C112.368 211.209 112.479 210.819 112.687 210.476C112.9 210.131 113.199 209.865 113.587 209.68C113.949 209.506 114.301 209.42 114.643 209.421C114.992 209.425 115.324 209.514 115.641 209.688C115.959 209.867 116.26 210.126 116.543 210.467C116.829 210.806 117.092 211.224 117.33 211.72L117.902 212.914ZM125.704 214.964L116.007 219.615L115.274 218.087L124.971 213.436L125.704 214.964ZM124.873 220.582L120.151 219.189L117.703 218.359L118.8 217.344L120.912 217.845L123.991 218.744L124.873 220.582ZM117.318 222.349L119.462 218.595L120.989 219.043L118.162 224.111L117.318 222.349ZM121.855 228.295L125.112 226.733C125.357 226.616 125.546 226.471 125.68 226.297C125.815 226.124 125.887 225.924 125.897 225.697C125.909 225.473 125.85 225.227 125.721 224.958C125.602 224.709 125.457 224.515 125.286 224.374C125.115 224.234 124.934 224.147 124.742 224.115C124.551 224.082 124.364 224.11 124.183 224.196L123.457 222.681C123.726 222.552 124.018 222.492 124.333 222.501C124.648 222.511 124.964 222.592 125.281 222.746C125.598 222.899 125.896 223.121 126.176 223.412C126.455 223.702 126.697 224.062 126.903 224.492C127.149 225.005 127.281 225.501 127.298 225.98C127.318 226.462 127.207 226.901 126.967 227.296C126.733 227.693 126.354 228.016 125.833 228.267L122.796 229.723C122.484 229.873 122.214 230.028 121.986 230.189C121.764 230.352 121.583 230.52 121.443 230.691L121.342 230.739L120.594 229.18C120.723 229.029 120.905 228.873 121.137 228.709C121.375 228.548 121.615 228.41 121.855 228.295ZM124.745 227.181L123.81 227.645L123.286 226.552C123.151 226.27 123.005 226.035 122.847 225.847C122.694 225.656 122.532 225.514 122.362 225.419C122.193 225.325 122.019 225.276 121.842 225.273C121.664 225.27 121.485 225.312 121.304 225.399C121.123 225.485 120.977 225.607 120.866 225.764C120.759 225.919 120.702 226.097 120.694 226.297C120.689 226.501 120.742 226.719 120.853 226.951C121.002 227.262 121.195 227.504 121.433 227.674C121.676 227.848 121.923 227.957 122.173 228.003C122.427 228.047 122.64 228.033 122.812 227.96L122.373 228.777C122.176 228.809 121.95 228.811 121.693 228.784C121.437 228.757 121.171 228.688 120.895 228.577C120.625 228.468 120.368 228.304 120.123 228.085C119.88 227.87 119.674 227.586 119.504 227.232C119.29 226.786 119.188 226.346 119.197 225.912C119.211 225.476 119.322 225.086 119.53 224.743C119.742 224.398 120.042 224.132 120.429 223.947C120.791 223.773 121.143 223.687 121.486 223.688C121.834 223.692 122.167 223.781 122.484 223.955C122.802 224.134 123.103 224.394 123.385 224.734C123.672 225.073 123.934 225.491 124.173 225.988L124.745 227.181Z" fill="white"/>
</g>
</g>
<g opacity="0.5" filter="url(#filter1_f_379_3174)">
<path d="M401.478 431.46C401.478 434.28 328.608 436.564 238.739 436.564C148.87 436.564 76 434.28 76 431.46C76 428.64 148.861 426.37 238.739 426.37C328.618 426.37 401.478 428.654 401.478 431.46Z" fill="url(#paint0_radial_379_3174)"/>
</g>
<defs>
<filter id="filter0_d_379_3174" x="0" y="-8.34465e-07" width="346.637" height="420.823" filterUnits="userSpaceOnUse" color-interpolation-filters="sRGB">
<feFlood flood-opacity="0" result="BackgroundImageFix"/>
<feColorMatrix in="SourceAlpha" type="matrix" values="0 0 0 0 0 0 0 0 0 0 0 0 0 0 0 0 0 0 127 0" result="hardAlpha"/>
<feMorphology radius="1.02262" operator="dilate" in="SourceAlpha" result="effect1_dropShadow_379_3174"/>
<feOffset dx="13.294" dy="9.20356"/>
<feGaussianBlur stdDeviation="4.09047"/>
<feColorMatrix type="matrix" values="0 0 0 0 0.266667 0 0 0 0 0.266667 0 0 0 0 0.266667 0 0 0 0.33 0"/>
<feBlend mode="normal" in2="BackgroundImageFix" result="effect1_dropShadow_379_3174"/>
<feBlend mode="normal" in="SourceGraphic" in2="effect1_dropShadow_379_3174" result="shape"/>
</filter>
<filter id="filter1_f_379_3174" x="57" y="407.37" width="363.479" height="48.1938" filterUnits="userSpaceOnUse" color-interpolation-filters="sRGB">
<feFlood flood-opacity="0" result="BackgroundImageFix"/>
<feBlend mode="normal" in="SourceGraphic" in2="BackgroundImageFix" result="shape"/>
<feGaussianBlur stdDeviation="9.5" result="effect1_foregroundBlur_379_3174"/>
</filter>
<radialGradient id="paint0_radial_379_3174" cx="0" cy="0" r="1" gradientUnits="userSpaceOnUse" gradientTransform="translate(238.617 445.047) scale(162.722 5.40738)">
<stop/>
<stop offset="0.14"/>
<stop offset="1"/>
</radialGradient>
<clipPath id="clip0_379_3174">
<rect x="477.803" y="84.0687" width="355.713" height="188.89" rx="13.0016" transform="rotate(116.428 477.803 84.0687)" fill="white"/>
</clipPath>
<clipPath id="clip1_379_3174">
<rect x="170.314" width="355.713" height="188.89" rx="13.0016" transform="rotate(64.3774 170.314 0)" fill="white"/>
</clipPath>
</defs>
</svg>
